<svg width="67" height="60" viewBox="0 0 67 60" fill="none" xmlns="http://www.w3.org/2000/svg">
<mask id="path-1-outside-1_161_2646" maskUnits="userSpaceOnUse" x="-5.37671" y="-3.40325" width="69.0363" height="55.2898" fill="black">
<rect fill="white" x="-5.37671" y="-3.40325" width="69.0363" height="55.2898"/>
<path d="M9.56832 12.4238L43.1349 45.6494C43.5124 46.023 44.1214 46.0207 44.4952 45.6442L51.6755 38.4118C52.0492 38.0354 52.0461 37.4272 51.6686 37.0536L18.0934 3.81962C17.928 3.65589 17.7088 3.55752 17.4764 3.54279L9.91609 3.06366C9.34326 3.02739 8.86691 3.49669 8.89576 4.06904L9.28437 11.7892C9.29643 12.0286 9.39775 12.2549 9.56832 12.4238Z"/>
</mask>
<path d="M9.56832 12.4238L43.1349 45.6494C43.5124 46.023 44.1214 46.0207 44.4952 45.6442L51.6755 38.4118C52.0492 38.0354 52.0461 37.4272 51.6686 37.0536L18.0934 3.81962C17.928 3.65589 17.7088 3.55752 17.4764 3.54279L9.91609 3.06366C9.34326 3.02739 8.86691 3.49669 8.89576 4.06904L9.28437 11.7892C9.29643 12.0286 9.39775 12.2549 9.56832 12.4238Z" fill="url(#paint0_linear_161_2646)"/>
<path d="M9.56832 12.4238L43.1349 45.6494C43.5124 46.023 44.1214 46.0207 44.4952 45.6442L51.6755 38.4118C52.0492 38.0354 52.0461 37.4272 51.6686 37.0536L18.0934 3.81962C17.928 3.65589 17.7088 3.55752 17.4764 3.54279L9.91609 3.06366C9.34326 3.02739 8.86691 3.49669 8.89576 4.06904L9.28437 11.7892C9.29643 12.0286 9.39775 12.2549 9.56832 12.4238Z" stroke="#D6AE60" stroke-width="6" mask="url(#path-1-outside-1_161_2646)"/>
<mask id="path-2-outside-2_161_2646" maskUnits="userSpaceOnUse" x="33.3595" y="24.1471" width="40.6728" height="40.0751" fill="black">
<rect fill="white" x="33.3595" y="24.1471" width="40.6728" height="40.0751"/>
<path fill-rule="evenodd" clip-rule="evenodd" d="M39.5222 48.53C38.8164 49.2411 38.8221 50.3896 39.5351 51.0954L40.902 52.4484C41.6151 53.1542 42.7653 53.1498 43.4712 52.4389L49.0351 46.8346L58.6796 56.3811C59.3925 57.0869 60.5429 57.0826 61.2487 56.3715L62.6021 55.0083C63.308 54.2973 63.3022 53.1487 62.5892 52.443L52.9447 42.8965L58.5086 37.2922C59.2144 36.5812 59.2088 35.4326 58.4957 34.7269L57.1288 33.3739C56.4157 32.6681 55.2655 32.6724 54.5596 33.3834L39.5222 48.53Z"/>
</mask>
<path fill-rule="evenodd" clip-rule="evenodd" d="M39.5222 48.53C38.8164 49.2411 38.8221 50.3896 39.5351 51.0954L40.902 52.4484C41.6151 53.1542 42.7653 53.1498 43.4712 52.4389L49.0351 46.8346L58.6796 56.3811C59.3925 57.0869 60.5429 57.0826 61.2487 56.3715L62.6021 55.0083C63.308 54.2973 63.3022 53.1487 62.5892 52.443L52.9447 42.8965L58.5086 37.2922C59.2144 36.5812 59.2088 35.4326 58.4957 34.7269L57.1288 33.3739C56.4157 32.6681 55.2655 32.6724 54.5596 33.3834L39.5222 48.53Z" fill="url(#paint1_linear_161_2646)"/>
<path fill-rule="evenodd" clip-rule="evenodd" d="M39.5222 48.53C38.8164 49.2411 38.8221 50.3896 39.5351 51.0954L40.902 52.4484C41.6151 53.1542 42.7653 53.1498 43.4712 52.4389L49.0351 46.8346L58.6796 56.3811C59.3925 57.0869 60.5429 57.0826 61.2487 56.3715L62.6021 55.0083C63.308 54.2973 63.3022 53.1487 62.5892 52.443L52.9447 42.8965L58.5086 37.2922C59.2144 36.5812 59.2088 35.4326 58.4957 34.7269L57.1288 33.3739C56.4157 32.6681 55.2655 32.6724 54.5596 33.3834L39.5222 48.53Z" stroke="#D6AE60" stroke-width="6" mask="url(#path-2-outside-2_161_2646)"/>
<mask id="path-3-outside-3_161_2646" maskUnits="userSpaceOnUse" x="8.09903" y="-11.5093" width="55.6693" height="69.158" fill="black">
<rect fill="white" x="8.09903" y="-11.5093" width="55.6693" height="69.158"/>
<path d="M47.9219 3.60049L14.4047 36.8758C14.0278 37.25 14.0248 37.8591 14.3979 38.2361L21.5674 45.4792C21.9406 45.8562 22.5487 45.8585 22.9257 45.4843L56.4514 12.2004C56.6165 12.0364 56.7168 11.818 56.7336 11.5858L57.2786 4.02993C57.3199 3.45743 56.8548 2.97701 56.2822 3.00087L48.559 3.32209C48.3195 3.33206 48.0922 3.4314 47.9219 3.60049Z"/>
</mask>
<path d="M47.9219 3.60049L14.4047 36.8758C14.0278 37.25 14.0248 37.8591 14.3979 38.2361L21.5674 45.4792C21.9406 45.8562 22.5487 45.8585 22.9257 45.4843L56.4514 12.2004C56.6165 12.0364 56.7168 11.818 56.7336 11.5858L57.2786 4.02993C57.3199 3.45743 56.8548 2.97701 56.2822 3.00087L48.559 3.32209C48.3195 3.33206 48.0922 3.4314 47.9219 3.60049Z" fill="url(#paint2_linear_161_2646)"/>
<path d="M47.9219 3.60049L14.4047 36.8758C14.0278 37.25 14.0248 37.8591 14.3979 38.2361L21.5674 45.4792C21.9406 45.8562 22.5487 45.8585 22.9257 45.4843L56.4514 12.2004C56.6165 12.0364 56.7168 11.818 56.7336 11.5858L57.2786 4.02993C57.3199 3.45743 56.8548 2.97701 56.2822 3.00087L48.559 3.32209C48.3195 3.33206 48.0922 3.4314 47.9219 3.60049Z" stroke="#D6AE60" stroke-width="6" mask="url(#path-3-outside-3_161_2646)"/>
<mask id="path-4-outside-4_161_2646" maskUnits="userSpaceOnUse" x="-4.34449" y="27.0342" width="40.2435" height="40.8299" fill="black">
<rect fill="white" x="-4.34449" y="27.0342" width="40.2435" height="40.8299"/>
<path fill-rule="evenodd" clip-rule="evenodd" d="M11.5557 33.2381C10.8509 32.5261 9.70242 32.5218 8.99042 33.2286L7.6255 34.5837C6.91351 35.2905 6.90782 36.4407 7.61263 37.1528L13.1681 42.7654L3.53779 52.3262C2.82583 53.033 2.82011 54.1833 3.52495 54.8953L4.87632 56.2605C5.58113 56.9727 6.72974 56.9769 7.4416 56.2701L17.0719 46.7093L22.6274 52.3218C23.3323 53.0338 24.4809 53.0382 25.1928 52.3313L26.5577 50.9763C27.2697 50.2694 27.2754 49.1192 26.5706 48.4071L11.5557 33.2381Z"/>
</mask>
<path fill-rule="evenodd" clip-rule="evenodd" d="M11.5557 33.2381C10.8509 32.5261 9.70242 32.5218 8.99042 33.2286L7.6255 34.5837C6.91351 35.2905 6.90782 36.4407 7.61263 37.1528L13.1681 42.7654L3.53779 52.3262C2.82583 53.033 2.82011 54.1833 3.52495 54.8953L4.87632 56.2605C5.58113 56.9727 6.72974 56.9769 7.4416 56.2701L17.0719 46.7093L22.6274 52.3218C23.3323 53.0338 24.4809 53.0382 25.1928 52.3313L26.5577 50.9763C27.2697 50.2694 27.2754 49.1192 26.5706 48.4071L11.5557 33.2381Z" fill="url(#paint3_linear_161_2646)"/>
<path fill-rule="evenodd" clip-rule="evenodd" d="M11.5557 33.2381C10.8509 32.5261 9.70242 32.5218 8.99042 33.2286L7.6255 34.5837C6.91351 35.2905 6.90782 36.4407 7.61263 37.1528L13.1681 42.7654L3.53779 52.3262C2.82583 53.033 2.82011 54.1833 3.52495 54.8953L4.87632 56.2605C5.58113 56.9727 6.72974 56.9769 7.4416 56.2701L17.0719 46.7093L22.6274 52.3218C23.3323 53.0338 24.4809 53.0382 25.1928 52.3313L26.5577 50.9763C27.2697 50.2694 27.2754 49.1192 26.5706 48.4071L11.5557 33.2381Z" stroke="#D6AE60" stroke-width="6" mask="url(#path-4-outside-4_161_2646)"/>
<defs>
<linearGradient id="paint0_linear_161_2646" x1="34.4945" y1="9.69526" x2="27.0489" y2="30.1519" gradientUnits="userSpaceOnUse">
<stop stop-color="#FF4545"/>
<stop offset="1" stop-color="#D9D9D9"/>
</linearGradient>
<linearGradient id="paint1_linear_161_2646" x1="54.1012" y1="36.3451" x2="52.9212" y2="52.6657" gradientUnits="userSpaceOnUse">
<stop stop-color="#565656"/>
<stop offset="1" stop-color="#2E2E2E"/>
</linearGradient>
<linearGradient id="paint2_linear_161_2646" x1="50.4328" y1="28.5495" x2="30.0419" y2="20.9257" gradientUnits="userSpaceOnUse">
<stop stop-color="#FF4545"/>
<stop offset="1" stop-color="#D9D9D9"/>
</linearGradient>
<linearGradient id="paint3_linear_161_2646" x1="23.613" y1="47.9229" x2="7.30333" y2="46.6005" gradientUnits="userSpaceOnUse">
<stop stop-color="#565656"/>
<stop offset="1" stop-color="#2E2E2E"/>
</linearGradient>
</defs>
</svg>
