<svg width="71" height="61" viewBox="0 0 71 61" fill="none" xmlns="http://www.w3.org/2000/svg">
<mask id="path-1-outside-1_161_2651" maskUnits="userSpaceOnUse" x="-4.82327" y="-3.82326" width="78.9606" height="69.3546" fill="black">
<rect fill="white" x="-4.82327" y="-3.82326" width="78.9606" height="69.3546"/>
<path d="M7.90565 26.7624C9.75508 38.0414 20.8671 56.9326 44.7983 55.8184C53.8023 55.3991 61.6466 48.9376 63.7523 42.3635C65.8582 35.7888 60.8554 20.1482 42.9897 19.1332C40.2272 18.9763 36.6296 14.1894 33.0869 10.4265C24.8656 1.69406 18.8113 3.03576 14.2122 5.5424C9.61311 8.04896 5.65669 13.0472 7.90565 26.7624Z"/>
</mask>
<path d="M7.90565 26.7624C9.75508 38.0414 20.8671 56.9326 44.7983 55.8184C53.8023 55.3991 61.6466 48.9376 63.7523 42.3635C65.8582 35.7888 60.8554 20.1482 42.9897 19.1332C40.2272 18.9763 36.6296 14.1894 33.0869 10.4265C24.8656 1.69406 18.8113 3.03576 14.2122 5.5424C9.61311 8.04896 5.65669 13.0472 7.90565 26.7624Z" fill="url(#paint0_linear_161_2651)"/>
<path d="M7.90565 26.7624C9.75508 38.0414 20.8671 56.9326 44.7983 55.8184C53.8023 55.3991 61.6466 48.9376 63.7523 42.3635C65.8582 35.7888 60.8554 20.1482 42.9897 19.1332C40.2272 18.9763 36.6296 14.1894 33.0869 10.4265C24.8656 1.69406 18.8113 3.03576 14.2122 5.5424C9.61311 8.04896 5.65669 13.0472 7.90565 26.7624Z" stroke="#D6AE60" stroke-width="6" mask="url(#path-1-outside-1_161_2651)"/>
<circle cx="28.5" cy="29.5" r="2.5" fill="#725D35"/>
<circle cx="44.5" cy="29.5" r="2.5" fill="#725D35"/>
<path d="M31 40C34.0556 44 39.25 44 42 40" stroke="#725D35" stroke-width="3" stroke-linecap="round"/>
<defs>
<linearGradient id="paint0_linear_161_2651" x1="15.5" y1="7.5" x2="52" y2="55.5" gradientUnits="userSpaceOnUse">
<stop stop-color="#FFF2D9"/>
<stop offset="0.432292" stop-color="#FDDC9B"/>
<stop offset="1" stop-color="#725D35"/>
</linearGradient>
</defs>
</svg>
