<svg width="390" height="598" viewBox="0 0 390 598" fill="none" xmlns="http://www.w3.org/2000/svg">
<rect width="390" height="598" fill="#FDDC9B"/>
<path d="M194.5 21.0127C245.578 21.0127 255.952 12 298.726 12C326.336 12 336.111 23.1911 335.999 30.7187V81.3286C323.575 91.0346 306.089 92.0666 288.373 81.3286V73.0092C264.904 75.0891 235.914 81.3286 194.5 81.3286C153.086 81.3286 124.096 75.0891 100.628 73.0092V81.3286C82.9112 92.0666 65.4253 91.0346 53.001 81.3286V30.7187C52.8892 23.1911 62.6644 12 90.274 12C133.048 12 143.422 21.0127 194.5 21.0127Z" fill="url(#paint0_linear_399_3874)"/>
<path d="M335.999 30.7187C336.111 23.1911 326.336 12 298.726 12C255.952 12 245.578 21.0127 194.5 21.0127C143.422 21.0127 133.048 12 90.274 12C62.6644 12 52.8892 23.1911 53.001 30.7187M335.999 30.7187C335.887 38.2464 327.716 48.7442 315.982 48.7442M335.999 30.7187V81.3286C323.575 91.0346 306.089 92.0666 288.373 81.3286V73.0092M315.982 48.7442C304.248 48.7442 288.373 47.5612 288.373 35.5717M315.982 48.7442C315.982 41.7048 322.885 35.5717 315.982 30.7187C307.015 24.4139 288.373 26.559 288.373 35.5717M288.373 35.5717V73.0092M288.373 73.0092C264.904 75.0891 235.914 81.3286 194.5 81.3286C153.086 81.3286 124.096 75.0891 100.628 73.0092M53.001 30.7187C53.1129 38.2464 61.2839 48.7442 73.018 48.7442M53.001 30.7187V81.3286C65.4253 91.0346 82.9112 92.0666 100.628 81.3286V73.0092M73.018 48.7442C84.752 48.7442 100.628 47.5612 100.628 35.5717M73.018 48.7442C73.018 41.7048 66.1156 35.5717 73.018 30.7187C81.9853 24.4139 100.628 26.559 100.628 35.5717M100.628 35.5717V73.0092" stroke="#9D8555" stroke-width="3"/>
<path d="M150.829 42.18C150.322 42.18 149.936 42.04 149.669 41.76C149.402 41.48 149.269 41.08 149.269 40.56V34.76L149.909 36.54L145.189 29.84C145.002 29.56 144.922 29.26 144.949 28.94C144.976 28.6067 145.109 28.32 145.349 28.08C145.589 27.84 145.929 27.72 146.369 27.72C146.689 27.72 146.976 27.8 147.229 27.96C147.496 28.12 147.749 28.3733 147.989 28.72L151.189 33.34H150.549L153.749 28.72C154.002 28.36 154.249 28.1067 154.489 27.96C154.742 27.8 155.036 27.72 155.369 27.72C155.796 27.72 156.129 27.8333 156.369 28.06C156.609 28.2733 156.736 28.5467 156.749 28.88C156.762 29.2 156.649 29.5333 156.409 29.88L151.749 36.54L152.369 34.76V40.56C152.369 41.64 151.856 42.18 150.829 42.18ZM160.907 42.22C159.854 42.22 158.934 42.0133 158.147 41.6C157.374 41.1867 156.774 40.5933 156.347 39.82C155.92 39.0467 155.707 38.1333 155.707 37.08C155.707 36.2933 155.827 35.5867 156.067 34.96C156.307 34.3333 156.654 33.8 157.107 33.36C157.574 32.9067 158.127 32.5667 158.767 32.34C159.407 32.1 160.12 31.98 160.907 31.98C161.96 31.98 162.874 32.1867 163.647 32.6C164.434 33.0133 165.04 33.6 165.467 34.36C165.907 35.12 166.127 36.0267 166.127 37.08C166.127 37.88 166 38.5933 165.747 39.22C165.507 39.8467 165.16 40.3867 164.707 40.84C164.254 41.2933 163.7 41.64 163.047 41.88C162.407 42.1067 161.694 42.22 160.907 42.22ZM160.907 39.96C161.347 39.96 161.727 39.8533 162.047 39.64C162.367 39.4267 162.62 39.1133 162.807 38.7C162.994 38.2733 163.087 37.7333 163.087 37.08C163.087 36.1067 162.887 35.3933 162.487 34.94C162.087 34.4733 161.56 34.24 160.907 34.24C160.48 34.24 160.1 34.34 159.767 34.54C159.447 34.74 159.194 35.0533 159.007 35.48C158.834 35.8933 158.747 36.4267 158.747 37.08C158.747 38.0533 158.947 38.78 159.347 39.26C159.747 39.7267 160.267 39.96 160.907 39.96ZM171.184 42.22C170.358 42.22 169.671 42.0667 169.124 41.76C168.578 41.4533 168.171 40.9933 167.904 40.38C167.651 39.7533 167.524 38.98 167.524 38.06V33.54C167.524 33.0333 167.651 32.6533 167.904 32.4C168.171 32.1467 168.544 32.02 169.024 32.02C169.504 32.02 169.878 32.1467 170.144 32.4C170.411 32.6533 170.544 33.0333 170.544 33.54V38.14C170.544 38.7267 170.664 39.1667 170.904 39.46C171.144 39.74 171.524 39.88 172.044 39.88C172.618 39.88 173.084 39.68 173.444 39.28C173.818 38.8667 174.004 38.3267 174.004 37.66V33.54C174.004 33.0333 174.131 32.6533 174.384 32.4C174.651 32.1467 175.024 32.02 175.504 32.02C175.998 32.02 176.371 32.1467 176.624 32.4C176.891 32.6533 177.024 33.0333 177.024 33.54V40.64C177.024 41.6667 176.538 42.18 175.564 42.18C175.084 42.18 174.718 42.0467 174.464 41.78C174.211 41.5133 174.084 41.1333 174.084 40.64V39.3L174.384 40.08C174.091 40.76 173.671 41.2867 173.124 41.66C172.578 42.0333 171.931 42.22 171.184 42.22ZM186.027 42C185.507 42 185.107 41.86 184.827 41.58C184.547 41.3 184.407 40.9 184.407 40.38V29.52C184.407 29 184.547 28.6 184.827 28.32C185.107 28.04 185.507 27.9 186.027 27.9H193.007C193.407 27.9 193.707 28.0067 193.907 28.22C194.12 28.42 194.227 28.7133 194.227 29.1C194.227 29.5 194.12 29.8067 193.907 30.02C193.707 30.22 193.407 30.32 193.007 30.32H187.367V33.62H192.547C192.96 33.62 193.267 33.7267 193.467 33.94C193.68 34.14 193.787 34.44 193.787 34.84C193.787 35.24 193.68 35.5467 193.467 35.76C193.267 35.96 192.96 36.06 192.547 36.06H187.367V39.58H193.007C193.407 39.58 193.707 39.6867 193.907 39.9C194.12 40.1 194.227 40.3933 194.227 40.78C194.227 41.18 194.12 41.4867 193.907 41.7C193.707 41.9 193.407 42 193.007 42H186.027ZM199.118 42.22C198.398 42.22 197.751 42.08 197.178 41.8C196.605 41.52 196.158 41.14 195.838 40.66C195.518 40.18 195.358 39.64 195.358 39.04C195.358 38.32 195.545 37.7533 195.918 37.34C196.291 36.9133 196.898 36.6133 197.738 36.44C198.578 36.2533 199.691 36.16 201.078 36.16H202.138V37.72H201.098C200.418 37.72 199.865 37.76 199.438 37.84C199.025 37.9067 198.725 38.0267 198.538 38.2C198.365 38.3733 198.278 38.6133 198.278 38.92C198.278 39.2933 198.405 39.6 198.658 39.84C198.925 40.08 199.305 40.2 199.798 40.2C200.185 40.2 200.525 40.1133 200.818 39.94C201.125 39.7533 201.365 39.5067 201.538 39.2C201.711 38.88 201.798 38.52 201.798 38.12V35.82C201.798 35.2333 201.665 34.82 201.398 34.58C201.131 34.3267 200.678 34.2 200.038 34.2C199.678 34.2 199.285 34.2467 198.858 34.34C198.445 34.42 197.985 34.56 197.478 34.76C197.185 34.8933 196.925 34.9267 196.698 34.86C196.471 34.78 196.298 34.6467 196.178 34.46C196.058 34.26 195.998 34.0467 195.998 33.82C195.998 33.58 196.065 33.3533 196.198 33.14C196.331 32.9133 196.551 32.7467 196.858 32.64C197.485 32.3867 198.071 32.2133 198.618 32.12C199.178 32.0267 199.691 31.98 200.158 31.98C201.185 31.98 202.025 32.1333 202.678 32.44C203.345 32.7333 203.845 33.1933 204.178 33.82C204.511 34.4333 204.678 35.2267 204.678 36.2V40.64C204.678 41.1333 204.558 41.5133 204.318 41.78C204.078 42.0467 203.731 42.18 203.278 42.18C202.825 42.18 202.471 42.0467 202.218 41.78C201.978 41.5133 201.858 41.1333 201.858 40.64V39.9L201.998 40.02C201.918 40.4733 201.745 40.8667 201.478 41.2C201.225 41.52 200.898 41.7733 200.498 41.96C200.098 42.1333 199.638 42.22 199.118 42.22ZM208.091 42.18C207.584 42.18 207.197 42.0467 206.931 41.78C206.664 41.5133 206.531 41.1333 206.531 40.64V33.54C206.531 33.0467 206.657 32.6733 206.911 32.42C207.177 32.1533 207.544 32.02 208.011 32.02C208.491 32.02 208.857 32.1533 209.111 32.42C209.364 32.6733 209.491 33.0467 209.491 33.54V34.58H209.291C209.451 33.78 209.804 33.16 210.351 32.72C210.897 32.28 211.604 32.0333 212.471 31.98C212.804 31.9533 213.057 32.04 213.231 32.24C213.417 32.4267 213.517 32.74 213.531 33.18C213.557 33.5933 213.471 33.92 213.271 34.16C213.084 34.4 212.764 34.5467 212.311 34.6L211.851 34.64C211.091 34.7067 210.524 34.9267 210.151 35.3C209.791 35.6733 209.611 36.2133 209.611 36.92V40.64C209.611 41.1333 209.477 41.5133 209.211 41.78C208.957 42.0467 208.584 42.18 208.091 42.18ZM215.893 42.18C215.4 42.18 215.02 42.0467 214.753 41.78C214.5 41.5133 214.373 41.1333 214.373 40.64V33.54C214.373 33.0467 214.5 32.6733 214.753 32.42C215.02 32.1533 215.386 32.02 215.853 32.02C216.333 32.02 216.7 32.1533 216.953 32.42C217.206 32.6733 217.333 33.0467 217.333 33.54V34.68L217.113 34.02C217.42 33.3667 217.873 32.8667 218.473 32.52C219.086 32.16 219.78 31.98 220.553 31.98C221.34 31.98 221.986 32.1333 222.493 32.44C223 32.7333 223.38 33.1867 223.633 33.8C223.886 34.4 224.013 35.1667 224.013 36.1V40.64C224.013 41.1333 223.88 41.5133 223.613 41.78C223.36 42.0467 222.986 42.18 222.493 42.18C222.013 42.18 221.64 42.0467 221.373 41.78C221.12 41.5133 220.993 41.1333 220.993 40.64V36.24C220.993 35.56 220.866 35.0733 220.613 34.78C220.373 34.4733 220 34.32 219.493 34.32C218.853 34.32 218.34 34.52 217.953 34.92C217.58 35.32 217.393 35.8533 217.393 36.52V40.64C217.393 41.6667 216.893 42.18 215.893 42.18ZM230.967 42.22C229.807 42.22 228.807 42.0133 227.967 41.6C227.141 41.1733 226.501 40.58 226.047 39.82C225.607 39.0467 225.387 38.14 225.387 37.1C225.387 36.0867 225.601 35.2 226.027 34.44C226.454 33.6667 227.047 33.0667 227.807 32.64C228.581 32.2 229.454 31.98 230.427 31.98C231.134 31.98 231.774 32.1 232.347 32.34C232.921 32.5667 233.414 32.9 233.827 33.34C234.241 33.7667 234.554 34.2933 234.767 34.92C234.981 35.5333 235.087 36.22 235.087 36.98C235.087 37.2333 235.007 37.4267 234.847 37.56C234.687 37.68 234.454 37.74 234.147 37.74H227.867V36.18H232.907L232.587 36.46C232.587 35.9133 232.507 35.46 232.347 35.1C232.187 34.7267 231.954 34.4467 231.647 34.26C231.354 34.0733 230.987 33.98 230.547 33.98C230.054 33.98 229.634 34.0933 229.287 34.32C228.941 34.5467 228.674 34.8733 228.487 35.3C228.301 35.7267 228.207 36.24 228.207 36.84V37C228.207 38.0133 228.441 38.76 228.907 39.24C229.387 39.72 230.094 39.96 231.027 39.96C231.347 39.96 231.714 39.92 232.127 39.84C232.541 39.76 232.927 39.6333 233.287 39.46C233.594 39.3133 233.867 39.2667 234.107 39.32C234.347 39.36 234.534 39.4667 234.667 39.64C234.801 39.8133 234.874 40.0133 234.887 40.24C234.914 40.4667 234.867 40.6933 234.747 40.92C234.627 41.1333 234.427 41.3133 234.147 41.46C233.694 41.7133 233.181 41.9 232.607 42.02C232.047 42.1533 231.501 42.22 230.967 42.22ZM240.264 42.22C239.411 42.22 238.657 42.0133 238.004 41.6C237.364 41.1867 236.864 40.5933 236.504 39.82C236.144 39.0467 235.964 38.1333 235.964 37.08C235.964 36.0267 236.144 35.12 236.504 34.36C236.864 33.6 237.364 33.0133 238.004 32.6C238.657 32.1867 239.411 31.98 240.264 31.98C241.037 31.98 241.717 32.1667 242.304 32.54C242.904 32.9133 243.311 33.4 243.524 34H243.304V29.26C243.304 28.7533 243.431 28.3733 243.684 28.12C243.937 27.8533 244.311 27.72 244.804 27.72C245.284 27.72 245.657 27.8533 245.924 28.12C246.191 28.3733 246.324 28.7533 246.324 29.26V40.64C246.324 41.1333 246.191 41.5133 245.924 41.78C245.671 42.0467 245.304 42.18 244.824 42.18C244.344 42.18 243.971 42.0467 243.704 41.78C243.451 41.5133 243.324 41.1333 243.324 40.64V39.28L243.544 40.06C243.357 40.7133 242.957 41.24 242.344 41.64C241.744 42.0267 241.051 42.22 240.264 42.22ZM241.164 39.96C241.604 39.96 241.984 39.8533 242.304 39.64C242.624 39.4267 242.877 39.1133 243.064 38.7C243.251 38.2733 243.344 37.7333 243.344 37.08C243.344 36.1067 243.144 35.3933 242.744 34.94C242.344 34.4733 241.817 34.24 241.164 34.24C240.737 34.24 240.357 34.34 240.024 34.54C239.704 34.74 239.451 35.0533 239.264 35.48C239.091 35.8933 239.004 36.4267 239.004 37.08C239.004 38.0533 239.204 38.78 239.604 39.26C240.004 39.7267 240.524 39.96 241.164 39.96ZM132.207 68.18C131.741 68.18 131.381 68.0533 131.127 67.8C130.887 67.5333 130.767 67.16 130.767 66.68V55.28C130.767 54.7733 130.887 54.3867 131.127 54.12C131.381 53.8533 131.714 53.72 132.127 53.72C132.487 53.72 132.761 53.7933 132.947 53.94C133.147 54.0733 133.374 54.3 133.627 54.62L140.647 63.56H140.107V55.2C140.107 54.7333 140.227 54.3733 140.467 54.12C140.721 53.8533 141.081 53.72 141.547 53.72C142.014 53.72 142.367 53.8533 142.607 54.12C142.861 54.3733 142.987 54.7333 142.987 55.2V66.74C142.987 67.18 142.874 67.5333 142.647 67.8C142.421 68.0533 142.114 68.18 141.727 68.18C141.354 68.18 141.054 68.1067 140.827 67.96C140.614 67.8133 140.381 67.58 140.127 67.26L133.127 58.32H133.647V66.68C133.647 67.16 133.527 67.5333 133.287 67.8C133.047 68.0533 132.687 68.18 132.207 68.18ZM150.266 68.22C149.106 68.22 148.106 68.0133 147.266 67.6C146.439 67.1733 145.799 66.58 145.346 65.82C144.906 65.0467 144.686 64.14 144.686 63.1C144.686 62.0867 144.899 61.2 145.326 60.44C145.753 59.6667 146.346 59.0667 147.106 58.64C147.879 58.2 148.753 57.98 149.726 57.98C150.433 57.98 151.073 58.1 151.646 58.34C152.219 58.5667 152.713 58.9 153.126 59.34C153.539 59.7667 153.853 60.2933 154.066 60.92C154.279 61.5333 154.386 62.22 154.386 62.98C154.386 63.2333 154.306 63.4267 154.146 63.56C153.986 63.68 153.753 63.74 153.446 63.74H147.166V62.18H152.206L151.886 62.46C151.886 61.9133 151.806 61.46 151.646 61.1C151.486 60.7267 151.253 60.4467 150.946 60.26C150.653 60.0733 150.286 59.98 149.846 59.98C149.353 59.98 148.933 60.0933 148.586 60.32C148.239 60.5467 147.973 60.8733 147.786 61.3C147.599 61.7267 147.506 62.24 147.506 62.84V63C147.506 64.0133 147.739 64.76 148.206 65.24C148.686 65.72 149.393 65.96 150.326 65.96C150.646 65.96 151.013 65.92 151.426 65.84C151.839 65.76 152.226 65.6333 152.586 65.46C152.893 65.3133 153.166 65.2667 153.406 65.32C153.646 65.36 153.833 65.4667 153.966 65.64C154.099 65.8133 154.173 66.0133 154.186 66.24C154.213 66.4667 154.166 66.6933 154.046 66.92C153.926 67.1333 153.726 67.3133 153.446 67.46C152.993 67.7133 152.479 67.9 151.906 68.02C151.346 68.1533 150.799 68.22 150.266 68.22ZM159.607 68.18C159.207 68.18 158.867 68.0867 158.587 67.9C158.307 67.7 158.08 67.3867 157.907 66.96L155.087 59.98C154.94 59.6067 154.893 59.28 154.947 59C155 58.7067 155.14 58.4733 155.367 58.3C155.607 58.1133 155.933 58.02 156.347 58.02C156.693 58.02 156.98 58.1067 157.207 58.28C157.433 58.44 157.627 58.7533 157.787 59.22L159.987 65.08H159.527L161.807 58.96C161.913 58.64 162.067 58.4067 162.267 58.26C162.48 58.1 162.753 58.02 163.087 58.02C163.42 58.02 163.687 58.1 163.887 58.26C164.1 58.42 164.267 58.6533 164.387 58.96L166.627 65.08H166.247L168.427 59.14C168.587 58.7133 168.793 58.42 169.047 58.26C169.3 58.1 169.573 58.02 169.867 58.02C170.24 58.02 170.527 58.1133 170.727 58.3C170.94 58.4867 171.06 58.7267 171.087 59.02C171.127 59.3133 171.073 59.6333 170.927 59.98L168.127 66.96C167.967 67.3733 167.74 67.68 167.447 67.88C167.167 68.08 166.827 68.18 166.427 68.18C166.04 68.18 165.7 68.08 165.407 67.88C165.127 67.68 164.9 67.3733 164.727 66.96L162.327 60.72H163.627L161.287 66.94C161.127 67.3533 160.907 67.6667 160.627 67.88C160.347 68.08 160.007 68.18 159.607 68.18ZM179.399 68.18C178.892 68.18 178.506 68.04 178.239 67.76C177.972 67.48 177.839 67.0867 177.839 66.58V55.48C177.839 54.96 177.972 54.5667 178.239 54.3C178.519 54.0333 178.912 53.9 179.419 53.9H184.279C185.852 53.9 187.066 54.3 187.919 55.1C188.772 55.8867 189.199 56.9867 189.199 58.4C189.199 59.8133 188.772 60.92 187.919 61.72C187.066 62.52 185.852 62.92 184.279 62.92H180.939V66.58C180.939 67.0867 180.806 67.48 180.539 67.76C180.286 68.04 179.906 68.18 179.399 68.18ZM180.939 60.52H183.759C184.559 60.52 185.166 60.34 185.579 59.98C186.006 59.62 186.219 59.0933 186.219 58.4C186.219 57.7067 186.006 57.1867 185.579 56.84C185.166 56.4933 184.559 56.32 183.759 56.32H180.939V60.52ZM194.653 68.22C193.6 68.22 192.68 68.0133 191.893 67.6C191.12 67.1867 190.52 66.5933 190.093 65.82C189.666 65.0467 189.453 64.1333 189.453 63.08C189.453 62.2933 189.573 61.5867 189.813 60.96C190.053 60.3333 190.4 59.8 190.853 59.36C191.32 58.9067 191.873 58.5667 192.513 58.34C193.153 58.1 193.866 57.98 194.653 57.98C195.706 57.98 196.62 58.1867 197.393 58.6C198.18 59.0133 198.786 59.6 199.213 60.36C199.653 61.12 199.873 62.0267 199.873 63.08C199.873 63.88 199.746 64.5933 199.493 65.22C199.253 65.8467 198.906 66.3867 198.453 66.84C198 67.2933 197.446 67.64 196.793 67.88C196.153 68.1067 195.44 68.22 194.653 68.22ZM194.653 65.96C195.093 65.96 195.473 65.8533 195.793 65.64C196.113 65.4267 196.366 65.1133 196.553 64.7C196.74 64.2733 196.833 63.7333 196.833 63.08C196.833 62.1067 196.633 61.3933 196.233 60.94C195.833 60.4733 195.306 60.24 194.653 60.24C194.226 60.24 193.846 60.34 193.513 60.54C193.193 60.74 192.94 61.0533 192.753 61.48C192.58 61.8933 192.493 62.4267 192.493 63.08C192.493 64.0533 192.693 64.78 193.093 65.26C193.493 65.7267 194.013 65.96 194.653 65.96ZM206.033 68.22C205.113 68.22 204.339 68.0667 203.713 67.76C203.099 67.4533 202.639 67.0067 202.333 66.42C202.039 65.8333 201.893 65.0933 201.893 64.2V60.44H201.053C200.679 60.44 200.386 60.34 200.173 60.14C199.973 59.94 199.873 59.6667 199.873 59.32C199.873 58.9467 199.973 58.6667 200.173 58.48C200.386 58.28 200.679 58.18 201.053 58.18H201.893V56.66C201.893 56.1533 202.026 55.7733 202.293 55.52C202.559 55.2533 202.933 55.12 203.413 55.12C203.906 55.12 204.279 55.2533 204.533 55.52C204.786 55.7733 204.913 56.1533 204.913 56.66V58.18H206.813C207.186 58.18 207.473 58.28 207.673 58.48C207.873 58.6667 207.973 58.9467 207.973 59.32C207.973 59.6667 207.873 59.94 207.673 60.14C207.473 60.34 207.186 60.44 206.813 60.44H204.913V64.08C204.913 64.64 205.039 65.06 205.293 65.34C205.559 65.62 205.979 65.76 206.553 65.76C206.753 65.76 206.939 65.74 207.113 65.7C207.286 65.66 207.446 65.6333 207.593 65.62C207.779 65.6067 207.933 65.6667 208.053 65.8C208.173 65.92 208.233 66.1933 208.233 66.62C208.233 66.94 208.179 67.22 208.073 67.46C207.966 67.7 207.779 67.8733 207.513 67.98C207.339 68.0467 207.099 68.1 206.793 68.14C206.499 68.1933 206.246 68.22 206.033 68.22ZM212.219 68.22C211.499 68.22 210.852 68.08 210.279 67.8C209.705 67.52 209.259 67.14 208.939 66.66C208.619 66.18 208.459 65.64 208.459 65.04C208.459 64.32 208.645 63.7533 209.019 63.34C209.392 62.9133 209.999 62.6133 210.839 62.44C211.679 62.2533 212.792 62.16 214.179 62.16H215.239V63.72H214.199C213.519 63.72 212.965 63.76 212.539 63.84C212.125 63.9067 211.825 64.0267 211.639 64.2C211.465 64.3733 211.379 64.6133 211.379 64.92C211.379 65.2933 211.505 65.6 211.759 65.84C212.025 66.08 212.405 66.2 212.899 66.2C213.285 66.2 213.625 66.1133 213.919 65.94C214.225 65.7533 214.465 65.5067 214.639 65.2C214.812 64.88 214.899 64.52 214.899 64.12V61.82C214.899 61.2333 214.765 60.82 214.499 60.58C214.232 60.3267 213.779 60.2 213.139 60.2C212.779 60.2 212.385 60.2467 211.959 60.34C211.545 60.42 211.085 60.56 210.579 60.76C210.285 60.8933 210.025 60.9267 209.799 60.86C209.572 60.78 209.399 60.6467 209.279 60.46C209.159 60.26 209.099 60.0467 209.099 59.82C209.099 59.58 209.165 59.3533 209.299 59.14C209.432 58.9133 209.652 58.7467 209.959 58.64C210.585 58.3867 211.172 58.2133 211.719 58.12C212.279 58.0267 212.792 57.98 213.259 57.98C214.285 57.98 215.125 58.1333 215.779 58.44C216.445 58.7333 216.945 59.1933 217.279 59.82C217.612 60.4333 217.779 61.2267 217.779 62.2V66.64C217.779 67.1333 217.659 67.5133 217.419 67.78C217.179 68.0467 216.832 68.18 216.379 68.18C215.925 68.18 215.572 68.0467 215.319 67.78C215.079 67.5133 214.959 67.1333 214.959 66.64V65.9L215.099 66.02C215.019 66.4733 214.845 66.8667 214.579 67.2C214.325 67.52 213.999 67.7733 213.599 67.96C213.199 68.1333 212.739 68.22 212.219 68.22ZM224.451 68.22C223.531 68.22 222.758 68.0667 222.131 67.76C221.518 67.4533 221.058 67.0067 220.751 66.42C220.458 65.8333 220.311 65.0933 220.311 64.2V60.44H219.471C219.098 60.44 218.805 60.34 218.591 60.14C218.391 59.94 218.291 59.6667 218.291 59.32C218.291 58.9467 218.391 58.6667 218.591 58.48C218.805 58.28 219.098 58.18 219.471 58.18H220.311V56.66C220.311 56.1533 220.445 55.7733 220.711 55.52C220.978 55.2533 221.351 55.12 221.831 55.12C222.325 55.12 222.698 55.2533 222.951 55.52C223.205 55.7733 223.331 56.1533 223.331 56.66V58.18H225.231C225.605 58.18 225.891 58.28 226.091 58.48C226.291 58.6667 226.391 58.9467 226.391 59.32C226.391 59.6667 226.291 59.94 226.091 60.14C225.891 60.34 225.605 60.44 225.231 60.44H223.331V64.08C223.331 64.64 223.458 65.06 223.711 65.34C223.978 65.62 224.398 65.76 224.971 65.76C225.171 65.76 225.358 65.74 225.531 65.7C225.705 65.66 225.865 65.6333 226.011 65.62C226.198 65.6067 226.351 65.6667 226.471 65.8C226.591 65.92 226.651 66.1933 226.651 66.62C226.651 66.94 226.598 67.22 226.491 67.46C226.385 67.7 226.198 67.8733 225.931 67.98C225.758 68.0467 225.518 68.1 225.211 68.14C224.918 68.1933 224.665 68.22 224.451 68.22ZM231.94 68.22C230.886 68.22 229.966 68.0133 229.18 67.6C228.406 67.1867 227.806 66.5933 227.38 65.82C226.953 65.0467 226.74 64.1333 226.74 63.08C226.74 62.2933 226.86 61.5867 227.1 60.96C227.34 60.3333 227.686 59.8 228.14 59.36C228.606 58.9067 229.16 58.5667 229.8 58.34C230.44 58.1 231.153 57.98 231.94 57.98C232.993 57.98 233.906 58.1867 234.68 58.6C235.466 59.0133 236.073 59.6 236.5 60.36C236.94 61.12 237.16 62.0267 237.16 63.08C237.16 63.88 237.033 64.5933 236.78 65.22C236.54 65.8467 236.193 66.3867 235.74 66.84C235.286 67.2933 234.733 67.64 234.08 67.88C233.44 68.1067 232.726 68.22 231.94 68.22ZM231.94 65.96C232.38 65.96 232.76 65.8533 233.08 65.64C233.4 65.4267 233.653 65.1133 233.84 64.7C234.026 64.2733 234.12 63.7333 234.12 63.08C234.12 62.1067 233.92 61.3933 233.52 60.94C233.12 60.4733 232.593 60.24 231.94 60.24C231.513 60.24 231.133 60.34 230.8 60.54C230.48 60.74 230.226 61.0533 230.04 61.48C229.866 61.8933 229.78 62.4267 229.78 63.08C229.78 64.0533 229.98 64.78 230.38 65.26C230.78 65.7267 231.3 65.96 231.94 65.96ZM243.697 68.22C242.537 68.22 241.537 68.0133 240.697 67.6C239.87 67.1733 239.23 66.58 238.777 65.82C238.337 65.0467 238.117 64.14 238.117 63.1C238.117 62.0867 238.33 61.2 238.757 60.44C239.184 59.6667 239.777 59.0667 240.537 58.64C241.31 58.2 242.184 57.98 243.157 57.98C243.864 57.98 244.504 58.1 245.077 58.34C245.65 58.5667 246.144 58.9 246.557 59.34C246.97 59.7667 247.284 60.2933 247.497 60.92C247.71 61.5333 247.817 62.22 247.817 62.98C247.817 63.2333 247.737 63.4267 247.577 63.56C247.417 63.68 247.184 63.74 246.877 63.74H240.597V62.18H245.637L245.317 62.46C245.317 61.9133 245.237 61.46 245.077 61.1C244.917 60.7267 244.684 60.4467 244.377 60.26C244.084 60.0733 243.717 59.98 243.277 59.98C242.784 59.98 242.364 60.0933 242.017 60.32C241.67 60.5467 241.404 60.8733 241.217 61.3C241.03 61.7267 240.937 62.24 240.937 62.84V63C240.937 64.0133 241.17 64.76 241.637 65.24C242.117 65.72 242.824 65.96 243.757 65.96C244.077 65.96 244.444 65.92 244.857 65.84C245.27 65.76 245.657 65.6333 246.017 65.46C246.324 65.3133 246.597 65.2667 246.837 65.32C247.077 65.36 247.264 65.4667 247.397 65.64C247.53 65.8133 247.604 66.0133 247.617 66.24C247.644 66.4667 247.597 66.6933 247.477 66.92C247.357 67.1333 247.157 67.3133 246.877 67.46C246.424 67.7133 245.91 67.9 245.337 68.02C244.777 68.1533 244.23 68.22 243.697 68.22ZM252.934 68.22C252.347 68.22 251.74 68.1667 251.114 68.06C250.5 67.9533 249.94 67.7733 249.434 67.52C249.167 67.3867 248.974 67.22 248.854 67.02C248.747 66.8067 248.7 66.5933 248.714 66.38C248.727 66.1667 248.794 65.9733 248.914 65.8C249.047 65.6267 249.214 65.5133 249.414 65.46C249.627 65.3933 249.86 65.4133 250.114 65.52C250.66 65.7467 251.16 65.9067 251.614 66C252.067 66.0933 252.514 66.14 252.954 66.14C253.527 66.14 253.94 66.0533 254.194 65.88C254.46 65.6933 254.594 65.4533 254.594 65.16C254.594 64.8933 254.507 64.6933 254.334 64.56C254.16 64.4267 253.907 64.3333 253.574 64.28L251.474 63.9C250.647 63.7533 250.007 63.4533 249.554 63C249.114 62.5333 248.894 61.94 248.894 61.22C248.894 60.5533 249.08 59.98 249.454 59.5C249.827 59.0067 250.34 58.6333 250.994 58.38C251.66 58.1133 252.414 57.98 253.254 57.98C253.854 57.98 254.407 58.0333 254.914 58.14C255.42 58.2467 255.907 58.42 256.374 58.66C256.614 58.78 256.78 58.94 256.874 59.14C256.98 59.34 257.014 59.5467 256.974 59.76C256.947 59.9733 256.867 60.1667 256.734 60.34C256.6 60.5133 256.427 60.6267 256.214 60.68C256.014 60.7333 255.78 60.7067 255.514 60.6C255.087 60.4 254.694 60.26 254.334 60.18C253.974 60.0867 253.627 60.04 253.294 60.04C252.694 60.04 252.26 60.14 251.994 60.34C251.727 60.5267 251.594 60.7667 251.594 61.06C251.594 61.2867 251.667 61.48 251.814 61.64C251.974 61.7867 252.214 61.8867 252.534 61.94L254.634 62.32C255.5 62.4667 256.16 62.76 256.614 63.2C257.067 63.6267 257.294 64.2133 257.294 64.96C257.294 65.9733 256.894 66.7733 256.094 67.36C255.307 67.9333 254.254 68.22 252.934 68.22ZM260.077 63.66C259.771 63.66 259.531 63.5667 259.357 63.38C259.184 63.1933 259.077 62.92 259.037 62.56L258.397 55.72C258.331 55.12 258.444 54.64 258.737 54.28C259.031 53.9067 259.477 53.72 260.077 53.72C260.651 53.72 261.084 53.9067 261.377 54.28C261.671 54.64 261.784 55.12 261.717 55.72L261.077 62.56C261.037 62.92 260.931 63.1933 260.757 63.38C260.597 63.5667 260.371 63.66 260.077 63.66ZM260.077 68.1C259.544 68.1 259.117 67.94 258.797 67.62C258.491 67.3 258.337 66.8867 258.337 66.38C258.337 65.8867 258.491 65.4867 258.797 65.18C259.117 64.86 259.544 64.7 260.077 64.7C260.611 64.7 261.024 64.86 261.317 65.18C261.624 65.4867 261.777 65.8867 261.777 66.38C261.777 66.8867 261.624 67.3 261.317 67.62C261.024 67.94 260.611 68.1 260.077 68.1Z" fill="white"/>
<path d="M162.233 84.6814L220.652 207.555L345.353 153.147L268.15 265.175L377.62 345.966L241.999 335.121L226.767 470.319L168.349 347.446L43.6476 401.854L120.85 289.825L11.3808 209.035L147.001 219.88L162.233 84.6814Z" fill="url(#paint1_radial_399_3874)"/>
<path d="M195 432.822C256.004 432.822 268.395 421 319.482 421C352.457 421 364.132 435.679 363.999 445.553V511.938C349.16 524.669 328.276 526.022 307.116 511.938V501.025C279.087 503.753 244.463 511.938 195 511.938C145.537 511.938 110.913 503.753 82.8838 501.025V511.938C61.7243 526.022 40.8401 524.669 26.0012 511.938V445.553C25.8676 435.679 37.5426 421 70.518 421C121.606 421 133.995 432.822 195 432.822Z" fill="url(#paint2_linear_399_3874)"/>
<path d="M363.999 445.553C364.132 435.679 352.457 421 319.482 421C268.395 421 256.004 432.822 195 432.822C133.995 432.822 121.606 421 70.518 421C37.5426 421 25.8676 435.679 26.0012 445.553M363.999 445.553C363.865 455.427 354.106 469.197 340.092 469.197M363.999 445.553V511.938C349.16 524.669 328.276 526.022 307.116 511.938V501.025M340.092 469.197C326.077 469.197 307.116 467.645 307.116 451.919M340.092 469.197C340.092 459.963 348.336 451.919 340.092 445.553C329.382 437.283 307.116 440.097 307.116 451.919M307.116 451.919V501.025M307.116 501.025C279.087 503.753 244.463 511.938 195 511.938C145.537 511.938 110.913 503.753 82.8838 501.025M26.0012 445.553C26.1348 455.427 35.8938 469.197 49.9084 469.197M26.0012 445.553V511.938C40.8401 524.669 61.7243 526.022 82.8838 511.938V501.025M49.9084 469.197C63.9229 469.197 82.8838 467.645 82.8838 451.919M49.9084 469.197C49.9084 459.963 41.6645 451.919 49.9084 445.553C60.6185 437.283 82.8838 440.097 82.8838 451.919M82.8838 451.919V501.025" stroke="#9D8555" stroke-width="3"/>
<defs>
<linearGradient id="paint0_linear_399_3874" x1="194.5" y1="12" x2="194.5" y2="89" gradientUnits="userSpaceOnUse">
<stop stop-color="#FDDC9B"/>
<stop offset="1" stop-color="#D6AE60"/>
</linearGradient>
<radialGradient id="paint1_radial_399_3874" cx="0" cy="0" r="1" gradientUnits="userSpaceOnUse" gradientTransform="translate(194.5 277.5) rotate(80.5) scale(195.5)">
<stop stop-color="#FFB100"/>
<stop offset="1" stop-color="#FFB100" stop-opacity="0"/>
</radialGradient>
<linearGradient id="paint2_linear_399_3874" x1="195" y1="421" x2="195" y2="522" gradientUnits="userSpaceOnUse">
<stop stop-color="#FDDC9B"/>
<stop offset="1" stop-color="#D6AE60"/>
</linearGradient>
</defs>
</svg>
