<svg width="284" height="90" viewBox="0 0 284 90" fill="none" xmlns="http://www.w3.org/2000/svg">
<path d="M141.764 0C63.47 0 0 29.7886 0 66.5347C0 74.4185 2.92163 81.9821 8.28446 89H275.244C280.607 81.9821 283.528 74.4185 283.528 66.5347C283.528 29.7886 220.058 0 141.764 0Z" fill="url(#paint0_radial_318_2941)"/>
<path fill-rule="evenodd" clip-rule="evenodd" d="M193.319 4.53662H90.209C86.472 5.22164 82.8122 5.97894 79.2372 6.80485H88.4609V12.0973H74.0954V8.05481C73.3351 8.24901 72.579 8.44639 71.8272 8.64689V12.0973H60.2349C58.0329 12.825 55.8771 13.5815 53.7698 14.3655H63.5103V19.6579H49.1449V16.1619C48.3816 16.4713 47.6255 16.7844 46.8766 17.1013V19.6579H41.1602C39.5965 20.3971 38.0696 21.1534 36.5808 21.9262H38.5599V27.9748H40.8281V21.9262H55.1935V27.9748H57.4618V21.9262H71.8272V27.9748H74.0954V21.9262H88.4609V27.9748H90.7291V21.9262H105.095V27.9748H107.363V21.9262H121.728V27.9748H123.996V21.9262H138.362V27.9748H140.63V21.9262H154.996V27.9748H157.264V21.9262H171.629V27.9748H173.897V21.9262H188.263V27.9748H190.531V21.9262H202.628V27.9748H204.896V21.9262H219.262V27.9748H221.53V21.9262H235.896V27.9748H238.164V21.9262H246.948C245.459 21.1534 243.932 20.3971 242.368 19.6579H229.847V14.3984C227.712 13.6026 225.526 12.8352 223.294 12.0973H221.53V11.5237C220.779 11.2834 220.023 11.0464 219.262 10.8128V12.0973H204.896V6.94553C201.13 6.06476 197.268 5.26035 193.319 4.53662ZM252.529 25.0055V27.9748H254.798V26.3723C254.054 25.912 253.298 25.4564 252.529 25.0055ZM257.307 27.9749H26.2212C25.0907 28.7197 23.9921 29.4759 22.9263 30.2431H30.243V35.5355H16.2944C15.454 36.2833 14.643 37.0395 13.8622 37.8038H21.9262V43.0963H24.1944V37.8038H38.5599V43.0963H40.8281V37.8038H55.1935V43.0963H57.4618V37.8038H71.8272V43.0963H74.0954V37.8038H88.4609V43.0963H90.7291V37.8038H105.095V43.0963H107.363V37.8038H121.728V43.0963H123.996V37.8038H138.362V43.0963H140.63V37.8038H154.996V43.0963H157.264V37.8038H171.629V43.0963H173.897V37.8038H188.263V43.0963H190.531V37.8038H202.628V43.0963H204.896V37.8038H219.262V43.0963H221.53V37.8038H235.896V43.0963H238.164V37.8038H252.529V43.0963H254.798V37.8038H269.163V43.0963H271.431V39.5996C270.128 38.2196 268.727 36.8643 267.234 35.5355H263.114V32.1188C262.376 31.5466 261.62 30.98 260.846 30.4193V35.5355H246.481V30.2431H260.602C259.536 29.4759 258.438 28.7197 257.307 27.9749ZM274.482 43.0964H9.04643C8.44505 43.8461 7.87168 44.6023 7.32692 45.3646H13.6094V51.4132H15.8776V45.3646H30.243V51.4132H32.5112V45.3646H46.8766V51.4132H49.1449V45.3646H63.5103V51.4132H65.7785V45.3646H80.144V51.4132H82.4122V45.3646H96.7776V51.4132H99.0459V45.3646H113.411V51.4132H115.68V45.3646H130.045V51.4132H132.313V45.3646H146.679V51.4132H148.947V45.3646H163.312V51.4132H165.581V45.3646H179.946V51.4132H182.214V45.3646H194.311V51.4132H196.58V45.3646H210.945V51.4132H213.213V45.3646H227.579V51.4132H229.847V45.3646H244.212V51.4132H246.481V45.3646H260.846V51.4132H263.114V45.3646H276.202C275.657 44.6023 275.083 43.8461 274.482 43.0964ZM277.48 47.2463V51.4132H279.748V51.2064C279.077 49.8703 278.32 48.5499 277.48 47.2463ZM279.851 51.4133H3.67726C3.30525 52.1646 2.96035 52.9207 2.64308 53.6815H5.29257V58.974H0.905253C0.723937 59.7263 0.569355 60.4825 0.441962 61.2422H13.6094V67.2907H0.00897217C0.0269819 68.0499 0.0720843 68.8061 0.143847 69.559L5.29257 69.559V75.6075H1.30702C1.52788 76.3677 1.7761 77.1239 2.0512 77.8757H13.6094V83.1684H15.8776V77.8757H30.243V83.1684H32.5112V77.8757H46.8766V83.1684H49.1449V77.8757H63.5103V83.1684H65.7785V77.8757H80.144V83.1684H82.4122V77.8757H96.7776V83.1684H99.0459V77.8757H113.411V83.1684H115.68V77.8757H130.045V83.1684H132.313V77.8757H146.679V83.1684H148.947V77.8757H163.312V83.1684H165.581V77.8757H179.946V83.1684H182.214V77.8757H194.311V83.1684H196.58V77.8757H210.945V83.1684H213.213V77.8757H227.579V83.1684H229.847V77.8757H244.212V83.1684H246.481V77.8757H260.846V83.1684H263.114V77.8757H277.48V83.1684H279.062L4.46626 83.1685C5.36881 84.8143 6.40216 86.4354 7.56079 88.0293V85.4367H21.9262V90.0001H24.1944V85.4367H38.5599V90.0001H40.8281V85.4367H55.1935V90.0001H57.4618V85.4367H71.8272V90.0001H74.0954V85.4367H88.4609V90.0001H90.7291V85.4367H105.095V90.0001H107.363V85.4367H121.728V90.0001H123.996V85.4367H138.362V90.0001H140.63V85.4367H154.996V90.0001H157.264V85.4367H171.629V90.0001H173.897V85.4367H188.263V90.0001H190.531V85.4367H202.628V90.0001H204.896V85.4367H219.262V90.0001H221.53V85.4367H235.896V90.0001H238.164V85.4367H252.529V90.0001H254.798V85.4366H269.163V90.0001H271.431V85.4366L277.726 85.4366C278.199 84.686 278.645 83.9298 279.062 83.1684C279.3 82.735 279.529 82.2999 279.748 81.8631V77.8757H281.477C281.752 77.1239 282.001 76.3677 282.221 75.6075H271.431V69.5589L283.385 69.559C283.456 68.8061 283.501 68.0499 283.519 67.2907H279.748V61.2422L283.086 61.2422C282.959 60.4825 282.805 59.7263 282.623 58.974H271.431V53.6815H280.885C280.568 52.9207 280.223 52.1646 279.851 51.4133ZM202.628 6.80485V12.0973H190.531V6.80485H202.628ZM188.263 6.80485V12.0973H173.897V6.80485H188.263ZM171.629 6.80485V12.0973H157.264V6.80485H171.629ZM154.996 6.80485V12.0973H140.63V6.80485H154.996ZM138.362 6.80485V12.0973H123.996V6.80485H138.362ZM121.728 6.80485V12.0973H107.363V6.80485H121.728ZM105.095 6.80485V12.0973H90.7291V6.80485H105.095ZM227.579 19.6579V14.3655H213.213V19.6579H227.579ZM210.945 19.6579V14.3655H196.58V19.6579H210.945ZM194.311 19.6579V14.3655H182.214V19.6579H194.311ZM179.946 19.6579V14.3655H165.581V19.6579H179.946ZM163.312 19.6579V14.3655H148.947V19.6579H163.312ZM146.679 19.6579V14.3655H132.313V19.6579H146.679ZM130.045 19.6579V14.3655H115.68V19.6579H130.045ZM113.411 19.6579V14.3655H99.0459V19.6579H113.411ZM96.7776 19.6579V14.3655H82.4122V19.6579H96.7776ZM80.144 19.6579V14.3655H65.7785V19.6579H80.144ZM32.5112 30.2431V35.5355H46.8766V30.2431H32.5112ZM49.1449 30.2431V35.5355H63.5103V30.2431H49.1449ZM65.7785 30.2431V35.5355H80.144V30.2431H65.7785ZM82.4122 30.2431V35.5355H96.7776V30.2431H82.4122ZM99.0459 30.2431V35.5355H113.411V30.2431H99.0459ZM115.68 30.2431V35.5355H130.045V30.2431H115.68ZM132.313 30.2431V35.5355H146.679V30.2431H132.313ZM148.947 30.2431V35.5355H163.312V30.2431H148.947ZM165.581 30.2431V35.5355H179.946V30.2431H165.581ZM182.214 30.2431V35.5355H194.311V30.2431H182.214ZM196.58 30.2431V35.5355H210.945V30.2431H196.58ZM213.213 30.2431V35.5355H227.579V30.2431H213.213ZM229.847 30.2431V35.5355H244.212V30.2431H229.847ZM7.56079 58.974V53.6815H21.9262V58.974H7.56079ZM24.1944 58.974V53.6815H38.5599V58.974H24.1944ZM40.8281 58.974V53.6815H55.1935V58.974H40.8281ZM57.4618 58.974V53.6815H71.8272V58.974H57.4618ZM74.0954 58.974V53.6815H88.4609V58.974H74.0954ZM90.7291 58.974V53.6815H105.095V58.974H90.7291ZM107.363 58.974V53.6815H121.728V58.974H107.363ZM123.996 58.974V53.6815H138.362V58.974H123.996ZM140.63 58.974V53.6815H154.996V58.974H140.63ZM157.264 58.974V53.6815H171.629V58.974H157.264ZM173.897 58.974V53.6815H188.263V58.974H173.897ZM190.531 58.974V53.6815H202.628V58.974H190.531ZM204.896 58.974V53.6815H219.262V58.974H204.896ZM221.53 58.974V53.6815H235.896V58.974H221.53ZM238.164 58.974V53.6815H252.529V58.974H238.164ZM254.798 58.974V53.6815H269.163V58.974H254.798ZM15.8776 61.2422V67.2907H30.243V61.2422H15.8776ZM32.5112 61.2422V67.2907H46.8766V61.2422H32.5112ZM49.1449 61.2422V67.2907H63.5103V61.2422H49.1449ZM65.7785 61.2422V67.2907H80.144V61.2422H65.7785ZM82.4122 61.2422V67.2907H96.7776V61.2422H82.4122ZM99.0459 61.2422V67.2907H113.411V61.2422H99.0459ZM115.68 61.2422V67.2907H130.045V61.2422H115.68ZM132.313 61.2422V67.2907H146.679V61.2422H132.313ZM148.947 61.2422V67.2907H163.312V61.2422H148.947ZM165.581 61.2422V67.2907H179.946V61.2422H165.581ZM182.214 61.2422V67.2907H194.311V61.2422H182.214ZM196.58 61.2422V67.2907H210.945V61.2422H196.58ZM213.213 61.2422V67.2907H227.579V61.2422H213.213ZM229.847 61.2422V67.2907H244.212V61.2422H229.847ZM246.481 61.2422V67.2907H260.846V61.2422H246.481ZM263.114 61.2422V67.2907H277.48V61.2422H263.114ZM7.56079 75.6075V69.559L21.9262 69.5589V75.6075H7.56079ZM24.1944 75.6075V69.5589H38.5599V75.6075H24.1944ZM40.8281 75.6075V69.5589H55.1935V75.6075H40.8281ZM57.4618 75.6075V69.5589H71.8272V75.6075H57.4618ZM74.0954 75.6075V69.5589H88.4609V75.6075H74.0954ZM90.7291 75.6075V69.5589H105.095V75.6075H90.7291ZM107.363 75.6075V69.5589H121.728V75.6075H107.363ZM123.996 75.6075V69.5589H138.362V75.6075H123.996ZM140.63 75.6075V69.5589H154.996V75.6075H140.63ZM157.264 75.6075V69.5589H171.629V75.6075H157.264ZM173.897 75.6075V69.5589H188.263V75.6075H173.897ZM190.531 75.6075V69.5589H202.628V75.6075H190.531ZM204.896 75.6075V69.5589H219.262V75.6075H204.896ZM221.53 75.6075V69.5589H235.896V75.6075H221.53ZM238.164 75.6075V69.5589H252.529V75.6075H238.164ZM254.798 75.6075V69.5589H269.163V75.6075H254.798Z" fill="url(#paint1_radial_318_2941)"/>
<defs>
<radialGradient id="paint0_radial_318_2941" cx="0" cy="0" r="1" gradientUnits="userSpaceOnUse" gradientTransform="translate(141.764 44.5) rotate(89.6964) scale(44.5006 141.766)">
<stop offset="0.72737" stop-color="#BFBFBF"/>
<stop offset="1" stop-color="#BFBFBF" stop-opacity="0"/>
</radialGradient>
<radialGradient id="paint1_radial_318_2941" cx="0" cy="0" r="1" gradientUnits="userSpaceOnUse" gradientTransform="translate(141.764 47.2683) rotate(90) scale(42.7317 141.755)">
<stop stop-color="#AEAEAE"/>
<stop offset="0.848958" stop-color="#6C6C6C"/>
<stop offset="1" stop-color="#1C6D00" stop-opacity="0"/>
</radialGradient>
</defs>
</svg>
