<svg width="62" height="84" viewBox="0 0 62 84" fill="none" xmlns="http://www.w3.org/2000/svg">
<path d="M53.4546 4.492H7.18719V58.8449L30.3209 84L53.4546 58.8449V4.492Z" fill="url(#paint0_linear_376_3281)"/>
<path fill-rule="evenodd" clip-rule="evenodd" d="M0 0H2.69519V1.79679H58.3957V0H61.0909V1.79679V4.49198V6.28877H58.3957V4.49198H2.69519V6.28877H0V0Z" fill="#FFB100"/>
<path d="M42.5823 49.9649L44.0108 50.4225C42.7289 54.4245 38.1385 58.1221 32.9301 58.3646C19.6336 58.9837 13.4813 48.4519 12.4571 42.2055C11.8564 38.5421 12.0481 35.8429 12.8407 33.818C13.6545 31.7392 15.037 30.5339 16.4543 29.7615C17.7734 29.0426 19.478 28.3932 21.527 28.6843C23.5708 28.9748 25.6918 30.1618 27.9455 32.5556C28.3859 33.0234 28.7779 33.4629 29.151 33.8813C29.6453 34.4355 30.1065 34.9527 30.6035 35.4494C31.0088 35.8545 31.352 36.1534 31.6386 36.3478C31.9056 36.5288 32.0251 36.5511 32.0248 36.5524C32.0248 36.5525 32.0231 36.5524 32.0198 36.5522M42.5823 49.9649L32.0178 36.5521C32.0185 36.5521 32.0192 36.5521 32.0198 36.5522M42.5823 49.9649L44.0108 50.4225C44.7206 48.2065 44.191 44.8878 42.3492 42.1092M42.5823 49.9649L42.3492 42.1092M32.0198 36.5522C37.0835 36.8404 40.4423 39.2324 42.3492 42.1092M32.0198 36.5522L42.3492 42.1092" stroke="url(#paint1_linear_376_3281)" stroke-width="3"/>
<defs>
<linearGradient id="paint0_linear_376_3281" x1="30.3209" y1="4.492" x2="30.3209" y2="84" gradientUnits="userSpaceOnUse">
<stop stop-color="#FF4545"/>
<stop offset="1" stop-color="#FFB100"/>
</linearGradient>
<linearGradient id="paint1_linear_376_3281" x1="35.1713" y1="13.8679" x2="25.0942" y2="55.842" gradientUnits="userSpaceOnUse">
<stop stop-color="#FFB100"/>
<stop offset="1" stop-color="white"/>
</linearGradient>
</defs>
</svg>
