<svg width="390" height="285" viewBox="0 0 390 285" fill="none" xmlns="http://www.w3.org/2000/svg">
<ellipse cx="65.5" cy="260.5" rx="76.5" ry="24.5" fill="url(#paint0_radial_285_2511)"/>
<ellipse cx="320.5" cy="260.5" rx="76.5" ry="24.5" fill="url(#paint1_radial_285_2511)"/>
<path fill-rule="evenodd" clip-rule="evenodd" d="M127 74C127 72.8954 127.895 72 129 72H261C262.105 72 263 72.8954 263 74V87C263 88.1046 262.105 89 261 89H222C220.895 89 220 89.8954 220 91V144C220 145.105 220.895 146 222 146H267C268.105 146 269 146.895 269 148V197V203V241.5C269 221.342 235.869 205 195 205C154.131 205 121 221.342 121 241.5V203V197V148C121 146.895 121.895 146 123 146H169C170.105 146 171 145.105 171 144V91C171 89.8954 170.105 89 169 89H129C127.895 89 127 88.1046 127 87V74ZM121 241.5C121 241.666 121.002 241.831 121.007 241.997C121.007 241.998 121.005 242 121.003 242C121.002 242 121 241.999 121 241.997V241.5ZM269 241.5V241.997C269 241.999 268.999 242 268.997 242C268.995 242 268.993 241.998 268.993 241.997C268.998 241.831 269 241.666 269 241.5ZM28 90C28 88.8954 28.8954 88 30 88H38.6694C39.774 88 40.6694 88.8954 40.6694 90V106.814C40.6694 107.919 41.5649 108.814 42.6694 108.814H51.3389C52.4434 108.814 53.3389 107.919 53.3389 106.814V90C53.3389 88.8954 54.2343 88 55.3389 88H64.0083C65.1129 88 66.0083 88.8954 66.0083 90V106.814C66.0083 107.919 66.9037 108.814 68.0083 108.814H76.6777C77.7823 108.814 78.6777 107.919 78.6777 106.814V90C78.6777 88.8954 79.5732 88 80.6777 88H89.3472C90.4517 88 91.3472 88.8954 91.3472 90V106.814C91.3472 107.919 92.2426 108.814 93.3472 108.814H102.017C103.121 108.814 104.017 107.919 104.017 106.814V90C104.017 88.8954 104.912 88 106.017 88H114.686C115.791 88 116.686 88.8954 116.686 90V108.814V239.843C116.686 240.948 115.791 241.843 114.686 241.843H30C28.8954 241.843 28 240.948 28 239.843V108.814V90ZM274 90C274 88.8954 274.895 88 276 88H284.669C285.774 88 286.669 88.8954 286.669 90V106.814C286.669 107.919 287.565 108.814 288.669 108.814H297.339C298.443 108.814 299.339 107.919 299.339 106.814V90C299.339 88.8954 300.234 88 301.339 88H310.008C311.113 88 312.008 88.8954 312.008 90V106.814C312.008 107.919 312.904 108.814 314.008 108.814H322.678C323.782 108.814 324.678 107.919 324.678 106.814V90C324.678 88.8954 325.573 88 326.678 88H335.347C336.452 88 337.347 88.8954 337.347 90V106.814C337.347 107.919 338.243 108.814 339.347 108.814H348.017C349.121 108.814 350.017 107.919 350.017 106.814V90C350.017 88.8954 350.912 88 352.017 88H360.686C361.791 88 362.686 88.8954 362.686 90V108.814V239.843C362.686 240.948 361.791 241.843 360.686 241.843H276C274.895 241.843 274 240.948 274 239.843V108.814V90Z" fill="#7E622B"/>
<path fill-rule="evenodd" clip-rule="evenodd" d="M262.953 72.6569C264.73 72.6569 265.624 70.5129 264.374 69.25L196.421 0.593094C195.639 -0.197699 194.361 -0.197698 193.579 0.593096L125.626 69.25C124.376 70.5128 125.27 72.6569 127.047 72.6569H144.159C145.32 72.6569 146.237 73.6426 146.153 74.8009L141.134 144.301C141.059 145.347 140.188 146.157 139.139 146.157H123C121.895 146.157 121 145.261 121 144.157L121 117.157V96.1569C121 95.0523 120.105 94.1569 119 94.1569H109C107.895 94.1569 107 95.0523 107 96.1569V115.157C107 116.261 106.105 117.157 105 117.157H95C93.8954 117.157 93 116.261 93 115.157V96.1569C93 95.0523 92.1046 94.1569 91 94.1569H81C79.8954 94.1569 79 95.0523 79 96.1569V115.157C79 116.261 78.1046 117.157 77 117.157H67C65.8954 117.157 65 116.261 65 115.157V96.1569C65 95.0523 64.1046 94.1569 63 94.1569H53C51.8954 94.1569 51 95.0523 51 96.1569V115.157C51 116.261 50.1046 117.157 49 117.157H39C37.8954 117.157 37 116.261 37 115.157V96.1569C37 95.0523 36.1046 94.1569 35 94.1569H25C23.8954 94.1569 23 95.0523 23 96.1569V117.157L17.085 262.075C17.0386 263.211 17.9467 264.157 19.0833 264.157H119C120.105 264.157 121 263.261 121 262.157L121 217.16C121 217.158 121.002 217.157 121.003 217.157C121.005 217.157 121.007 217.155 121.007 217.153C121.002 216.988 121 216.823 121 216.657C121 196.498 154.131 180.157 195 180.157C235.869 180.157 269 196.498 269 216.657C269 216.707 269 216.758 268.999 216.808C268.998 216.923 268.996 217.038 268.993 217.153C268.993 217.155 268.995 217.157 268.997 217.157C268.999 217.157 269 217.158 269 217.16V262C269 263.105 269.895 264 271 264H370.917C372.053 264 372.961 263.054 372.915 261.918L367 117V96C367 94.8954 366.105 94 365 94H355C353.895 94 353 94.8954 353 96V115C353 116.105 352.105 117 351 117H341C339.895 117 339 116.105 339 115V96C339 94.8954 338.105 94 337 94H327C325.895 94 325 94.8954 325 96V115C325 116.105 324.105 117 323 117H313C311.895 117 311 116.105 311 115V96C311 94.8954 310.105 94 309 94H299C297.895 94 297 94.8954 297 96V115C297 116.105 296.105 117 295 117H285C283.895 117 283 116.105 283 115V96C283 94.8954 282.105 94 281 94H271C269.895 94 269 94.8954 269 96V117V144.157C269 145.261 268.105 146.157 267 146.157H250.861C249.812 146.157 248.941 145.347 248.866 144.301L243.847 74.8009C243.763 73.6427 244.68 72.6569 245.841 72.6569H262.953ZM204 82.1569C204 78.2909 200.866 75.1569 197 75.1569C193.134 75.1569 190 78.2909 190 82.1569V103.157C190 104.261 190.895 105.157 192 105.157H202C203.105 105.157 204 104.261 204 103.157V82.1569ZM311 154C311 150.134 314.134 147 318 147C321.866 147 325 150.134 325 154V175C325 176.105 324.105 177 323 177H313C311.895 177 311 176.105 311 175V154ZM79 154.157C79 150.291 75.866 147.157 72 147.157C68.134 147.157 65 150.291 65 154.157V175.157C65 176.261 65.8954 177.157 67 177.157H77C78.1046 177.157 79 176.261 79 175.157V154.157Z" fill="url(#paint2_linear_285_2511)"/>
<defs>
<radialGradient id="paint0_radial_285_2511" cx="0" cy="0" r="1" gradientUnits="userSpaceOnUse" gradientTransform="translate(65.5 260.5) rotate(90) scale(24.5 76.5)">
<stop offset="0.6875" stop-color="#725B2F"/>
<stop offset="1" stop-color="#725D35" stop-opacity="0"/>
</radialGradient>
<radialGradient id="paint1_radial_285_2511" cx="0" cy="0" r="1" gradientUnits="userSpaceOnUse" gradientTransform="translate(320.5 260.5) rotate(90) scale(24.5 76.5)">
<stop offset="0.6875" stop-color="#725B2F"/>
<stop offset="1" stop-color="#725D35" stop-opacity="0"/>
</radialGradient>
<linearGradient id="paint2_linear_285_2511" x1="143" y1="0" x2="143" y2="264" gradientUnits="userSpaceOnUse">
<stop stop-color="white"/>
<stop offset="0.617106" stop-color="#FDDC9B"/>
<stop offset="0.859375" stop-color="#D6AE60"/>
<stop offset="1" stop-color="#866D3D"/>
</linearGradient>
</defs>
</svg>
