<svg width="226" height="531" viewBox="0 0 226 531" fill="none" xmlns="http://www.w3.org/2000/svg">
<ellipse cx="117.345" cy="469.845" rx="96.4413" ry="30.9769" fill="url(#paint0_radial_318_2367)"/>
<ellipse cx="113" cy="265.205" rx="265.205" ry="112.771" transform="rotate(-90 113 265.205)" fill="url(#paint1_radial_318_2367)"/>
<path fill-rule="evenodd" clip-rule="evenodd" d="M59.006 194.926C59.006 193.822 58.1105 192.926 57.006 192.926H41.4708C40.3662 192.926 39.4708 193.822 39.4708 194.926V215.039C39.4708 215.087 39.4324 215.125 39.385 215.125C39.3376 215.125 39.2992 215.164 39.2992 215.211V231.17C39.2992 232.274 40.1946 233.17 41.2992 233.17H49.6663C50.7957 233.17 51.701 234.104 51.6653 235.233L44.3838 465.005C44.348 466.134 45.2534 467.068 46.3828 467.068H182.824C183.967 467.068 184.878 466.111 184.821 464.969L173.485 235.268C173.429 234.126 174.339 233.17 175.483 233.17H182.925C184.03 233.17 184.925 232.274 184.925 231.17V216.099C184.925 216.052 184.963 216.013 185.011 216.013C185.058 216.013 185.097 215.975 185.097 215.927V194.926C185.097 193.822 184.201 192.926 183.097 192.926H167.562C166.457 192.926 165.562 193.822 165.562 194.926V213.125C165.562 214.23 164.666 215.125 163.562 215.125H155.13C154.025 215.125 153.13 214.23 153.13 213.125V194.926C153.13 193.822 152.235 192.926 151.13 192.926H135.595C134.49 192.926 133.595 193.822 133.595 194.926V213.125C133.595 214.23 132.699 215.125 131.595 215.125H124.939C123.835 215.125 122.939 214.23 122.939 213.125V194.926C122.939 193.822 122.044 192.926 120.939 192.926H105.404C104.3 192.926 103.404 193.822 103.404 194.926V213.125C103.404 214.23 102.509 215.125 101.404 215.125H92.9727C91.8682 215.125 90.9727 214.23 90.9727 213.125V194.926C90.9727 193.822 90.0773 192.926 88.9727 192.926H73.4376C72.333 192.926 71.4376 193.822 71.4376 194.926V213.125C71.4376 214.23 70.5421 215.125 69.4376 215.125H61.006C59.9014 215.125 59.006 214.23 59.006 213.125V194.926Z" fill="#725D35"/>
<path d="M68.796 126.315C68.796 125.21 69.6915 124.315 70.796 124.315H155.592C156.697 124.315 157.592 125.21 157.592 126.315V202.231C157.592 203.336 156.697 204.231 155.592 204.231H70.796C69.6915 204.231 68.796 203.336 68.796 202.231V126.315Z" fill="url(#paint2_linear_318_2367)"/>
<path d="M68.796 126.315C68.796 125.21 69.6915 124.315 70.796 124.315H155.592C156.697 124.315 157.592 125.21 157.592 126.315V202.231C157.592 203.336 156.697 204.231 155.592 204.231H70.796C69.6915 204.231 68.796 203.336 68.796 202.231V126.315Z" fill="url(#paint3_linear_318_2367)"/>
<path d="M142.191 182.407L183.194 164.289" stroke="url(#paint4_linear_318_2367)" stroke-width="3" stroke-linecap="round"/>
<path d="M153.555 156.628L140.509 182.945L169.571 191.77" stroke="url(#paint5_linear_318_2367)" stroke-width="2" stroke-linecap="round"/>
<path d="M152.532 156.245C152.532 156.245 164.841 159.973 169.486 170.164C174.13 180.355 169.188 192.793 169.188 192.793" stroke="url(#paint6_linear_318_2367)" stroke-width="5" stroke-linecap="round"/>
<path d="M184.643 168.759L180.349 160.419C180.016 159.772 180.463 158.998 181.19 158.962L194.229 158.327C195.136 158.283 195.628 159.373 194.994 160.024L186.248 168.999C185.771 169.488 184.955 169.366 184.643 168.759Z" fill="url(#paint7_linear_318_2367)"/>
<path fill-rule="evenodd" clip-rule="evenodd" d="M59.006 182.495C59.006 181.39 58.1105 180.495 57.006 180.495H41.4708C40.3662 180.495 39.4708 181.39 39.4708 182.495V202.608C39.4708 202.655 39.4324 202.694 39.385 202.694C39.3376 202.694 39.2992 202.732 39.2992 202.78V218.738C39.2992 219.843 40.1946 220.738 41.2992 220.738H49.6663C50.7957 220.738 51.701 221.673 51.6653 222.802L43.8044 470.856C43.7686 471.985 44.674 472.92 45.8034 472.92H185.473C186.622 472.92 187.534 471.954 187.47 470.807L173.501 222.851C173.436 221.704 174.349 220.738 175.497 220.738H182.925C184.03 220.738 184.925 219.843 184.925 218.738V203.668C184.925 203.62 184.963 203.582 185.011 203.582C185.058 203.582 185.097 203.543 185.097 203.496V182.495C185.097 181.39 184.201 180.495 183.097 180.495H167.562C166.457 180.495 165.562 181.39 165.562 182.495V200.694C165.562 201.798 164.666 202.694 163.562 202.694H155.13C154.025 202.694 153.13 201.798 153.13 200.694V182.495C153.13 181.39 152.235 180.495 151.13 180.495H135.595C134.49 180.495 133.595 181.39 133.595 182.495V200.694C133.595 201.798 132.699 202.694 131.595 202.694H124.939C123.835 202.694 122.939 201.798 122.939 200.694V182.495C122.939 181.39 122.044 180.495 120.939 180.495H105.404C104.3 180.495 103.404 181.39 103.404 182.495V200.694C103.404 201.798 102.509 202.694 101.404 202.694H92.9727C91.8682 202.694 90.9727 201.798 90.9727 200.694V182.495C90.9727 181.39 90.0773 180.495 88.9727 180.495H73.4376C72.333 180.495 71.4376 181.39 71.4376 182.495V200.694C71.4376 201.798 70.5421 202.694 69.4376 202.694H61.006C59.9014 202.694 59.006 201.798 59.006 200.694V182.495Z" fill="url(#paint8_linear_318_2367)"/>
<path fill-rule="evenodd" clip-rule="evenodd" d="M59.006 182.495C59.006 181.39 58.1105 180.495 57.006 180.495H41.4708C40.3662 180.495 39.4708 181.39 39.4708 182.495V202.608C39.4708 202.655 39.4324 202.694 39.385 202.694C39.3376 202.694 39.2992 202.732 39.2992 202.78V218.738C39.2992 219.843 40.1946 220.738 41.2992 220.738H49.6663C50.7957 220.738 51.701 221.673 51.6653 222.802L43.8044 470.856C43.7686 471.985 44.674 472.92 45.8034 472.92H185.473C186.622 472.92 187.534 471.954 187.47 470.807L173.501 222.851C173.436 221.704 174.349 220.738 175.497 220.738H182.925C184.03 220.738 184.925 219.843 184.925 218.738V203.668C184.925 203.62 184.963 203.582 185.011 203.582C185.058 203.582 185.097 203.543 185.097 203.496V182.495C185.097 181.39 184.201 180.495 183.097 180.495H167.562C166.457 180.495 165.562 181.39 165.562 182.495V200.694C165.562 201.798 164.666 202.694 163.562 202.694H155.13C154.025 202.694 153.13 201.798 153.13 200.694V182.495C153.13 181.39 152.235 180.495 151.13 180.495H135.595C134.49 180.495 133.595 181.39 133.595 182.495V200.694C133.595 201.798 132.699 202.694 131.595 202.694H124.939C123.835 202.694 122.939 201.798 122.939 200.694V182.495C122.939 181.39 122.044 180.495 120.939 180.495H105.404C104.3 180.495 103.404 181.39 103.404 182.495V200.694C103.404 201.798 102.509 202.694 101.404 202.694H92.9727C91.8682 202.694 90.9727 201.798 90.9727 200.694V182.495C90.9727 181.39 90.0773 180.495 88.9727 180.495H73.4376C72.333 180.495 71.4376 181.39 71.4376 182.495V200.694C71.4376 201.798 70.5421 202.694 69.4376 202.694H61.006C59.9014 202.694 59.006 201.798 59.006 200.694V182.495Z" fill="url(#paint9_linear_318_2367)"/>
<path d="M113.163 77.4674C113.918 76.8329 115.024 76.8442 115.766 77.494L171.346 126.137C172.736 127.354 171.876 129.642 170.029 129.642H56.5279C54.6611 129.642 53.8122 127.311 55.2417 126.111L113.163 77.4674Z" fill="url(#paint10_linear_318_2367)"/>
<path fill-rule="evenodd" clip-rule="evenodd" d="M120.992 259.553C120.992 259.543 120.992 259.533 120.992 259.523C120.992 255.11 117.414 251.532 113 251.532C108.586 251.532 105.008 255.11 105.008 259.523C105.008 259.523 105.008 259.523 105.008 259.523H105.008C105.008 259.523 105.008 259.523 105.008 259.523V283.782C105.008 284.886 105.904 285.782 107.008 285.782H118.992C120.096 285.782 120.992 284.886 120.992 283.782V259.553Z" fill="#7E622B"/>
<path fill-rule="evenodd" clip-rule="evenodd" d="M123 374.17V403.455C123 404.56 122.105 405.455 121 405.455H105.947C104.842 405.455 103.947 404.56 103.947 403.455V374.154C103.947 374.154 103.947 374.154 103.947 374.154C103.947 374.154 103.947 374.154 103.947 374.154C103.947 368.892 108.212 364.627 113.474 364.627C118.735 364.627 123 368.892 123 374.154C123 374.159 123 374.164 123 374.17Z" fill="#7E622B"/>
<defs>
<radialGradient id="paint0_radial_318_2367" cx="0" cy="0" r="1" gradientUnits="userSpaceOnUse" gradientTransform="translate(117.345 469.845) rotate(90) scale(30.9769 96.4413)">
<stop offset="0.6875" stop-color="#725B2F"/>
<stop offset="1" stop-color="#725D35" stop-opacity="0"/>
</radialGradient>
<radialGradient id="paint1_radial_318_2367" cx="0" cy="0" r="1" gradientUnits="userSpaceOnUse" gradientTransform="translate(113 265.205) rotate(90) scale(112.771 265.205)">
<stop offset="0.625" stop-color="#FF0000" stop-opacity="0.29"/>
<stop offset="0.973958" stop-color="#51A1FF" stop-opacity="0"/>
</radialGradient>
<linearGradient id="paint2_linear_318_2367" x1="110.265" y1="114.086" x2="110.265" y2="231.107" gradientUnits="userSpaceOnUse">
<stop stop-color="white"/>
<stop offset="0.307292" stop-color="#C4C4C4"/>
<stop offset="1" stop-color="#565656"/>
</linearGradient>
<linearGradient id="paint3_linear_318_2367" x1="100.376" y1="106.88" x2="100.218" y2="204.184" gradientUnits="userSpaceOnUse">
<stop stop-color="white"/>
<stop offset="0.617106" stop-color="#FDDC9B"/>
<stop offset="0.927098" stop-color="#D6AE60"/>
</linearGradient>
<linearGradient id="paint4_linear_318_2367" x1="175.584" y1="167.863" x2="176.038" y2="168.986" gradientUnits="userSpaceOnUse">
<stop stop-color="#9D8555"/>
<stop offset="1" stop-color="#443105"/>
</linearGradient>
<linearGradient id="paint5_linear_318_2367" x1="150.373" y1="149.644" x2="127.35" y2="171.664" gradientUnits="userSpaceOnUse">
<stop stop-color="#FDDC9B"/>
<stop offset="1" stop-color="#FFF2D9"/>
</linearGradient>
<linearGradient id="paint6_linear_318_2367" x1="162.89" y1="160.056" x2="156.177" y2="164.598" gradientUnits="userSpaceOnUse">
<stop stop-color="#9D8555"/>
<stop offset="1" stop-color="#443105"/>
</linearGradient>
<linearGradient id="paint7_linear_318_2367" x1="188.14" y1="157.336" x2="184.462" y2="169.752" gradientUnits="userSpaceOnUse">
<stop stop-color="white"/>
<stop offset="1" stop-color="#565656"/>
</linearGradient>
<linearGradient id="paint8_linear_318_2367" x1="113.933" y1="122.777" x2="113.387" y2="472.92" gradientUnits="userSpaceOnUse">
<stop stop-color="#D9D9D9"/>
<stop offset="1" stop-color="#565656"/>
</linearGradient>
<linearGradient id="paint9_linear_318_2367" x1="91.9888" y1="169.157" x2="91.7329" y2="472.746" gradientUnits="userSpaceOnUse">
<stop stop-color="white"/>
<stop offset="0.177083" stop-color="#FDDC9B"/>
<stop offset="0.729167" stop-color="#D6AE60"/>
<stop offset="1" stop-color="#725B2F"/>
</linearGradient>
<linearGradient id="paint10_linear_318_2367" x1="113.194" y1="76.3647" x2="113.194" y2="129.642" gradientUnits="userSpaceOnUse">
<stop stop-color="#FF7171"/>
<stop offset="1" stop-color="#DB3030"/>
</linearGradient>
</defs>
</svg>
