<svg width="83" height="85" viewBox="0 0 83 85" fill="none" xmlns="http://www.w3.org/2000/svg">
<ellipse cx="40.8816" cy="70.9556" rx="40.8816" ry="13.1311" fill="url(#paint0_radial_373_3134)"/>
<path d="M59.0774 32.206C59.6427 32.8117 60.5919 32.8444 61.1975 32.2791C61.8031 31.7139 61.8358 30.7647 61.2706 30.1591L59.0774 32.206ZM41.9422 33.6211C45.0691 30.4943 47.9894 28.7051 50.7138 28.3646C53.3244 28.0383 56.0915 29.0068 59.0774 32.206L61.2706 30.1591C57.8258 26.4682 54.1621 24.9103 50.3418 25.3878C46.6354 25.851 43.1249 28.1959 39.8209 31.4997L41.9422 33.6211Z" fill="#42361E"/>
<path d="M65.5813 58.5644L64.1528 58.1069L65.5813 58.5644C66.8106 54.7266 65.9237 48.6678 62.493 43.4921C58.9969 38.2178 52.8169 33.7713 43.3449 33.2331L43.2598 34.7307L43.3449 33.2331C43.0421 33.2159 42.5631 33.0539 41.8732 32.5861C41.2012 32.1305 40.4537 31.471 39.6322 30.6499C38.6469 29.6651 37.6823 28.585 36.6772 27.4595C35.9434 26.6378 35.1879 25.7918 34.387 24.9411C30.1053 20.3933 26.2236 18.2946 22.6424 17.7858C19.056 17.2761 16.0374 18.4002 13.5838 19.7375C11.0321 21.1282 8.59428 23.2591 7.14762 26.9548C5.72205 30.5966 5.31978 35.6039 6.47526 42.6505C8.4119 54.4615 20.0464 74.3135 45.1496 73.1447C54.8002 72.6952 63.2606 65.8098 65.5813 58.5644Z" fill="url(#paint1_linear_373_3134)" stroke="#725D35" stroke-width="3"/>
<circle cx="21.5892" cy="38.0726" r="2.29672" fill="#725D35"/>
<circle cx="32.6134" cy="35.3165" r="2.29672" fill="#725D35"/>
<path d="M38.585 58.0683C45.4751 58.0683 48.6905 55.5277 51.9059 51.8529" stroke="#42361E" stroke-width="3" stroke-linecap="round"/>
<path d="M23.8694 44.3679C27.4821 47.2544 32.1124 46.0999 33.6748 41.9232" stroke="#725D35" stroke-width="3" stroke-linecap="round"/>
<path d="M65.1494 67.0114C65.1494 67.0114 54.1983 58.5312 51.5343 52.8777C49.7047 48.9948 49.4207 43.7522 49.703 38.9914C50.0891 32.4812 51.5343 26.8718 51.5343 26.8718C57.4252 26.3142 60.6508 25.8687 65.1494 22.9144C69.4249 25.7798 73.0031 26.152 79.3317 26.8718C79.3317 26.8718 80.4328 32.5414 80.7562 38.9914C81.0014 43.8818 80.7995 49.2208 79.3317 52.8777C77.2894 57.9659 65.1494 67.0114 65.1494 67.0114Z" fill="url(#paint2_linear_373_3134)"/>
<path d="M65.1494 67.0114C65.1494 67.0114 54.1983 58.5312 51.5343 52.8777C49.7047 48.9948 49.4207 43.7522 49.703 38.9914M65.1494 67.0114C65.1494 67.0114 77.2894 57.9659 79.3317 52.8777C80.7995 49.2208 81.0014 43.8818 80.7562 38.9914M65.1494 67.0114V22.9144M65.1494 22.9144C69.4249 25.7798 73.0031 26.152 79.3317 26.8718C79.3317 26.8718 80.4328 32.5414 80.7562 38.9914M65.1494 22.9144C60.6508 25.8687 57.4252 26.3142 51.5343 26.8718C51.5343 26.8718 50.0891 32.4812 49.703 38.9914M49.703 38.9914H80.7562" stroke="#535353" stroke-width="3"/>
<path d="M33.5479 20.8784L3.6906 31.9026C3.6906 31.9026 3.37862 28.9719 5.52799 24.5532C6.55525 22.4413 8.22977 19.614 10.565 17.5068L9.64627 5L17.9144 14.6497C21.0749 14.7217 24.3957 15.882 26.6578 16.7443C31.6473 18.6465 33.5479 20.8784 33.5479 20.8784Z" fill="url(#paint3_linear_373_3134)"/>
<path d="M13.7961 15.3662L15.6335 19.6641M13.7961 15.3662C12.6058 15.8896 11.5291 16.6369 10.565 17.5068M13.7961 15.3662C15.0577 14.8115 16.4693 14.6168 17.9144 14.6497M5.52799 24.5532C3.37862 28.9719 3.6906 31.9026 3.6906 31.9026L33.5479 20.8784C33.5479 20.8784 31.6473 18.6465 26.6578 16.7443M5.52799 24.5532C9.04212 22.3793 12.3003 20.8495 15.6335 19.6641M5.52799 24.5532C6.55525 22.4413 8.22977 19.614 10.565 17.5068M26.6578 16.7443C22.653 17.5697 19.1027 18.4304 15.6335 19.6641M26.6578 16.7443C24.3957 15.882 21.0749 14.7217 17.9144 14.6497M10.565 17.5068L9.64627 5L17.9144 14.6497" stroke="#535353" stroke-width="3"/>
<defs>
<radialGradient id="paint0_radial_373_3134" cx="0" cy="0" r="1" gradientUnits="userSpaceOnUse" gradientTransform="translate(40.8816 70.9556) rotate(90) scale(13.1311 40.8816)">
<stop offset="0.6875" stop-color="#725B2F"/>
<stop offset="1" stop-color="#725D35" stop-opacity="0"/>
</radialGradient>
<linearGradient id="paint1_linear_373_3134" x1="15.5975" y1="23.0245" x2="52.3267" y2="71.3259" gradientUnits="userSpaceOnUse">
<stop stop-color="#FFF2D9"/>
<stop offset="0.671875" stop-color="#FDDC9B"/>
<stop offset="1" stop-color="#D6AE60"/>
</linearGradient>
<linearGradient id="paint2_linear_373_3134" x1="63.6998" y1="22.6694" x2="81.3047" y2="62.5586" gradientUnits="userSpaceOnUse">
<stop stop-color="#C4C4C4"/>
<stop offset="0.177867" stop-color="white"/>
<stop offset="0.30223" stop-color="#C4C4C4"/>
<stop offset="0.969271" stop-color="#777777"/>
</linearGradient>
<linearGradient id="paint3_linear_373_3134" x1="16.0771" y1="16.4836" x2="21.605" y2="26.85" gradientUnits="userSpaceOnUse">
<stop stop-color="#B5B5B5"/>
<stop offset="1" stop-color="#565656"/>
</linearGradient>
</defs>
</svg>
