<svg width="113" height="99" viewBox="0 0 113 99" fill="none" xmlns="http://www.w3.org/2000/svg">
<ellipse cx="56.5" cy="84.2934" rx="56.5" ry="14.2934" fill="url(#paint0_radial_357_2629)"/>
<path d="M88.4035 42.0235C88.9688 42.6291 89.918 42.6618 90.5236 42.0966C91.1292 41.5313 91.162 40.5821 90.5967 39.9765L88.4035 42.0235ZM69.5608 43.5605C72.9722 40.1491 76.1771 38.177 79.1862 37.8009C82.0813 37.439 85.133 38.5193 88.4035 42.0235L90.5967 39.9765C86.8673 35.9807 82.919 34.311 78.8141 34.8241C74.8231 35.3229 71.028 37.8507 67.4395 41.4391L69.5608 43.5605Z" fill="#42361E"/>
<path d="M49 68.5C41 68.5 30.5 53.5 30.5 53.5C27 62 4 72 7.50004 82L34 86C38.5 78 47.5 78.5 49 68.5Z" fill="url(#paint1_linear_357_2629)" stroke="url(#paint2_linear_357_2629)" stroke-width="3"/>
<path d="M94.5962 5.5874C93.5395 4.52279 93.5391 4.52316 93.5387 4.52357L93.5377 4.52452L93.5353 4.52691L93.5286 4.53367L93.5075 4.55498C93.4901 4.57262 93.4661 4.59708 93.4363 4.6281C93.3766 4.69011 93.2929 4.77844 93.1901 4.89087C92.9847 5.11543 92.7013 5.43771 92.378 5.83973C91.7359 6.63828 90.9152 7.778 90.241 9.1122C88.996 11.576 88.0636 15.1437 90.402 18.2923L85.9828 51.859L85.787 53.3462L87.2742 53.5419L89.0092 53.7704L90.4964 53.9662L90.6922 52.479L95.1182 18.8601C98.1627 16.1848 98.3149 12.5913 97.7883 9.88283C97.5105 8.45391 97.0366 7.19657 96.6388 6.30441C96.4386 5.85537 96.2544 5.49133 96.1178 5.23561C96.0495 5.10758 95.9928 5.00621 95.9518 4.93439C95.9312 4.89847 95.9146 4.8699 95.9023 4.84903L95.8871 4.82355L95.8821 4.81522L95.8803 4.81217L95.8795 4.81092C95.8792 4.81038 95.8789 4.80987 94.5962 5.5874ZM94.5962 5.5874L93.5395 4.52279L94.8915 3.18082L95.8789 4.80987L94.5962 5.5874Z" fill="#FDDC9B" stroke="url(#paint3_linear_357_2629)" stroke-width="3"/>
<path d="M95.7053 11.6118C93.1136 13.1821 92.6601 14.1764 95.2453 16.3329C97.7798 14.7577 97.8265 13.7225 95.7053 11.6118Z" fill="#FF4545"/>
<path d="M91.7395 11.0897C89.1478 12.66 88.6944 13.6543 91.2795 15.8108C93.814 14.2357 93.8607 13.2004 91.7395 11.0897Z" fill="#BC66FF"/>
<path d="M94.2445 7.38501C91.6528 8.95533 91.1994 9.94956 93.7846 12.1061C96.319 10.5309 96.3657 9.49565 94.2445 7.38501Z" fill="#FFB100"/>
<path d="M71.1737 43.3646L71.089 44.8567L71.1737 43.3646C70.8094 43.3439 70.2642 43.1526 69.5048 42.6376C68.7632 42.1348 67.9428 41.4103 67.046 40.514C65.9726 39.4411 64.917 38.2592 63.8197 37.0306C63.0208 36.1361 62.1999 35.2169 61.3338 34.2971C56.686 29.3603 52.4864 27.0971 48.6277 26.5488C44.7638 25.9997 41.508 27.2095 38.8495 28.6584C36.093 30.1608 33.4647 32.4587 31.9038 36.4463C30.3639 40.38 29.9236 45.804 31.1793 53.4614C33.2806 66.277 45.9048 87.8115 73.1395 86.5435C83.592 86.0567 92.7511 78.5958 95.2594 70.7649C96.5824 66.6342 95.631 60.0808 91.9135 54.4723C88.1305 48.7652 81.4413 43.9479 71.1737 43.3646Z" fill="url(#paint4_linear_357_2629)" stroke="#725D35" stroke-width="3"/>
<circle cx="47.5001" cy="48.4999" r="2.5" fill="#725D35"/>
<circle cx="59.5" cy="45.4999" r="2.5" fill="#725D35"/>
<path d="M49.982 55.3524C53.9145 58.4944 58.9546 57.2377 60.6552 52.6913" stroke="#725D35" stroke-width="3" stroke-linecap="round"/>
<path d="M59 30.3771L28.4681 41L23.234 33.0328L19 26.0741L27.1596 23.2951L29.5 30.3771L38.0638 27.8894L35 21.082L42 19L43.2979 26.0741L51.1489 23.2951L49.4043 16.2131L56.8191 14L57.6915 21.082L59 30.3771Z" fill="url(#paint5_linear_357_2629)" stroke="url(#paint6_linear_357_2629)" stroke-width="3"/>
<path d="M53.1555 25C51.4265 27.4887 51.4167 28.5814 54.6555 29.5C56.3302 27.0302 55.9517 26.0654 53.1555 25Z" fill="#FF4545"/>
<path d="M30.1555 33C28.4265 35.4887 28.4167 36.5814 31.6555 37.5C33.3302 35.0302 32.9517 34.0654 30.1555 33Z" fill="#BC66FF"/>
<path d="M41.1555 29C39.4265 31.4887 39.4167 32.5814 42.6555 33.5C44.3302 31.0302 43.9517 30.0654 41.1555 29Z" fill="#FFB100"/>
<defs>
<radialGradient id="paint0_radial_357_2629" cx="0" cy="0" r="1" gradientUnits="userSpaceOnUse" gradientTransform="translate(56.5 84.2934) rotate(90) scale(14.2934 56.5)">
<stop offset="0.6875" stop-color="#725B2F"/>
<stop offset="1" stop-color="#725D35" stop-opacity="0"/>
</radialGradient>
<linearGradient id="paint1_linear_357_2629" x1="55.0572" y1="58.5" x2="58.5572" y2="104" gradientUnits="userSpaceOnUse">
<stop stop-color="#FF4545"/>
<stop offset="1" stop-color="#FFB100"/>
</linearGradient>
<linearGradient id="paint2_linear_357_2629" x1="28" y1="66.5" x2="17" y2="92" gradientUnits="userSpaceOnUse">
<stop stop-color="white"/>
<stop offset="1" stop-color="#FFC645"/>
</linearGradient>
<linearGradient id="paint3_linear_357_2629" x1="96.8929" y1="-4.19657" x2="89.2051" y2="52.2832" gradientUnits="userSpaceOnUse">
<stop stop-color="#FDDC9B"/>
<stop offset="1" stop-color="#FFC645"/>
</linearGradient>
<linearGradient id="paint4_linear_357_2629" x1="40.9779" y1="32.1197" x2="80.9581" y2="84.6964" gradientUnits="userSpaceOnUse">
<stop stop-color="#FFF2D9"/>
<stop offset="0.671875" stop-color="#FDDC9B"/>
<stop offset="1" stop-color="#D6AE60"/>
</linearGradient>
<linearGradient id="paint5_linear_357_2629" x1="39" y1="14" x2="39" y2="41" gradientUnits="userSpaceOnUse">
<stop stop-color="white"/>
<stop offset="1" stop-color="#FDDC9B"/>
</linearGradient>
<linearGradient id="paint6_linear_357_2629" x1="43.5" y1="16" x2="39" y2="41" gradientUnits="userSpaceOnUse">
<stop stop-color="#FFDF6F"/>
<stop offset="1" stop-color="#FFB100"/>
</linearGradient>
</defs>
</svg>
