<svg width="141" height="364" viewBox="0 0 141 364" fill="none" xmlns="http://www.w3.org/2000/svg">
<ellipse cx="70.5" cy="165.795" rx="165.795" ry="70.5" transform="rotate(-90 70.5 165.795)" fill="url(#paint0_radial_285_2502)"/>
<path fill-rule="evenodd" clip-rule="evenodd" d="M101.032 124.126C101.032 123.021 100.136 122.126 99.0316 122.126H40.8583C39.7538 122.126 38.8583 123.021 38.8583 124.126V166.756C38.8583 167.861 39.7538 168.756 40.8583 168.756H42.3978C43.505 168.756 44.4018 169.675 44.3951 170.783C43.9304 247.713 32.2968 291.469 19.0299 341.369C17.2575 348.035 15.456 354.811 13.648 361.79C13.4841 362.423 13.9602 363.047 14.6139 363.047H119.195C119.853 363.047 120.328 362.41 120.158 361.774C101.38 291.792 95.1725 248.758 94.9325 170.78C94.9291 169.674 95.8252 168.756 96.9312 168.756H99.0316C100.136 168.756 101.032 167.861 101.032 166.756V124.126Z" fill="url(#paint1_linear_285_2502)"/>
<path fill-rule="evenodd" clip-rule="evenodd" d="M101.032 124.126C101.032 123.021 100.136 122.126 99.0316 122.126H40.8583C39.7538 122.126 38.8583 123.021 38.8583 124.126V166.756C38.8583 167.861 39.7538 168.756 40.8583 168.756H42.3978C43.505 168.756 44.4018 169.675 44.3951 170.783C43.9304 247.713 32.2968 291.469 19.0299 341.369C17.2575 348.035 15.456 354.811 13.648 361.79C13.4841 362.423 13.9602 363.047 14.6139 363.047H119.195C119.853 363.047 120.328 362.41 120.158 361.774C101.38 291.792 95.1725 248.758 94.9325 170.78C94.9291 169.674 95.8252 168.756 96.9312 168.756H99.0316C100.136 168.756 101.032 167.861 101.032 166.756V124.126Z" fill="url(#paint2_linear_285_2502)"/>
<rect x="33.3071" y="122.126" width="18.874" height="28.8661" rx="2" fill="url(#paint3_linear_285_2502)"/>
<rect x="33.3071" y="122.126" width="18.874" height="28.8661" rx="2" fill="url(#paint4_linear_285_2502)"/>
<rect x="87.7087" y="122.126" width="18.874" height="28.8661" rx="2" fill="url(#paint5_linear_285_2502)"/>
<rect x="87.7087" y="122.126" width="18.874" height="28.8661" rx="2" fill="url(#paint6_linear_285_2502)"/>
<rect x="68.8347" y="28.8662" width="2.22047" height="31.0866" fill="#D9D9D9"/>
<path d="M79.937 32.1969C76.8665 30.4242 74.9732 29.7452 71.0551 28.8662V39.9686C73.2756 37.7481 76.0512 36.6379 79.937 36.6379C83.0409 36.6379 84.7689 35.8528 87.7087 34.9725C87.7087 34.9725 83.0075 33.9697 79.937 32.1969Z" fill="url(#paint7_linear_285_2502)"/>
<path d="M99.9914 122.126H39.8985C38.4058 122.126 37.4391 120.55 38.1157 119.22L68.1621 60.1282C68.9035 58.6702 70.9863 58.6702 71.7277 60.1282L101.774 119.22C102.451 120.55 101.484 122.126 99.9914 122.126Z" fill="url(#paint8_linear_285_2502)"/>
<path d="M52.1689 124.902H33.4646C31.9196 124.902 30.9581 123.225 31.7385 121.891L41.4973 105.22C42.2864 103.872 44.2471 103.908 44.9857 105.285L53.9312 121.956C54.6462 123.288 53.681 124.902 52.1689 124.902Z" fill="url(#paint9_linear_285_2502)"/>
<path d="M106.57 124.902H87.8661C86.3212 124.902 85.3596 123.225 86.1401 121.891L95.8989 105.22C96.688 103.872 98.6487 103.908 99.3872 105.285L108.333 121.956C109.048 123.288 108.083 124.902 106.57 124.902Z" fill="url(#paint10_linear_285_2502)"/>
<path fill-rule="evenodd" clip-rule="evenodd" d="M74.0157 140.273C74.0158 140.269 74.0158 140.264 74.0158 140.26C74.0158 138.216 72.3589 136.559 70.315 136.559C68.2711 136.559 66.6142 138.216 66.6142 140.26C66.6142 140.26 66.6142 140.26 66.6142 140.26V140.26C66.6142 140.26 66.6142 140.26 66.6142 140.26V150.42C66.6142 151.524 67.5096 152.42 68.6142 152.42H72.0157C73.1203 152.42 74.0157 151.524 74.0157 150.42V140.273Z" fill="#7E622B"/>
<defs>
<radialGradient id="paint0_radial_285_2502" cx="0" cy="0" r="1" gradientUnits="userSpaceOnUse" gradientTransform="translate(70.5 165.795) rotate(90) scale(70.5 165.795)">
<stop offset="0.583333" stop-color="#FFDF6F" stop-opacity="0.38"/>
<stop offset="0.973958" stop-color="#51A1FF" stop-opacity="0"/>
</radialGradient>
<linearGradient id="paint1_linear_285_2502" x1="66.904" y1="122.126" x2="66.904" y2="363.047" gradientUnits="userSpaceOnUse">
<stop stop-color="#EDEDED"/>
<stop offset="1" stop-color="#6C6C6C"/>
</linearGradient>
<linearGradient id="paint2_linear_285_2502" x1="51.3293" y1="122.126" x2="51.3293" y2="362.904" gradientUnits="userSpaceOnUse">
<stop stop-color="white"/>
<stop offset="0.229167" stop-color="#FDDC9B"/>
<stop offset="0.609375" stop-color="#D6AE60"/>
</linearGradient>
<linearGradient id="paint3_linear_285_2502" x1="42.7441" y1="122.126" x2="42.7441" y2="150.992" gradientUnits="userSpaceOnUse">
<stop stop-color="#E3E3E3"/>
<stop offset="1" stop-color="#939393"/>
</linearGradient>
<linearGradient id="paint4_linear_285_2502" x1="39.9859" y1="122.126" x2="39.9859" y2="150.975" gradientUnits="userSpaceOnUse">
<stop stop-color="white"/>
<stop offset="1" stop-color="#FDDC9B"/>
</linearGradient>
<linearGradient id="paint5_linear_285_2502" x1="97.1457" y1="122.126" x2="97.1457" y2="150.992" gradientUnits="userSpaceOnUse">
<stop stop-color="#E3E3E3"/>
<stop offset="1" stop-color="#939393"/>
</linearGradient>
<linearGradient id="paint6_linear_285_2502" x1="94.3875" y1="122.126" x2="94.3875" y2="150.975" gradientUnits="userSpaceOnUse">
<stop stop-color="white"/>
<stop offset="1" stop-color="#FDDC9B"/>
</linearGradient>
<linearGradient id="paint7_linear_285_2502" x1="79.3819" y1="28.8662" x2="79.3819" y2="36.6832" gradientUnits="userSpaceOnUse">
<stop stop-color="#FF4545"/>
<stop offset="1" stop-color="#FFB100"/>
</linearGradient>
<linearGradient id="paint8_linear_285_2502" x1="69.9449" y1="56.6221" x2="69.9449" y2="122.126" gradientUnits="userSpaceOnUse">
<stop offset="0.364583" stop-color="#FFDF6F"/>
<stop offset="1" stop-color="#DEB214"/>
</linearGradient>
<linearGradient id="paint9_linear_285_2502" x1="42.7441" y1="102.142" x2="42.7441" y2="124.902" gradientUnits="userSpaceOnUse">
<stop offset="0.671875" stop-color="#FFDF6F"/>
<stop offset="1" stop-color="#DEB214"/>
</linearGradient>
<linearGradient id="paint10_linear_285_2502" x1="97.1456" y1="102.142" x2="97.1456" y2="124.902" gradientUnits="userSpaceOnUse">
<stop offset="0.661458" stop-color="#FFDF6F"/>
<stop offset="1" stop-color="#DEB214"/>
</linearGradient>
</defs>
</svg>
