<svg width="102" height="111" viewBox="0 0 102 111" fill="none" xmlns="http://www.w3.org/2000/svg">
<ellipse cx="44.5" cy="14.2934" rx="44.5" ry="14.2934" transform="matrix(-1 0 0 1 98.8506 82.0004)" fill="url(#paint0_radial_373_3113)"/>
<path d="M34.4471 58.024C33.8819 58.6296 32.9327 58.6623 32.327 58.0971C31.7214 57.5318 31.6887 56.5826 32.2539 55.977L34.4471 58.024ZM53.2899 59.561C49.8784 56.1496 46.6735 54.1775 43.6645 53.8014C40.7694 53.4395 37.7177 54.5198 34.4471 58.024L32.2539 55.977C35.9834 51.9812 39.9317 50.3115 44.0366 50.8246C48.0275 51.3234 51.8227 53.8512 55.4112 57.4396L53.2899 59.561Z" fill="#42361E"/>
<path d="M51.6769 59.3649L51.7619 60.8625L51.6769 59.3649C52.0411 59.3442 52.5864 59.1529 53.3458 58.638C54.0874 58.1351 54.9078 57.4106 55.8045 56.5143C56.878 55.4414 57.9336 54.2595 59.0309 53.031C59.8298 52.1365 60.6507 51.2173 61.5168 50.2974C66.1646 45.3607 70.3642 43.0975 74.2229 42.5492C78.0868 42.0001 81.3426 43.2098 84.001 44.6588C86.7576 46.1611 89.3859 48.4591 90.9468 52.4467C92.4867 56.3804 92.927 61.8044 91.6713 69.4618C89.57 82.2774 76.9457 103.812 49.7111 102.544C39.2586 102.057 30.0995 94.5962 27.5912 86.7652C26.2682 82.6346 27.2195 76.0812 30.9371 70.4727C34.72 64.7656 41.4093 59.9483 51.6769 59.3649Z" fill="url(#paint1_linear_373_3113)" stroke="#725D35" stroke-width="3"/>
<circle cx="2.5" cy="2.5" r="2.5" transform="matrix(-1 0 0 1 77.8505 62.0004)" fill="#725D35"/>
<circle cx="2.5" cy="2.5" r="2.5" transform="matrix(-1 0 0 1 65.8505 59.0004)" fill="#725D35"/>
<path d="M72.8686 71.3529C68.9361 74.4949 63.896 73.2382 62.1953 68.6918" stroke="#725D35" stroke-width="3" stroke-linecap="round"/>
<path d="M31.266 10.2217L31.2661 10.222L37.9924 42.6813C38.2357 43.855 37.4834 45.0072 36.3072 45.2527L29.3052 46.7146C28.1271 46.9606 26.9765 46.2026 26.733 45.0274L20.0049 12.5599C20.0049 12.5599 20.0049 12.5599 20.0049 12.5598C19.8982 12.0449 19.9816 11.5088 20.2394 11.0507L20.2394 11.0507L22.8475 6.41727L22.8475 6.41721C23.4831 5.28811 24.9616 4.95894 26.0156 5.72141C26.0156 5.72143 26.0157 5.72145 26.0157 5.72147L30.4114 8.90128L30.4114 8.90132C30.8517 9.21984 31.1559 9.69117 31.266 10.2217Z" fill="url(#paint2_linear_373_3113)" stroke="url(#paint3_linear_373_3113)" stroke-width="3"/>
<path d="M39.2939 40.4919L39.2938 40.4919L24.6298 43.5535L24.6297 43.5535C23.1296 43.8667 22.1694 45.3367 22.4798 46.8348L22.4798 46.8349L22.7537 48.1565C22.7537 48.1566 22.7538 48.1566 22.7538 48.1567C23.0645 49.6566 24.5324 50.6223 26.0341 50.3089L26.0342 50.3088L29.9894 49.4831L31.6172 57.3384C31.6172 57.3384 31.6172 57.3384 31.6172 57.3385C31.928 58.8382 33.3957 59.8042 34.8977 59.4906L39.2939 40.4919ZM39.2939 40.4919C40.7957 40.1785 42.2634 41.1443 42.5742 42.6441C42.5742 42.6441 42.5742 42.6441 42.5742 42.6441L42.8482 43.9659L42.8482 43.966C43.1586 45.4641 42.1984 46.9341 40.6983 47.2473L40.6982 47.2473L36.7387 48.074L38.3674 55.9337C38.3674 55.9337 38.3674 55.9337 38.3674 55.9338C38.6779 57.4318 37.7176 58.9019 36.2175 59.2151C36.2174 59.2151 36.2174 59.2151 36.2174 59.2151L34.8977 59.4906L39.2939 40.4919Z" fill="url(#paint4_linear_373_3113)" stroke="url(#paint5_linear_373_3113)" stroke-width="3"/>
<path d="M89.8952 81.3391C103.131 66.9246 105.01 44.8286 88.1341 36.648C71.2582 28.4673 56.6366 34.9971 47.6893 53.418C42.5787 63.9399 52.3346 78.9254 52.3346 78.9254L56.7624 63.1015L56.0985 50.4058L69.2343 54.7214L68.9268 63.5263L74.1529 56.5461L91.1015 62.6477L78.1151 69.908L67.0138 86.6008C67.0138 86.6008 83.8564 87.9155 89.8952 81.3391Z" fill="url(#paint6_linear_373_3113)" stroke="#725D35" stroke-width="3"/>
<path d="M84.267 41.6858L81.5652 40.4527L88.4737 17.0017L88.6232 16.4943L89.0578 16.1929L95.8659 11.4718L98.3241 9.76715L98.2197 12.7568L97.9699 19.9109L97.9556 20.3216L97.7338 20.6677L84.267 41.6858Z" fill="url(#paint7_linear_373_3113)" stroke="#725D35" stroke-width="3"/>
<defs>
<radialGradient id="paint0_radial_373_3113" cx="0" cy="0" r="1" gradientUnits="userSpaceOnUse" gradientTransform="translate(44.5 14.2934) rotate(90) scale(14.2934 44.5)">
<stop offset="0.6875" stop-color="#725B2F"/>
<stop offset="1" stop-color="#725D35" stop-opacity="0"/>
</radialGradient>
<linearGradient id="paint1_linear_373_3113" x1="81.8726" y1="48.1201" x2="41.8925" y2="100.697" gradientUnits="userSpaceOnUse">
<stop stop-color="#FFF2D9"/>
<stop offset="0.671875" stop-color="#FDDC9B"/>
<stop offset="1" stop-color="#D6AE60"/>
</linearGradient>
<linearGradient id="paint2_linear_373_3113" x1="18.6628" y1="24.1557" x2="33.5504" y2="27.5928" gradientUnits="userSpaceOnUse">
<stop stop-color="#FF4545"/>
<stop offset="1" stop-color="#D9D9D9"/>
</linearGradient>
<linearGradient id="paint3_linear_373_3113" x1="18.6628" y1="24.1557" x2="39.8075" y2="29.0374" gradientUnits="userSpaceOnUse">
<stop stop-color="#DB3030"/>
<stop offset="1" stop-color="#FFB100"/>
</linearGradient>
<linearGradient id="paint4_linear_373_3113" x1="26.8549" y1="45.8841" x2="36.9128" y2="51.4283" gradientUnits="userSpaceOnUse">
<stop stop-color="#565656"/>
<stop offset="1" stop-color="#2E2E2E"/>
</linearGradient>
<linearGradient id="paint5_linear_373_3113" x1="23.7411" y1="46.9081" x2="40.0229" y2="50.6671" gradientUnits="userSpaceOnUse">
<stop stop-color="#725D35"/>
<stop offset="1" stop-color="#FDDC9B"/>
</linearGradient>
<linearGradient id="paint6_linear_373_3113" x1="76.7917" y1="32.946" x2="58.5002" y2="85.246" gradientUnits="userSpaceOnUse">
<stop stop-color="#C4C4C4"/>
<stop offset="0.177867" stop-color="white"/>
<stop offset="0.30223" stop-color="#C4C4C4"/>
<stop offset="0.969271" stop-color="#979797"/>
</linearGradient>
<linearGradient id="paint7_linear_373_3113" x1="93.3505" y1="14" x2="89.3627" y2="41.0986" gradientUnits="userSpaceOnUse">
<stop stop-color="#FFDF6F"/>
<stop offset="1" stop-color="#FFB100"/>
</linearGradient>
</defs>
</svg>
