<svg width="68" height="68" viewBox="0 0 68 68" fill="none" xmlns="http://www.w3.org/2000/svg">
<rect x="3.5" y="3.5" width="63" height="63" rx="3.5" fill="url(#paint0_linear_373_3039)" stroke="#D6AE60" stroke-width="3"/>
<path d="M58.1013 38.7342C58.4424 34.8117 55.519 23.8886 49.4696 18.5366C37.8983 8.2991 22.1339 7.21571 14.2589 16.1168C6.38393 25.0178 9.38044 40.5326 20.9518 50.7701C28.0939 57.0889 36.8333 59.9203 44.3291 59.0691C54.6582 58.1013 37.0127 46.0506 44.3291 40.8861C48.9783 37.6043 52.9367 46.481 55.519 46.481C58.1013 46.481 57.7602 42.6567 58.1013 38.7342Z" fill="url(#paint1_linear_373_3039)" stroke="#725D35" stroke-width="3"/>
<circle cx="46.9114" cy="30.557" r="5.59494" fill="#DB3030"/>
<ellipse cx="36.1519" cy="21.0886" rx="5.16456" ry="5.59494" fill="#117EFF"/>
<circle cx="21.9494" cy="23.6709" r="5.59494" fill="#FFE81B"/>
<circle cx="22.8101" cy="39.1646" r="5.59494" fill="#82FF56"/>
<defs>
<linearGradient id="paint0_linear_373_3039" x1="68" y1="-11.1154" x2="-4.42652" y2="31.6934" gradientUnits="userSpaceOnUse">
<stop stop-color="#FDDC9B"/>
<stop offset="1" stop-color="#FFF2D9"/>
</linearGradient>
<linearGradient id="paint1_linear_373_3039" x1="24.962" y1="16.3544" x2="51.2152" y2="64.9873" gradientUnits="userSpaceOnUse">
<stop stop-color="#D6AE60"/>
<stop offset="1" stop-color="#7E622B"/>
</linearGradient>
</defs>
</svg>
