<svg width="76" height="71" viewBox="0 0 76 71" fill="none" xmlns="http://www.w3.org/2000/svg">
<path d="M46.9626 20.6507L46.8775 22.1483L46.9626 20.6507C46.5112 20.625 45.8724 20.3923 45.0145 19.8106C44.1744 19.241 43.2507 18.4243 42.2476 17.4217C41.0493 16.2241 39.8648 14.898 38.637 13.5236C37.7461 12.5262 36.8325 11.5033 35.8742 10.4855C30.7082 4.99829 26.0586 2.50215 21.807 1.898C17.5502 1.29311 13.9587 2.62415 11.0103 4.23108C7.96387 5.89144 5.06589 8.42597 3.34323 12.8267C1.64166 17.1736 1.14755 23.1874 2.54495 31.7094C4.87948 45.947 18.9046 69.8632 49.1564 68.4547C60.7441 67.915 70.8921 59.6395 73.6659 50.9797C75.1217 46.4347 74.079 39.1811 69.9553 32.96C65.7664 26.6403 58.3564 21.298 46.9626 20.6507Z" fill="url(#paint0_linear_376_3208)" stroke="#D6AE60" stroke-width="3"/>
<defs>
<linearGradient id="paint0_linear_376_3208" x1="24.6356" y1="13.1341" x2="60.8164" y2="73.3529" gradientUnits="userSpaceOnUse">
<stop stop-color="#FDDC9B"/>
<stop offset="1" stop-color="#D6AE60"/>
</linearGradient>
</defs>
</svg>
