<svg width="177" height="51" viewBox="0 0 177 51" fill="none" xmlns="http://www.w3.org/2000/svg">
<path d="M88.5 7.50127C119.724 7.50127 126.066 1.99998 152.214 2C169.092 2.00001 175.068 8.83092 174.999 13.4257V44.3175C167.404 50.2419 156.715 50.8718 145.885 44.3175V39.2394C131.539 40.5089 113.817 44.3175 88.5 44.3175C63.183 44.3175 45.4613 40.5089 31.1151 39.2394V44.3175C20.2849 50.8718 9.59569 50.2419 2.00062 44.3175V13.4257C1.93224 8.83092 7.9079 2.00001 24.7858 2C50.9342 1.99998 57.2758 7.50127 88.5 7.50127Z" fill="url(#paint0_linear_373_3199)"/>
<path d="M174.999 13.4257C175.068 8.83092 169.092 2.00001 152.214 2C126.066 1.99998 119.724 7.50127 88.5 7.50127C57.2758 7.50127 50.9342 1.99998 24.7858 2C7.9079 2.00001 1.93224 8.83092 2.00062 13.4257M174.999 13.4257C174.931 18.0205 169.936 24.4283 162.763 24.4283M174.999 13.4257V44.3175C167.404 50.2419 156.715 50.8718 145.885 44.3175V39.2394M162.763 24.4283C155.59 24.4283 145.885 23.7062 145.885 16.3879M162.763 24.4283C162.763 20.1315 166.982 16.3879 162.763 13.4257C157.281 9.57729 145.885 10.8867 145.885 16.3879M145.885 16.3879V39.2394M145.885 39.2394C131.539 40.5089 113.817 44.3175 88.5 44.3175C63.183 44.3175 45.4613 40.5089 31.1151 39.2394M2.00062 13.4257C2.069 18.0205 7.064 24.4283 14.2371 24.4283M2.00062 13.4257V44.3175C9.59569 50.2419 20.2849 50.8718 31.1151 44.3175V39.2394M14.2371 24.4283C21.4103 24.4283 31.1151 23.7062 31.1151 16.3879M14.2371 24.4283C14.2371 20.1315 10.0176 16.3879 14.2371 13.4257C19.7189 9.57729 31.1151 10.8867 31.1151 16.3879M31.1151 16.3879V39.2394" stroke="#9D8555" stroke-width="3"/>
<defs>
<linearGradient id="paint0_linear_373_3199" x1="88.5" y1="2" x2="88.5" y2="49" gradientUnits="userSpaceOnUse">
<stop stop-color="#FDDC9B"/>
<stop offset="1" stop-color="#D6AE60"/>
</linearGradient>
</defs>
</svg>
