<svg width="134" height="316" viewBox="0 0 134 316" fill="none" xmlns="http://www.w3.org/2000/svg">
<ellipse cx="67" cy="157.564" rx="157.564" ry="67" transform="rotate(-90 67 157.564)" fill="url(#paint0_radial_279_2446)"/>
<path fill-rule="evenodd" clip-rule="evenodd" d="M34.9208 116.622C34.9208 115.517 34.0254 114.622 32.9208 114.622H25.3145C24.21 114.622 23.3145 115.517 23.3145 116.622V127.76C23.3145 127.788 23.2917 127.811 23.2636 127.811V127.811C23.2354 127.811 23.2126 127.834 23.2126 127.862V136.532C23.2126 137.636 24.108 138.532 25.2126 138.532H28.534C29.6634 138.532 30.5688 139.466 30.533 140.595L26.26 275.433C26.2242 276.562 27.1296 277.496 28.259 277.496H109.529C110.683 277.496 111.598 276.522 111.525 275.37L103.008 140.658C102.936 139.506 103.85 138.532 105.004 138.532H107.732C108.837 138.532 109.732 137.636 109.732 136.532V128.39C109.732 128.361 109.755 128.339 109.783 128.339V128.339C109.811 128.339 109.834 128.316 109.834 128.288V116.622C109.834 115.517 108.939 114.622 107.834 114.622H100.228C99.1233 114.622 98.2279 115.517 98.2279 116.622V125.811C98.2279 126.916 97.3325 127.811 96.2279 127.811H92.8421C91.7375 127.811 90.8421 126.916 90.8421 125.811V116.622C90.8421 115.517 89.9467 114.622 88.8421 114.622H81.2358C80.1312 114.622 79.2358 115.517 79.2358 116.622V125.811C79.2358 126.916 78.3404 127.811 77.2358 127.811H74.9051C73.8005 127.811 72.9051 126.916 72.9051 125.811V116.622C72.9051 115.517 72.0096 114.622 70.9051 114.622H63.2988C62.1942 114.622 61.2988 115.517 61.2988 116.622V125.811C61.2988 126.916 60.4034 127.811 59.2988 127.811H55.913C54.8084 127.811 53.913 126.916 53.913 125.811V116.622C53.913 115.517 53.0175 114.622 51.913 114.622H44.3067C43.2021 114.622 42.3067 115.517 42.3067 116.622V125.811C42.3067 126.916 41.4112 127.811 40.3067 127.811H36.9208C35.8163 127.811 34.9208 126.916 34.9208 125.811V116.622Z" fill="#725D35"/>
<path d="M40.7374 75.8583C40.7374 74.7537 41.6328 73.8583 42.7374 73.8583H91.4933C92.5978 73.8583 93.4933 74.7537 93.4933 75.8583V119.339C93.4933 120.443 92.5978 121.339 91.4933 121.339H42.7374C41.6328 121.339 40.7374 120.443 40.7374 119.339V75.8583Z" fill="url(#paint1_linear_279_2446)"/>
<path d="M40.7374 75.8583C40.7374 74.7537 41.6328 73.8583 42.7374 73.8583H91.4933C92.5978 73.8583 93.4933 74.7537 93.4933 75.8583V119.339C93.4933 120.443 92.5978 121.339 91.4933 121.339H42.7374C41.6328 121.339 40.7374 120.443 40.7374 119.339V75.8583Z" fill="url(#paint2_linear_279_2446)"/>
<path d="M84.3428 108.372L108.704 97.6078" stroke="url(#paint3_linear_279_2446)" stroke-width="3" stroke-linecap="round"/>
<path d="M91.0949 93.0562L83.3436 108.692L100.61 113.935" stroke="url(#paint4_linear_279_2446)" stroke-width="2" stroke-linecap="round"/>
<path d="M90.487 92.8289C90.487 92.8289 97.8 95.0435 100.559 101.098C103.319 107.153 100.383 114.543 100.383 114.543" stroke="url(#paint5_linear_279_2446)" stroke-width="5" stroke-linecap="round"/>
<path d="M109.307 99.7624L107.302 95.8692C106.97 95.2225 107.416 94.4481 108.143 94.4127L114.23 94.116C115.137 94.0718 115.629 95.1622 114.995 95.8127L110.912 100.003C110.435 100.492 109.619 100.37 109.307 99.7624Z" fill="url(#paint6_linear_279_2446)"/>
<path fill-rule="evenodd" clip-rule="evenodd" d="M34.9208 109.236C34.9208 108.132 34.0254 107.236 32.9208 107.236H25.3145C24.21 107.236 23.3145 108.132 23.3145 109.236V120.374C23.3145 120.402 23.2917 120.425 23.2636 120.425V120.425C23.2354 120.425 23.2126 120.448 23.2126 120.476V129.146C23.2126 130.25 24.108 131.146 25.2126 131.146H28.534C29.6634 131.146 30.5688 132.08 30.533 133.209L25.9158 278.909C25.88 280.038 26.7854 280.973 27.9148 280.973H109.199C110.348 280.973 111.261 280.007 111.196 278.86L102.993 133.258C102.928 132.111 103.841 131.146 104.99 131.146H107.732C108.837 131.146 109.732 130.25 109.732 129.146V121.004C109.732 120.976 109.755 120.953 109.783 120.953V120.953C109.811 120.953 109.834 120.93 109.834 120.902V109.236C109.834 108.132 108.939 107.236 107.834 107.236H100.228C99.1233 107.236 98.2279 108.132 98.2279 109.236V118.425C98.2279 119.53 97.3325 120.425 96.2279 120.425H92.8421C91.7375 120.425 90.8421 119.53 90.8421 118.425V109.236C90.8421 108.132 89.9467 107.236 88.8421 107.236H81.2358C80.1312 107.236 79.2358 108.132 79.2358 109.236V118.425C79.2358 119.53 78.3404 120.425 77.2358 120.425H74.9051C73.8005 120.425 72.9051 119.53 72.9051 118.425V109.236C72.9051 108.132 72.0096 107.236 70.9051 107.236H63.2988C62.1942 107.236 61.2988 108.132 61.2988 109.236V118.425C61.2988 119.53 60.4034 120.425 59.2988 120.425H55.913C54.8084 120.425 53.913 119.53 53.913 118.425V109.236C53.913 108.132 53.0175 107.236 51.913 107.236H44.3067C43.2021 107.236 42.3067 108.132 42.3067 109.236V118.425C42.3067 119.53 41.4112 120.425 40.3067 120.425H36.9208C35.8163 120.425 34.9208 119.53 34.9208 118.425V109.236Z" fill="url(#paint7_linear_279_2446)"/>
<path fill-rule="evenodd" clip-rule="evenodd" d="M34.9208 109.236C34.9208 108.132 34.0254 107.236 32.9208 107.236H25.3145C24.21 107.236 23.3145 108.132 23.3145 109.236V120.374C23.3145 120.402 23.2917 120.425 23.2636 120.425V120.425C23.2354 120.425 23.2126 120.448 23.2126 120.476V129.146C23.2126 130.25 24.108 131.146 25.2126 131.146H28.534C29.6634 131.146 30.5688 132.08 30.533 133.209L25.9158 278.909C25.88 280.038 26.7854 280.973 27.9148 280.973H109.199C110.348 280.973 111.261 280.007 111.196 278.86L102.993 133.258C102.928 132.111 103.841 131.146 104.99 131.146H107.732C108.837 131.146 109.732 130.25 109.732 129.146V121.004C109.732 120.976 109.755 120.953 109.783 120.953V120.953C109.811 120.953 109.834 120.93 109.834 120.902V109.236C109.834 108.132 108.939 107.236 107.834 107.236H100.228C99.1233 107.236 98.2279 108.132 98.2279 109.236V118.425C98.2279 119.53 97.3325 120.425 96.2279 120.425H92.8421C91.7375 120.425 90.8421 119.53 90.8421 118.425V109.236C90.8421 108.132 89.9467 107.236 88.8421 107.236H81.2358C80.1312 107.236 79.2358 108.132 79.2358 109.236V118.425C79.2358 119.53 78.3404 120.425 77.2358 120.425H74.9051C73.8005 120.425 72.9051 119.53 72.9051 118.425V109.236C72.9051 108.132 72.0096 107.236 70.9051 107.236H63.2988C62.1942 107.236 61.2988 108.132 61.2988 109.236V118.425C61.2988 119.53 60.4034 120.425 59.2988 120.425H55.913C54.8084 120.425 53.913 119.53 53.913 118.425V109.236C53.913 108.132 53.0175 107.236 51.913 107.236H44.3067C43.2021 107.236 42.3067 108.132 42.3067 109.236V118.425C42.3067 119.53 41.4112 120.425 40.3067 120.425H36.9208C35.8163 120.425 34.9208 119.53 34.9208 118.425V109.236Z" fill="url(#paint8_linear_279_2446)"/>
<path d="M66.5638 46.4729C67.3193 45.8383 68.4247 45.8496 69.1672 46.4994L100.04 73.5187C101.429 74.7348 100.569 77.0237 98.7225 77.0237H35.6775C33.8107 77.0237 32.9618 74.6927 34.3913 73.4921L66.5638 46.4729Z" fill="url(#paint9_linear_279_2446)"/>
<path fill-rule="evenodd" clip-rule="evenodd" d="M71.748 154.189C71.748 154.189 71.748 154.189 71.748 154.189C71.748 151.567 69.6222 149.441 67 149.441C64.3777 149.441 62.252 151.567 62.252 154.189C62.252 154.193 62.252 154.197 62.252 154.201V167.79C62.252 168.894 63.1474 169.79 64.252 169.79H69.748C70.8526 169.79 71.748 168.894 71.748 167.79V154.189C71.748 154.189 71.748 154.189 71.748 154.189V154.189Z" fill="#7E622B"/>
<defs>
<radialGradient id="paint0_radial_279_2446" cx="0" cy="0" r="1" gradientUnits="userSpaceOnUse" gradientTransform="translate(67 157.564) rotate(90) scale(67 157.564)">
<stop offset="0.625" stop-color="#FF0000" stop-opacity="0.29"/>
<stop offset="0.973958" stop-color="#51A1FF" stop-opacity="0"/>
</radialGradient>
<linearGradient id="paint1_linear_279_2446" x1="65.375" y1="67.7811" x2="65.375" y2="137.306" gradientUnits="userSpaceOnUse">
<stop stop-color="white"/>
<stop offset="0.307292" stop-color="#C4C4C4"/>
<stop offset="1" stop-color="#565656"/>
</linearGradient>
<linearGradient id="paint2_linear_279_2446" x1="59.5" y1="63.5" x2="59.4058" y2="121.31" gradientUnits="userSpaceOnUse">
<stop stop-color="white"/>
<stop offset="0.617106" stop-color="#FDDC9B"/>
<stop offset="0.927098" stop-color="#D6AE60"/>
</linearGradient>
<linearGradient id="paint3_linear_279_2446" x1="104.214" y1="99.8029" x2="104.644" y2="100.934" gradientUnits="userSpaceOnUse">
<stop stop-color="#9D8555"/>
<stop offset="1" stop-color="#443105"/>
</linearGradient>
<linearGradient id="paint4_linear_279_2446" x1="89.2041" y1="88.9072" x2="75.5259" y2="101.99" gradientUnits="userSpaceOnUse">
<stop stop-color="#FDDC9B"/>
<stop offset="1" stop-color="#FFF2D9"/>
</linearGradient>
<linearGradient id="paint5_linear_279_2446" x1="96.6406" y1="95.093" x2="92.6523" y2="97.7917" gradientUnits="userSpaceOnUse">
<stop stop-color="#9D8555"/>
<stop offset="1" stop-color="#443105"/>
</linearGradient>
<linearGradient id="paint6_linear_279_2446" x1="111.642" y1="93.4768" x2="109.457" y2="100.854" gradientUnits="userSpaceOnUse">
<stop stop-color="white"/>
<stop offset="1" stop-color="#565656"/>
</linearGradient>
<linearGradient id="paint7_linear_279_2446" x1="67.5308" y1="72.9449" x2="67.2059" y2="280.973" gradientUnits="userSpaceOnUse">
<stop stop-color="#D9D9D9"/>
<stop offset="1" stop-color="#565656"/>
</linearGradient>
<linearGradient id="paint8_linear_279_2446" x1="54.5" y1="100.5" x2="54.3479" y2="280.869" gradientUnits="userSpaceOnUse">
<stop stop-color="white"/>
<stop offset="0.177083" stop-color="#FDDC9B"/>
<stop offset="0.927098" stop-color="#D6AE60"/>
</linearGradient>
<linearGradient id="paint9_linear_279_2446" x1="67.1154" y1="45.3701" x2="67.1154" y2="77.0237" gradientUnits="userSpaceOnUse">
<stop stop-color="#FF7171"/>
<stop offset="1" stop-color="#DB3030"/>
</linearGradient>
</defs>
</svg>
