<svg width="121" height="90" viewBox="0 0 121 90" fill="none" xmlns="http://www.w3.org/2000/svg">
<ellipse cx="44.5" cy="14.2934" rx="44.5" ry="14.2934" transform="matrix(-1 0 0 1 94.5165 61)" fill="url(#paint0_radial_320_4389)"/>
<path d="M30.1131 33.0235C29.5478 33.6291 28.5986 33.6618 27.993 33.0966C27.3874 32.5313 27.3546 31.5821 27.9199 30.9765L30.1131 33.0235ZM48.9558 34.5605C45.5444 31.1491 42.3395 29.177 39.3304 28.8009C36.4353 28.439 33.3836 29.5193 30.1131 33.0235L27.9199 30.9765C31.6493 26.9807 35.5976 25.311 39.7025 25.8241C43.6935 26.3229 47.4886 28.8507 51.0771 32.4391L48.9558 34.5605Z" fill="#42361E"/>
<path d="M47.3428 34.3646L47.4279 35.8621L47.3428 34.3646C47.7071 34.3439 48.2523 34.1526 49.0118 33.6376C49.7533 33.1348 50.5738 32.4103 51.4705 31.514C52.5439 30.4411 53.5996 29.2592 54.6968 28.0306C55.4957 27.1361 56.3167 26.2169 57.1827 25.2971C61.8305 20.3603 66.0302 18.0971 69.8888 17.5488C73.7528 16.9997 77.0086 18.2095 79.667 19.6584C82.4235 21.1608 85.0519 23.4587 86.6128 27.4463C88.1526 31.38 88.5929 36.804 87.3373 44.4614C85.2359 57.277 72.6117 78.8115 45.3771 77.5435C34.9245 77.0567 25.7654 69.5958 23.2572 61.7649C21.9341 57.6342 22.8855 51.0808 26.6031 45.4723C30.386 39.7652 37.0752 34.9479 47.3428 34.3646Z" fill="url(#paint1_linear_320_4389)" stroke="#725D35" stroke-width="3"/>
<path d="M38.5388 52.9948L9.57669 33.942" stroke="url(#paint2_linear_320_4389)" stroke-width="3" stroke-linecap="round"/>
<path d="M33.1609 31.8816L39.7529 53.6199L16.4601 56.6416" stroke="white" stroke-width="3" stroke-linecap="round"/>
<path d="M33.9904 31.7205C33.9904 31.7205 24.1262 32.9924 19.283 40.1728C14.4397 47.3532 16.6215 57.4708 16.6215 57.4708" stroke="url(#paint3_linear_320_4389)" stroke-width="5" stroke-linecap="round"/>
<path d="M8.0895 36.9142L12.0298 31.6355C12.4649 31.0526 12.152 30.215 11.4413 30.0602L2.48363 28.1087C1.5962 27.9154 0.931397 28.9098 1.44921 29.6559L6.46658 36.8862C6.856 37.4473 7.68092 37.4616 8.0895 36.9142Z" fill="url(#paint4_linear_320_4389)"/>
<circle cx="2.5" cy="2.5" r="2.5" transform="matrix(-1 0 0 1 73.5165 36.9999)" fill="#725D35"/>
<circle cx="2.5" cy="2.5" r="2.5" transform="matrix(-1 0 0 1 61.5165 33.9999)" fill="#725D35"/>
<path d="M52.5165 61.2654C45.0165 61.2654 41.5165 58.4999 38.0165 54.4999" stroke="#42361E" stroke-width="3" stroke-linecap="round"/>
<path d="M68.5345 46.3524C64.6021 49.4944 59.5619 48.2377 57.8613 43.6913" stroke="#725D35" stroke-width="3" stroke-linecap="round"/>
<path d="M87.8242 5.88464C88.2782 7.01638 76.8627 12.8077 67.6319 13.9616C58.4011 15.1154 43.9069 24.4444 45.9109 23.4745L95.3242 33C95.1889 27.8193 94.7933 23.7524 93.7502 19.7308C92.6488 15.4843 90.8254 11.2883 87.8242 5.88464Z" fill="#DB3030"/>
<path d="M45.9109 23.4745L95.3242 33C95.1889 27.8193 94.7933 23.7524 93.7502 19.7308M45.9109 23.4745C43.9069 24.4444 58.4011 15.1154 67.6319 13.9616C76.8627 12.8077 88.2782 7.01638 87.8242 5.88464C90.8254 11.2883 92.6488 15.4843 93.7502 19.7308M45.9109 23.4745C64.6593 22.6888 75.1601 22.1377 93.7502 19.7308" stroke="#725D35" stroke-width="3"/>
<path d="M76.2857 21.4615C93.7087 19.8244 102.212 15.572 115.516 3C97.54 6.83621 88.5578 10.3819 76.2857 21.4615Z" fill="white" stroke="#725D35" stroke-width="3"/>
<defs>
<radialGradient id="paint0_radial_320_4389" cx="0" cy="0" r="1" gradientUnits="userSpaceOnUse" gradientTransform="translate(44.5 14.2934) rotate(90) scale(14.2934 44.5)">
<stop offset="0.6875" stop-color="#725B2F"/>
<stop offset="1" stop-color="#725D35" stop-opacity="0"/>
</radialGradient>
<linearGradient id="paint1_linear_320_4389" x1="77.5386" y1="23.1197" x2="37.5585" y2="75.6964" gradientUnits="userSpaceOnUse">
<stop stop-color="#FFF2D9"/>
<stop offset="0.671875" stop-color="#FDDC9B"/>
<stop offset="1" stop-color="#D6AE60"/>
</linearGradient>
<linearGradient id="paint2_linear_320_4389" x1="14.9009" y1="37.6758" x2="14.2774" y2="38.714" gradientUnits="userSpaceOnUse">
<stop stop-color="#9D8555"/>
<stop offset="1" stop-color="#443105"/>
</linearGradient>
<linearGradient id="paint3_linear_320_4389" x1="25.604" y1="33.3051" x2="30.1444" y2="37.6265" gradientUnits="userSpaceOnUse">
<stop stop-color="#9D8555"/>
<stop offset="1" stop-color="#443105"/>
</linearGradient>
<linearGradient id="paint4_linear_320_4389" x1="6.69203" y1="28.0072" x2="7.91249" y2="37.9471" gradientUnits="userSpaceOnUse">
<stop stop-color="white"/>
<stop offset="1" stop-color="#565656"/>
</linearGradient>
</defs>
</svg>
