<svg width="135" height="318" viewBox="0 0 135 318" fill="none" xmlns="http://www.w3.org/2000/svg">
<ellipse cx="67.5" cy="158.74" rx="158.74" ry="67.5" transform="rotate(-90 67.5 158.74)" fill="url(#paint0_radial_279_2456)"/>
<path d="M98.2328 173.121L106.823 293.357C106.906 294.515 105.989 295.5 104.828 295.5H25.2709C24.066 295.5 23.1347 294.443 23.2869 293.247L38.5358 173.517C38.688 172.321 37.7567 171.264 36.5518 171.264H35.8829C34.7783 171.264 33.8829 170.369 33.8829 169.264V165.272C33.8829 164.167 32.9875 163.272 31.8829 163.272H28.4732C27.3686 163.272 26.4732 162.377 26.4732 161.272V147.157C26.4732 146.052 27.3686 145.157 28.4732 145.157H31.8829C32.9875 145.157 33.8829 144.262 33.8829 143.157V140.231C33.8829 139.126 34.7783 138.231 35.8829 138.231H39.4322C40.4807 138.231 41.3512 137.421 41.427 136.375L42.5275 121.181H96.2477V136.231C96.2477 137.335 95.3523 138.231 94.2477 138.231H85.2807C84.1762 138.231 83.2807 139.126 83.2807 140.231V143.157C83.2807 144.262 82.3853 145.157 81.2807 145.157H76.0186C74.9141 145.157 74.0186 146.052 74.0186 147.157V161.272C74.0186 162.377 74.9141 163.272 76.0186 163.272H86.2205C87.3251 163.272 88.2205 164.167 88.2205 165.272V169.264C88.2205 170.369 89.1159 171.264 90.2205 171.264H96.2379C97.2872 171.264 98.158 172.075 98.2328 173.121Z" fill="#725D35"/>
<path d="M98.2263 162.499L107.218 295.365C107.296 296.52 106.38 297.5 105.222 297.5H25.6241C24.4307 297.5 23.5029 296.462 23.6367 295.276L38.5718 162.858C38.7056 161.672 37.7778 160.634 36.5844 160.634H35.8829C34.7783 160.634 33.8829 159.739 33.8829 158.634V154.642C33.8829 153.538 32.9875 152.642 31.8829 152.642H28.4732C27.3686 152.642 26.4732 151.747 26.4732 150.642V136.527C26.4732 135.423 27.3686 134.527 28.4732 134.527H31.8829C32.9875 134.527 33.8829 133.632 33.8829 132.527V129.601C33.8829 128.496 34.7783 127.601 35.8829 127.601H39.4322C40.4807 127.601 41.3512 126.791 41.427 125.745L42.5275 110.551H96.2477V125.601C96.2477 126.705 95.3523 127.601 94.2477 127.601H85.2808C84.1762 127.601 83.2808 128.496 83.2808 129.601V132.527C83.2808 133.632 82.3854 134.527 81.2808 134.527H76.0187C74.9141 134.527 74.0187 135.423 74.0187 136.527V150.642C74.0187 151.747 74.9141 152.642 76.0187 152.642H86.2206C87.3251 152.642 88.2206 153.538 88.2206 154.642V158.634C88.2206 159.739 89.116 160.634 90.2206 160.634H96.2309C97.2831 160.634 98.1553 161.449 98.2263 162.499Z" fill="url(#paint1_linear_279_2456)"/>
<path d="M98.2263 162.499L107.218 295.365C107.296 296.52 106.38 297.5 105.222 297.5H25.6241C24.4307 297.5 23.5029 296.462 23.6367 295.276L38.5718 162.858C38.7056 161.672 37.7778 160.634 36.5844 160.634H35.8829C34.7783 160.634 33.8829 159.739 33.8829 158.634V154.642C33.8829 153.538 32.9875 152.642 31.8829 152.642H28.4732C27.3686 152.642 26.4732 151.747 26.4732 150.642V136.527C26.4732 135.423 27.3686 134.527 28.4732 134.527H31.8829C32.9875 134.527 33.8829 133.632 33.8829 132.527V129.601C33.8829 128.496 34.7783 127.601 35.8829 127.601H39.4322C40.4807 127.601 41.3512 126.791 41.427 125.745L42.5275 110.551H96.2477V125.601C96.2477 126.705 95.3523 127.601 94.2477 127.601H85.2808C84.1762 127.601 83.2808 128.496 83.2808 129.601V132.527C83.2808 133.632 82.3854 134.527 81.2808 134.527H76.0187C74.9141 134.527 74.0187 135.423 74.0187 136.527V150.642C74.0187 151.747 74.9141 152.642 76.0187 152.642H86.2206C87.3251 152.642 88.2206 153.538 88.2206 154.642V158.634C88.2206 159.739 89.116 160.634 90.2206 160.634H96.2309C97.2831 160.634 98.1553 161.449 98.2263 162.499Z" fill="url(#paint2_linear_279_2456)"/>
<path d="M97.5798 111.614H93.0118H46.7716H41.1666C40.1282 111.614 39.2626 110.82 39.1739 109.785L36.3278 76.5803C36.2277 75.4127 37.1485 74.4095 38.3205 74.4095H100.9C102.084 74.4095 103.008 75.4312 102.89 76.6086L99.5699 109.813C99.4676 110.836 98.6073 111.614 97.5798 111.614Z" fill="url(#paint3_linear_279_2456)"/>
<path d="M97.5798 111.614H93.0118H46.7716H41.1666C40.1282 111.614 39.2626 110.82 39.1739 109.785L36.3278 76.5803C36.2277 75.4127 37.1485 74.4095 38.3205 74.4095H100.9C102.084 74.4095 103.008 75.4312 102.89 76.6086L99.5699 109.813C99.4676 110.836 98.6073 111.614 97.5798 111.614Z" fill="url(#paint4_linear_279_2456)"/>
<path fill-rule="evenodd" clip-rule="evenodd" d="M100.134 104.173H89.6401L89.2913 111.614H85.0393L85.3881 104.173H52.8008L53.1496 111.614H48.8976L48.5488 104.173H38.6929L38.3284 99.9214H48.3495L47.3031 77.5986H51.5551L52.6015 99.9214H85.5874L86.6338 77.5986H90.8858L89.8394 99.9214H100.559L100.134 104.173Z" fill="url(#paint5_linear_279_2456)"/>
<path d="M112.837 77.5985H102.579H35.6102H26.0347C24.9517 77.5985 24.6472 76.1476 25.6462 75.7294C31.0724 73.4581 40.5504 69.625 48.3661 67.1632C62.1023 62.8366 63.0874 41.6097 62.6628 30.8002C62.618 29.6604 64.4828 29.1609 64.9956 30.1799C70.2503 40.6207 81.7153 62.079 89.2913 66.5494C97.2889 70.244 106.827 73.4939 113.154 75.496C114.262 75.8468 114 77.5985 112.837 77.5985Z" fill="url(#paint6_linear_279_2456)"/>
<path fill-rule="evenodd" clip-rule="evenodd" d="M72.9921 84.3373C72.9921 84.3351 72.9921 84.333 72.9921 84.3308C72.9921 82.3739 71.4057 80.7875 69.4488 80.7875C67.4919 80.7875 65.9055 82.3739 65.9055 84.3308C65.9055 84.3308 65.9055 84.3308 65.9055 84.3308V84.3308C65.9055 84.3308 65.9055 84.3308 65.9055 84.3308V93.9731C65.9055 95.0777 66.8009 95.9731 67.9055 95.9731H70.9921C72.0967 95.9731 72.9921 95.0777 72.9921 93.9731V84.3373Z" fill="#7E622B"/>
<defs>
<radialGradient id="paint0_radial_279_2456" cx="0" cy="0" r="1" gradientUnits="userSpaceOnUse" gradientTransform="translate(67.5 158.74) rotate(90) scale(67.5 158.74)">
<stop offset="0.583333" stop-color="#62169D" stop-opacity="0.32"/>
<stop offset="0.973958" stop-color="#51A1FF" stop-opacity="0"/>
</radialGradient>
<linearGradient id="paint1_linear_279_2456" x1="65.374" y1="110.551" x2="65.374" y2="328.465" gradientUnits="userSpaceOnUse">
<stop stop-color="#C5C5C5"/>
<stop offset="0.0001" stop-color="#C6C6C6"/>
<stop offset="1" stop-color="#3C3C3C"/>
</linearGradient>
<linearGradient id="paint2_linear_279_2456" x1="53.102" y1="110.551" x2="53.1021" y2="297.389" gradientUnits="userSpaceOnUse">
<stop stop-color="#FFF2D9"/>
<stop offset="0.151042" stop-color="#FDDC9B"/>
<stop offset="0.927098" stop-color="#D6AE60"/>
</linearGradient>
<linearGradient id="paint3_linear_279_2456" x1="69.626" y1="74.4095" x2="69.626" y2="111.614" gradientUnits="userSpaceOnUse">
<stop stop-color="white"/>
<stop offset="1" stop-color="#CECECE"/>
</linearGradient>
<linearGradient id="paint4_linear_279_2456" x1="58.5" y1="50.5" x2="59.5" y2="112" gradientUnits="userSpaceOnUse">
<stop stop-color="white"/>
<stop offset="1" stop-color="#FDDC9B"/>
</linearGradient>
<linearGradient id="paint5_linear_279_2456" x1="102.047" y1="102.047" x2="37.2047" y2="102.047" gradientUnits="userSpaceOnUse">
<stop stop-color="#8D7443"/>
<stop offset="1" stop-color="#42361E"/>
</linearGradient>
<linearGradient id="paint6_linear_279_2456" x1="70.689" y1="34.0158" x2="70.689" y2="77.5985" gradientUnits="userSpaceOnUse">
<stop stop-color="#BC66FF"/>
<stop offset="1" stop-color="#62169D"/>
</linearGradient>
</defs>
</svg>
