<svg width="72" height="73" viewBox="0 0 72 73" fill="none" xmlns="http://www.w3.org/2000/svg">
<path fill-rule="evenodd" clip-rule="evenodd" d="M35.1137 21.4187L25.6444 9.8439L26.3524 24.7818L11.739 20.9914L21.2081 32.5659L7.03221 38.0075L21.6458 41.798L13.3221 54.3933L27.498 48.9516L28.2059 63.8892L36.5296 51.2941L45.9988 62.8689L45.2908 47.931L59.9043 51.7214L50.4352 40.1469L64.6111 34.7053L49.9975 30.9148L58.3212 18.3195L44.1453 23.7611L43.4373 8.82355L35.1137 21.4187Z" fill="url(#paint0_radial_226_2323)"/>
<path d="M25.6445 9.84399L26.4185 9.21079L24.5023 6.86861L24.6456 9.89133L25.6445 9.84399ZM35.1138 21.4187L34.3398 22.0519L35.1995 23.1028L35.948 21.9701L35.1138 21.4187ZM26.3525 24.7819L26.1014 25.7499L27.4156 26.0907L27.3514 24.7345L26.3525 24.7819ZM11.739 20.9915L11.9901 20.0235L9.02622 19.2547L10.9651 21.6247L11.739 20.9915ZM21.2081 32.566L21.5665 33.4996L22.8582 33.0037L21.9821 31.9328L21.2081 32.566ZM7.03226 38.0076L6.67389 37.074L3.76096 38.1922L6.78119 38.9756L7.03226 38.0076ZM21.6459 41.7981L22.4801 42.3494L23.2519 41.1816L21.8969 40.8301L21.6459 41.7981ZM13.3221 54.3933L12.4879 53.842L10.7676 56.4451L13.6805 55.3269L13.3221 54.3933ZM27.498 48.9517L28.4969 48.9044L28.4314 47.5223L27.1396 48.0181L27.498 48.9517ZM28.206 63.8893L27.2071 63.9367L27.3521 66.9952L29.0403 64.4407L28.206 63.8893ZM36.5296 51.2942L37.3036 50.661L36.4439 49.6102L35.6953 50.7429L36.5296 51.2942ZM45.9989 62.869L45.2249 63.5022L47.141 65.8444L46.9977 62.8216L45.9989 62.869ZM45.2909 47.9311L45.542 46.9631L44.2277 46.6222L44.292 47.9784L45.2909 47.9311ZM59.9043 51.7215L59.6532 52.6895L62.6171 53.4582L60.6783 51.0883L59.9043 51.7215ZM50.4352 40.147L50.0769 39.2134L48.7851 39.7092L49.6612 40.7802L50.4352 40.147ZM64.6111 34.7053L64.9695 35.6389L67.8824 34.5208L64.8622 33.7374L64.6111 34.7053ZM49.9975 30.9149L49.1632 30.3636L48.3914 31.5314L49.7464 31.8829L49.9975 30.9149ZM58.3212 18.3196L59.1555 18.871L60.8758 16.2679L57.9629 17.386L58.3212 18.3196ZM44.1453 23.7612L43.1465 23.8086L43.212 25.1907L44.5037 24.6948L44.1453 23.7612ZM43.4374 8.82363L44.4363 8.77629L44.2913 5.71775L42.6031 8.27229L43.4374 8.82363ZM24.8705 10.4772L34.3398 22.0519L35.8877 20.7856L26.4185 9.21079L24.8705 10.4772ZM27.3514 24.7345L26.6434 9.79665L24.6456 9.89133L25.3536 24.8292L27.3514 24.7345ZM11.488 21.9595L26.1014 25.7499L26.6035 23.8139L11.9901 20.0235L11.488 21.9595ZM21.9821 31.9328L12.513 20.3583L10.9651 21.6247L20.4341 33.1992L21.9821 31.9328ZM7.39062 38.9412L21.5665 33.4996L20.8498 31.6324L6.67389 37.074L7.39062 38.9412ZM21.8969 40.8301L7.28333 37.0396L6.78119 38.9756L21.3948 42.766L21.8969 40.8301ZM14.1564 54.9447L22.4801 42.3494L20.8116 41.2467L12.4879 53.842L14.1564 54.9447ZM27.1396 48.0181L12.9638 53.4598L13.6805 55.3269L27.8564 49.8853L27.1396 48.0181ZM29.2049 63.842L28.4969 48.9044L26.4991 48.9991L27.2071 63.9367L29.2049 63.842ZM35.6953 50.7429L27.3717 63.338L29.0403 64.4407L37.3639 51.8456L35.6953 50.7429ZM46.7729 62.2358L37.3036 50.661L35.7556 51.9274L45.2249 63.5022L46.7729 62.2358ZM44.292 47.9784L45 62.9163L46.9977 62.8216L46.2898 47.8837L44.292 47.9784ZM60.1554 50.7535L45.542 46.9631L45.0398 48.899L59.6532 52.6895L60.1554 50.7535ZM49.6612 40.7802L59.1303 52.3547L60.6783 51.0883L51.2092 39.5138L49.6612 40.7802ZM64.2527 33.7718L50.0769 39.2134L50.7936 41.0805L64.9695 35.6389L64.2527 33.7718ZM49.7464 31.8829L64.36 35.6733L64.8622 33.7374L50.2486 29.9469L49.7464 31.8829ZM57.4869 17.7683L49.1632 30.3636L50.8318 31.4662L59.1555 18.871L57.4869 17.7683ZM44.5037 24.6948L58.6796 19.2532L57.9629 17.386L43.787 22.8277L44.5037 24.6948ZM42.4385 8.87098L43.1465 23.8086L45.1442 23.7139L44.4363 8.77629L42.4385 8.87098ZM35.948 21.9701L44.2717 9.37498L42.6031 8.27229L34.2795 20.8674L35.948 21.9701Z" fill="url(#paint1_linear_226_2323)"/>
<path d="M38.121 24.0826C37.2757 23.6423 36.7133 22.9817 35.7749 22.3211C35.5403 26.9451 36.2442 29.3672 39.9979 31.5691L45.8631 27.1653C45.8631 23.4221 44.9247 21.6606 40.7017 18.7981C41.1349 20.4697 41.1406 21.2894 41.1709 22.7615C39.9979 22.1009 38.6833 20.5596 37.2757 18.7981C37.5103 20.5596 38.3557 23.2019 38.121 24.0826Z" fill="url(#paint2_linear_226_2323)"/>
<path d="M26.2889 46.3528L41.1746 33.271" stroke="url(#paint3_linear_226_2323)" stroke-width="2" stroke-linecap="round"/>
<path d="M28.1334 31.9354L25.5359 46.8656L41.2051 46.9727" stroke="url(#paint4_linear_226_2323)" stroke-width="2" stroke-linecap="round"/>
<path d="M27.5712 31.8961C27.5712 31.8961 34.2062 31.9364 37.997 36.2972C41.7878 40.658 41.1657 47.5348 41.1657 47.5348" stroke="url(#paint5_linear_226_2323)" stroke-width="5" stroke-linecap="round"/>
<path d="M42.2951 34.6186L42.2952 34.6186C46.1889 34.7999 47.9825 31.7025 48.2811 29.8809M42.2951 34.6186L46.9263 25.9924C47.3935 26.247 47.8709 26.6608 48.147 27.366C48.4089 28.0352 48.4481 28.863 48.2811 29.8809M42.2951 34.6186C40.693 34.544 39.2621 33.4211 38.8448 32.1185M42.2951 34.6186L38.8448 32.1185M48.2811 29.8809L47.2943 29.7191L48.2811 29.8809ZM38.8448 32.1185C38.5903 31.324 38.793 30.265 39.3519 29.4218M38.8448 32.1185L39.3519 29.4218M39.3519 29.4218C39.9334 28.5445 40.9339 27.8339 42.3708 27.7079M39.3519 29.4218L42.3708 27.7079M42.3708 27.7079C42.4029 27.6808 42.4465 27.6412 42.503 27.5847C42.5948 27.4929 42.6951 27.3829 42.813 27.2515C42.8318 27.2305 42.8512 27.2088 42.871 27.1866C42.9689 27.0771 43.0778 26.9553 43.1858 26.8406C43.8344 26.1516 44.5072 25.744 45.2224 25.6424C45.9412 25.5403 46.5245 25.7734 46.9262 25.9924L42.3708 27.7079ZM42.31 27.7533C42.31 27.7535 42.3125 27.7521 42.3177 27.7486C42.3126 27.7514 42.31 27.7531 42.31 27.7533Z" fill="url(#paint6_linear_226_2323)" stroke="url(#paint7_linear_226_2323)" stroke-width="2"/>
<ellipse cx="0.259557" cy="0.259557" rx="0.259557" ry="0.259557" transform="matrix(1 -1.27897e-06 -1.33953e-06 1 44.4365 28.2676)" fill="#D6AE60"/>
<ellipse cx="0.259557" cy="0.259557" rx="0.259557" ry="0.259557" transform="matrix(1 -1.27897e-06 -1.33953e-06 1 45.4747 28.7866)" fill="#D6AE60"/>
<path d="M43.9175 29.3058C44.3624 29.8 44.7395 29.8749 45.4748 29.8" stroke="#D6AE60" stroke-linecap="round"/>
<defs>
<radialGradient id="paint0_radial_226_2323" cx="0" cy="0" r="1" gradientUnits="userSpaceOnUse" gradientTransform="translate(35.8217 36.3564) rotate(69) scale(28.3987 27.469)">
<stop offset="0.136349" stop-color="#FFC645"/>
<stop offset="1" stop-color="#FF4545"/>
</radialGradient>
<linearGradient id="paint1_linear_226_2323" x1="25.6445" y1="9.84399" x2="39.9756" y2="47.1778" gradientUnits="userSpaceOnUse">
<stop stop-color="#FF4545"/>
<stop offset="1" stop-color="#FFB100"/>
</linearGradient>
<linearGradient id="paint2_linear_226_2323" x1="40.7987" y1="18.7981" x2="40.7987" y2="31.5691" gradientUnits="userSpaceOnUse">
<stop stop-color="#FFE81B"/>
<stop offset="1" stop-color="#FF0000"/>
</linearGradient>
<linearGradient id="paint3_linear_226_2323" x1="38.5111" y1="35.869" x2="39.2421" y2="36.8319" gradientUnits="userSpaceOnUse">
<stop stop-color="#9D8555"/>
<stop offset="1" stop-color="#443105"/>
</linearGradient>
<linearGradient id="paint4_linear_226_2323" x1="25.5359" y1="28.9473" x2="17.3738" y2="43.2135" gradientUnits="userSpaceOnUse">
<stop stop-color="#FDDC9B"/>
<stop offset="1" stop-color="#FFF2D9"/>
</linearGradient>
<linearGradient id="paint5_linear_226_2323" x1="33.2531" y1="32.2635" x2="30.598" y2="35.4941" gradientUnits="userSpaceOnUse">
<stop stop-color="#9D8555"/>
<stop offset="1" stop-color="#443105"/>
</linearGradient>
<linearGradient id="paint6_linear_226_2323" x1="40.6977" y1="28.9996" x2="45.2103" y2="31.486" gradientUnits="userSpaceOnUse">
<stop stop-color="#9D8555"/>
<stop offset="1" stop-color="#443105"/>
</linearGradient>
<linearGradient id="paint7_linear_226_2323" x1="44.1004" y1="32.0387" x2="49.8785" y2="34.2304" gradientUnits="userSpaceOnUse">
<stop stop-color="#FF4545"/>
<stop offset="1" stop-color="#FFB100"/>
</linearGradient>
</defs>
</svg>
