<svg width="67" height="60" viewBox="0 0 67 60" fill="none" xmlns="http://www.w3.org/2000/svg">
<mask id="path-1-outside-1_94_2948" maskUnits="userSpaceOnUse" x="0" y="0" width="67" height="60" fill="black">
<rect fill="white" width="67" height="60"/>
<path fill-rule="evenodd" clip-rule="evenodd" d="M24.3232 27.0289L14.7839 36.4994L11.5557 33.2381C10.8509 32.5261 9.70237 32.5218 8.99038 33.2286L7.62546 34.5837C6.91346 35.2905 6.90777 36.4407 7.61258 37.1528L13.1681 42.7654L3.53775 52.3262C2.82578 53.033 2.82006 54.1833 3.5249 54.8953L4.87627 56.2605C5.58108 56.9727 6.72969 56.9769 7.44155 56.2701L17.0719 46.7093L22.6274 52.3218C23.3322 53.0338 24.4808 53.0382 25.1927 52.3313L26.5576 50.9763C27.2696 50.2694 27.2753 49.1192 26.5705 48.4071L23.3048 45.1079L32.932 35.5501L42.7552 45.2735L39.5221 48.5301C38.8163 49.2411 38.822 50.3896 39.5351 51.0954L40.9019 52.4484C41.615 53.1542 42.7652 53.1498 43.4711 52.4389L49.035 46.8346L58.6795 56.3811C59.3925 57.0869 60.5428 57.0826 61.2486 56.3716L62.602 55.0083C63.3079 54.2973 63.3022 53.1487 62.5892 52.4431L52.9447 42.8965L58.5085 37.2922C59.2143 36.5812 59.2087 35.4326 58.4956 34.7269L57.1287 33.3739C56.4157 32.6681 55.2654 32.6724 54.5595 33.3834L51.2889 36.6778L41.528 27.0161L56.4514 12.2003C56.6166 12.0364 56.7169 11.818 56.7336 11.5858L57.2787 4.02991C57.32 3.45742 56.8548 2.977 56.2823 3.00085L48.559 3.32208C48.3195 3.33205 48.0923 3.43139 47.9219 3.60048L32.9193 18.4949L18.0934 3.81964C17.928 3.6559 17.7088 3.55754 17.4764 3.5428L9.91606 3.06368C9.34323 3.0274 8.86688 3.49671 8.89573 4.06905L9.28434 11.7892C9.2964 12.0286 9.39772 12.255 9.56829 12.4239L24.3232 27.0289Z"/>
</mask>
<path fill-rule="evenodd" clip-rule="evenodd" d="M24.3232 27.0289L14.7839 36.4994L11.5557 33.2381C10.8509 32.5261 9.70237 32.5218 8.99038 33.2286L7.62546 34.5837C6.91346 35.2905 6.90777 36.4407 7.61258 37.1528L13.1681 42.7654L3.53775 52.3262C2.82578 53.033 2.82006 54.1833 3.5249 54.8953L4.87627 56.2605C5.58108 56.9727 6.72969 56.9769 7.44155 56.2701L17.0719 46.7093L22.6274 52.3218C23.3322 53.0338 24.4808 53.0382 25.1927 52.3313L26.5576 50.9763C27.2696 50.2694 27.2753 49.1192 26.5705 48.4071L23.3048 45.1079L32.932 35.5501L42.7552 45.2735L39.5221 48.5301C38.8163 49.2411 38.822 50.3896 39.5351 51.0954L40.9019 52.4484C41.615 53.1542 42.7652 53.1498 43.4711 52.4389L49.035 46.8346L58.6795 56.3811C59.3925 57.0869 60.5428 57.0826 61.2486 56.3716L62.602 55.0083C63.3079 54.2973 63.3022 53.1487 62.5892 52.4431L52.9447 42.8965L58.5085 37.2922C59.2143 36.5812 59.2087 35.4326 58.4956 34.7269L57.1287 33.3739C56.4157 32.6681 55.2654 32.6724 54.5595 33.3834L51.2889 36.6778L41.528 27.0161L56.4514 12.2003C56.6166 12.0364 56.7169 11.818 56.7336 11.5858L57.2787 4.02991C57.32 3.45742 56.8548 2.977 56.2823 3.00085L48.559 3.32208C48.3195 3.33205 48.0923 3.43139 47.9219 3.60048L32.9193 18.4949L18.0934 3.81964C17.928 3.6559 17.7088 3.55754 17.4764 3.5428L9.91606 3.06368C9.34323 3.0274 8.86688 3.49671 8.89573 4.06905L9.28434 11.7892C9.2964 12.0286 9.39772 12.255 9.56829 12.4239L24.3232 27.0289Z" fill="#FDDC9B"/>
<path d="M14.7839 36.4994L12.6518 38.6099L14.7654 40.7452L16.8975 38.6284L14.7839 36.4994ZM24.3232 27.0289L26.4369 29.1579L28.5845 27.0257L26.4337 24.8968L24.3232 27.0289ZM11.5557 33.2381L13.6878 31.1276L13.6877 31.1275L11.5557 33.2381ZM8.99038 33.2286L11.104 35.3577L11.104 35.3576L8.99038 33.2286ZM7.62546 34.5837L5.51187 32.4546L5.51183 32.4547L7.62546 34.5837ZM7.61258 37.1528L5.48035 39.2632L5.48045 39.2633L7.61258 37.1528ZM13.1681 42.7654L15.2817 44.8944L17.4075 42.7839L15.3002 40.6549L13.1681 42.7654ZM3.53775 52.3262L5.65128 54.4553L5.65137 54.4552L3.53775 52.3262ZM3.5249 54.8953L5.65702 52.7848L5.65693 52.7848L3.5249 54.8953ZM4.87627 56.2605L7.00849 54.1502L7.00839 54.1501L4.87627 56.2605ZM7.44155 56.2701L5.32793 54.1411L5.32782 54.1412L7.44155 56.2701ZM17.0719 46.7093L19.204 44.5988L17.0904 42.4635L14.9583 44.5803L17.0719 46.7093ZM22.6274 52.3218L20.4953 54.4323L20.4954 54.4324L22.6274 52.3218ZM25.1927 52.3313L23.0791 50.2023L23.0789 50.2025L25.1927 52.3313ZM26.5576 50.9763L28.6712 53.1053L28.6713 53.1052L26.5576 50.9763ZM26.5705 48.4071L28.7027 46.2967L28.7026 46.2966L26.5705 48.4071ZM23.3048 45.1079L21.1912 42.9789L19.0654 45.0894L21.1727 47.2183L23.3048 45.1079ZM32.932 35.5501L35.0424 33.418L32.9288 31.3259L30.8183 33.4212L32.932 35.5501ZM42.7552 45.2735L44.8842 47.3872L47.0009 45.255L44.8656 43.1414L42.7552 45.2735ZM39.5221 48.5301L37.3931 46.4164L37.393 46.4165L39.5221 48.5301ZM39.5351 51.0954L41.6456 48.9633L41.6455 48.9632L39.5351 51.0954ZM40.9019 52.4484L38.7914 54.5805L38.7915 54.5805L40.9019 52.4484ZM43.4711 52.4389L45.6 54.5526L45.6001 54.5525L43.4711 52.4389ZM49.035 46.8346L51.1455 44.7025L49.0165 42.5951L46.906 44.721L49.035 46.8346ZM58.6795 56.3811L60.7901 54.2491L60.79 54.249L58.6795 56.3811ZM61.2486 56.3716L59.1196 54.2579L59.1195 54.258L61.2486 56.3716ZM62.602 55.0083L60.4731 52.8946L60.473 52.8947L62.602 55.0083ZM62.5892 52.4431L60.4787 54.5752L60.4788 54.5753L62.5892 52.4431ZM52.9447 42.8965L50.8157 40.7829L48.6989 42.915L50.8342 45.0286L52.9447 42.8965ZM58.5085 37.2922L60.6375 39.4059L60.6376 39.4058L58.5085 37.2922ZM58.4956 34.7269L56.3851 36.859L56.3853 36.8593L58.4956 34.7269ZM57.1287 33.3739L59.2392 31.2418L59.2392 31.2418L57.1287 33.3739ZM54.5595 33.3834L52.4306 31.2697L52.4305 31.2698L54.5595 33.3834ZM51.2889 36.6778L49.1785 38.8099L51.3074 40.9172L53.4179 38.7914L51.2889 36.6778ZM41.528 27.0161L39.4144 24.8871L37.2668 27.0193L39.4176 29.1482L41.528 27.0161ZM56.4514 12.2003L54.3379 10.0713L54.3378 10.0714L56.4514 12.2003ZM56.7336 11.5858L59.7258 11.8018L59.7258 11.8016L56.7336 11.5858ZM57.2787 4.02991L60.2709 4.24577L60.2709 4.24562L57.2787 4.02991ZM56.2823 3.00085L56.4069 5.99826L56.4071 5.99825L56.2823 3.00085ZM48.559 3.32208L48.4343 0.324668L48.4342 0.324672L48.559 3.32208ZM47.9219 3.60048L45.8088 1.47101L45.8083 1.47149L47.9219 3.60048ZM32.9193 18.4949L30.8088 20.627L32.9224 22.7191L35.0329 20.6238L32.9193 18.4949ZM18.0934 3.81964L15.9828 5.95166L15.9829 5.95177L18.0934 3.81964ZM17.4764 3.5428L17.6663 0.548815L17.6661 0.548808L17.4764 3.5428ZM9.91606 3.06368L10.1058 0.069685L10.1057 0.0696757L9.91606 3.06368ZM8.89573 4.06905L11.8919 3.91823L11.8919 3.91802L8.89573 4.06905ZM9.28434 11.7892L6.28814 11.94L6.28814 11.9401L9.28434 11.7892ZM9.56829 12.4239L7.45736 14.5555L7.45783 14.556L9.56829 12.4239ZM16.8975 38.6284L26.4369 29.1579L22.2096 24.8999L12.6703 34.3704L16.8975 38.6284ZM9.42357 35.3485L12.6518 38.6099L16.916 34.389L13.6878 31.1276L9.42357 35.3485ZM11.104 35.3576C10.6415 35.8167 9.88816 35.8179 9.42367 35.3487L13.6877 31.1275C11.8136 29.2343 8.76321 29.2268 6.87674 31.0997L11.104 35.3576ZM9.73904 36.7127L11.104 35.3577L6.87679 31.0996L5.51187 32.4546L9.73904 36.7127ZM9.74481 35.0425C10.2067 35.5091 10.1992 36.2558 9.73908 36.7126L5.51183 32.4547C3.62772 34.3252 3.6089 37.3723 5.48035 39.2632L9.74481 35.0425ZM15.3002 40.6549L9.74471 35.0424L5.48045 39.2633L11.036 44.8758L15.3002 40.6549ZM5.65137 54.4552L15.2817 44.8944L11.0545 40.6364L1.42412 50.1972L5.65137 54.4552ZM5.65693 52.7848C6.11907 53.2516 6.11149 53.9985 5.65128 54.4553L1.42421 50.1971C-0.459916 52.0675 -0.478951 55.115 1.39287 57.0059L5.65693 52.7848ZM7.00839 54.1501L5.65702 52.7848L1.39278 57.0058L2.74415 58.371L7.00839 54.1501ZM5.32782 54.1412C5.79044 53.6819 6.54392 53.6808 7.00849 54.1502L2.74405 58.3709C4.61824 60.2645 7.66894 60.2719 9.55529 58.399L5.32782 54.1412ZM14.9583 44.5803L5.32793 54.1411L9.55518 58.3991L19.1855 48.8383L14.9583 44.5803ZM24.7595 50.2114L19.204 44.5988L14.9398 48.8197L20.4953 54.4323L24.7595 50.2114ZM23.0789 50.2025C23.5417 49.743 24.2951 49.7422 24.7594 50.2113L20.4954 54.4324C22.3694 56.3254 25.42 56.3334 27.3065 54.4601L23.0789 50.2025ZM24.444 48.8472L23.0791 50.2023L27.3063 54.4603L28.6712 53.1053L24.444 48.8472ZM24.4383 50.5174C23.9764 50.0508 23.9839 49.3041 24.444 48.8473L28.6713 53.1052C30.5554 51.2347 30.5742 48.1876 28.7027 46.2967L24.4383 50.5174ZM21.1727 47.2183L24.4384 50.5175L28.7026 46.2966L25.437 42.9974L21.1727 47.2183ZM30.8183 33.4212L21.1912 42.9789L25.4185 47.2368L35.0456 37.6791L30.8183 33.4212ZM44.8656 43.1414L35.0424 33.418L30.8215 37.6823L40.6447 47.4057L44.8656 43.1414ZM41.6511 50.6437L44.8842 47.3872L40.6262 43.1599L37.3931 46.4164L41.6511 50.6437ZM41.6455 48.9632C42.1087 49.4217 42.1163 50.175 41.6512 50.6436L37.393 46.4165C35.5163 48.3071 35.5353 51.3574 37.4246 53.2275L41.6455 48.9632ZM43.0124 50.3163L41.6456 48.9633L37.4246 53.2274L38.7914 54.5805L43.0124 50.3163ZM41.3423 50.3251C41.8048 49.8592 42.5516 49.8602 43.0124 50.3163L38.7915 54.5805C40.6784 56.4483 43.7256 56.4405 45.6 54.5526L41.3423 50.3251ZM46.906 44.721L41.3422 50.3252L45.6001 54.5525L51.164 48.9482L46.906 44.721ZM60.79 54.249L51.1455 44.7025L46.9245 48.9667L56.569 58.5132L60.79 54.249ZM59.1195 54.258C59.5823 53.7918 60.3292 53.7929 60.7901 54.2491L56.569 58.5132C58.4557 60.3809 61.5032 60.3733 63.3777 58.4851L59.1195 54.258ZM60.473 52.8947L59.1196 54.2579L63.3776 58.4852L64.731 57.1219L60.473 52.8947ZM60.4788 54.5753C60.0155 54.1167 60.0078 53.3632 60.4731 52.8946L64.7309 57.122C66.6081 55.2314 66.5888 52.1807 64.6995 50.3108L60.4788 54.5753ZM50.8342 45.0286L60.4787 54.5752L64.6996 50.3109L55.0551 40.7644L50.8342 45.0286ZM56.3795 35.1786L50.8157 40.7829L55.0737 45.0101L60.6375 39.4059L56.3795 35.1786ZM56.3853 36.8593C55.9218 36.4005 55.9145 35.6471 56.3794 35.1787L60.6376 39.4058C62.5142 37.5153 62.4956 34.4648 60.6058 32.5946L56.3853 36.8593ZM55.0182 35.506L56.3851 36.859L60.6061 32.5949L59.2392 31.2418L55.0182 35.506ZM56.6884 35.4972C56.2258 35.9631 55.479 35.9621 55.0183 35.506L59.2392 31.2418C57.3523 29.3741 54.3051 29.3818 52.4306 31.2697L56.6884 35.4972ZM53.4179 38.7914L56.6885 35.4971L52.4305 31.2698L49.1599 34.5642L53.4179 38.7914ZM39.4176 29.1482L49.1785 38.8099L53.3994 34.5457L43.6385 24.884L39.4176 29.1482ZM54.3378 10.0714L39.4144 24.8871L43.6417 29.1451L58.565 14.3293L54.3378 10.0714ZM53.7414 11.3698C53.7768 10.8794 53.9885 10.4181 54.3379 10.0713L58.5649 14.3294C59.2447 13.6546 59.6569 12.7566 59.7258 11.8018L53.7414 11.3698ZM54.2865 3.81405L53.7414 11.3699L59.7258 11.8016L60.2709 4.24577L54.2865 3.81405ZM56.4071 5.99825C55.1839 6.04922 54.1993 5.02285 54.2865 3.8142L60.2709 4.24562C60.4406 1.89198 58.5258 -0.0952213 56.1574 0.00345206L56.4071 5.99825ZM48.6837 6.31949L56.4069 5.99826L56.1576 0.00344324L48.4343 0.324668L48.6837 6.31949ZM50.035 5.72994C49.6755 6.08676 49.194 6.29824 48.6838 6.31948L48.4342 0.324672C47.445 0.365852 46.5091 0.776017 45.8088 1.47101L50.035 5.72994ZM35.0329 20.6238L50.0355 5.72946L45.8083 1.47149L30.8057 16.3659L35.0329 20.6238ZM15.9829 5.95177L30.8088 20.627L35.0298 16.3627L20.2039 1.68751L15.9829 5.95177ZM17.2865 6.53679C16.7959 6.50568 16.3327 6.29805 15.9828 5.95166L20.204 1.68762C19.5233 1.01375 18.6217 0.609398 17.6663 0.548815L17.2865 6.53679ZM9.72632 6.05767L17.2867 6.5368L17.6661 0.548808L10.1058 0.069685L9.72632 6.05767ZM11.8919 3.91802C11.9536 5.14076 10.9358 6.13426 9.72647 6.05768L10.1057 0.0696757C7.75062 -0.0794551 5.7802 1.85265 5.89954 4.22008L11.8919 3.91802ZM12.2806 11.6384L11.8919 3.91823L5.89953 4.21987L6.28814 11.94L12.2806 11.6384ZM11.6792 10.2922C12.0392 10.6487 12.2549 11.1282 12.2805 11.6383L6.28814 11.9401C6.33795 12.929 6.75626 13.8612 7.45736 14.5555L11.6792 10.2922ZM26.4337 24.8968L11.6788 10.2917L7.45783 14.556L22.2128 29.161L26.4337 24.8968Z" fill="#D6AE60" mask="url(#path-1-outside-1_94_2948)"/>
</svg>
