<svg width="56" height="61" viewBox="0 0 56 61" fill="none" xmlns="http://www.w3.org/2000/svg">
<mask id="path-1-outside-1_94_2949" maskUnits="userSpaceOnUse" x="0.791046" y="0.527527" width="55" height="61" fill="black">
<rect fill="white" x="0.791046" y="0.527527" width="55" height="61"/>
<path fill-rule="evenodd" clip-rule="evenodd" d="M38.8015 18C39.6582 18 40.1183 16.993 39.5574 16.3453L28.7559 3.87287C28.3572 3.41241 27.6428 3.41241 27.2441 3.87287L16.4426 16.3453C15.8817 16.993 16.3418 18 17.1985 18H19.1233C19.6756 18 20.1233 18.4477 20.1233 19V33.7805C20.1233 34.3328 19.6756 34.7805 19.1233 34.7805H18.4897C17.9374 34.7805 17.4897 34.3328 17.4897 33.7805V29.8653V27.4507C17.4897 26.8984 17.042 26.4507 16.4897 26.4507H15.75C15.1977 26.4507 14.75 26.8984 14.75 27.4507V28.8653C14.75 29.4176 14.3022 29.8653 13.7499 29.8653H13.0102C12.4579 29.8653 12.0102 29.4176 12.0102 28.8653V27.4507C12.0102 26.8984 11.5625 26.4507 11.0102 26.4507H10.2705C9.71821 26.4507 9.2705 26.8984 9.2705 27.4507V28.8653C9.2705 29.4176 8.82278 29.8653 8.2705 29.8653H7.53077C6.97849 29.8653 6.53077 29.4176 6.53077 28.8653V27.4507C6.53077 26.8984 6.08306 26.4507 5.53077 26.4507H4.79105C4.23876 26.4507 3.79105 26.8984 3.79105 27.4507V29.8653V56.8654C3.79105 57.4176 4.23876 57.8654 4.79105 57.8654H16.4897C17.042 57.8654 17.4897 57.4176 17.4897 56.8654V45.7562C17.4897 45.637 17.511 45.5172 17.5546 45.4062C19.4342 40.6171 24.0942 39.2683 28.3425 39.2683C33.0488 39.2683 36.9566 41.2302 38.542 45.6532C38.579 45.7567 38.5971 45.8671 38.5971 45.977V56.8654C38.5971 57.4176 39.0449 57.8654 39.5971 57.8654H51.2958C51.8481 57.8654 52.2958 57.4176 52.2958 56.8654V29.8653V27.4507C52.2958 26.8984 51.8481 26.4507 51.2958 26.4507H50.556C50.0038 26.4507 49.556 26.8984 49.556 27.4507V28.8653C49.556 29.4176 49.1083 29.8653 48.556 29.8653H47.8163C47.264 29.8653 46.8163 29.4176 46.8163 28.8653V27.4507C46.8163 26.8984 46.3686 26.4507 45.8163 26.4507H45.0766C44.5243 26.4507 44.0766 26.8984 44.0766 27.4507V28.8653C44.0766 29.4176 43.6289 29.8653 43.0766 29.8653H42.3369C41.7846 29.8653 41.3369 29.4176 41.3369 28.8653V27.4507C41.3369 26.8984 40.8892 26.4507 40.3369 26.4507H39.5971C39.0449 26.4507 38.5971 26.8984 38.5971 27.4507V29.8653V33.7805C38.5971 34.3328 38.1494 34.7805 37.5971 34.7805H36.8767C36.3244 34.7805 35.8767 34.3328 35.8767 33.7805V19C35.8767 18.4477 36.3244 18 36.8767 18H38.8015ZM24.9178 25.2195C24.9178 23.3337 26.4511 21.8049 28.3425 21.8049C30.2339 21.8049 31.7671 23.3337 31.7671 25.2195V25.2221V33.7805C31.7671 34.3328 31.3194 34.7805 30.7671 34.7805H25.9178C25.3655 34.7805 24.9178 34.3328 24.9178 33.7805V25.2195ZM7.2157 38.0605C7.2157 36.1746 8.74898 34.6458 10.6404 34.6458C12.5317 34.6458 14.065 36.1746 14.065 38.0605L14.065 38.063V46.6215C14.065 47.1737 13.6173 47.6215 13.065 47.6215H8.2157C7.66342 47.6215 7.2157 47.1737 7.2157 46.6215V38.0605ZM48.8711 38.0623V46.6215C48.8711 47.1737 48.4234 47.6215 47.8711 47.6215H43.0218C42.4695 47.6215 42.0218 47.1737 42.0218 46.6215V38.0605C42.0218 36.1746 43.5551 34.6458 45.4465 34.6458C47.3378 34.6458 48.8711 36.1746 48.8711 38.0605V38.0623Z"/>
</mask>
<path fill-rule="evenodd" clip-rule="evenodd" d="M38.8015 18C39.6582 18 40.1183 16.993 39.5574 16.3453L28.7559 3.87287C28.3572 3.41241 27.6428 3.41241 27.2441 3.87287L16.4426 16.3453C15.8817 16.993 16.3418 18 17.1985 18H19.1233C19.6756 18 20.1233 18.4477 20.1233 19V33.7805C20.1233 34.3328 19.6756 34.7805 19.1233 34.7805H18.4897C17.9374 34.7805 17.4897 34.3328 17.4897 33.7805V29.8653V27.4507C17.4897 26.8984 17.042 26.4507 16.4897 26.4507H15.75C15.1977 26.4507 14.75 26.8984 14.75 27.4507V28.8653C14.75 29.4176 14.3022 29.8653 13.7499 29.8653H13.0102C12.4579 29.8653 12.0102 29.4176 12.0102 28.8653V27.4507C12.0102 26.8984 11.5625 26.4507 11.0102 26.4507H10.2705C9.71821 26.4507 9.2705 26.8984 9.2705 27.4507V28.8653C9.2705 29.4176 8.82278 29.8653 8.2705 29.8653H7.53077C6.97849 29.8653 6.53077 29.4176 6.53077 28.8653V27.4507C6.53077 26.8984 6.08306 26.4507 5.53077 26.4507H4.79105C4.23876 26.4507 3.79105 26.8984 3.79105 27.4507V29.8653V56.8654C3.79105 57.4176 4.23876 57.8654 4.79105 57.8654H16.4897C17.042 57.8654 17.4897 57.4176 17.4897 56.8654V45.7562C17.4897 45.637 17.511 45.5172 17.5546 45.4062C19.4342 40.6171 24.0942 39.2683 28.3425 39.2683C33.0488 39.2683 36.9566 41.2302 38.542 45.6532C38.579 45.7567 38.5971 45.8671 38.5971 45.977V56.8654C38.5971 57.4176 39.0449 57.8654 39.5971 57.8654H51.2958C51.8481 57.8654 52.2958 57.4176 52.2958 56.8654V29.8653V27.4507C52.2958 26.8984 51.8481 26.4507 51.2958 26.4507H50.556C50.0038 26.4507 49.556 26.8984 49.556 27.4507V28.8653C49.556 29.4176 49.1083 29.8653 48.556 29.8653H47.8163C47.264 29.8653 46.8163 29.4176 46.8163 28.8653V27.4507C46.8163 26.8984 46.3686 26.4507 45.8163 26.4507H45.0766C44.5243 26.4507 44.0766 26.8984 44.0766 27.4507V28.8653C44.0766 29.4176 43.6289 29.8653 43.0766 29.8653H42.3369C41.7846 29.8653 41.3369 29.4176 41.3369 28.8653V27.4507C41.3369 26.8984 40.8892 26.4507 40.3369 26.4507H39.5971C39.0449 26.4507 38.5971 26.8984 38.5971 27.4507V29.8653V33.7805C38.5971 34.3328 38.1494 34.7805 37.5971 34.7805H36.8767C36.3244 34.7805 35.8767 34.3328 35.8767 33.7805V19C35.8767 18.4477 36.3244 18 36.8767 18H38.8015ZM24.9178 25.2195C24.9178 23.3337 26.4511 21.8049 28.3425 21.8049C30.2339 21.8049 31.7671 23.3337 31.7671 25.2195V25.2221V33.7805C31.7671 34.3328 31.3194 34.7805 30.7671 34.7805H25.9178C25.3655 34.7805 24.9178 34.3328 24.9178 33.7805V25.2195ZM7.2157 38.0605C7.2157 36.1746 8.74898 34.6458 10.6404 34.6458C12.5317 34.6458 14.065 36.1746 14.065 38.0605L14.065 38.063V46.6215C14.065 47.1737 13.6173 47.6215 13.065 47.6215H8.2157C7.66342 47.6215 7.2157 47.1737 7.2157 46.6215V38.0605ZM48.8711 38.0623V46.6215C48.8711 47.1737 48.4234 47.6215 47.8711 47.6215H43.0218C42.4695 47.6215 42.0218 47.1737 42.0218 46.6215V38.0605C42.0218 36.1746 43.5551 34.6458 45.4465 34.6458C47.3378 34.6458 48.8711 36.1746 48.8711 38.0605V38.0623Z" fill="#FDDC9B"/>
<path d="M14.065 38.0605L17.065 38.0616V38.0605H14.065ZM14.065 38.063L11.065 38.0619V38.063H14.065ZM38.542 45.6532L41.366 44.641L38.542 45.6532ZM17.5546 45.4062L20.3472 46.5023L17.5546 45.4062ZM39.5574 16.3453L41.8252 14.3814L39.5574 16.3453ZM28.7559 3.87287L26.4881 5.83683L28.7559 3.87287ZM27.2441 3.87287L29.5119 5.83683L27.2441 3.87287ZM26.4881 5.83683L37.2896 18.3093L41.8252 14.3814L31.0237 1.90891L26.4881 5.83683ZM18.7104 18.3093L29.5119 5.83683L24.9763 1.90891L14.1748 14.3814L18.7104 18.3093ZM19.1233 15H17.1985V21H19.1233V15ZM23.1233 33.7805V19H17.1233V33.7805H23.1233ZM18.4897 37.7805H19.1233V31.7805H18.4897V37.7805ZM14.4897 29.8653V33.7805H20.4897V29.8653H14.4897ZM14.4897 27.4507V29.8653H20.4897V27.4507H14.4897ZM15.75 29.4507H16.4897V23.4507H15.75V29.4507ZM17.75 28.8653V27.4507H11.75V28.8653H17.75ZM13.0102 32.8653H13.7499V26.8653H13.0102V32.8653ZM9.01022 27.4507V28.8653H15.0102V27.4507H9.01022ZM10.2705 29.4507H11.0102V23.4507H10.2705V29.4507ZM12.2705 28.8653V27.4507H6.2705V28.8653H12.2705ZM7.53077 32.8653H8.2705V26.8653H7.53077V32.8653ZM3.53077 27.4507V28.8653H9.53077V27.4507H3.53077ZM4.79105 29.4507H5.53077V23.4507H4.79105V29.4507ZM6.79105 29.8653V27.4507H0.791046V29.8653H6.79105ZM6.79105 56.8654V29.8653H0.791046V56.8654H6.79105ZM16.4897 54.8654H4.79105V60.8654H16.4897V54.8654ZM14.4897 45.7562V56.8654H20.4897V45.7562H14.4897ZM28.3425 36.2683C23.6467 36.2683 17.3236 37.7834 14.762 44.3102L20.3472 46.5023C21.5448 43.4509 24.5417 42.2683 28.3425 42.2683V36.2683ZM41.366 44.641C39.2303 38.6825 33.9074 36.2683 28.3425 36.2683V42.2683C32.1901 42.2683 34.6829 43.7779 35.7179 46.6655L41.366 44.641ZM41.5971 56.8654V45.977H35.5971V56.8654H41.5971ZM51.2958 54.8654H39.5971V60.8654H51.2958V54.8654ZM49.2958 29.8653V56.8654H55.2958V29.8653H49.2958ZM49.2958 27.4507V29.8653H55.2958V27.4507H49.2958ZM50.556 29.4507H51.2958V23.4507H50.556V29.4507ZM52.556 28.8653V27.4507H46.556V28.8653H52.556ZM47.8163 32.8653H48.556V26.8653H47.8163V32.8653ZM43.8163 27.4507V28.8653H49.8163V27.4507H43.8163ZM45.0766 29.4507H45.8163V23.4507H45.0766V29.4507ZM47.0766 28.8653V27.4507H41.0766V28.8653H47.0766ZM42.3369 32.8653H43.0766V26.8653H42.3369V32.8653ZM38.3369 27.4507V28.8653H44.3369V27.4507H38.3369ZM39.5971 29.4507H40.3369V23.4507H39.5971V29.4507ZM41.5971 29.8653V27.4507H35.5971V29.8653H41.5971ZM41.5971 33.7805V29.8653H35.5971V33.7805H41.5971ZM36.8767 37.7805H37.5971V31.7805H36.8767V37.7805ZM32.8767 19V33.7805H38.8767V19H32.8767ZM38.8015 15H36.8767V21H38.8015V15ZM28.3425 18.8049C24.8025 18.8049 21.9178 21.6685 21.9178 25.2195H27.9178C27.9178 24.9988 28.0997 24.8049 28.3425 24.8049V18.8049ZM34.7671 25.2195C34.7671 21.6685 31.8824 18.8049 28.3425 18.8049V24.8049C28.5853 24.8049 28.7671 24.9988 28.7671 25.2195H34.7671ZM34.7671 25.2221V25.2195H28.7671V25.2221H34.7671ZM34.7671 33.7805V25.2221H28.7671V33.7805H34.7671ZM25.9178 37.7805H30.7671V31.7805H25.9178V37.7805ZM21.9178 25.2195V33.7805H27.9178V25.2195H21.9178ZM10.6404 31.6458C7.10042 31.6458 4.2157 34.5095 4.2157 38.0605H10.2157C10.2157 37.8398 10.3975 37.6458 10.6404 37.6458V31.6458ZM17.065 38.0605C17.065 34.5095 14.1803 31.6458 10.6404 31.6458V37.6458C10.8832 37.6458 11.065 37.8398 11.065 38.0605H17.065ZM17.065 38.0642L17.065 38.0616L11.065 38.0594L11.065 38.0619L17.065 38.0642ZM17.065 46.6215V38.063H11.065V46.6215H17.065ZM8.2157 50.6215H13.065V44.6215H8.2157V50.6215ZM4.2157 38.0605V46.6215H10.2157V38.0605H4.2157ZM51.8711 46.6215V38.0623H45.8711V46.6215H51.8711ZM43.0218 50.6215H47.8711V44.6215H43.0218V50.6215ZM39.0218 38.0605V46.6215H45.0218V38.0605H39.0218ZM45.4465 31.6458C41.9065 31.6458 39.0218 34.5095 39.0218 38.0605H45.0218C45.0218 37.8398 45.2036 37.6458 45.4465 37.6458V31.6458ZM51.8711 38.0605C51.8711 34.5095 48.9864 31.6458 45.4465 31.6458V37.6458C45.6893 37.6458 45.8711 37.8398 45.8711 38.0605H51.8711ZM51.8711 38.0623V38.0605H45.8711V38.0623H51.8711ZM25.9178 31.7805C27.0224 31.7805 27.9178 32.6759 27.9178 33.7805H21.9178C21.9178 35.9896 23.7087 37.7805 25.9178 37.7805V31.7805ZM28.7671 33.7805C28.7671 32.6759 29.6626 31.7805 30.7671 31.7805V37.7805C32.9763 37.7805 34.7671 35.9896 34.7671 33.7805H28.7671ZM38.8767 19C38.8767 20.1046 37.9813 21 36.8767 21V15C34.6676 15 32.8767 16.7909 32.8767 19H38.8767ZM36.8767 31.7805C37.9813 31.7805 38.8767 32.6759 38.8767 33.7805H32.8767C32.8767 35.9896 34.6676 37.7805 36.8767 37.7805V31.7805ZM35.5971 33.7805C35.5971 32.6759 36.4926 31.7805 37.5971 31.7805V37.7805C39.8063 37.7805 41.5971 35.9896 41.5971 33.7805H35.5971ZM39.5971 23.4507C37.388 23.4507 35.5971 25.2416 35.5971 27.4507H41.5971C41.5971 28.5553 40.7017 29.4507 39.5971 29.4507V23.4507ZM44.3369 27.4507C44.3369 25.2416 42.546 23.4507 40.3369 23.4507V29.4507C39.2323 29.4507 38.3369 28.5553 38.3369 27.4507H44.3369ZM42.3369 26.8653C43.4414 26.8653 44.3369 27.7608 44.3369 28.8653H38.3369C38.3369 31.0745 40.1277 32.8653 42.3369 32.8653V26.8653ZM41.0766 28.8653C41.0766 27.7608 41.972 26.8653 43.0766 26.8653V32.8653C45.2857 32.8653 47.0766 31.0745 47.0766 28.8653H41.0766ZM45.0766 23.4507C42.8675 23.4507 41.0766 25.2416 41.0766 27.4507H47.0766C47.0766 28.5553 46.1812 29.4507 45.0766 29.4507V23.4507ZM49.8163 27.4507C49.8163 25.2416 48.0255 23.4507 45.8163 23.4507V29.4507C44.7118 29.4507 43.8163 28.5553 43.8163 27.4507H49.8163ZM47.8163 26.8653C48.9209 26.8653 49.8163 27.7608 49.8163 28.8653H43.8163C43.8163 31.0745 45.6072 32.8653 47.8163 32.8653V26.8653ZM46.556 28.8653C46.556 27.7608 47.4515 26.8653 48.556 26.8653V32.8653C50.7652 32.8653 52.556 31.0745 52.556 28.8653H46.556ZM50.556 23.4507C48.3469 23.4507 46.556 25.2416 46.556 27.4507H52.556C52.556 28.5553 51.6606 29.4507 50.556 29.4507V23.4507ZM35.7179 46.6655C35.632 46.426 35.5971 46.1922 35.5971 45.977H41.5971C41.5971 45.5419 41.526 45.0875 41.366 44.641L35.7179 46.6655ZM20.4897 45.7562C20.4897 45.99 20.4486 46.2441 20.3472 46.5023L14.762 44.3102C14.5735 44.7903 14.4897 45.284 14.4897 45.7562H20.4897ZM16.4897 60.8654C18.6988 60.8654 20.4897 59.0745 20.4897 56.8654H14.4897C14.4897 55.7608 15.3851 54.8654 16.4897 54.8654V60.8654ZM0.791046 56.8654C0.791046 59.0745 2.5819 60.8654 4.79105 60.8654V54.8654C5.89562 54.8654 6.79105 55.7608 6.79105 56.8654H0.791046ZM4.79105 23.4507C2.58191 23.4507 0.791046 25.2416 0.791046 27.4507H6.79105C6.79105 28.5553 5.89562 29.4507 4.79105 29.4507V23.4507ZM9.53077 27.4507C9.53077 25.2416 7.73991 23.4507 5.53077 23.4507V29.4507C4.4262 29.4507 3.53077 28.5553 3.53077 27.4507H9.53077ZM7.53077 26.8653C8.63534 26.8653 9.53077 27.7608 9.53077 28.8653H3.53077C3.53077 31.0745 5.32163 32.8653 7.53077 32.8653V26.8653ZM6.2705 28.8653C6.2705 27.7608 7.16593 26.8653 8.2705 26.8653V32.8653C10.4796 32.8653 12.2705 31.0745 12.2705 28.8653H6.2705ZM10.2705 23.4507C8.06136 23.4507 6.2705 25.2416 6.2705 27.4507H12.2705C12.2705 28.5553 11.3751 29.4507 10.2705 29.4507V23.4507ZM13.0102 26.8653C14.1148 26.8653 15.0102 27.7608 15.0102 28.8653H9.01022C9.01022 31.0745 10.8011 32.8653 13.0102 32.8653V26.8653ZM11.75 28.8653C11.75 27.7608 12.6454 26.8653 13.7499 26.8653V32.8653C15.9591 32.8653 17.75 31.0745 17.75 28.8653H11.75ZM15.75 23.4507C13.5408 23.4507 11.75 25.2416 11.75 27.4507H17.75C17.75 28.5553 16.8545 29.4507 15.75 29.4507V23.4507ZM43.0218 44.6215C44.1264 44.6215 45.0218 45.5169 45.0218 46.6215H39.0218C39.0218 48.8306 40.8127 50.6215 43.0218 50.6215V44.6215ZM20.4897 27.4507C20.4897 25.2416 18.6988 23.4507 16.4897 23.4507V29.4507C15.3851 29.4507 14.4897 28.5553 14.4897 27.4507H20.4897ZM45.8711 46.6215C45.8711 45.5169 46.7665 44.6215 47.8711 44.6215V50.6215C50.0803 50.6215 51.8711 48.8306 51.8711 46.6215H45.8711ZM18.4897 31.7805C19.5942 31.7805 20.4897 32.6759 20.4897 33.7805H14.4897C14.4897 35.9896 16.2805 37.7805 18.4897 37.7805V31.7805ZM8.2157 44.6215C9.32028 44.6215 10.2157 45.5169 10.2157 46.6215H4.2157C4.2157 48.8306 6.00656 50.6215 8.2157 50.6215V44.6215ZM17.1233 33.7805C17.1233 32.6759 18.0187 31.7805 19.1233 31.7805V37.7805C21.3324 37.7805 23.1233 35.9896 23.1233 33.7805H17.1233ZM55.2958 27.4507C55.2958 25.2416 53.5049 23.4507 51.2958 23.4507V29.4507C50.1912 29.4507 49.2958 28.5553 49.2958 27.4507H55.2958ZM11.065 46.6215C11.065 45.5169 11.9604 44.6215 13.065 44.6215V50.6215C15.2742 50.6215 17.065 48.8306 17.065 46.6215H11.065ZM19.1233 21C18.0187 21 17.1233 20.1046 17.1233 19H23.1233C23.1233 16.7909 21.3324 15 19.1233 15V21ZM14.1748 14.3814C11.9313 16.972 13.7715 21 17.1985 21V15C18.912 15 19.8321 17.014 18.7104 18.3093L14.1748 14.3814ZM51.2958 60.8654C53.5049 60.8654 55.2958 59.0745 55.2958 56.8654H49.2958C49.2958 55.7608 50.1912 54.8654 51.2958 54.8654V60.8654ZM37.2896 18.3093C36.1679 17.014 37.088 15 38.8015 15V21C42.2285 21 44.0687 16.972 41.8252 14.3814L37.2896 18.3093ZM15.0102 27.4507C15.0102 25.2416 13.2194 23.4507 11.0102 23.4507V29.4507C9.90566 29.4507 9.01022 28.5553 9.01022 27.4507H15.0102ZM35.5971 56.8654C35.5971 59.0745 37.388 60.8654 39.5971 60.8654V54.8654C40.7017 54.8654 41.5971 55.7608 41.5971 56.8654H35.5971ZM31.0237 1.90891C29.4286 0.0670626 26.5714 0.0670676 24.9763 1.90891L29.5119 5.83683C28.7143 6.75776 27.2857 6.75776 26.4881 5.83683L31.0237 1.90891Z" fill="#D6AE60" mask="url(#path-1-outside-1_94_2949)"/>
</svg>
