<svg width="71" height="61" viewBox="0 0 71 61" fill="none" xmlns="http://www.w3.org/2000/svg">
<path d="M65.1808 42.821L63.7523 42.3635L65.1808 42.821C66.4034 39.0038 65.5211 32.98 62.1106 27.8347C58.6348 22.5909 52.4906 18.1706 43.0748 17.6356L42.9897 19.1332L43.0747 17.6356C42.7763 17.6187 42.3019 17.4587 41.617 16.9942C40.9499 16.5419 40.2075 15.8871 39.3913 15.0712C38.4122 14.0926 37.4541 13.0197 36.4555 11.9015C35.7262 11.0849 34.9753 10.2441 34.179 9.3983C29.9232 4.87784 26.0638 2.79082 22.5023 2.28471C18.9354 1.77787 15.9336 2.89589 13.4944 4.22532C10.9571 5.60816 8.53272 7.72727 7.09411 11.4024C5.6766 15.0236 5.277 20.0015 6.42542 27.0051C8.35045 38.7452 19.9152 58.4786 44.8681 57.3168C54.4621 56.87 62.8733 50.0252 65.1808 42.821Z" fill="#FDDC9B" stroke="#D6AE60" stroke-width="3"/>
<circle cx="28.5" cy="29.5" r="2.5" fill="#D6AE60"/>
<circle cx="44.5" cy="29.5" r="2.5" fill="#D6AE60"/>
<path d="M31 40C34.0556 44 39.25 44 42 40" stroke="#D6AE60" stroke-width="3" stroke-linecap="round"/>
</svg>
