<svg width="70" height="62" viewBox="0 0 70 62" fill="none" xmlns="http://www.w3.org/2000/svg">
<mask id="path-1-outside-1_116_2338" maskUnits="userSpaceOnUse" x="0" y="0" width="70" height="62" fill="black">
<rect fill="white" width="70" height="62"/>
<path fill-rule="evenodd" clip-rule="evenodd" d="M11.731 3C13.3384 3 14.6414 4.52969 14.6414 6.41667V20.0833H24V16C24 14.3431 25.3431 13 27 13H38C39.6569 13 41 14.3431 41 16V20.0833H42V18.5C42 17.1193 43.1193 16 44.5 16C45.8807 16 47 17.1193 47 18.5V20.0833H55.3586V6.41667C55.3586 4.52969 56.6616 3 58.269 3C59.8763 3 61.1793 4.52969 61.1793 6.41667L61.1793 6.42457V13.2421C61.1829 11.3588 62.4845 9.83333 64.0896 9.83333C65.697 9.83333 67 11.363 67 13.25L67 13.2579V33.75C67 35.637 65.697 37.1667 64.0896 37.1667C62.4845 37.1667 61.1829 35.6412 61.1793 33.7579V40.5833C61.1793 42.4703 59.8763 44 58.2689 44C56.6616 44 55.3586 42.4703 55.3586 40.5833V26.9167H47V30.5C47 31.8807 45.8807 33 44.5 33C44.3961 33 44.2937 32.9937 44.1932 32.9814C44.1307 32.9936 44.0661 33 44 33H41V56C41 57.6569 39.6569 59 38 59H32C30.3431 59 29 57.6569 29 56V33H27C25.3431 33 24 31.6569 24 30V26.9167H14.6414V40.5833C14.6414 42.4703 13.3384 44 11.731 44C10.1237 44 8.82069 42.4703 8.82069 40.5833V33.7571C8.81742 35.6408 7.51567 37.1667 5.91035 37.1667C4.30301 37.1667 3 35.637 3 33.75V13.25V13.25C3 11.363 4.30301 9.83333 5.91035 9.83333C7.51567 9.83333 8.81742 11.3592 8.82069 13.2429V6.41667C8.82069 4.52969 10.1237 3 11.731 3ZM41 26.9167V27H42V26.9167H41Z"/>
</mask>
<path fill-rule="evenodd" clip-rule="evenodd" d="M11.731 3C13.3384 3 14.6414 4.52969 14.6414 6.41667V20.0833H24V16C24 14.3431 25.3431 13 27 13H38C39.6569 13 41 14.3431 41 16V20.0833H42V18.5C42 17.1193 43.1193 16 44.5 16C45.8807 16 47 17.1193 47 18.5V20.0833H55.3586V6.41667C55.3586 4.52969 56.6616 3 58.269 3C59.8763 3 61.1793 4.52969 61.1793 6.41667L61.1793 6.42457V13.2421C61.1829 11.3588 62.4845 9.83333 64.0896 9.83333C65.697 9.83333 67 11.363 67 13.25L67 13.2579V33.75C67 35.637 65.697 37.1667 64.0896 37.1667C62.4845 37.1667 61.1829 35.6412 61.1793 33.7579V40.5833C61.1793 42.4703 59.8763 44 58.2689 44C56.6616 44 55.3586 42.4703 55.3586 40.5833V26.9167H47V30.5C47 31.8807 45.8807 33 44.5 33C44.3961 33 44.2937 32.9937 44.1932 32.9814C44.1307 32.9936 44.0661 33 44 33H41V56C41 57.6569 39.6569 59 38 59H32C30.3431 59 29 57.6569 29 56V33H27C25.3431 33 24 31.6569 24 30V26.9167H14.6414V40.5833C14.6414 42.4703 13.3384 44 11.731 44C10.1237 44 8.82069 42.4703 8.82069 40.5833V33.7571C8.81742 35.6408 7.51567 37.1667 5.91035 37.1667C4.30301 37.1667 3 35.637 3 33.75V13.25V13.25C3 11.363 4.30301 9.83333 5.91035 9.83333C7.51567 9.83333 8.81742 11.3592 8.82069 13.2429V6.41667C8.82069 4.52969 10.1237 3 11.731 3ZM41 26.9167V27H42V26.9167H41Z" fill="#FDDC9B"/>
<path d="M14.6414 20.0833H11.6414V23.0833H14.6414V20.0833ZM24 20.0833V23.0833H27V20.0833H24ZM41 20.0833H38V23.0833H41V20.0833ZM42 20.0833V23.0833H45V20.0833H42ZM47 20.0833H44V23.0833H47V20.0833ZM55.3586 20.0833V23.0833H58.3586V20.0833H55.3586ZM55.3586 6.41667L52.3586 6.41665V6.41667H55.3586ZM61.1793 6.41667L64.1793 6.41956V6.41667H61.1793ZM61.1793 6.42457L58.1793 6.42168V6.42457H61.1793ZM61.1793 13.2421H58.1793L64.1793 13.2479L61.1793 13.2421ZM67 13.25L70 13.2529V13.25H67ZM67 13.2579L64 13.255V13.2579H67ZM61.1793 33.7579L64.1793 33.7521L58.1793 33.7579H61.1793ZM55.3586 26.9167H58.3586V23.9167H55.3586V26.9167ZM47 26.9167V23.9167H44V26.9167H47ZM44.1932 32.9814L44.5576 30.0036L44.0846 29.9457L43.617 30.0372L44.1932 32.9814ZM41 33V30H38V33H41ZM29 33H32V30H29V33ZM24 26.9167H27V23.9167H24V26.9167ZM14.6414 26.9167V23.9167H11.6414V26.9167H14.6414ZM8.82069 33.7571H11.8207L5.8207 33.7519L8.82069 33.7571ZM3 13.25L0 13.25V13.25H3ZM8.82069 13.2429L5.8207 13.2481L11.8207 13.2429H8.82069ZM41 27H38V30H41V27ZM41 26.9167V23.9167H38V26.9167H41ZM42 27V30H45V27H42ZM42 26.9167H45V23.9167H42V26.9167ZM17.6414 6.41667C17.6414 3.34211 15.4285 0 11.731 0V6C11.6483 6 11.5763 5.97864 11.5297 5.95548C11.4876 5.93461 11.4848 5.92218 11.5052 5.94606C11.5505 5.99923 11.6414 6.15617 11.6414 6.41667H17.6414ZM17.6414 20.0833V6.41667H11.6414V20.0833H17.6414ZM24 17.0833H14.6414V23.0833H24V17.0833ZM21 16V20.0833H27V16H21ZM27 10C23.6863 10 21 12.6863 21 16H27V10ZM38 10H27V16H38V10ZM44 16C44 12.6863 41.3137 10 38 10V16H44ZM44 20.0833V16H38V20.0833H44ZM42 17.0833H41V23.0833H42V17.0833ZM39 18.5V20.0833H45V18.5H39ZM44.5 13C41.4624 13 39 15.4624 39 18.5H45C45 18.7761 44.7761 19 44.5 19V13ZM50 18.5C50 15.4624 47.5376 13 44.5 13V19C44.2239 19 44 18.7761 44 18.5H50ZM50 20.0833V18.5H44V20.0833H50ZM55.3586 17.0833H47V23.0833H55.3586V17.0833ZM52.3586 6.41667V20.0833H58.3586V6.41667H52.3586ZM58.269 0C54.5715 0 52.3586 3.34211 52.3586 6.41665L58.3586 6.41668C58.3586 6.15618 58.4495 5.99924 58.4948 5.94606C58.5151 5.92218 58.5124 5.93461 58.4703 5.95548C58.4237 5.97864 58.3517 6 58.269 6V0ZM64.1793 6.41667C64.1793 3.34211 61.9664 0 58.269 0V6C58.1862 6 58.1142 5.97864 58.0676 5.95548C58.0256 5.93461 58.0228 5.92218 58.0431 5.94606C58.0884 5.99923 58.1793 6.15617 58.1793 6.41667H64.1793ZM64.1793 6.42747L64.1793 6.41956L58.1793 6.41377L58.1793 6.42168L64.1793 6.42747ZM64.1793 13.2421V6.42457H58.1793V13.2421H64.1793ZM64.0896 6.83333C60.3976 6.83333 58.1852 10.1667 58.1793 13.2363L64.1793 13.2479C64.1798 12.9882 64.2706 12.832 64.3157 12.7792C64.3359 12.7555 64.3329 12.768 64.2908 12.7889C64.2442 12.812 64.1722 12.8333 64.0896 12.8333V6.83333ZM70 13.25C70 10.1754 67.7871 6.83333 64.0896 6.83333V12.8333C64.0069 12.8333 63.9349 12.812 63.8883 12.7888C63.8462 12.7679 63.8435 12.7555 63.8638 12.7794C63.9091 12.8326 64 12.9895 64 13.25H70ZM70 13.2608L70 13.2529L64 13.2471L64 13.255L70 13.2608ZM70 33.75V13.2579H64V33.75H70ZM64.0896 40.1667C67.7871 40.1667 70 36.8245 70 33.75H64C64 34.0105 63.9091 34.1674 63.8638 34.2206C63.8434 34.2445 63.8462 34.232 63.8883 34.2112C63.9349 34.188 64.0069 34.1667 64.0896 34.1667V40.1667ZM58.1793 33.7637C58.1852 36.8333 60.3976 40.1667 64.0896 40.1667V34.1667C64.1722 34.1667 64.2442 34.188 64.2908 34.2111C64.3329 34.232 64.3359 34.2445 64.3157 34.2208C64.2706 34.168 64.1798 34.0118 64.1793 33.7521L58.1793 33.7637ZM64.1793 40.5833V33.7579H58.1793V40.5833H64.1793ZM58.2689 47C61.9664 47 64.1793 43.6579 64.1793 40.5833H58.1793C58.1793 40.8438 58.0884 41.0008 58.0431 41.0539C58.0228 41.0778 58.0255 41.0654 58.0676 41.0445C58.1142 41.0214 58.1862 41 58.2689 41V47ZM52.3586 40.5833C52.3586 43.6579 54.5715 47 58.2689 47V41C58.3517 41 58.4237 41.0214 58.4703 41.0445C58.5123 41.0654 58.5151 41.0778 58.4948 41.0539C58.4495 41.0008 58.3586 40.8438 58.3586 40.5833H52.3586ZM52.3586 26.9167V40.5833H58.3586V26.9167H52.3586ZM47 29.9167H55.3586V23.9167H47V29.9167ZM50 30.5V26.9167H44V30.5H50ZM44.5 36C47.5376 36 50 33.5376 50 30.5H44C44 30.2239 44.2239 30 44.5 30V36ZM43.8287 35.9591C44.0499 35.9862 44.274 36 44.5 36V30C44.5182 30 44.5375 30.0011 44.5576 30.0036L43.8287 35.9591ZM44 36C44.2605 36 44.5181 35.9747 44.7694 35.9255L43.617 30.0372C43.7433 30.0125 43.8716 30 44 30V36ZM41 36H44V30H41V36ZM44 56V33H38V56H44ZM38 62C41.3137 62 44 59.3137 44 56H38V62ZM32 62H38V56H32V62ZM26 56C26 59.3137 28.6863 62 32 62V56H26ZM26 33V56H32V33H26ZM27 36H29V30H27V36ZM21 30C21 33.3137 23.6863 36 27 36V30H21ZM21 26.9167V30H27V26.9167H21ZM14.6414 29.9167H24V23.9167H14.6414V29.9167ZM17.6414 40.5833V26.9167H11.6414V40.5833H17.6414ZM11.731 47C15.4285 47 17.6414 43.6579 17.6414 40.5833H11.6414C11.6414 40.8438 11.5505 41.0008 11.5052 41.0539C11.4848 41.0778 11.4876 41.0654 11.5297 41.0445C11.5763 41.0214 11.6483 41 11.731 41V47ZM5.82069 40.5833C5.82069 43.6579 8.03363 47 11.731 47V41C11.8138 41 11.8858 41.0214 11.9324 41.0445C11.9744 41.0654 11.9772 41.0778 11.9569 41.0539C11.9116 41.0008 11.8207 40.8438 11.8207 40.5833H5.82069ZM5.82069 33.7571V40.5833H11.8207V33.7571H5.82069ZM5.91035 40.1667C9.60288 40.1667 11.8153 36.8324 11.8207 33.7623L5.8207 33.7519C5.82025 34.0117 5.72941 34.168 5.68436 34.2208C5.66414 34.2445 5.66706 34.232 5.70913 34.2111C5.7558 34.188 5.82776 34.1667 5.91035 34.1667V40.1667ZM0 33.75C0 36.8245 2.21294 40.1667 5.91035 40.1667V34.1667C5.99306 34.1667 6.06509 34.188 6.11173 34.2112C6.15375 34.232 6.15655 34.2445 6.1362 34.2206C6.09091 34.1674 6 34.0105 6 33.75H0ZM0 13.25V33.75H6V13.25H0ZM0 13.25V13.25H6V13.25H0ZM5.91035 6.83333C2.21294 6.83333 7.62939e-06 10.1754 0 13.25L6 13.25C6 12.9895 6.09091 12.8326 6.1362 12.7794C6.15655 12.7555 6.15375 12.7679 6.11173 12.7888C6.06509 12.812 5.99306 12.8333 5.91035 12.8333V6.83333ZM11.8207 13.2377C11.8153 10.1676 9.60289 6.83333 5.91035 6.83333V12.8333C5.82776 12.8333 5.7558 12.812 5.70913 12.7889C5.66706 12.768 5.66414 12.7555 5.68436 12.7792C5.72941 12.832 5.82025 12.9883 5.8207 13.2481L11.8207 13.2377ZM5.82069 6.41667V13.2429H11.8207V6.41667H5.82069ZM11.731 0C8.03363 0 5.82069 3.34211 5.82069 6.41667H11.8207C11.8207 6.15617 11.9116 5.99923 11.9569 5.94606C11.9772 5.92218 11.9744 5.93461 11.9324 5.95548C11.8858 5.97864 11.8138 6 11.731 6V0ZM44 27V26.9167H38V27H44ZM42 24H41V30H42V24ZM39 26.9167V27H45V26.9167H39ZM41 29.9167H42V23.9167H41V29.9167Z" fill="#D6AE60" mask="url(#path-1-outside-1_116_2338)"/>
<rect x="27" y="11" width="3" height="13" rx="1.5" fill="#D6AE60"/>
<rect x="33" y="11" width="3" height="13" rx="1.5" fill="#D6AE60"/>
<rect x="39" y="11" width="3" height="15" rx="1.5" fill="#D6AE60"/>
</svg>
