<svg width="172" height="113" viewBox="0 0 172 113" fill="none" xmlns="http://www.w3.org/2000/svg">
<path d="M2.19731 111.5L45.024 2H126.48L169.794 111.5H2.19731Z" fill="url(#paint0_radial_377_5019)" stroke="#62169D" stroke-width="3"/>
<path d="M97.6029 90.0429L97.1949 88.5994L97.6029 90.0429C105.96 87.6803 111.961 80.0537 112.476 73.3191C112.751 69.7214 110.668 64.6969 106.57 60.9746C102.383 57.1727 96.0273 54.6466 87.6271 56.1277C87.3904 56.1695 86.9631 56.1372 86.2743 55.8842C85.6051 55.6384 84.8246 55.2356 83.9406 54.7075C82.8774 54.0726 81.8191 53.3569 80.7125 52.6086C79.9013 52.06 79.0642 51.494 78.1804 50.9294C73.4799 47.9266 69.6303 46.923 66.3689 47.2243C63.1008 47.5263 60.6786 49.1162 58.8054 50.7663C56.8518 52.4873 55.1407 54.8345 54.6443 58.3333C54.1561 61.7741 54.8682 66.1534 57.3569 71.9235C61.5462 81.6367 75.9051 96.1767 97.6029 90.0429Z" stroke="#BC66FF" stroke-width="3"/>
<defs>
<radialGradient id="paint0_radial_377_5019" cx="0" cy="0" r="1" gradientUnits="userSpaceOnUse" gradientTransform="translate(86 50) rotate(90) scale(106.5 145.381)">
<stop stop-color="#62169D"/>
<stop offset="1" stop-color="#BC66FF"/>
</radialGradient>
</defs>
</svg>
