<svg width="225" height="579" viewBox="0 0 225 579" fill="none" xmlns="http://www.w3.org/2000/svg">
<ellipse cx="111.623" cy="502.963" rx="102.623" ry="32.9625" fill="url(#paint0_radial_319_4332)"/>
<ellipse cx="112.148" cy="289.5" rx="289.5" ry="112.148" transform="rotate(-90 112.148 289.5)" fill="url(#paint1_radial_319_4332)"/>
<path d="M164.113 313.416L176.517 500.828C176.594 501.983 175.678 502.961 174.522 502.961H47.2101C46.0212 502.961 45.0948 501.93 45.2215 500.747L65.2652 313.761C65.392 312.579 64.4656 311.548 63.2766 311.548H59.2952C58.1907 311.548 57.2952 310.653 57.2952 309.548V300.27C57.2952 299.165 56.3998 298.27 55.2952 298.27H46.9843C45.8798 298.27 44.9843 297.374 44.9843 296.27V270.172C44.9843 269.068 45.8798 268.172 46.9843 268.172H55.2952C56.3998 268.172 57.2952 267.277 57.2952 266.172V258.664C57.2952 257.56 58.1907 256.664 59.2952 256.664H67.7457C68.7942 256.664 69.6648 255.855 69.7405 254.809L71.6579 228.337H160.912V254.664C160.912 255.769 160.016 256.664 158.912 256.664H141.368C140.263 256.664 139.368 257.56 139.368 258.664V266.172C139.368 267.277 138.472 268.172 137.368 268.172H125.979C124.875 268.172 123.979 269.068 123.979 270.172V296.27C123.979 297.374 124.875 298.27 125.979 298.27H145.575C146.68 298.27 147.575 299.165 147.575 300.27V309.548C147.575 310.653 148.47 311.548 149.575 311.548H162.117C163.171 311.548 164.044 312.365 164.113 313.416Z" fill="#725D35"/>
<path d="M164.115 295.752L177.958 500.3C178.036 501.455 177.12 502.435 175.962 502.435H47.1906C46.0086 502.435 45.0845 501.415 45.2002 500.239L65.2862 296.083C65.402 294.906 64.4778 293.887 63.2958 293.887H59.295C58.1904 293.887 57.295 292.991 57.295 291.887V282.609C57.295 281.504 56.3996 280.609 55.295 280.609H46.9841C45.8796 280.609 44.9841 279.713 44.9841 278.609V252.511C44.9841 251.407 45.8796 250.511 46.9841 250.511H55.295C56.3996 250.511 57.295 249.616 57.295 248.511V241.003C57.295 239.899 58.1904 239.003 59.295 239.003H67.7455C68.794 239.003 69.6645 238.194 69.7403 237.148L71.6577 210.676H160.912V237.003C160.912 238.108 160.016 239.003 158.912 239.003H141.368C140.263 239.003 139.368 239.899 139.368 241.003V248.511C139.368 249.616 138.472 250.511 137.368 250.511H125.979C124.874 250.511 123.979 251.407 123.979 252.511V278.609C123.979 279.713 124.874 280.609 125.979 280.609H145.575C146.679 280.609 147.575 281.504 147.575 282.609V291.887C147.575 292.991 148.47 293.887 149.575 293.887H162.12C163.172 293.887 164.044 294.702 164.115 295.752Z" fill="url(#paint2_linear_319_4332)"/>
<path d="M164.322 212.442H155.535H78.7091H68.1822C67.1439 212.442 66.2782 211.648 66.1895 210.613L61.234 152.799C61.134 151.631 62.0548 150.628 63.2267 150.628H170.103C171.287 150.628 172.211 151.65 172.093 152.827L166.312 210.641C166.21 211.664 165.349 212.442 164.322 212.442Z" fill="url(#paint3_linear_319_4332)"/>
<path d="M164.322 212.442H155.535H78.7091H68.1822C67.1439 212.442 66.2782 211.648 66.1895 210.613L61.234 152.799C61.134 151.631 62.0548 150.628 63.2267 150.628H170.103C171.287 150.628 172.211 151.65 172.093 152.827L166.312 210.641C166.21 211.664 165.349 212.442 164.322 212.442Z" fill="url(#paint4_linear_319_4332)"/>
<path fill-rule="evenodd" clip-rule="evenodd" d="M167.368 200.08H149.934L149.354 212.442H142.29L142.869 200.08H88.7263L89.3058 212.442H82.2414L81.6619 200.08H65.2867L64.6812 193.015H81.3307L79.5922 155.927H86.6567L88.3952 193.015H143.2L144.939 155.927H152.003L150.265 193.015H168.075L167.368 200.08Z" fill="url(#paint5_linear_319_4332)"/>
<path d="M193.291 155.927H171.43H60.165H41.0972C40.0142 155.927 39.7093 154.467 40.7064 154.045C48.8572 150.588 66.8351 143.163 81.3584 138.589C106.143 130.782 105.942 89.8593 104.89 73.9528C104.814 72.8146 106.595 72.3339 107.1 73.3567C114.631 88.6082 135.76 129.548 149.354 137.569C164.767 144.689 183.623 150.815 193.602 153.865C194.714 154.205 194.453 155.927 193.291 155.927Z" fill="url(#paint6_linear_319_4332)"/>
<path fill-rule="evenodd" clip-rule="evenodd" d="M122.273 167.112C122.273 167.112 122.273 167.112 122.273 167.112C122.273 167.112 122.273 167.112 122.273 167.112C122.273 163.861 119.638 161.225 116.386 161.225C113.135 161.225 110.499 163.861 110.499 167.112C110.499 167.119 110.499 167.126 110.499 167.132V184.455C110.499 185.56 111.395 186.455 112.499 186.455H120.273C121.378 186.455 122.273 185.56 122.273 184.455V167.112C122.273 167.112 122.273 167.112 122.273 167.112Z" fill="#7E622B"/>
<path fill-rule="evenodd" clip-rule="evenodd" d="M123.045 309.021C123.045 309.012 123.045 309.002 123.045 308.992C123.045 304.578 119.467 301 115.053 301C110.639 301 107.061 304.578 107.061 308.992C107.061 308.992 107.061 308.992 107.061 308.992H107.061C107.061 308.992 107.061 308.992 107.061 308.992V333.25C107.061 334.355 107.957 335.25 109.061 335.25H121.045C122.149 335.25 123.045 334.355 123.045 333.25V309.021Z" fill="#7E622B"/>
<defs>
<radialGradient id="paint0_radial_319_4332" cx="0" cy="0" r="1" gradientUnits="userSpaceOnUse" gradientTransform="translate(111.623 502.963) rotate(90) scale(32.9625 102.623)">
<stop offset="0.6875" stop-color="#725B2F"/>
<stop offset="1" stop-color="#725D35" stop-opacity="0"/>
</radialGradient>
<radialGradient id="paint1_radial_319_4332" cx="0" cy="0" r="1" gradientUnits="userSpaceOnUse" gradientTransform="translate(112.148 289.5) rotate(90) scale(112.148 289.5)">
<stop offset="0.583333" stop-color="#62169D" stop-opacity="0.32"/>
<stop offset="0.973958" stop-color="#51A1FF" stop-opacity="0"/>
</radialGradient>
<linearGradient id="paint2_linear_319_4332" x1="92.3199" y1="199.364" x2="92.0365" y2="502.261" gradientUnits="userSpaceOnUse">
<stop stop-color="white"/>
<stop offset="0.177083" stop-color="#FDDC9B"/>
<stop offset="0.729167" stop-color="#D6AE60"/>
<stop offset="1" stop-color="#725B2F"/>
</linearGradient>
<linearGradient id="paint3_linear_319_4332" x1="116.681" y1="150.628" x2="116.681" y2="212.442" gradientUnits="userSpaceOnUse">
<stop stop-color="white"/>
<stop offset="1" stop-color="#CECECE"/>
</linearGradient>
<linearGradient id="paint4_linear_319_4332" x1="98.1953" y1="110.904" x2="99.8568" y2="213.083" gradientUnits="userSpaceOnUse">
<stop stop-color="white"/>
<stop offset="1" stop-color="#FDDC9B"/>
</linearGradient>
<linearGradient id="paint5_linear_319_4332" x1="170.547" y1="196.547" x2="62.8141" y2="196.547" gradientUnits="userSpaceOnUse">
<stop stop-color="#8D7443"/>
<stop offset="1" stop-color="#42361E"/>
</linearGradient>
<linearGradient id="paint6_linear_319_4332" x1="118.447" y1="83.5158" x2="118.447" y2="155.927" gradientUnits="userSpaceOnUse">
<stop stop-color="#BC66FF"/>
<stop offset="1" stop-color="#62169D"/>
</linearGradient>
</defs>
</svg>
