<svg width="104" height="112" viewBox="0 0 104 112" fill="none" xmlns="http://www.w3.org/2000/svg">
<path fill-rule="evenodd" clip-rule="evenodd" d="M3.91447 67.664C2.33633 67.1594 0.647934 68.0297 0.143356 69.6079C-0.361221 71.186 0.509079 72.8744 2.08723 73.379L51.4519 89.1623C51.5616 89.1973 51.6717 89.2257 51.782 89.2477C52.9823 94.4966 64.0489 94.285 66.9027 93.4906L64 91L68.3138 90.5L64.5 88.5L68.3138 87.613C66.5249 85.0876 57.8778 79.6454 53.6728 83.6041C53.5472 83.5435 53.4158 83.491 53.2792 83.4473L3.91447 67.664Z" fill="url(#paint0_linear_361_2967)"/>
<path d="M41.9254 32.1616C42.5241 31.589 43.4736 31.6101 44.0462 32.2088C44.6189 32.8074 44.5978 33.7569 43.9991 34.3296L41.9254 32.1616ZM35.121 50.9878C33.8453 49.8257 33.052 48.4599 32.8335 46.8924C32.6189 45.3539 32.9819 43.7908 33.6951 42.2503C35.0982 39.22 38.0573 35.8616 41.9254 32.1616L43.9991 34.3296C40.1436 38.0175 37.5617 41.0396 36.4175 43.5108C35.8571 44.7212 35.6947 45.6892 35.8047 46.4781C35.9107 47.238 36.2916 47.996 37.1413 48.7701L35.121 50.9878Z" fill="#42361E"/>
<path d="M33.9717 50.1255L33.9716 50.1255C26.917 50.5263 22.2841 53.8459 19.6596 57.8054C17.1005 61.6663 16.4096 66.2221 17.3539 69.1703L18.7824 68.7128L17.3539 69.1703C19.1048 74.6367 25.4424 79.7735 32.6564 80.1095C51.2835 80.9767 59.9109 66.237 61.3471 57.4783C62.1982 52.2874 61.9115 48.5462 60.8331 45.7912C59.7336 42.9824 57.8746 41.3593 55.9452 40.3077L33.9717 50.1255ZM33.9717 50.1255C34.0875 50.1189 34.3656 50.0458 34.8441 49.7213M33.9717 50.1255L34.8441 49.7213M34.8441 49.7213C35.3047 49.409 35.8304 48.9473 36.4236 48.3543M34.8441 49.7213L36.4236 48.3543M36.4236 48.3543C37.141 47.6373 37.8292 46.8663 38.5542 46.0541M36.4236 48.3543L38.5542 46.0541M38.5542 46.0541C39.0904 45.4534 39.6467 44.8302 40.2497 44.1896M38.5542 46.0541L40.2497 44.1896M40.2497 44.1896C43.419 40.8233 46.335 39.2247 49.0728 38.8356M40.2497 44.1896L49.0728 38.8356M49.0728 38.8356C51.8159 38.4458 54.1138 39.3095 55.9451 40.3077L49.0728 38.8356Z" fill="url(#paint1_linear_361_2967)" stroke="#725D35" stroke-width="3"/>
<path d="M46.8706 69.8297C46.3251 69.2062 46.3883 68.2586 47.0118 67.7131C47.6352 67.1675 48.5829 67.2307 49.1284 67.8542L46.8706 69.8297ZM46.7514 81.6679C48.0826 79.6712 49.071 77.8598 49.2794 76.007C49.4756 74.2623 48.9981 72.2611 46.8706 69.8297L49.1284 67.8542C51.7022 70.7957 52.568 73.6087 52.2606 76.3423C51.9652 78.9679 50.6029 81.299 49.2476 83.3321L46.7514 81.6679Z" fill="#42361E"/>
<circle cx="1.67907" cy="1.67907" r="1.67907" transform="matrix(-1 0 0 1 51.5786 52.3873)" fill="#725D35"/>
<circle cx="1.67907" cy="1.67907" r="1.67907" transform="matrix(-1 0 0 1 43.519 50.3724)" fill="#725D35"/>
<path d="M69.5573 59.5864L67.4003 57.5286L43.0465 34.2938L40.6331 31.9914C39.8857 31.2783 40.5944 30.0961 41.596 30.3943C44.6426 31.3015 48.9713 32.6701 52.3868 34.0648C58.2064 36.4413 66.1169 30.417 71.3021 25.4787C72.1524 24.6689 74.0347 25.833 73.5925 26.9072C70.7106 33.9073 66.9232 44.1036 67.5462 47.99C68.5582 51.5883 70.0736 55.409 71.3567 58.3714C71.7989 59.3926 70.3707 60.3624 69.5573 59.5864Z" fill="url(#paint2_linear_361_2967)" stroke="#62169D" stroke-width="3"/>
<path fill-rule="evenodd" clip-rule="evenodd" d="M72.0988 34.009C72.0061 34.2725 71.9144 34.5357 71.8237 34.7985L67.9857 34.1641L65.5137 38.718L64.8459 33.6451L59.7656 32.8054L64.4331 30.5099L64.3041 29.5298C65.0042 29.0867 65.6976 28.6163 66.3801 28.1266L67.3178 29.0912L71.9853 26.7957L69.5134 31.3496L72.0988 34.009ZM55.6148 33.0495C55.8362 33.0229 56.0586 32.99 56.2819 32.9512L53.9801 37.1916L57.5326 40.8458L52.4524 40.0061L50.77 43.1054L49.648 42.035L49.3126 39.4871L46.488 39.0202L45.4629 38.0422L48.8998 36.3519L48.2563 31.4635C48.3371 31.4932 48.4178 31.523 48.4983 31.5529L51.7845 34.9332L55.6148 33.0495ZM58.1209 50.1186L57.4527 49.4811L61.2126 47.5518L60.7138 42.6528L64.0574 46.092L68.6603 43.7301L66.1238 48.2176L69.4673 51.6569L64.5561 50.991L62.622 54.4128L61.8347 53.6617L61.5208 50.5795L58.1209 50.1186Z" fill="url(#paint3_linear_361_2967)"/>
<path d="M38.4819 55.4094C41.5848 60.9576 44.0295 61.1182 50.2354 59.9502C44.3116 65.4984 42.6262 69.8494 39.9397 75.5582L38.4819 68.1703L31.5444 72.5359C31.5444 66.4912 38.4819 62.4177 38.4819 55.4094Z" fill="#D9D9D9" stroke="url(#paint4_linear_361_2967)" stroke-width="3"/>
<path d="M48.2205 58.2042C45.5793 60.3144 42.1942 59.4704 41.052 56.4169" stroke="#725D35" stroke-width="3" stroke-linecap="round"/>
<path d="M73 91.5C82 95.5 96 97 97.5 91.5C99 86 90.5 82.5 87.5 87C84.5 91.5 89.5 97 94.5 100.5C99.5 104 103 110.5 103 110.5" stroke="url(#paint5_linear_361_2967)" stroke-width="2" stroke-linecap="round"/>
<defs>
<linearGradient id="paint0_linear_361_2967" x1="2.38568" y1="68.5678" x2="69.9757" y2="80.7113" gradientUnits="userSpaceOnUse">
<stop stop-color="#9D8555"/>
<stop offset="1" stop-color="#443105"/>
</linearGradient>
<linearGradient id="paint1_linear_361_2967" x1="54.2799" y1="43.0649" x2="27.4281" y2="78.3769" gradientUnits="userSpaceOnUse">
<stop stop-color="#FFF2D9"/>
<stop offset="0.671875" stop-color="#FDDC9B"/>
<stop offset="1" stop-color="#D6AE60"/>
</linearGradient>
<linearGradient id="paint2_linear_361_2967" x1="75.4388" y1="27.0243" x2="56.3732" y2="47.0082" gradientUnits="userSpaceOnUse">
<stop stop-color="#BC66FF"/>
<stop offset="1" stop-color="#62169D"/>
</linearGradient>
<linearGradient id="paint3_linear_361_2967" x1="73.1675" y1="28.0873" x2="53.4972" y2="49.4814" gradientUnits="userSpaceOnUse">
<stop offset="0.614583" stop-color="#FFC645"/>
<stop offset="0.9999" stop-color="#FF4545"/>
<stop offset="1" stop-color="#FFC645" stop-opacity="0"/>
</linearGradient>
<linearGradient id="paint4_linear_361_2967" x1="42.8474" y1="55.7452" x2="41.5797" y2="74.5211" gradientUnits="userSpaceOnUse">
<stop stop-color="#D9D9D9"/>
<stop offset="1" stop-color="#6C6C6C"/>
</linearGradient>
<linearGradient id="paint5_linear_361_2967" x1="70.5" y1="90.5" x2="105" y2="111" gradientUnits="userSpaceOnUse">
<stop stop-color="white"/>
<stop offset="0.0001" stop-color="white" stop-opacity="0.41"/>
<stop offset="1" stop-color="#D9D9D9" stop-opacity="0.34"/>
</linearGradient>
</defs>
</svg>
