<svg width="78" height="67" viewBox="0 0 78 67" fill="none" xmlns="http://www.w3.org/2000/svg">
<path d="M30.1557 19.3649L30.2408 20.8625L30.1557 19.3649C30.52 19.3442 31.0652 19.1529 31.8246 18.638C32.5662 18.1351 33.3866 17.4106 34.2834 16.5143C35.3568 15.4414 36.4124 14.2595 37.5097 13.031C38.3086 12.1365 39.1296 11.2173 39.9956 10.2974C44.6434 5.36068 48.843 3.09749 52.7017 2.54917C56.5656 2.0001 59.8214 3.20984 62.4799 4.65877C65.2364 6.16112 67.8647 8.45912 69.4256 12.4467C70.9655 16.3804 71.4058 21.8044 70.1501 29.4618C68.0488 42.2774 55.4246 63.8119 28.1899 62.5439C17.7374 62.0571 8.57832 54.5962 6.07002 46.7652C4.74698 42.6346 5.69836 36.0812 9.41595 30.4727C13.1989 24.7656 19.8881 19.9483 30.1557 19.3649Z" fill="url(#paint0_linear_377_5727)" stroke="#725D35" stroke-width="3"/>
<circle cx="2.5" cy="2.5" r="2.5" transform="matrix(-1 0 0 1 56.3293 22.0004)" fill="#725D35"/>
<circle cx="2.5" cy="2.5" r="2.5" transform="matrix(-1 0 0 1 44.3293 19.0004)" fill="#725D35"/>
<path d="M36.8293 26.5C41.4493 34.7609 45.0893 35 54.3293 33.2609C45.5093 41.5217 44.3293 45.8696 42.3293 55L39.3293 46L33.3293 55C33.3293 46 36.8293 36.9348 36.8293 26.5Z" fill="#D9D9D9" stroke="url(#paint1_linear_377_5727)" stroke-width="3"/>
<path d="M51.3293 30.6613C47.3969 33.8032 42.3567 32.5466 40.6561 28.0001" stroke="#725D35" stroke-width="3" stroke-linecap="round"/>
<defs>
<linearGradient id="paint0_linear_377_5727" x1="60.3515" y1="8.12011" x2="20.3713" y2="60.6967" gradientUnits="userSpaceOnUse">
<stop stop-color="#FFF2D9"/>
<stop offset="0.671875" stop-color="#FDDC9B"/>
<stop offset="1" stop-color="#D6AE60"/>
</linearGradient>
<linearGradient id="paint1_linear_377_5727" x1="43.3293" y1="27" x2="41.4419" y2="54.9558" gradientUnits="userSpaceOnUse">
<stop stop-color="#D9D9D9"/>
<stop offset="1" stop-color="#6C6C6C"/>
</linearGradient>
</defs>
</svg>
