<svg width="100" height="110" viewBox="0 0 100 110" fill="none" xmlns="http://www.w3.org/2000/svg">
<path d="M80.6398 61.229C81.3185 61.704 82.2538 61.539 82.7288 60.8603C83.2039 60.1816 83.0389 59.2463 82.3602 58.7713L80.6398 61.229ZM64.9193 62.451C69.9959 58.5138 76.2719 58.1714 80.6398 61.229L82.3602 58.7713C76.7281 54.8288 69.0041 55.4865 63.0807 60.0803L64.9193 62.451Z" fill="#42361E"/>
<path d="M67.1737 62.3649L67.0886 63.8625L67.1736 62.3649C66.8094 62.3442 66.2642 62.1529 65.5047 61.638C64.7632 61.1351 63.9427 60.4106 63.046 59.5143C61.9725 58.4414 60.9169 57.2595 59.8197 56.031C59.0208 55.1365 58.1998 54.2173 57.3338 53.2974C52.686 48.3607 48.4863 46.0975 44.6276 45.5492C40.7637 45.0001 37.5079 46.2098 34.8495 47.6588C32.0929 49.1611 29.4646 51.4591 27.9037 55.4467C26.3639 59.3804 25.9236 64.8044 27.1792 72.4618C29.2806 85.2774 41.9048 106.812 69.1394 105.544C79.592 105.057 88.751 97.5962 91.2593 89.7652C92.5824 85.6346 91.631 79.0812 87.9134 73.4727C84.1305 67.7656 77.4412 62.9483 67.1737 62.3649Z" fill="url(#paint0_linear_377_5029)" stroke="#725D35" stroke-width="3"/>
<circle cx="43.5" cy="67.5004" r="2.5" fill="#725D35"/>
<circle cx="55.5" cy="64.5004" r="2.5" fill="#725D35"/>
<path d="M75.2796 50.5998L68.1309 52.0344L18.9942 61.8949L12.2664 63.245C11.2535 63.4483 10.6873 62.1842 11.502 61.5294C15.14 58.6054 21.4058 53.7122 26.6916 50.3074C35.5566 44.5971 33.6825 26.5435 31.7344 16.1327C31.5186 14.9796 33.4309 14.1437 34.0466 15.129C39.9021 24.4993 50.7222 40.8467 56.6218 43.7104C62.9711 45.9329 70.3449 47.5359 75.306 48.4741C76.3997 48.681 76.3819 50.3786 75.2796 50.5998Z" fill="url(#paint1_linear_377_5029)" stroke="#62169D" stroke-width="3"/>
<path fill-rule="evenodd" clip-rule="evenodd" d="M43.458 26.218C43.7002 26.556 43.9429 26.8927 44.1859 27.2277L40.1345 31.367L43.5776 38.271L36.8201 34.7532L31.4573 40.2322L32.6437 32.5791L31.3382 31.8995C31.3956 30.6672 31.414 29.4198 31.3996 28.1692L33.377 27.8493L34.5634 20.1962L38.0065 27.1001L43.458 26.218ZM28.2102 45.5031C28.3668 45.2105 28.5167 44.9112 28.6599 44.6057L31.8661 51.0344L39.3568 49.8223L33.994 55.3013L36.3374 60L34.0736 60.4543L30.6797 58.6875L27.6981 61.7337L25.6297 62.1488L26.5033 56.5135L19.9915 53.1236C20.0968 53.0504 20.202 52.9775 20.3071 52.9049L27.2366 51.7836L28.2102 45.5031ZM51.1689 57.0237L49.8206 57.2943L50.6785 51.061L44.2775 47.4856L51.3276 46.3447L52.3779 38.7137L55.6848 45.6397L62.7349 44.4988L57.7286 49.9202L60.2502 55.2013L58.6616 55.5201L54.6346 53.2707L51.1689 57.0237Z" fill="url(#paint2_linear_377_5029)"/>
<path d="M60.5 69.5C55.88 77.7609 52.24 78 43 76.2609C51.82 84.5217 53 88.8696 55 98L58 89L64 98C64 89 60.5 79.9348 60.5 69.5Z" fill="#D9D9D9" stroke="url(#paint3_linear_377_5029)" stroke-width="3"/>
<path d="M46 73.6613C49.9325 76.8032 54.9726 75.5466 56.6733 71.0001" stroke="#725D35" stroke-width="3" stroke-linecap="round"/>
<rect x="89.5173" y="36.6987" width="4" height="27" rx="1" transform="rotate(23.5 89.5173 36.6987)" fill="url(#paint4_linear_377_5029)"/>
<path d="M94.2417 32.0418L94.3892 30.51L93.3695 31.6626L91.2031 34.1112L88.2048 32.8075L86.7936 32.1939L87.5747 33.5198L89.234 36.3369L87.0676 38.7855L86.048 39.9381L87.5503 39.605L90.7423 38.8974L92.4016 41.7144L93.1827 43.0403L93.3301 41.5086L93.6435 38.2542L96.8354 37.5465L98.3378 37.2135L96.9266 36.5999L93.9283 35.2962L94.2417 32.0418Z" fill="url(#paint5_linear_377_5029)" stroke="url(#paint6_linear_377_5029)"/>
<defs>
<linearGradient id="paint0_linear_377_5029" x1="36.9779" y1="51.1201" x2="76.958" y2="103.697" gradientUnits="userSpaceOnUse">
<stop stop-color="#FFF2D9"/>
<stop offset="0.671875" stop-color="#FDDC9B"/>
<stop offset="1" stop-color="#D6AE60"/>
</linearGradient>
<linearGradient id="paint1_linear_377_5029" x1="37.7912" y1="16.1794" x2="45.8824" y2="56.4991" gradientUnits="userSpaceOnUse">
<stop stop-color="#BC66FF"/>
<stop offset="1" stop-color="#62169D"/>
</linearGradient>
<linearGradient id="paint2_linear_377_5029" x1="37.1481" y1="19.8574" x2="46.4429" y2="62.119" gradientUnits="userSpaceOnUse">
<stop offset="0.614583" stop-color="#FFC645"/>
<stop offset="0.9999" stop-color="#FF4545"/>
<stop offset="1" stop-color="#FFC645" stop-opacity="0"/>
</linearGradient>
<linearGradient id="paint3_linear_377_5029" x1="54" y1="70" x2="55.8875" y2="97.9558" gradientUnits="userSpaceOnUse">
<stop stop-color="#D9D9D9"/>
<stop offset="1" stop-color="#6C6C6C"/>
</linearGradient>
<linearGradient id="paint4_linear_377_5029" x1="91.5173" y1="36.6987" x2="91.5173" y2="63.6987" gradientUnits="userSpaceOnUse">
<stop stop-color="#BC66FF"/>
<stop offset="0.765625" stop-color="#62169D"/>
</linearGradient>
<linearGradient id="paint5_linear_377_5029" x1="93.744" y1="31.9939" x2="89.7565" y2="41.1645" gradientUnits="userSpaceOnUse">
<stop stop-color="#FFDF6F"/>
<stop offset="1" stop-color="#FFB100"/>
</linearGradient>
<linearGradient id="paint6_linear_377_5029" x1="93.744" y1="31.9939" x2="89.7565" y2="41.1645" gradientUnits="userSpaceOnUse">
<stop stop-color="#FF4545"/>
<stop offset="1" stop-color="#BC66FF"/>
</linearGradient>
</defs>
</svg>
