<svg width="102" height="100" viewBox="0 0 102 100" fill="none" xmlns="http://www.w3.org/2000/svg">
<ellipse cx="32.3276" cy="12.069" rx="32.3276" ry="12.069" transform="matrix(-1 0 0 1 82.0281 75.8621)" fill="url(#paint0_radial_377_5411)"/>
<path d="M21.1433 58.2485C20.6347 58.9024 19.6923 59.0202 19.0384 58.5116C18.3844 58.003 18.2666 57.0606 18.7752 56.4067L21.1433 58.2485ZM45.7538 54.0007C44.8573 53.3053 43.2607 52.6981 41.1138 52.3597C39.0054 52.0274 36.5175 51.9783 33.9738 52.2731C28.8162 52.8708 23.8021 54.8301 21.1433 58.2485L18.7752 56.4067C22.151 52.0665 28.1231 49.9311 33.6284 49.293C36.4162 48.9699 39.1789 49.0177 41.5809 49.3963C43.9446 49.7689 46.1182 50.4868 47.5924 51.6301L45.7538 54.0007Z" fill="#42361E"/>
<path d="M44.0105 55.0539L43.9254 53.5563C35.0074 54.0629 29.1819 58.2512 25.8856 63.2242C22.6546 68.0986 21.8126 73.813 22.9766 77.4469L24.4051 76.9894L22.9766 77.4469C25.1667 84.2846 33.1407 90.7693 42.2329 91.1927C65.8519 92.2924 76.7973 73.612 78.6193 62.5005C79.705 55.8792 79.3292 51.162 77.9832 47.7234C76.6161 44.231 74.3109 42.2165 71.9018 40.9035M44.0105 55.0539L71.9018 40.9035M44.0105 55.0539L43.9254 53.5563C44.1853 53.5415 44.6183 53.3999 45.2597 52.9649C45.8833 52.5421 46.5799 51.928 47.3492 51.1591C48.2731 50.2357 49.1743 49.2265 50.1151 48.1728C50.8037 47.4017 51.5136 46.6068 52.2691 45.8042C56.2959 41.5271 59.9563 39.5431 63.3442 39.0617C66.7374 38.5795 69.5908 39.6439 71.9018 40.9035M44.0105 55.0539L71.9018 40.9035" fill="url(#paint1_linear_377_5411)" stroke="#725D35" stroke-width="3"/>
<circle cx="2.15517" cy="2.15517" r="2.15517" transform="matrix(-1 0 0 1 66.5007 56.0348)" fill="#725D35"/>
<circle cx="2.15517" cy="2.15517" r="2.15517" transform="matrix(-1 0 0 1 56.1558 53.4486)" fill="#725D35"/>
<path d="M37.7383 43.7788L43.1119 44.8572L85.4712 53.3577L90.7466 54.4163C91.7595 54.6196 92.3244 53.3575 91.5084 52.7045C88.3258 50.1576 83.1941 46.176 78.8355 43.3685C71.4861 38.6345 72.6986 24.0598 74.2959 14.9675C74.4989 13.8118 72.5451 12.9661 71.926 13.9492C66.7724 22.1325 57.934 35.3027 53.0336 37.6814C47.8842 39.4839 41.9531 40.8137 37.7076 41.6383C36.615 41.8505 36.636 43.5576 37.7383 43.7788Z" fill="url(#paint2_linear_377_5411)" stroke="#62169D" stroke-width="3"/>
<path fill-rule="evenodd" clip-rule="evenodd" d="M64.3818 22.6017C64.173 22.8931 63.9638 23.1834 63.7543 23.4722L67.2469 27.0405L64.2787 32.9922L70.1042 29.9596L74.7272 34.6829L73.7045 28.0854L74.8299 27.4996C74.7804 26.4372 74.7646 25.3618 74.777 24.2838L73.0724 24.008L72.0496 17.4105L69.0814 23.3621L64.3818 22.6017ZM77.5264 39.2268C77.3914 38.9745 77.2623 38.7165 77.1387 38.4531L74.3748 43.9952L67.9173 42.9502L72.5404 47.6735L70.5203 51.7241L72.4718 52.1158L75.3976 50.5927L77.9679 53.2187L79.751 53.5765L78.9979 48.7185L84.6116 45.7962C84.5208 45.7331 84.4301 45.6702 84.3394 45.6076L78.3658 44.641L77.5264 39.2268ZM57.7346 49.1584L58.8968 49.3916L58.1573 44.0181L63.6754 40.9358L57.5977 39.9523L56.6923 33.3738L53.8415 39.3445L47.7638 38.361L52.0796 43.0346L49.9058 47.5873L51.2753 47.8622L54.7469 45.923L57.7346 49.1584Z" fill="url(#paint3_linear_377_5411)"/>
<path d="M62.1902 63.5011C58.8001 66.2097 54.4552 65.1264 52.9891 61.207" stroke="#725D35" stroke-width="3" stroke-linecap="round"/>
<path d="M51.8455 76.522C45.3799 76.522 42.3627 74.1379 39.3455 70.6896" stroke="#42361E" stroke-width="3" stroke-linecap="round"/>
<path d="M52.9912 69.5245L24.2698 56.8966L2.67201 57.7847L35.7252 75.2365L52.9912 69.5245Z" fill="url(#paint4_linear_377_5411)"/>
<path fill-rule="evenodd" clip-rule="evenodd" d="M19.0846 66.3537C26.6124 67.2334 30.234 69.0756 35.4972 74.9227L34.8966 78.7147L2.07142 61.5766L2.67202 57.7846C9.48296 58.733 13.0575 60.687 19.0846 66.3537ZM35.4972 74.9228L53.0357 69.371L52.4351 73.163L34.8966 78.7148L35.4972 74.9228Z" fill="white"/>
<path fill-rule="evenodd" clip-rule="evenodd" d="M2.24289 60.4932L35.0681 77.6313L34.8965 78.7147L2.0713 61.5766L2.24289 60.4932ZM35.0681 77.6313L52.6066 72.0795L52.435 73.1629L34.8965 78.7147L35.0681 77.6313Z" fill="#62169D"/>
<defs>
<radialGradient id="paint0_radial_377_5411" cx="0" cy="0" r="1" gradientUnits="userSpaceOnUse" gradientTransform="translate(32.3276 12.069) rotate(90) scale(12.069 32.3276)">
<stop offset="0.6875" stop-opacity="0.43"/>
<stop offset="1" stop-opacity="0"/>
</radialGradient>
<linearGradient id="paint1_linear_377_5411" x1="69.968" y1="44.069" x2="35.5023" y2="89.3937" gradientUnits="userSpaceOnUse">
<stop stop-color="#FFF2D9"/>
<stop offset="0.671875" stop-color="#FDDC9B"/>
<stop offset="1" stop-color="#D6AE60"/>
</linearGradient>
<linearGradient id="paint2_linear_377_5411" x1="69.2668" y1="13.9477" x2="62.2916" y2="48.7061" gradientUnits="userSpaceOnUse">
<stop stop-color="#BC66FF"/>
<stop offset="1" stop-color="#62169D"/>
</linearGradient>
<linearGradient id="paint3_linear_377_5411" x1="69.8214" y1="17.1184" x2="61.8086" y2="53.5509" gradientUnits="userSpaceOnUse">
<stop offset="0.614583" stop-color="#FFC645"/>
<stop offset="0.9999" stop-color="#FF4545"/>
<stop offset="1" stop-color="#FFC645" stop-opacity="0"/>
</linearGradient>
<linearGradient id="paint4_linear_377_5411" x1="30.6428" y1="58.1374" x2="24.7735" y2="69.6564" gradientUnits="userSpaceOnUse">
<stop stop-color="white"/>
<stop offset="1" stop-color="#D9D9D9"/>
</linearGradient>
</defs>
</svg>
