<svg width="194" height="204" viewBox="0 0 194 204" fill="none" xmlns="http://www.w3.org/2000/svg">
<path d="M36.9022 112.704C33.0313 114.317 18.2155 116.847 18.2155 116.847C18.2155 116.847 30.4695 123.57 36.1577 124.952C41.8459 126.334 48.1085 126.206 55.7783 125.888C62.0634 125.627 69.5836 126.603 74.9054 128.066C80.2272 129.53 93.3411 134.929 93.3411 134.929L78.5162 111.408L79.2104 91.9973C79.2104 91.9973 69.0308 94.6316 64.5068 96.7673C59.9829 98.903 55.459 101.039 50.3145 105.577C45.8503 109.516 40.7732 111.091 36.9022 112.704Z" fill="url(#paint0_linear_361_2993)" stroke="url(#paint1_linear_361_2993)" stroke-width="7"/>
<path d="M102.958 68.7008C103.948 66.5444 106.931 66.3358 108.211 68.3335L115.146 79.1573C115.838 80.2362 117.138 80.7569 118.383 80.4533L130.752 77.4373C133.037 76.88 135.045 79.0497 134.314 81.2852L130.261 93.6657C129.869 94.8615 130.266 96.1744 131.253 96.9539L141.425 104.982C143.262 106.432 142.805 109.334 140.611 110.149L128.587 114.615C127.398 115.057 126.615 116.199 126.632 117.467L126.803 130.447C126.834 132.813 124.242 134.282 122.228 133.04L111.382 126.347C110.287 125.671 108.882 125.77 107.892 126.591L98.083 134.728C96.2617 136.239 93.49 135.145 93.1916 132.797L91.5546 119.92C91.3947 118.662 90.4606 117.64 89.2216 117.368L76.6931 114.619C74.4068 114.117 73.5502 111.307 75.1678 109.615L84.1233 100.25C84.9928 99.3402 85.2025 97.9849 84.6485 96.8552L78.912 85.1593C77.8762 83.0474 79.5631 80.6193 81.9036 80.8531L94.5718 82.1184C95.8468 82.2457 97.0621 81.5491 97.5965 80.3845L102.958 68.7008Z" stroke="url(#paint2_linear_361_2993)" stroke-width="11"/>
<path d="M80.2988 57.9359C72.7219 54.5547 69.2066 47.9382 73.4524 45.5847C77.6982 43.2312 82.1073 49.3649 80.2988 57.9359Z" stroke="url(#paint3_linear_361_2993)" stroke-width="5" stroke-linecap="round"/>
<path d="M124.526 54.2894C120.895 46.8289 122.455 39.5008 127.221 40.427C131.986 41.3533 131.421 48.886 124.526 54.2894Z" stroke="url(#paint4_linear_361_2993)" stroke-width="5" stroke-linecap="round"/>
<path d="M154.081 87.2694C158.905 80.5188 166.089 78.3932 167.549 83.0229C169.009 87.6527 162.119 90.7504 154.081 87.2694Z" stroke="url(#paint5_linear_361_2993)" stroke-width="5" stroke-linecap="round"/>
<path d="M148.42 129.984C156.616 128.694 163.168 132.328 160.889 136.614C158.61 140.9 151.571 138.158 148.42 129.984Z" stroke="url(#paint6_linear_361_2993)" stroke-width="5" stroke-linecap="round"/>
<path d="M109.878 152.056C115.15 158.463 115.344 165.953 110.494 166.165C105.645 166.376 104.436 158.92 109.878 152.056Z" stroke="url(#paint7_linear_361_2993)" stroke-width="5" stroke-linecap="round"/>
<path d="M56.9886 93.2934C48.9914 95.5038 42.0703 92.6344 43.8494 88.1178C45.6286 83.6011 52.9322 85.5295 56.9886 93.2934Z" stroke="url(#paint8_linear_361_2993)" stroke-width="5" stroke-linecap="round"/>
<path d="M69.183 134.322C65.8018 141.899 59.1853 145.414 56.8318 141.169C54.4783 136.923 60.612 132.514 69.183 134.322Z" stroke="url(#paint9_linear_361_2993)" stroke-width="5" stroke-linecap="round"/>
<path d="M95.8853 73.905L104.26 55.6558L115.093 72.5619C116.591 74.8996 119.408 76.0277 122.106 75.37L141.423 70.6596L135.114 89.931C134.266 92.5218 135.125 95.3665 137.265 97.0555L153.097 109.551L134.354 116.513C131.778 117.469 130.082 119.943 130.118 122.692L130.385 142.927L113.431 132.466C111.058 131.001 108.014 131.214 105.868 132.995L90.5352 145.714L87.9833 125.638C87.6367 122.911 85.6128 120.698 82.9283 120.109L63.3994 115.823L77.3384 101.246C79.2224 99.2756 79.6767 96.339 78.4763 93.8915L69.5469 75.6856L89.3317 77.6618L89.6795 74.1791L89.3317 77.6618C92.0944 77.9377 94.7273 76.4284 95.8853 73.905ZM62.5302 115.633C62.5309 115.633 62.5317 115.633 62.5324 115.633L62.5302 115.633L62.423 116.121L62.5302 115.633Z" stroke="url(#paint10_linear_361_2993)" stroke-width="7"/>
<defs>
<linearGradient id="paint0_linear_361_2993" x1="24.4769" y1="117.347" x2="87.5746" y2="116.256" gradientUnits="userSpaceOnUse">
<stop stop-color="white"/>
<stop offset="1" stop-color="#FFC645"/>
</linearGradient>
<linearGradient id="paint1_linear_361_2993" x1="51.4993" y1="98.9488" x2="62.4736" y2="141.86" gradientUnits="userSpaceOnUse">
<stop stop-color="#BC66FF"/>
<stop offset="1" stop-color="#62169D"/>
</linearGradient>
<linearGradient id="paint2_linear_361_2993" x1="105.248" y1="63.7103" x2="110.645" y2="140.882" gradientUnits="userSpaceOnUse">
<stop stop-color="#FDDC9B"/>
<stop offset="1" stop-color="#FFB100"/>
</linearGradient>
<linearGradient id="paint3_linear_361_2993" x1="72.7687" y1="43.4409" x2="82.3964" y2="60.8096" gradientUnits="userSpaceOnUse">
<stop stop-color="#FFDF6F"/>
<stop offset="1" stop-color="#BC66FF"/>
</linearGradient>
<linearGradient id="paint4_linear_361_2993" x1="128.075" y1="38.3453" x2="124.286" y2="57.839" gradientUnits="userSpaceOnUse">
<stop stop-color="#FFDF6F"/>
<stop offset="1" stop-color="#BC66FF"/>
</linearGradient>
<linearGradient id="paint5_linear_361_2993" x1="169.786" y1="82.7804" x2="150.847" y2="88.752" gradientUnits="userSpaceOnUse">
<stop stop-color="#FFDF6F"/>
<stop offset="1" stop-color="#BC66FF"/>
</linearGradient>
<linearGradient id="paint6_linear_361_2993" x1="162.63" y1="138.04" x2="145.095" y2="128.717" gradientUnits="userSpaceOnUse">
<stop stop-color="#FFDF6F"/>
<stop offset="1" stop-color="#BC66FF"/>
</linearGradient>
<linearGradient id="paint7_linear_361_2993" x1="110.15" y1="168.388" x2="109.283" y2="148.549" gradientUnits="userSpaceOnUse">
<stop stop-color="#FFDF6F"/>
<stop offset="1" stop-color="#BC66FF"/>
</linearGradient>
<linearGradient id="paint8_linear_361_2993" x1="41.9582" y1="86.8984" x2="60.435" y2="94.1766" gradientUnits="userSpaceOnUse">
<stop stop-color="#FFDF6F"/>
<stop offset="1" stop-color="#BC66FF"/>
</linearGradient>
<linearGradient id="paint9_linear_361_2993" x1="54.688" y1="141.852" x2="72.0567" y2="132.225" gradientUnits="userSpaceOnUse">
<stop stop-color="#FFDF6F"/>
<stop offset="1" stop-color="#BC66FF"/>
</linearGradient>
<linearGradient id="paint10_linear_361_2993" x1="103.751" y1="48.3739" x2="111.291" y2="156.202" gradientUnits="userSpaceOnUse">
<stop stop-color="#BC66FF"/>
<stop offset="1" stop-color="#62169D"/>
</linearGradient>
</defs>
</svg>
