<svg width="70" height="148" viewBox="0 0 70 148" fill="none" xmlns="http://www.w3.org/2000/svg">
<path d="M0 148L7.33333 107H62.6667L70 148H0Z" fill="url(#paint0_linear_376_3242)"/>
<path d="M9.0412 23.2156C9.06057 22.6489 9.31961 22.1171 9.75385 21.7524L34.3563 1.09193C35.1063 0.46215 36.2019 0.468034 36.9451 1.10583L60.9951 21.7468C61.4242 22.1151 61.6774 22.6479 61.6919 23.2132L63.8389 106.949C63.8678 108.073 62.9642 109 61.8396 109H8.17795C7.04659 109 6.14045 108.062 6.17911 106.932L9.0412 23.2156Z" fill="url(#paint1_linear_376_3242)"/>
<path d="M20.6279 51.3957L21.9678 31.9674C21.9875 31.6817 22.1287 31.4181 22.3557 31.2435L35.0151 21.5055C35.3892 21.2178 35.9135 21.2307 36.2729 21.5366L47.6806 31.2453C47.8856 31.4198 48.0116 31.6695 48.0301 31.938L49.3721 51.3957C49.4119 51.9737 48.9538 52.4645 48.3744 52.4645H21.6255C21.0462 52.4645 20.588 51.9737 20.6279 51.3957Z" fill="url(#paint2_linear_376_3242)"/>
<path fill-rule="evenodd" clip-rule="evenodd" d="M32.3735 52.4645H29.747V43.0749H21.22V42.8109L21.401 40.1857H29.747V25.558L32.3735 23.5376V40.1857H38.9397V23.8063L41.5663 26.0416V40.1857H48.599L48.7982 43.0749H41.5663V52.4645H38.9397V43.0749H32.3735V52.4645Z" fill="#565656"/>
<path fill-rule="evenodd" clip-rule="evenodd" d="M52.0723 59.0964H50.759V62.8602L45.1604 72.5573H57.6708L52.0723 62.8604V59.0964ZM51.4156 64.3494L55.3962 71.244H47.435L51.4156 64.3494Z" fill="#FFC645"/>
<defs>
<linearGradient id="paint0_linear_376_3242" x1="35" y1="110" x2="35.4247" y2="142.002" gradientUnits="userSpaceOnUse">
<stop stop-color="#FFC645" stop-opacity="0.51"/>
<stop offset="1" stop-color="#FFC645" stop-opacity="0"/>
</linearGradient>
<linearGradient id="paint1_linear_376_3242" x1="35" y1="22.3253" x2="35" y2="109" gradientUnits="userSpaceOnUse">
<stop stop-color="#725D35"/>
<stop offset="1" stop-color="#42361E"/>
</linearGradient>
<linearGradient id="paint2_linear_376_3242" x1="35" y1="21.0121" x2="35" y2="52.4645" gradientUnits="userSpaceOnUse">
<stop stop-color="#565656"/>
<stop offset="1" stop-color="#2E2E2E"/>
</linearGradient>
</defs>
</svg>
