<svg width="226" height="531" viewBox="0 0 226 531" fill="none" xmlns="http://www.w3.org/2000/svg">
<ellipse cx="117.116" cy="469.845" rx="96.4413" ry="30.9769" fill="url(#paint0_radial_318_2367)"/>
<ellipse cx="112.771" cy="265.205" rx="265.205" ry="112.771" transform="rotate(-90 112.771 265.205)" fill="url(#paint1_radial_318_2367)"/>
<path d="M68.5673 126.315C68.5673 125.21 69.4627 124.315 70.5673 124.315H155.363C156.468 124.315 157.363 125.21 157.363 126.315V202.231C157.363 203.336 156.468 204.231 155.363 204.231H70.5673C69.4627 204.231 68.5673 203.336 68.5673 202.231V126.315Z" fill="url(#paint2_linear_318_2367)"/>
<path d="M68.5673 126.315C68.5673 125.21 69.4627 124.315 70.5673 124.315H155.363C156.468 124.315 157.363 125.21 157.363 126.315V202.231C157.363 203.336 156.468 204.231 155.363 204.231H70.5673C69.4627 204.231 68.5673 203.336 68.5673 202.231V126.315Z" fill="url(#paint3_linear_318_2367)"/>
<path d="M112.934 77.4674C113.689 76.8329 114.795 76.8442 115.537 77.494L171.118 126.137C172.507 127.354 171.647 129.642 169.801 129.642H56.2992C54.4324 129.642 53.5834 127.311 55.013 126.111L112.934 77.4674Z" fill="url(#paint4_linear_318_2367)"/>
<path fill-rule="evenodd" clip-rule="evenodd" d="M58.7771 194.926C58.7771 193.822 57.8816 192.926 56.7771 192.926H41.2419C40.1373 192.926 39.2419 193.822 39.2419 194.926V215.039C39.2419 215.087 39.2035 215.125 39.1561 215.125V215.125C39.1087 215.125 39.0703 215.164 39.0703 215.211V231.17C39.0703 232.274 39.9657 233.17 41.0703 233.17H49.4374C50.5668 233.17 51.4721 234.104 51.4364 235.233L44.1549 465.005C44.1191 466.134 45.0245 467.068 46.1539 467.068H182.595C183.738 467.068 184.649 466.111 184.593 464.969L173.256 235.268C173.2 234.126 174.11 233.17 175.254 233.17H182.696C183.801 233.17 184.696 232.274 184.696 231.17V216.099C184.696 216.052 184.735 216.013 184.782 216.013V216.013C184.829 216.013 184.868 215.975 184.868 215.927V194.926C184.868 193.822 183.972 192.926 182.868 192.926H167.333C166.228 192.926 165.333 193.822 165.333 194.926V213.125C165.333 214.23 164.437 215.125 163.333 215.125H154.901C153.796 215.125 152.901 214.23 152.901 213.125V194.926C152.901 193.822 152.006 192.926 150.901 192.926H135.366C134.261 192.926 133.366 193.822 133.366 194.926V213.125C133.366 214.23 132.47 215.125 131.366 215.125H124.71C123.606 215.125 122.71 214.23 122.71 213.125V194.926C122.71 193.822 121.815 192.926 120.71 192.926H105.175C104.071 192.926 103.175 193.822 103.175 194.926V213.125C103.175 214.23 102.28 215.125 101.175 215.125H92.7438C91.6393 215.125 90.7438 214.23 90.7438 213.125V194.926C90.7438 193.822 89.8484 192.926 88.7438 192.926H73.2086C72.1041 192.926 71.2086 193.822 71.2086 194.926V213.125C71.2086 214.23 70.3132 215.125 69.2086 215.125H60.7771C59.6725 215.125 58.7771 214.23 58.7771 213.125V194.926Z" fill="#725D35"/>
<path d="M57.3256 161.523C56.7603 162.129 55.8111 162.162 55.2055 161.597C54.5999 161.031 54.5672 160.082 55.1324 159.477L57.3256 161.523ZM71.2345 165.408C69.7728 163.946 68.4487 162.634 67.18 161.56C65.9073 160.484 64.7712 159.719 63.7103 159.299C62.6836 158.893 61.7469 158.816 60.7952 159.094C59.8125 159.38 58.6653 160.088 57.3256 161.523L55.1324 159.477C56.7014 157.795 58.2896 156.699 59.9558 156.213C61.6529 155.719 63.2784 155.902 64.8139 156.51C66.3152 157.104 67.7412 158.106 69.1174 159.27C70.4975 160.437 71.9088 161.839 73.3558 163.286L71.2345 165.408Z" fill="#42361E"/>
<path d="M68.4278 201.203L68.4976 199.704L68.4278 201.203C59.6415 200.793 51.9341 194.528 49.8155 187.914C48.6873 184.392 49.5047 178.866 52.6263 174.157C55.8132 169.349 61.4444 165.302 70.0589 164.813L70.0589 164.812C70.2953 164.799 70.7031 164.669 71.318 164.252C71.915 163.847 72.5838 163.258 73.3244 162.517C74.2146 161.628 75.0811 160.657 75.9868 159.643C76.6506 158.899 77.3355 158.132 78.0662 157.356C81.9533 153.228 85.4924 151.306 88.7745 150.84C92.0617 150.373 94.8246 151.404 97.0575 152.621C99.3885 153.892 101.621 155.843 102.945 159.224C104.247 162.551 104.608 167.109 103.561 173.498C101.802 184.226 91.2338 202.264 68.4278 201.203Z" fill="url(#paint5_linear_318_2367)" stroke="#725D35" stroke-width="3"/>
<path d="M71.2496 164.27L49.9186 161.4L49.8315 162.396L34.7391 157.061L34.8698 155.566L28.3945 155L27 170.939L33.4753 171.506L33.606 170.011L49.4393 166.879L49.3521 167.876L70.9446 167.757L71.2496 164.27Z" fill="url(#paint6_linear_318_2367)"/>
<path d="M49.8315 162.396L49.9186 161.4L71.2496 164.27L70.9446 167.757L49.3521 167.876L49.4393 166.879M49.8315 162.396L34.7391 157.061M49.8315 162.396L49.4393 166.879M34.7391 157.061L33.606 170.011M34.7391 157.061L34.8698 155.566L28.3945 155L27 170.939L33.4753 171.506L33.606 170.011M33.606 170.011L49.4393 166.879" stroke="#6C6C6C" stroke-width="3"/>
<circle cx="2.07763" cy="2.07763" r="2.07763" transform="matrix(-1 0 0 1 91.825 167.256)" fill="#725D35"/>
<circle cx="2.07763" cy="2.07763" r="2.07763" transform="matrix(-1 0 0 1 81.8523 164.762)" fill="#725D35"/>
<path d="M74.3728 187.421C68.1399 187.421 65.2313 185.123 62.3226 181.799" stroke="#42361E" stroke-width="3" stroke-linecap="round"/>
<path d="M87.6847 175.028C84.4166 177.639 80.228 176.595 78.8147 172.816" stroke="#725D35" stroke-width="3" stroke-linecap="round"/>
<path d="M103.715 141.397C104.093 142.338 94.6058 147.151 86.9345 148.11C79.2633 149.069 67.2178 156.821 68.8833 156.015L109.948 163.932C109.836 159.626 109.507 156.246 108.64 152.904C107.725 149.375 106.209 145.888 103.715 141.397Z" fill="#DB3030"/>
<path d="M68.8833 156.015L109.948 163.932C109.836 159.626 109.507 156.246 108.64 152.904M68.8833 156.015C67.2178 156.821 79.2633 149.069 86.9345 148.11C94.6058 147.151 104.093 142.338 103.715 141.397C106.209 145.888 107.725 149.375 108.64 152.904M68.8833 156.015C84.4642 155.362 93.1909 154.904 108.64 152.904" stroke="#725D35" stroke-width="3"/>
<path d="M94.1263 154.342C108.606 152.982 115.673 149.448 126.729 139C111.79 142.188 104.325 145.135 94.1263 154.342Z" fill="white" stroke="#725D35" stroke-width="3"/>
<path fill-rule="evenodd" clip-rule="evenodd" d="M58.7771 182.495C58.7771 181.39 57.8816 180.495 56.7771 180.495H41.2419C40.1373 180.495 39.2419 181.39 39.2419 182.495V202.608C39.2419 202.655 39.2035 202.694 39.1561 202.694V202.694C39.1087 202.694 39.0703 202.732 39.0703 202.78V218.738C39.0703 219.843 39.9657 220.738 41.0703 220.738H49.4374C50.5668 220.738 51.4721 221.673 51.4364 222.802L43.5755 470.856C43.5397 471.985 44.4451 472.92 45.5745 472.92H185.244C186.393 472.92 187.306 471.954 187.241 470.807L173.272 222.851C173.207 221.704 174.12 220.738 175.268 220.738H182.696C183.801 220.738 184.696 219.843 184.696 218.738V203.668C184.696 203.62 184.735 203.582 184.782 203.582V203.582C184.829 203.582 184.868 203.543 184.868 203.496V182.495C184.868 181.39 183.972 180.495 182.868 180.495H167.333C166.228 180.495 165.333 181.39 165.333 182.495V200.694C165.333 201.798 164.437 202.694 163.333 202.694H154.901C153.796 202.694 152.901 201.798 152.901 200.694V182.495C152.901 181.39 152.006 180.495 150.901 180.495H135.366C134.261 180.495 133.366 181.39 133.366 182.495V200.694C133.366 201.798 132.47 202.694 131.366 202.694H124.71C123.606 202.694 122.71 201.798 122.71 200.694V182.495C122.71 181.39 121.815 180.495 120.71 180.495H105.175C104.071 180.495 103.175 181.39 103.175 182.495V200.694C103.175 201.798 102.28 202.694 101.175 202.694H92.7438C91.6393 202.694 90.7438 201.798 90.7438 200.694V182.495C90.7438 181.39 89.8484 180.495 88.7438 180.495H73.2086C72.1041 180.495 71.2086 181.39 71.2086 182.495V200.694C71.2086 201.798 70.3132 202.694 69.2086 202.694H60.7771C59.6725 202.694 58.7771 201.798 58.7771 200.694V182.495Z" fill="url(#paint7_linear_318_2367)"/>
<path fill-rule="evenodd" clip-rule="evenodd" d="M58.7771 182.495C58.7771 181.39 57.8816 180.495 56.7771 180.495H41.2419C40.1373 180.495 39.2419 181.39 39.2419 182.495V202.608C39.2419 202.655 39.2035 202.694 39.1561 202.694V202.694C39.1087 202.694 39.0703 202.732 39.0703 202.78V218.738C39.0703 219.843 39.9657 220.738 41.0703 220.738H49.4374C50.5668 220.738 51.4721 221.673 51.4364 222.802L43.5755 470.856C43.5397 471.985 44.4451 472.92 45.5745 472.92H185.244C186.393 472.92 187.306 471.954 187.241 470.807L173.272 222.851C173.207 221.704 174.12 220.738 175.268 220.738H182.696C183.801 220.738 184.696 219.843 184.696 218.738V203.668C184.696 203.62 184.735 203.582 184.782 203.582V203.582C184.829 203.582 184.868 203.543 184.868 203.496V182.495C184.868 181.39 183.972 180.495 182.868 180.495H167.333C166.228 180.495 165.333 181.39 165.333 182.495V200.694C165.333 201.798 164.437 202.694 163.333 202.694H154.901C153.796 202.694 152.901 201.798 152.901 200.694V182.495C152.901 181.39 152.006 180.495 150.901 180.495H135.366C134.261 180.495 133.366 181.39 133.366 182.495V200.694C133.366 201.798 132.47 202.694 131.366 202.694H124.71C123.606 202.694 122.71 201.798 122.71 200.694V182.495C122.71 181.39 121.815 180.495 120.71 180.495H105.175C104.071 180.495 103.175 181.39 103.175 182.495V200.694C103.175 201.798 102.28 202.694 101.175 202.694H92.7438C91.6393 202.694 90.7438 201.798 90.7438 200.694V182.495C90.7438 181.39 89.8484 180.495 88.7438 180.495H73.2086C72.1041 180.495 71.2086 181.39 71.2086 182.495V200.694C71.2086 201.798 70.3132 202.694 69.2086 202.694H60.7771C59.6725 202.694 58.7771 201.798 58.7771 200.694V182.495Z" fill="url(#paint8_linear_318_2367)"/>
<path fill-rule="evenodd" clip-rule="evenodd" d="M120.763 259.553C120.763 259.543 120.763 259.533 120.763 259.523C120.763 255.11 117.185 251.532 112.771 251.532C108.358 251.532 104.78 255.11 104.78 259.523V259.523C104.78 259.523 104.78 259.523 104.78 259.523H104.78C104.779 259.523 104.779 259.523 104.779 259.523V283.782C104.779 284.886 105.675 285.782 106.779 285.782H118.763C119.867 285.782 120.763 284.886 120.763 283.782V259.553Z" fill="#7E622B"/>
<defs>
<radialGradient id="paint0_radial_318_2367" cx="0" cy="0" r="1" gradientUnits="userSpaceOnUse" gradientTransform="translate(117.116 469.845) rotate(90) scale(30.9769 96.4413)">
<stop offset="0.6875" stop-color="#725B2F"/>
<stop offset="1" stop-color="#725D35" stop-opacity="0"/>
</radialGradient>
<radialGradient id="paint1_radial_318_2367" cx="0" cy="0" r="1" gradientUnits="userSpaceOnUse" gradientTransform="translate(112.771 265.205) rotate(90) scale(112.771 265.205)">
<stop offset="0.625" stop-color="#FF0000" stop-opacity="0.29"/>
<stop offset="0.973958" stop-color="#51A1FF" stop-opacity="0"/>
</radialGradient>
<linearGradient id="paint2_linear_318_2367" x1="110.036" y1="114.086" x2="110.036" y2="231.107" gradientUnits="userSpaceOnUse">
<stop stop-color="white"/>
<stop offset="0.307292" stop-color="#C4C4C4"/>
<stop offset="1" stop-color="#565656"/>
</linearGradient>
<linearGradient id="paint3_linear_318_2367" x1="100.148" y1="106.88" x2="99.9891" y2="204.184" gradientUnits="userSpaceOnUse">
<stop stop-color="white"/>
<stop offset="0.617106" stop-color="#FDDC9B"/>
<stop offset="0.927098" stop-color="#D6AE60"/>
</linearGradient>
<linearGradient id="paint4_linear_318_2367" x1="112.965" y1="76.3647" x2="112.965" y2="129.642" gradientUnits="userSpaceOnUse">
<stop stop-color="#FF7171"/>
<stop offset="1" stop-color="#DB3030"/>
</linearGradient>
<linearGradient id="paint5_linear_318_2367" x1="95.1675" y1="155.721" x2="61.942" y2="199.414" gradientUnits="userSpaceOnUse">
<stop stop-color="#FFF2D9"/>
<stop offset="0.671875" stop-color="#FDDC9B"/>
<stop offset="1" stop-color="#D6AE60"/>
</linearGradient>
<linearGradient id="paint6_linear_318_2367" x1="40.3053" y1="156.544" x2="42.2668" y2="174.282" gradientUnits="userSpaceOnUse">
<stop stop-color="#D9D9D9"/>
<stop offset="1" stop-color="#565656"/>
</linearGradient>
<linearGradient id="paint7_linear_318_2367" x1="113.705" y1="122.777" x2="113.158" y2="472.92" gradientUnits="userSpaceOnUse">
<stop stop-color="#D9D9D9"/>
<stop offset="1" stop-color="#565656"/>
</linearGradient>
<linearGradient id="paint8_linear_318_2367" x1="91.76" y1="169.157" x2="91.5042" y2="472.746" gradientUnits="userSpaceOnUse">
<stop stop-color="white"/>
<stop offset="0.177083" stop-color="#FDDC9B"/>
<stop offset="0.729167" stop-color="#D6AE60"/>
<stop offset="1" stop-color="#725B2F"/>
</linearGradient>
</defs>
</svg>
