<svg width="104" height="99" viewBox="0 0 104 99" fill="none" xmlns="http://www.w3.org/2000/svg">
<ellipse cx="40.05" cy="88.2001" rx="40.05" ry="10.8" fill="url(#paint0_radial_377_5706)"/>
<path d="M22.2466 48.7235C21.6814 49.3292 20.7322 49.3619 20.1266 48.7966C19.5209 48.2314 19.4882 47.2822 20.0535 46.6766L22.2466 48.7235ZM38.9894 50.1106C35.9279 47.0492 33.0731 45.3021 30.414 44.9697C27.8689 44.6516 25.1672 45.5944 22.2466 48.7235L20.0535 46.6766C23.4329 43.0558 27.0312 41.5235 30.7861 41.9929C34.427 42.448 37.8722 44.7508 41.1107 47.9892L38.9894 50.1106Z" fill="#42361E"/>
<path d="M15.8237 74.5343L17.2522 74.0767L15.8237 74.5342C14.616 70.7637 15.4881 64.8186 18.8529 59.7423C22.283 54.5675 28.346 50.2062 37.6351 49.6785L37.7202 51.176L37.6352 49.6785C37.9238 49.6621 38.3876 49.5067 39.0615 49.0498C39.7175 48.605 40.4482 47.9605 41.2525 47.1566C42.2175 46.1921 43.1612 45.1354 44.1451 44.0336C44.864 43.2286 45.6044 42.3994 46.3903 41.5647C50.5879 37.1061 54.3966 35.0453 57.914 34.5455C61.4366 34.045 64.4006 35.1493 66.8072 36.461C69.3119 37.826 71.7059 39.9185 73.1263 43.5471C74.5256 47.1219 74.9192 52.0334 73.7867 58.9397C71.8879 70.5198 60.4808 89.9851 35.8675 88.8391C26.4012 88.3982 18.1013 81.6451 15.8237 74.5343Z" fill="url(#paint1_linear_377_5706)" stroke="#725D35" stroke-width="3"/>
<circle cx="2.25" cy="2.25" r="2.25" transform="matrix(-1 0 0 1 61.2 52.2)" fill="#725D35"/>
<circle cx="2.25" cy="2.25" r="2.25" transform="matrix(-1 0 0 1 50.3999 49.5)" fill="#725D35"/>
<path d="M42.3 74.0389C35.55 74.0389 32.4 71.55 29.25 67.95" stroke="#42361E" stroke-width="3" stroke-linecap="round"/>
<path d="M56.7163 60.6172C53.1771 63.445 48.6409 62.314 47.1104 58.2222" stroke="#725D35" stroke-width="3" stroke-linecap="round"/>
<path d="M74.0769 24.1963C74.4855 25.2149 64.2115 30.4271 55.9038 31.4655C47.5961 32.504 34.5513 40.9001 36.3549 40.0272L80.8269 48.6001C80.7051 43.9375 80.3491 40.2773 79.4103 36.6578C78.419 32.836 76.778 29.0596 74.0769 24.1963Z" fill="#DB3030"/>
<path d="M36.3549 40.0272L80.8269 48.6001C80.7051 43.9375 80.3491 40.2773 79.4103 36.6578M36.3549 40.0272C34.5513 40.9001 47.5961 32.504 55.9038 31.4655C64.2115 30.4271 74.4855 25.2149 74.0769 24.1963C76.778 29.0596 78.419 32.836 79.4103 36.6578M36.3549 40.0272C53.2285 39.3201 62.6792 38.8241 79.4103 36.6578" stroke="#725D35" stroke-width="3"/>
<path d="M63.6923 38.2155C79.373 36.7421 87.0262 32.9149 99 21.6001C82.8212 25.0527 74.7372 28.2438 63.6923 38.2155Z" fill="white" stroke="#725D35" stroke-width="3"/>
<path d="M7.96997 14.7697L11.4034 13.6871L37.655 96.9466L34.2216 98.0292L7.96997 14.7697Z" fill="url(#paint2_linear_377_5706)"/>
<path fill-rule="evenodd" clip-rule="evenodd" d="M13.1183 10.1478C11.8662 6.17691 5.62695 1.35318 5.62695 1.35318L10.4959 16.7954C10.4959 16.7954 11.4555 16.661 12.125 15.3116C12.7759 13.9997 13.6747 11.9126 13.1183 10.1478ZM4.53479 12.8541C3.28278 8.88327 5.62693 1.35319 5.62693 1.35319L10.4959 16.7955C10.4959 16.7955 9.63265 17.2358 8.31029 16.5144C7.02463 15.8131 5.09124 14.619 4.53479 12.8541Z" fill="url(#paint3_linear_377_5706)"/>
<defs>
<radialGradient id="paint0_radial_377_5706" cx="0" cy="0" r="1" gradientUnits="userSpaceOnUse" gradientTransform="translate(40.05 88.2001) rotate(90) scale(10.8 40.05)">
<stop offset="0.6875" stop-opacity="0.43"/>
<stop offset="1" stop-opacity="0"/>
</radialGradient>
<linearGradient id="paint1_linear_377_5706" x1="64.8199" y1="39.7079" x2="28.8377" y2="87.0268" gradientUnits="userSpaceOnUse">
<stop stop-color="#FFF2D9"/>
<stop offset="0.671875" stop-color="#FDDC9B"/>
<stop offset="1" stop-color="#D6AE60"/>
</linearGradient>
<linearGradient id="paint2_linear_377_5706" x1="9.68666" y1="14.2284" x2="33.7732" y2="90.6211" gradientUnits="userSpaceOnUse">
<stop stop-color="#D6AE60"/>
<stop offset="1" stop-color="#42361E"/>
</linearGradient>
<linearGradient id="paint3_linear_377_5706" x1="5.62693" y1="1.35318" x2="10.4984" y2="16.8034" gradientUnits="userSpaceOnUse">
<stop stop-color="#D9D9D9"/>
<stop offset="1" stop-color="#6C6C6C"/>
</linearGradient>
</defs>
</svg>
