<svg width="121" height="89" viewBox="0 0 121 89" fill="none" xmlns="http://www.w3.org/2000/svg">
<ellipse cx="44.5" cy="12" rx="44.5" ry="12" transform="matrix(-1 0 0 1 115 65)" fill="url(#paint0_radial_377_5643)"/>
<path d="M90.4034 33.0235C90.9687 33.6291 91.9179 33.6618 92.5235 33.0966C93.1291 32.5313 93.1618 31.5821 92.5966 30.9765L90.4034 33.0235ZM71.5606 34.5605C74.9721 31.1491 78.177 29.177 81.186 28.8009C84.0812 28.439 87.1328 29.5193 90.4034 33.0235L92.5966 30.9765C88.8672 26.9807 84.9188 25.311 80.814 25.8241C76.823 26.3229 73.0279 28.8507 69.4394 32.4391L71.5606 34.5605Z" fill="#42361E"/>
<path d="M73.1737 34.3646L73.0886 35.8621L73.1736 34.3646C72.8094 34.3439 72.2642 34.1526 71.5047 33.6376C70.7632 33.1348 69.9427 32.4103 69.046 31.514C67.9725 30.4411 66.9169 29.2592 65.8197 28.0306C65.0208 27.1361 64.1998 26.2169 63.3338 25.2971C58.686 20.3603 54.4863 18.0971 50.6276 17.5488C46.7637 16.9997 43.5079 18.2095 40.8495 19.6584C38.0929 21.1608 35.4646 23.4587 33.9037 27.4463C32.3639 31.38 31.9236 36.804 33.1792 44.4614C35.2806 57.277 47.9048 78.8115 75.1394 77.5435C85.592 77.0567 94.751 69.5958 97.2593 61.7649C98.5824 57.6342 97.631 51.0808 93.9134 45.4723C90.1305 39.7652 83.4412 34.9479 73.1737 34.3646Z" fill="url(#paint1_linear_377_5643)" stroke="#725D35" stroke-width="3"/>
<path d="M81.9775 52.9948L110.94 33.942" stroke="url(#paint2_linear_377_5643)" stroke-width="3" stroke-linecap="round"/>
<path d="M87.3554 31.8816L80.7635 53.6199L104.056 56.6416" stroke="white" stroke-width="3" stroke-linecap="round"/>
<path d="M86.5261 31.7205C86.5261 31.7205 96.3903 32.9924 101.234 40.1728C106.077 47.3532 103.895 57.4708 103.895 57.4708" stroke="url(#paint3_linear_377_5643)" stroke-width="5" stroke-linecap="round"/>
<path d="M112.427 36.9142L108.487 31.6355C108.052 31.0526 108.365 30.215 109.075 30.0602L118.033 28.1087C118.92 27.9154 119.585 28.9098 119.067 29.6559L114.05 36.8862C113.66 37.4473 112.836 37.4616 112.427 36.9142Z" fill="url(#paint4_linear_377_5643)"/>
<circle cx="49.5" cy="39.4999" r="2.5" fill="#725D35"/>
<circle cx="61.5" cy="36.4999" r="2.5" fill="#725D35"/>
<path d="M68 61.2654C75.5 61.2654 79 58.4999 82.5 54.4999" stroke="#42361E" stroke-width="3" stroke-linecap="round"/>
<path d="M51.9819 46.3524C55.9144 49.4944 60.9546 48.2377 62.6552 43.6913" stroke="#725D35" stroke-width="3" stroke-linecap="round"/>
<path d="M32.6924 5.88464C32.2384 7.01638 43.6539 12.8077 52.8847 13.9616C62.1155 15.1154 76.6097 24.4444 74.6057 23.4745L25.1924 33C25.3277 27.8193 25.7233 23.7524 26.7664 19.7308C27.8678 15.4843 29.6912 11.2883 32.6924 5.88464Z" fill="#DB3030"/>
<path d="M74.6057 23.4745L25.1924 33C25.3277 27.8193 25.7233 23.7524 26.7664 19.7308M74.6057 23.4745C76.6097 24.4444 62.1155 15.1154 52.8847 13.9616C43.6539 12.8077 32.2384 7.01638 32.6924 5.88464C29.6912 11.2883 27.8678 15.4843 26.7664 19.7308M74.6057 23.4745C55.8573 22.6888 45.3565 22.1377 26.7664 19.7308" stroke="#725D35" stroke-width="3"/>
<path d="M44.2308 21.4615C26.8078 19.8244 18.3042 15.572 5 3C22.9765 6.83621 31.9587 10.3819 44.2308 21.4615Z" fill="white" stroke="#725D35" stroke-width="3"/>
<defs>
<radialGradient id="paint0_radial_377_5643" cx="0" cy="0" r="1" gradientUnits="userSpaceOnUse" gradientTransform="translate(44.5 12) rotate(90) scale(12 44.5)">
<stop offset="0.6875" stop-opacity="0.43"/>
<stop offset="1" stop-opacity="0"/>
</radialGradient>
<linearGradient id="paint1_linear_377_5643" x1="42.9779" y1="23.1197" x2="82.958" y2="75.6964" gradientUnits="userSpaceOnUse">
<stop stop-color="#FFF2D9"/>
<stop offset="0.671875" stop-color="#FDDC9B"/>
<stop offset="1" stop-color="#D6AE60"/>
</linearGradient>
<linearGradient id="paint2_linear_377_5643" x1="105.615" y1="37.6758" x2="106.239" y2="38.714" gradientUnits="userSpaceOnUse">
<stop stop-color="#9D8555"/>
<stop offset="1" stop-color="#443105"/>
</linearGradient>
<linearGradient id="paint3_linear_377_5643" x1="94.9125" y1="33.3051" x2="90.3721" y2="37.6265" gradientUnits="userSpaceOnUse">
<stop stop-color="#9D8555"/>
<stop offset="1" stop-color="#443105"/>
</linearGradient>
<linearGradient id="paint4_linear_377_5643" x1="113.824" y1="28.0072" x2="112.604" y2="37.9471" gradientUnits="userSpaceOnUse">
<stop stop-color="white"/>
<stop offset="1" stop-color="#565656"/>
</linearGradient>
</defs>
</svg>
