<svg width="70" height="128" viewBox="0 0 70 128" fill="none" xmlns="http://www.w3.org/2000/svg">
<path d="M0 128L7.33333 87H62.6667L70 128H0Z" fill="url(#paint0_linear_376_3226)"/>
<path d="M8.90832 1.93166C8.94515 0.854322 9.82918 0 10.9072 0H59.8199C60.9045 0 61.7914 0.864491 61.8192 1.94873L63.9474 84.9487C63.9762 86.073 63.0727 87 61.9481 87H8.06955C6.93819 87 6.03206 86.0624 6.07071 84.9317L8.90832 1.93166Z" fill="url(#paint1_linear_376_3226)"/>
<path fill-rule="evenodd" clip-rule="evenodd" d="M58.2 42.05C58.2 44.8529 55.9279 47.125 53.125 47.125C50.3222 47.125 48.05 44.8529 48.05 42.05C48.05 39.4934 49.9406 37.3782 52.4 37.0264V34.8H53.85L53.85 37.0264C56.3095 37.3782 58.2 39.4934 58.2 42.05ZM53.125 44.9501C54.3262 44.9501 55.3 43.9763 55.3 42.7751C55.3 41.5738 54.3262 40.6001 53.125 40.6001C51.9237 40.6001 50.95 41.5738 50.95 42.7751C50.95 43.9763 51.9237 44.9501 53.125 44.9501Z" fill="#FFC645"/>
<path d="M22.0237 30.1061L23.3357 11.0811C23.3719 10.5568 23.8078 10.1499 24.3334 10.1499H48.5665C49.0921 10.1499 49.528 10.5568 49.5642 11.0811L50.8762 30.1061C50.9161 30.6841 50.458 31.1749 49.8786 31.1749H23.0213C22.4419 31.1749 21.9838 30.6841 22.0237 30.1061Z" fill="url(#paint2_linear_376_3226)"/>
<path fill-rule="evenodd" clip-rule="evenodd" d="M33.5498 31.1749H30.6498V21.75H22.5999L22.7999 18.85H30.6498V10.1499H33.5498V18.85H39.35V10.1499H42.25V18.85H50.0999L50.2999 21.75H42.25V31.1749H39.35V21.75H33.5498V31.1749Z" fill="#BFBFBF"/>
<defs>
<linearGradient id="paint0_linear_376_3226" x1="35" y1="90" x2="35.4247" y2="122.002" gradientUnits="userSpaceOnUse">
<stop stop-color="#FFC645" stop-opacity="0.51"/>
<stop offset="1" stop-color="#FFC645" stop-opacity="0"/>
</linearGradient>
<linearGradient id="paint1_linear_376_3226" x1="35" y1="0" x2="35" y2="87" gradientUnits="userSpaceOnUse">
<stop stop-color="#725D35"/>
<stop offset="1" stop-color="#42361E"/>
</linearGradient>
<linearGradient id="paint2_linear_376_3226" x1="36.45" y1="10.1499" x2="36.45" y2="31.1749" gradientUnits="userSpaceOnUse">
<stop stop-color="#565656"/>
<stop offset="1" stop-color="#2E2E2E"/>
</linearGradient>
</defs>
</svg>
