<svg width="390" height="598" viewBox="0 0 390 598" fill="none" xmlns="http://www.w3.org/2000/svg">
<rect y="388" width="390" height="210" fill="url(#paint0_linear_380_3199)"/>
<rect y="210" width="390" height="177" fill="url(#paint1_linear_380_3199)"/>
<path d="M-10.0825 371L198.238 386.547L198.286 407.962L-11.9999 392.916L-10.0825 371Z" fill="url(#paint2_linear_380_3199)"/>
<path d="M405.227 370.659L196.907 386.205L196.859 407.621L407.145 392.575L405.227 370.659Z" fill="url(#paint3_linear_380_3199)"/>
<path fill-rule="evenodd" clip-rule="evenodd" d="M299.306 449H337V453H323.715L324.1 463H320.5V453H299L299.306 449Z" fill="url(#paint4_radial_380_3199)"/>
<path fill-rule="evenodd" clip-rule="evenodd" d="M117 318H120.5L120.964 331H137.5L138 335H96V348H91.5L92 335H76V331H117V318Z" fill="url(#paint5_radial_380_3199)"/>
<path fill-rule="evenodd" clip-rule="evenodd" d="M93.5806 516H42V521H74.6667V537H34V543H42.6667L42 550H48V543H101L100.46 537H79.6715L79.1001 521H94L93.5806 516Z" fill="url(#paint6_radial_380_3199)"/>
<path fill-rule="evenodd" clip-rule="evenodd" d="M243.7 261H241.25L240.925 270.1H229.35L229 272.9L258.4 272.9V282H261.55L261.2 272.9L272.4 272.9V270.1H243.7V261Z" fill="url(#paint7_radial_380_3199)"/>
<path d="M121 598L135.981 557H249.019L264 598H121Z" fill="url(#paint8_linear_380_3199)"/>
<rect x="31" width="320" height="210" fill="url(#paint9_radial_380_3199)"/>
<path d="M0 0H79V210L0 328V0Z" fill="url(#paint10_radial_380_3199)"/>
<path d="M390 0H311V210L390 328V0Z" fill="url(#paint11_radial_380_3199)"/>
<ellipse cx="32.6331" cy="168.979" rx="7" ry="9" fill="url(#paint12_radial_380_3199)"/>
<path d="M37.4987 130.145C36.3312 128.728 35.8312 127.133 34.6644 125.256C30.768 133.278 29.6331 152.979 37.4986 158.479C45.3642 163.979 48.9083 157.084 48.9083 157.084C51.7257 150.447 51.3861 130.971 46.0524 122.717C45.5623 126.007 44.9554 127.465 43.9012 130.098C42.3184 128.044 41.1475 124.321 39.9773 120.138C39.0674 123.438 38.5777 128.76 37.4987 130.145Z" fill="url(#paint13_linear_380_3199)"/>
<path d="M30.6331 133.979C33.1997 136.22 33.1997 137.715 33.1997 139.957C33.1997 145.355 33.1997 149.297 33.1997 153.781C33.1997 157.869 37.9664 159.759 41.6331 159.759M41.6331 159.759C45.2997 159.759 50.0664 157.869 50.0664 153.781C50.0664 149.297 50.0664 145.355 50.0664 139.957C50.0664 137.715 50.0664 136.22 52.6331 133.979M41.6331 159.759C40.5331 158.638 40.5331 156.848 40.5331 154.902C40.5331 150.045 40.5331 146.476 40.5331 141.077C40.5331 138.462 39.4331 134.726 39.4331 134.726M41.6331 159.759C41.6331 163.869 39.4331 167.979 32.4664 167.979" stroke="#6C6C6C" stroke-width="3"/>
<ellipse cx="7" cy="9" rx="7" ry="9" transform="matrix(-1 0 0 1 357.2 159.979)" fill="url(#paint14_radial_380_3199)"/>
<path d="M345.335 130.145C346.502 128.728 347.002 127.133 348.169 125.256C352.065 133.278 353.2 152.979 345.335 158.479C337.469 163.979 333.925 157.084 333.925 157.084C331.108 150.447 331.447 130.971 336.781 122.717C337.271 126.007 337.878 127.465 338.932 130.098C340.515 128.044 341.686 124.321 342.856 120.138C343.766 123.438 344.256 128.76 345.335 130.145Z" fill="url(#paint15_linear_380_3199)"/>
<path d="M352.2 133.979C349.634 136.22 349.634 137.715 349.634 139.957C349.634 145.355 349.634 149.297 349.634 153.781C349.634 157.869 344.867 159.759 341.2 159.759M341.2 159.759C337.534 159.759 332.767 157.869 332.767 153.781C332.767 149.297 332.767 145.355 332.767 139.957C332.767 137.715 332.767 136.22 330.2 133.979M341.2 159.759C342.3 158.638 342.3 156.848 342.3 154.902C342.3 150.045 342.3 146.476 342.3 141.077C342.3 138.462 343.4 134.726 343.4 134.726M341.2 159.759C341.2 163.869 343.4 167.979 350.367 167.979" stroke="#6C6C6C" stroke-width="3"/>
<ellipse cx="66.5" cy="13.5" rx="66.5" ry="13.5" transform="matrix(-1 0 0 1 315 215)" fill="url(#paint16_radial_380_3199)"/>
<path fill-rule="evenodd" clip-rule="evenodd" d="M290.5 139H197L195 153H299L290.5 139ZM212 149C216.971 149 221 147.657 221 146C221 144.343 216.971 143 212 143C207.029 143 203 144.343 203 146C203 147.657 207.029 149 212 149ZM255 146C255 147.657 250.971 149 246 149C241.029 149 237 147.657 237 146C237 144.343 241.029 143 246 143C250.971 143 255 144.343 255 146ZM279 149C283.971 149 288 147.657 288 146C288 144.343 283.971 143 279 143C274.029 143 270 144.343 270 146C270 147.657 274.029 149 279 149Z" fill="url(#paint17_linear_380_3199)"/>
<path fill-rule="evenodd" clip-rule="evenodd" d="M290.5 213H197L195 227H299L290.5 213ZM212 223C216.971 223 221 221.657 221 220C221 218.343 216.971 217 212 217C207.029 217 203 218.343 203 220C203 221.657 207.029 223 212 223ZM255 220C255 221.657 250.971 223 246 223C241.029 223 237 221.657 237 220C237 218.343 241.029 217 246 217C250.971 217 255 218.343 255 220ZM279 223C283.971 223 288 221.657 288 220C288 218.343 283.971 217 279 217C274.029 217 270 218.343 270 220C270 221.657 274.029 223 279 223Z" fill="url(#paint18_linear_380_3199)"/>
<rect x="197" y="147" width="7" height="68" fill="url(#paint19_linear_380_3199)"/>
<rect x="285" y="147" width="7" height="68" fill="url(#paint20_linear_380_3199)"/>
<rect x="243" y="153" width="7" height="62" fill="url(#paint21_linear_380_3199)"/>
<path d="M201.058 128.828L205.019 128.272L218.519 224.328L214.558 224.884L201.058 128.828Z" fill="url(#paint22_linear_380_3199)"/>
<path fill-rule="evenodd" clip-rule="evenodd" d="M197.645 126.099C197.002 121.518 200.951 113.696 200.951 113.696C200.951 113.696 206.904 120.126 207.548 124.707C207.834 126.743 206.466 128.866 205.513 130.184C204.531 131.54 203.455 131.512 203.455 131.512C203.455 131.512 202.428 131.836 201.112 130.803C199.831 129.798 197.932 128.135 197.645 126.099Z" fill="url(#paint23_linear_380_3199)"/>
<path d="M269.824 129.531L273.806 129.148L283.103 225.701L279.122 226.085L269.824 129.531Z" fill="url(#paint24_linear_380_3199)"/>
<path fill-rule="evenodd" clip-rule="evenodd" d="M266.534 126.656C266.09 122.051 270.378 114.409 270.378 114.409C270.378 114.409 276.044 121.093 276.488 125.697C276.685 127.744 275.226 129.805 274.215 131.08C273.176 132.392 272.102 132.317 272.102 132.317C272.102 132.317 271.062 132.596 269.792 131.506C268.556 130.447 266.731 128.703 266.534 126.656Z" fill="url(#paint25_linear_380_3199)"/>
<path d="M284.123 135.231L288.101 135.649L277.962 232.118L273.984 231.7L284.123 135.231Z" fill="url(#paint26_linear_380_3199)"/>
<path fill-rule="evenodd" clip-rule="evenodd" d="M281.471 131.758C281.955 127.157 287.68 120.523 287.68 120.523C287.68 120.523 291.9 128.202 291.417 132.803C291.202 134.848 289.361 136.576 288.117 137.625C286.837 138.703 285.799 138.415 285.799 138.415C285.799 138.415 284.725 138.481 283.697 137.16C282.698 135.876 281.257 133.803 281.471 131.758Z" fill="url(#paint27_linear_380_3199)"/>
<path d="M236.414 103.107L240.404 102.828L248.913 224.521L244.923 224.8L236.414 103.107Z" fill="url(#paint28_linear_380_3199)"/>
<path fill-rule="evenodd" clip-rule="evenodd" d="M238.404 104.311L247.677 103.684C248.417 104.605 249.075 105.369 249.654 106.041C252.539 109.388 253.45 110.445 252.666 117.206C252.666 117.206 263.854 109.56 261.913 98.5679C260.256 89.1851 251.321 83.5834 251.321 83.5834C253.314 90.4893 251.986 93.0984 247.145 96.0779L244.629 96.2538L231.119 97.1985L228.603 97.3744C223.394 95.0977 221.717 92.6988 222.729 85.5827C222.729 85.5827 214.661 92.3734 214.326 101.895C213.933 113.051 226.077 119.065 226.077 119.065C224.359 112.479 225.114 111.306 227.505 107.589C227.985 106.844 228.53 105.996 229.135 104.981L238.404 104.311Z" fill="url(#paint29_linear_380_3199)"/>
<rect x="195" y="153" width="104" height="5" fill="#42361E"/>
<rect x="195" y="227" width="104" height="5" fill="#42361E"/>
<path fill-rule="evenodd" clip-rule="evenodd" d="M196 146L195 153H299L294.75 146H288C288 147.657 283.971 149 279 149C274.029 149 270 147.657 270 146H255C255 147.657 250.971 149 246 149C241.029 149 237 147.657 237 146H221C221 147.657 216.971 149 212 149C207.029 149 203 147.657 203 146H196Z" fill="url(#paint30_linear_380_3199)"/>
<path fill-rule="evenodd" clip-rule="evenodd" d="M196 220L195 227H299L294.75 220H288C288 221.657 283.971 223 279 223C274.029 223 270 221.657 270 220H255C255 221.657 250.971 223 246 223C241.029 223 237 221.657 237 220H221C221 221.657 216.971 223 212 223C207.029 223 203 221.657 203 220H196Z" fill="url(#paint31_linear_380_3199)"/>
<ellipse cx="98.5" cy="91.5" rx="9.5" ry="12.5" fill="url(#paint32_radial_380_3199)"/>
<path fill-rule="evenodd" clip-rule="evenodd" d="M100.663 106.237C99.9989 106.728 99.2677 107 98.4998 107C97.7321 107 97.0011 106.728 96.3373 106.238C96.1229 107.196 96.0001 108.311 96.0001 109.5C96.0001 111.012 96.1988 112.404 96.532 113.509C97.1052 113.014 97.7559 112.703 98.4647 112.623C99.1882 112.54 99.9065 112.704 100.589 113.073C100.849 112.048 101 110.82 101 109.5C101 108.311 100.877 107.196 100.663 106.237ZM93.0001 109.5C93.0001 112.201 93.6524 114.638 94.6998 116.368C94.0615 118.116 93.807 120.328 94.0755 122.684C94.3143 124.78 94.9303 126.671 95.7778 128.161C95.0826 129.94 94.7963 132.234 95.0755 134.684C95.3382 136.99 96.0575 139.048 97.0393 140.597C96.4171 142.448 96.2659 144.834 96.7313 147.345C97.1338 149.517 97.933 151.436 98.9465 152.888C98.4031 154.696 98.29 156.964 98.7313 159.346C99.1551 161.632 100.019 163.638 101.109 165.115C100.593 166.796 100.414 168.845 100.68 171.013C100.952 173.227 101.643 175.207 102.58 176.725C102.234 178.312 102.179 180.166 102.486 182.104C103.307 187.286 106.404 191.102 109.405 190.626C112.405 190.151 114.172 185.565 113.351 180.383C113.014 178.256 112.294 176.36 111.354 174.895C111.725 173.354 111.83 171.559 111.598 169.673C111.299 167.239 110.493 165.086 109.411 163.521C109.885 161.761 109.966 159.602 109.547 157.341C109.145 155.17 108.345 153.251 107.332 151.798C107.875 149.991 107.988 147.722 107.547 145.341C107.148 143.185 106.357 141.278 105.353 139.829C106.012 138.069 106.277 135.829 106.005 133.439C105.766 131.343 105.15 129.452 104.303 127.962C104.998 126.183 105.284 123.889 105.005 121.439C104.727 119.002 103.939 116.842 102.871 115.267C103.579 113.668 104 111.669 104 109.5C104 107.224 103.537 105.136 102.764 103.5C103.537 101.864 104 99.7754 104 97.5C104 92.2533 101.537 88 98.4998 88C95.4623 88 92.9998 92.2533 92.9998 97.5C92.9998 99.7757 93.4631 101.864 94.2355 103.5C93.4632 105.136 93.0001 107.225 93.0001 109.5ZM108.742 172.304C108.756 171.592 108.718 170.829 108.621 170.039C108.463 168.755 108.172 167.576 107.8 166.601C107.249 167.171 106.6 167.549 105.87 167.684C105.114 167.824 104.343 167.689 103.599 167.326C103.499 168.314 103.511 169.45 103.658 170.648C103.771 171.567 103.952 172.432 104.182 173.207C104.809 172.474 105.57 171.997 106.432 171.86C107.209 171.737 107.993 171.902 108.742 172.304ZM105.677 176.187C105.962 175.404 106.379 174.906 106.902 174.823C107.334 174.755 107.786 174.98 108.22 175.432C107.907 176.229 107.466 176.729 106.931 176.795C106.511 176.846 106.082 176.624 105.677 176.187ZM105.249 179.381C105.91 179.715 106.602 179.858 107.297 179.772C108.244 179.656 109.084 179.13 109.77 178.302C110.029 179.071 110.242 179.933 110.388 180.852C110.949 184.398 110.299 187.447 108.935 187.663C107.572 187.879 106.011 185.18 105.449 181.635C105.325 180.851 105.26 180.091 105.249 179.381ZM105.324 164.734C105.646 164.675 105.924 164.456 106.152 164.111C105.885 163.937 105.614 163.859 105.347 163.892C105.002 163.934 104.697 164.157 104.439 164.524C104.738 164.711 105.037 164.788 105.324 164.734ZM104.982 160.914C105.616 160.836 106.249 160.948 106.858 161.223C106.9 160.225 106.819 159.083 106.597 157.888C106.38 156.715 106.055 155.638 105.668 154.733C105.146 155.229 104.542 155.56 103.87 155.684C103.057 155.835 102.228 155.668 101.432 155.24C101.367 156.289 101.443 157.513 101.681 158.799C101.915 160.063 102.275 161.216 102.703 162.163C103.351 161.463 104.122 161.02 104.982 160.914ZM104.846 149.446C104.911 148.398 104.836 147.173 104.597 145.888C104.367 144.644 104.015 143.509 103.597 142.572C103.012 143.092 102.345 143.417 101.616 143.501C100.877 143.585 100.143 143.412 99.448 143.026C99.3573 144.121 99.4264 145.425 99.6811 146.799C99.8985 147.972 100.224 149.048 100.611 149.954C101.133 149.457 101.736 149.127 102.408 149.002C103.222 148.852 104.051 149.019 104.846 149.446ZM102.258 152.397C102.459 152.155 102.692 152.001 102.955 151.952C103.299 151.888 103.661 152.012 104.02 152.289C103.82 152.532 103.587 152.686 103.324 152.734C102.979 152.798 102.617 152.675 102.258 152.397ZM101.276 140.52C101.506 140.494 101.719 140.387 101.913 140.211C101.589 139.989 101.265 139.895 100.955 139.952C100.753 139.989 100.568 140.089 100.402 140.244C100.689 140.454 100.984 140.553 101.276 140.52ZM100.408 137.002C101.273 136.842 102.157 137.041 102.998 137.531C103.161 136.451 103.181 135.156 103.024 133.779C102.898 132.672 102.672 131.642 102.38 130.753C101.849 131.167 101.256 131.428 100.616 131.5C99.7361 131.601 98.8643 131.337 98.0557 130.783C97.9179 131.823 97.9085 133.048 98.0562 134.345C98.201 135.615 98.4771 136.784 98.8347 137.755C99.3029 137.369 99.8304 137.109 100.408 137.002ZM102.025 125.34C102.162 124.3 102.172 123.075 102.024 121.779C101.856 120.3 101.509 118.959 101.064 117.907C100.298 118.605 99.4258 119 98.5001 119C98.0056 119 97.5263 118.887 97.0704 118.676C96.9187 119.739 96.9034 121.003 97.0562 122.345C97.1823 123.451 97.4082 124.481 97.7006 125.37C98.2317 124.956 98.8245 124.696 99.4647 124.623C100.344 124.522 101.216 124.787 102.025 125.34ZM99.0989 127.978C99.3107 127.763 99.5472 127.633 99.8043 127.603C100.2 127.558 100.601 127.756 100.981 128.145C100.77 128.361 100.533 128.49 100.276 128.52C99.8806 128.565 99.4794 128.367 99.0989 127.978ZM98.5001 116C98.7769 116 99.0433 115.883 99.2922 115.667C99.1298 115.607 98.9666 115.585 98.8043 115.603C98.565 115.631 98.3435 115.745 98.1432 115.934C98.2598 115.978 98.3789 116 98.5001 116ZM99.4632 103.5C99.1667 103.822 98.8413 104 98.4998 104C98.1585 104 97.8331 103.822 97.5367 103.5C97.8332 103.178 98.1586 103 98.5001 103C98.8414 103 99.1668 103.178 99.4632 103.5ZM100.663 100.762C99.9988 100.272 99.2678 100 98.5001 100C97.7322 100 97.001 100.272 96.3371 100.763C96.1227 99.8039 95.9998 98.6892 95.9998 97.5C95.9998 93.9102 97.1191 91 98.4998 91C99.8806 91 101 93.9102 101 97.5C101 98.6891 100.877 99.8036 100.663 100.762Z" fill="url(#paint33_linear_380_3199)"/>
<ellipse cx="338.991" cy="521.082" rx="27.5" ry="7.5" fill="url(#paint34_radial_380_3199)"/>
<ellipse cx="260.991" cy="512.081" rx="27.5" ry="7.5" fill="url(#paint35_radial_380_3199)"/>
<path fill-rule="evenodd" clip-rule="evenodd" d="M327.609 514.818C327.454 514.044 327.511 513.298 327.811 512.623C328.127 511.915 328.68 511.353 329.409 510.945C328.455 510.368 327.228 509.843 325.849 509.461C324.988 509.222 324.149 509.061 323.369 508.975C323.522 509.383 323.597 509.806 323.586 510.238C323.556 511.385 322.921 512.433 321.861 513.287C322.641 513.668 323.539 514.009 324.513 514.279C325.605 514.582 326.663 514.759 327.609 514.818ZM326.651 506.57C324.51 505.976 322.424 505.856 320.667 506.136C318.995 505.176 316.734 504.557 314.233 504.491C312.025 504.433 309.982 504.816 308.35 505.505C306.696 504.598 304.5 504.016 302.079 503.952C299.755 503.892 297.613 504.319 295.941 505.079C294.405 504.224 292.437 503.623 290.261 503.433C288.04 503.239 285.958 503.503 284.279 504.103C282.799 503.435 280.996 502.996 279.037 502.894C273.798 502.619 269.422 504.855 269.263 507.889C269.104 510.922 273.222 513.604 278.462 513.878C280.612 513.991 282.617 513.681 284.245 513.066C285.675 513.75 287.41 514.225 289.302 514.391C291.745 514.605 294.019 514.264 295.775 513.531C297.397 514.361 299.493 514.888 301.791 514.949C303.999 515.006 306.042 514.624 307.674 513.934C309.328 514.842 311.524 515.424 313.945 515.487C315.725 515.534 317.398 515.294 318.834 514.838C320.138 515.818 321.811 516.643 323.711 517.17C325.599 517.693 327.446 517.849 329.061 517.686C330.242 519.154 332.045 520.529 334.253 521.511C339.046 523.645 343.933 523.126 345.169 520.351C346.404 517.576 343.52 513.596 338.727 511.462C336.713 510.566 334.681 510.137 332.912 510.148C331.531 508.633 329.315 507.309 326.651 506.57ZM287.323 511.05C288.016 511.212 288.771 511.333 289.564 511.402C290.852 511.515 292.066 511.476 293.096 511.314C292.654 510.657 292.419 509.943 292.438 509.202C292.459 508.432 292.751 507.707 293.261 507.055C292.316 506.751 291.201 506.527 290 506.422C289.077 506.341 288.193 506.338 287.388 506.402C287.974 507.168 288.282 508.011 288.237 508.883C288.195 509.669 287.871 510.401 287.323 511.05ZM284.162 507.245C284.868 507.686 285.268 508.198 285.241 508.726C285.218 509.163 284.904 509.559 284.372 509.89C283.657 509.417 283.259 508.882 283.306 508.345C283.343 507.924 283.65 507.551 284.162 507.245ZM281.126 506.162C280.662 506.74 280.379 507.387 280.318 508.084C280.235 509.035 280.575 509.965 281.242 510.809C280.436 510.902 279.548 510.931 278.619 510.883C275.034 510.695 272.186 509.425 272.259 508.046C272.331 506.667 275.296 505.702 278.88 505.889C279.673 505.931 280.429 506.025 281.126 506.162ZM295.437 509.28C295.429 509.608 295.585 509.925 295.875 510.22C296.1 509.996 296.233 509.747 296.257 509.479C296.287 509.133 296.133 508.787 295.827 508.459C295.582 508.713 295.445 508.989 295.437 509.28ZM299.245 509.74C299.19 510.377 298.948 510.972 298.553 511.511C299.52 511.76 300.654 511.918 301.87 511.95C303.062 511.981 304.183 511.887 305.149 511.696C304.772 511.083 304.574 510.423 304.592 509.741C304.614 508.913 304.95 508.137 305.533 507.448C304.521 507.166 303.308 506.986 302.001 506.951C300.715 506.918 299.513 507.03 298.498 507.251C299.048 508.031 299.321 508.877 299.245 509.74ZM310.491 511.992C311.503 512.274 312.716 512.454 314.023 512.488C314.913 512.512 315.763 512.465 316.539 512.361C315.959 511.353 315.755 510.309 316.026 509.331C316.186 508.754 316.5 508.243 316.938 507.805C316.097 507.628 315.153 507.516 314.154 507.49C312.962 507.459 311.841 507.553 310.875 507.744C311.252 508.357 311.45 509.016 311.432 509.699C311.41 510.526 311.074 511.303 310.491 511.992ZM308.142 508.847C308.338 509.093 308.44 509.354 308.433 509.621C308.424 509.971 308.228 510.299 307.882 510.593C307.686 510.346 307.584 510.086 307.591 509.819C307.6 509.469 307.796 509.14 308.142 508.847ZM318.917 510.133C318.797 510.565 318.981 511.053 319.402 511.548C320.136 511.164 320.573 510.686 320.587 510.159C320.596 509.81 320.418 509.472 320.088 509.161C319.458 509.367 319.039 509.694 318.917 510.133ZM330.486 514.501C330.444 514.263 330.464 514.041 330.552 513.843C330.698 513.516 331.016 513.284 331.464 513.146C331.491 513.305 331.485 513.459 331.444 513.607C331.337 513.994 330.998 514.294 330.486 514.501ZM332.211 516.809C333.294 516.24 334.053 515.426 334.335 514.409C334.445 514.012 334.477 513.605 334.438 513.194C335.388 513.39 336.439 513.728 337.507 514.203C340.786 515.663 342.99 517.869 342.428 519.131C341.866 520.392 338.753 520.231 335.473 518.771C334.186 518.198 333.064 517.51 332.211 516.809Z" fill="url(#paint36_linear_380_3199)"/>
<circle cx="15" cy="15" r="15" transform="matrix(-1 3.71447e-09 3.71447e-09 1 276.491 484.581)" fill="url(#paint37_radial_380_3199)"/>
<path fill-rule="evenodd" clip-rule="evenodd" d="M349.491 530.581C342.864 530.581 337.491 525.209 337.491 518.581C337.491 511.954 342.864 506.581 349.491 506.581C356.119 506.581 361.491 511.954 361.491 518.581C361.491 525.209 356.119 530.581 349.491 530.581ZM349.491 526.581C345.073 526.581 341.491 523 341.491 518.581C341.491 514.163 345.073 510.581 349.491 510.581C353.909 510.581 357.491 514.163 357.491 518.581C357.491 523 353.909 526.581 349.491 526.581Z" fill="#565656"/>
<ellipse cx="66.5" cy="18" rx="66.5" ry="18" transform="matrix(-1 0 0 1 142 297)" fill="url(#paint38_radial_380_3199)"/>
<path d="M54.6821 206.888H62.6807V284.207H54.6821V206.888Z" fill="url(#paint39_linear_380_3199)"/>
<path d="M62.6807 211.554L66.0134 205.555V278.208L62.6807 284.207V211.554Z" fill="url(#paint40_linear_380_3199)"/>
<rect x="38.6162" y="293.488" width="87.9149" height="5.861" fill="url(#paint41_linear_380_3199)"/>
<path d="M111.292 287.627H118.326L123.601 312.244H116.567L111.292 287.627Z" fill="url(#paint42_linear_380_3199)"/>
<path d="M66.7031 258.156L66.7031 249.133L59.8306 249.133L27.6169 293.693L27.6169 302.715L35.7201 302.715L66.7031 258.156Z" fill="url(#paint43_linear_380_3199)"/>
<path d="M26.6873 242.881H34.6858V324.2H26.6873V242.881Z" fill="url(#paint44_linear_380_3199)"/>
<path d="M66.0136 206.579L66.0136 197.556L59.1411 197.556L26.9275 242.116L26.9275 251.139L35.0306 251.139L66.0136 206.579Z" fill="url(#paint45_linear_380_3199)"/>
<path d="M34.6858 251.546L38.0185 245.547V318.201L34.6858 324.2V251.546Z" fill="url(#paint46_linear_380_3199)"/>
<path d="M72.6183 233.58C74.618 232.887 76.6176 244.245 62.6807 244.245V238.912C72.6183 238.912 69.9522 234.504 72.6183 233.58Z" fill="#BFBFBF"/>
<path d="M57.5653 266.528H123.208C123.208 266.528 131.862 267.114 131.862 272.975C131.862 284.697 120.278 287.627 120.278 287.627H45.2572C45.2572 287.627 40.4308 282.939 42.7752 275.319C45.1197 267.7 57.5653 266.528 57.5653 266.528Z" fill="#6C6C6C"/>
<path d="M57.5651 261.839H123.208C123.208 261.839 132 265.356 132 272.389C132 279.422 120.278 282.939 120.278 282.939H45.2571C45.2571 282.939 41.1542 280.008 43.4986 272.389C45.843 264.769 57.5651 261.839 57.5651 261.839Z" fill="#BFBFBF"/>
<path d="M45.9376 280.031C47.9373 279.337 49.9369 290.695 36 290.695V285.363C45.9376 285.363 43.2715 280.955 45.9376 280.031Z" fill="#BFBFBF"/>
<defs>
<linearGradient id="paint0_linear_380_3199" x1="195" y1="388" x2="195" y2="598" gradientUnits="userSpaceOnUse">
<stop stop-color="#8E8E8E"/>
<stop offset="1" stop-color="#565656"/>
</linearGradient>
<linearGradient id="paint1_linear_380_3199" x1="195" y1="210" x2="195" y2="387" gradientUnits="userSpaceOnUse">
<stop stop-color="#565656"/>
<stop offset="0.109375" stop-color="#8E8E8E"/>
<stop offset="1" stop-color="#565656"/>
</linearGradient>
<linearGradient id="paint2_linear_380_3199" x1="89.5544" y1="379.717" x2="87.6369" y2="401.633" gradientUnits="userSpaceOnUse">
<stop stop-color="#6C6C6C"/>
<stop offset="1" stop-color="#565656"/>
</linearGradient>
<linearGradient id="paint3_linear_380_3199" x1="305.59" y1="379.376" x2="307.508" y2="401.292" gradientUnits="userSpaceOnUse">
<stop stop-color="#6C6C6C"/>
<stop offset="1" stop-color="#565656"/>
</linearGradient>
<radialGradient id="paint4_radial_380_3199" cx="0" cy="0" r="1" gradientUnits="userSpaceOnUse" gradientTransform="translate(311.7 456.2) rotate(90) scale(8.61337 31.4133)">
<stop stop-color="#BFBFBF"/>
<stop offset="1" stop-color="#6C6C6C"/>
</radialGradient>
<radialGradient id="paint5_radial_380_3199" cx="0" cy="0" r="1" gradientUnits="userSpaceOnUse" gradientTransform="translate(107 333) rotate(90) scale(19 39.2667)">
<stop stop-color="#BFBFBF"/>
<stop offset="1" stop-color="#6C6C6C"/>
</radialGradient>
<radialGradient id="paint6_radial_380_3199" cx="0" cy="0" r="1" gradientUnits="userSpaceOnUse" gradientTransform="translate(68 533) rotate(90) scale(17 35.1333)">
<stop stop-color="#BFBFBF"/>
<stop offset="1" stop-color="#6C6C6C"/>
</radialGradient>
<radialGradient id="paint7_radial_380_3199" cx="0" cy="0" r="1" gradientUnits="userSpaceOnUse" gradientTransform="translate(250.7 271.5) rotate(90) scale(13.3 27.4867)">
<stop stop-color="#BFBFBF"/>
<stop offset="1" stop-color="#6C6C6C"/>
</radialGradient>
<linearGradient id="paint8_linear_380_3199" x1="193" y1="603.5" x2="194.257" y2="563.039" gradientUnits="userSpaceOnUse">
<stop stop-color="#FFC645" stop-opacity="0.51"/>
<stop offset="1" stop-color="#FFC645" stop-opacity="0"/>
</linearGradient>
<radialGradient id="paint9_radial_380_3199" cx="0" cy="0" r="1" gradientUnits="userSpaceOnUse" gradientTransform="translate(191 105) rotate(90) scale(105 120.992)">
<stop stop-color="#BFBFBF"/>
<stop offset="1" stop-color="#565656"/>
</radialGradient>
<radialGradient id="paint10_radial_380_3199" cx="0" cy="0" r="1" gradientUnits="userSpaceOnUse" gradientTransform="translate(40 155.5) rotate(90) scale(110 32.4512)">
<stop stop-color="#BFBFBF"/>
<stop offset="1" stop-color="#565656"/>
</radialGradient>
<radialGradient id="paint11_radial_380_3199" cx="0" cy="0" r="1" gradientUnits="userSpaceOnUse" gradientTransform="translate(350 155.5) rotate(90) scale(110 32.4512)">
<stop stop-color="#BFBFBF"/>
<stop offset="1" stop-color="#565656"/>
</radialGradient>
<radialGradient id="paint12_radial_380_3199" cx="0" cy="0" r="1" gradientUnits="userSpaceOnUse" gradientTransform="translate(32.6331 168.979) rotate(90) scale(9 7)">
<stop offset="0.6875" stop-opacity="0.43"/>
<stop offset="1" stop-opacity="0"/>
</radialGradient>
<linearGradient id="paint13_linear_380_3199" x1="41.6331" y1="123.979" x2="41.6331" y2="160.479" gradientUnits="userSpaceOnUse">
<stop stop-color="#DB3030"/>
<stop offset="1" stop-color="#FFB100"/>
</linearGradient>
<radialGradient id="paint14_radial_380_3199" cx="0" cy="0" r="1" gradientUnits="userSpaceOnUse" gradientTransform="translate(7 9) rotate(90) scale(9 7)">
<stop offset="0.6875" stop-opacity="0.43"/>
<stop offset="1" stop-opacity="0"/>
</radialGradient>
<linearGradient id="paint15_linear_380_3199" x1="341.2" y1="123.979" x2="341.2" y2="160.479" gradientUnits="userSpaceOnUse">
<stop stop-color="#DB3030"/>
<stop offset="1" stop-color="#FFB100"/>
</linearGradient>
<radialGradient id="paint16_radial_380_3199" cx="0" cy="0" r="1" gradientUnits="userSpaceOnUse" gradientTransform="translate(66.5 13.5) rotate(90) scale(13.5 66.5)">
<stop offset="0.6875" stop-opacity="0.43"/>
<stop offset="1" stop-opacity="0"/>
</radialGradient>
<linearGradient id="paint17_linear_380_3199" x1="247" y1="139" x2="247" y2="153" gradientUnits="userSpaceOnUse">
<stop stop-color="#725D35"/>
<stop offset="1" stop-color="#42361E"/>
</linearGradient>
<linearGradient id="paint18_linear_380_3199" x1="247" y1="213" x2="247" y2="227" gradientUnits="userSpaceOnUse">
<stop stop-color="#725D35"/>
<stop offset="1" stop-color="#42361E"/>
</linearGradient>
<linearGradient id="paint19_linear_380_3199" x1="200.5" y1="147" x2="200.5" y2="215" gradientUnits="userSpaceOnUse">
<stop stop-color="#725D35"/>
<stop offset="1" stop-color="#42361E"/>
</linearGradient>
<linearGradient id="paint20_linear_380_3199" x1="288.5" y1="147" x2="288.5" y2="215" gradientUnits="userSpaceOnUse">
<stop stop-color="#725D35"/>
<stop offset="1" stop-color="#42361E"/>
</linearGradient>
<linearGradient id="paint21_linear_380_3199" x1="246.5" y1="153" x2="246.5" y2="215" gradientUnits="userSpaceOnUse">
<stop stop-color="#725D35"/>
<stop offset="1" stop-color="#42361E"/>
</linearGradient>
<linearGradient id="paint22_linear_380_3199" x1="203.039" y1="128.55" x2="215.425" y2="216.684" gradientUnits="userSpaceOnUse">
<stop stop-color="#D6AE60"/>
<stop offset="1" stop-color="#42361E"/>
</linearGradient>
<linearGradient id="paint23_linear_380_3199" x1="200.951" y1="113.696" x2="203.456" y2="131.521" gradientUnits="userSpaceOnUse">
<stop stop-color="#D9D9D9"/>
<stop offset="1" stop-color="#6C6C6C"/>
</linearGradient>
<linearGradient id="paint24_linear_380_3199" x1="271.815" y1="129.34" x2="280.346" y2="217.93" gradientUnits="userSpaceOnUse">
<stop stop-color="#D6AE60"/>
<stop offset="1" stop-color="#42361E"/>
</linearGradient>
<linearGradient id="paint25_linear_380_3199" x1="270.378" y1="114.409" x2="272.103" y2="132.326" gradientUnits="userSpaceOnUse">
<stop stop-color="#D9D9D9"/>
<stop offset="1" stop-color="#6C6C6C"/>
</linearGradient>
<linearGradient id="paint26_linear_380_3199" x1="286.112" y1="135.44" x2="276.809" y2="223.953" gradientUnits="userSpaceOnUse">
<stop stop-color="#D6AE60"/>
<stop offset="1" stop-color="#42361E"/>
</linearGradient>
<linearGradient id="paint27_linear_380_3199" x1="287.68" y1="120.523" x2="285.798" y2="138.424" gradientUnits="userSpaceOnUse">
<stop stop-color="#D9D9D9"/>
<stop offset="1" stop-color="#6C6C6C"/>
</linearGradient>
<linearGradient id="paint28_linear_380_3199" x1="238.409" y1="102.968" x2="246.216" y2="214.624" gradientUnits="userSpaceOnUse">
<stop stop-color="#BFBFBF"/>
<stop offset="1" stop-color="#565656"/>
</linearGradient>
<linearGradient id="paint29_linear_380_3199" x1="252.689" y1="84.5028" x2="232.266" y2="107.996" gradientUnits="userSpaceOnUse">
<stop stop-color="#FF4545"/>
<stop offset="1" stop-color="#D9D9D9"/>
</linearGradient>
<linearGradient id="paint30_linear_380_3199" x1="247" y1="139" x2="247" y2="153" gradientUnits="userSpaceOnUse">
<stop stop-color="#725D35"/>
<stop offset="1" stop-color="#42361E"/>
</linearGradient>
<linearGradient id="paint31_linear_380_3199" x1="247" y1="213" x2="247" y2="227" gradientUnits="userSpaceOnUse">
<stop stop-color="#725D35"/>
<stop offset="1" stop-color="#42361E"/>
</linearGradient>
<radialGradient id="paint32_radial_380_3199" cx="0" cy="0" r="1" gradientUnits="userSpaceOnUse" gradientTransform="translate(98.5 91.5) rotate(90) scale(12.5 9.5)">
<stop offset="0.6875" stop-opacity="0.43"/>
<stop offset="1" stop-opacity="0"/>
</radialGradient>
<linearGradient id="paint33_linear_380_3199" x1="96.1818" y1="88.2603" x2="108.761" y2="190.708" gradientUnits="userSpaceOnUse">
<stop stop-color="#565656"/>
<stop offset="1" stop-color="#2E2E2E"/>
</linearGradient>
<radialGradient id="paint34_radial_380_3199" cx="0" cy="0" r="1" gradientUnits="userSpaceOnUse" gradientTransform="translate(338.991 521.082) rotate(90) scale(7.5 27.5)">
<stop offset="0.6875" stop-opacity="0.43"/>
<stop offset="1" stop-opacity="0"/>
</radialGradient>
<radialGradient id="paint35_radial_380_3199" cx="0" cy="0" r="1" gradientUnits="userSpaceOnUse" gradientTransform="translate(260.991 512.081) rotate(90) scale(7.5 27.5)">
<stop offset="0.6875" stop-opacity="0.43"/>
<stop offset="1" stop-opacity="0"/>
</radialGradient>
<linearGradient id="paint36_linear_380_3199" x1="347.816" y1="513.642" x2="269.358" y2="506.778" gradientUnits="userSpaceOnUse">
<stop stop-color="#565656"/>
<stop offset="1" stop-color="#2E2E2E"/>
</linearGradient>
<radialGradient id="paint37_radial_380_3199" cx="0" cy="0" r="1" gradientUnits="userSpaceOnUse" gradientTransform="translate(18 8) rotate(97.7652) scale(22.2036)">
<stop stop-color="#D9D9D9"/>
<stop offset="1" stop-color="#2E2E2E"/>
</radialGradient>
<radialGradient id="paint38_radial_380_3199" cx="0" cy="0" r="1" gradientUnits="userSpaceOnUse" gradientTransform="translate(66.5 18) rotate(90) scale(18 66.5)">
<stop offset="0.6875" stop-opacity="0.43"/>
<stop offset="1" stop-opacity="0"/>
</radialGradient>
<linearGradient id="paint39_linear_380_3199" x1="58.6814" y1="199.916" x2="58.6814" y2="284.207" gradientUnits="userSpaceOnUse">
<stop stop-color="#BFBFBF"/>
<stop offset="1" stop-color="#565656"/>
</linearGradient>
<linearGradient id="paint40_linear_380_3199" x1="64.347" y1="198.463" x2="64.347" y2="284.207" gradientUnits="userSpaceOnUse">
<stop stop-color="#BFBFBF"/>
<stop offset="1" stop-color="#565656"/>
</linearGradient>
<linearGradient id="paint41_linear_380_3199" x1="82.5737" y1="293.488" x2="82.5737" y2="299.349" gradientUnits="userSpaceOnUse">
<stop stop-color="#6C6C6C"/>
<stop offset="1" stop-color="#565656"/>
</linearGradient>
<linearGradient id="paint42_linear_380_3199" x1="117.447" y1="287.627" x2="117.447" y2="312.244" gradientUnits="userSpaceOnUse">
<stop stop-color="#6C6C6C"/>
<stop offset="1" stop-color="#565656"/>
</linearGradient>
<linearGradient id="paint43_linear_380_3199" x1="53.2099" y1="257.142" x2="62.8865" y2="263.918" gradientUnits="userSpaceOnUse">
<stop stop-color="#D9D9D9"/>
<stop offset="1" stop-color="#6C6C6C"/>
</linearGradient>
<linearGradient id="paint44_linear_380_3199" x1="30.6865" y1="235.549" x2="30.6865" y2="324.2" gradientUnits="userSpaceOnUse">
<stop stop-color="#BFBFBF"/>
<stop offset="1" stop-color="#565656"/>
</linearGradient>
<linearGradient id="paint45_linear_380_3199" x1="52.5205" y1="205.565" x2="62.197" y2="212.341" gradientUnits="userSpaceOnUse">
<stop stop-color="#D9D9D9"/>
<stop offset="1" stop-color="#6C6C6C"/>
</linearGradient>
<linearGradient id="paint46_linear_380_3199" x1="36.3522" y1="238.456" x2="36.3522" y2="324.2" gradientUnits="userSpaceOnUse">
<stop stop-color="#BFBFBF"/>
<stop offset="1" stop-color="#565656"/>
</linearGradient>
</defs>
</svg>
