<svg width="70" height="84" viewBox="0 0 70 84" fill="none" xmlns="http://www.w3.org/2000/svg">
<ellipse cx="35" cy="72.242" rx="35" ry="11.242" fill="url(#paint0_radial_361_2944)"/>
<path d="M22 47.0001H29L22 72.7895H15L22 47.0001Z" fill="url(#paint1_linear_361_2944)"/>
<path d="M47 47.0001H40L47 72.7895H54L47 47.0001Z" fill="url(#paint2_linear_361_2944)"/>
<ellipse cx="35" cy="31" rx="25" ry="29" fill="url(#paint3_linear_361_2944)"/>
<ellipse cx="30" cy="29" rx="25" ry="29" fill="url(#paint4_linear_361_2944)"/>
<ellipse cx="29.9999" cy="29" rx="18.9655" ry="22" fill="url(#paint5_linear_361_2944)"/>
<ellipse cx="30" cy="29" rx="10.3448" ry="12" fill="url(#paint6_linear_361_2944)"/>
<path d="M6.00012 26.1873L27.0666 28.834" stroke="url(#paint7_linear_361_2944)" stroke-width="2" stroke-linecap="round"/>
<path fill-rule="evenodd" clip-rule="evenodd" d="M30.4982 27.763L28.2726 26.5691C27.6317 26.2253 26.8497 26.659 26.802 27.3847L26.6122 30.2726C26.5674 30.9542 27.204 31.4791 27.8645 31.3053L30.4982 30.6123L30.4982 27.763Z" fill="url(#paint8_linear_361_2944)"/>
<path d="M15 43.3387L36.2317 43.2131" stroke="url(#paint9_linear_361_2944)" stroke-width="2" stroke-linecap="round"/>
<path fill-rule="evenodd" clip-rule="evenodd" d="M39.4942 41.7032L37.1318 40.8101C36.4515 40.5529 35.7329 41.0849 35.7803 41.8107L35.9691 44.6986C36.0136 45.3802 36.7132 45.8175 37.3454 45.559L39.8662 44.5282L39.4942 41.7032Z" fill="url(#paint10_linear_361_2944)"/>
<defs>
<radialGradient id="paint0_radial_361_2944" cx="0" cy="0" r="1" gradientUnits="userSpaceOnUse" gradientTransform="translate(35 72.242) rotate(90) scale(11.242 35)">
<stop offset="0.6875" stop-color="#725B2F"/>
<stop offset="1" stop-color="#725D35" stop-opacity="0"/>
</radialGradient>
<linearGradient id="paint1_linear_361_2944" x1="18.5" y1="37.7896" x2="18.5" y2="72.7896" gradientUnits="userSpaceOnUse">
<stop stop-color="#7B4949"/>
<stop offset="1" stop-color="#42361E"/>
</linearGradient>
<linearGradient id="paint2_linear_361_2944" x1="50.5" y1="37.7896" x2="50.5" y2="72.7896" gradientUnits="userSpaceOnUse">
<stop stop-color="#7B4949"/>
<stop offset="1" stop-color="#42361E"/>
</linearGradient>
<linearGradient id="paint3_linear_361_2944" x1="35" y1="2" x2="35" y2="60" gradientUnits="userSpaceOnUse">
<stop stop-color="#725D35"/>
<stop offset="1" stop-color="#7B4949"/>
</linearGradient>
<linearGradient id="paint4_linear_361_2944" x1="30" y1="0" x2="30" y2="58" gradientUnits="userSpaceOnUse">
<stop stop-color="white"/>
<stop offset="1" stop-color="#D9D9D9"/>
</linearGradient>
<linearGradient id="paint5_linear_361_2944" x1="29.9999" y1="7" x2="29.9999" y2="51" gradientUnits="userSpaceOnUse">
<stop stop-color="#FF0000"/>
<stop offset="1" stop-color="#DB3030"/>
</linearGradient>
<linearGradient id="paint6_linear_361_2944" x1="30" y1="17" x2="30" y2="41" gradientUnits="userSpaceOnUse">
<stop stop-color="white"/>
<stop offset="1" stop-color="#D9D9D9"/>
</linearGradient>
<linearGradient id="paint7_linear_361_2944" x1="23.0926" y1="28.5295" x2="22.8619" y2="29.7167" gradientUnits="userSpaceOnUse">
<stop stop-color="#9D8555"/>
<stop offset="1" stop-color="#443105"/>
</linearGradient>
<linearGradient id="paint8_linear_361_2944" x1="30.8295" y1="27.3099" x2="26.5521" y2="31.2309" gradientUnits="userSpaceOnUse">
<stop stop-color="white"/>
<stop offset="1" stop-color="#565656"/>
</linearGradient>
<linearGradient id="paint9_linear_361_2944" x1="32.2519" y1="43.43" x2="32.1782" y2="44.6371" gradientUnits="userSpaceOnUse">
<stop stop-color="#9D8555"/>
<stop offset="1" stop-color="#443105"/>
</linearGradient>
<linearGradient id="paint10_linear_361_2944" x1="39.7636" y1="41.2108" x2="36.0345" y2="45.6566" gradientUnits="userSpaceOnUse">
<stop stop-color="white"/>
<stop offset="1" stop-color="#565656"/>
</linearGradient>
</defs>
</svg>
