<svg width="100" height="99" viewBox="0 0 100 99" fill="none" xmlns="http://www.w3.org/2000/svg">
<ellipse cx="49.0169" cy="18.3075" rx="49.0169" ry="18.3075" transform="matrix(-1 0 0 1 98.4316 62.1979)" fill="url(#paint0_radial_373_2950)"/>
<rect width="75.5924" height="21.2604" transform="matrix(-1 0 0 1 86.6201 61.0168)" fill="url(#paint1_linear_373_2950)"/>
<path d="M79.5333 42.7092H25.2013L11.0277 61.0168H86.6201L79.5333 42.7092Z" fill="#D9D9D9"/>
<ellipse cx="24.8038" cy="11.2207" rx="24.8038" ry="11.2207" transform="matrix(-1 0 0 1 75.99 42.1187)" fill="url(#paint2_radial_373_2950)"/>
<path fill-rule="evenodd" clip-rule="evenodd" d="M80.3686 15.4873L83.2477 18.549C83.7156 19.0466 84.5336 18.9391 84.857 18.3374L93.3897 2.4631C93.8197 1.6631 93.0466 0.750393 92.1867 1.04294L74.4131 7.09014C73.7245 7.32441 73.5084 8.19203 74.0067 8.72189L76.9374 11.8384L65.9323 21.0202C60.4546 15.4722 53.5625 12.6405 48.129 11.1753C45.118 10.3634 42.4442 9.94081 40.5133 9.71994C39.545 9.60918 38.7558 9.54825 38.1949 9.51477C37.9142 9.49802 37.6901 9.4881 37.5287 9.48226C37.4479 9.47934 37.3828 9.47743 37.3341 9.4762L37.2733 9.47482L37.2523 9.47442L37.2441 9.47428L37.2406 9.47423C37.2393 9.47421 37.2381 9.47419 37.1998 12.0327L37.1997 12.0328L37.2376 9.47418C34.7526 9.43741 32.7083 11.4221 32.6715 13.9071C32.644 15.7675 33.7493 17.3808 35.3494 18.0898L29.1137 52.1674L28.5823 55.0712L31.534 55.1171L67.5606 55.6777C67.9711 57.5233 69.5257 58.9807 71.5097 59.1777C73.9829 59.4232 76.1867 57.6173 76.4322 55.1442L73.9469 54.8975L73.947 54.8974C76.4323 55.1437 76.4324 55.1425 76.4325 55.1413L76.4328 55.1381L76.4336 55.1303L76.4356 55.1099L76.4411 55.0497C76.4454 55.001 76.4511 54.9354 76.4576 54.8535C76.4706 54.6898 76.487 54.4611 76.5036 54.1733C76.5368 53.598 76.5706 52.7844 76.5781 51.7808C76.593 49.7791 76.5034 46.9913 76.0848 43.8128C75.3489 38.2248 73.5452 31.038 69.1463 24.8504L80.3686 15.4873ZM45.7857 19.8649C43.6999 19.3024 41.8032 18.9651 40.3091 18.7637L35.2051 46.6565L58.9871 26.8147C55.128 23.1619 50.1982 21.0548 45.7857 19.8649ZM67.1619 44.9878C66.5466 40.3159 65.1369 35.0345 62.2066 30.6403L38.7287 50.2284L67.5745 50.6773C67.5517 49.1166 67.4475 47.1566 67.1619 44.9878Z" fill="url(#paint3_linear_373_2950)"/>
<defs>
<radialGradient id="paint0_radial_373_2950" cx="0" cy="0" r="1" gradientUnits="userSpaceOnUse" gradientTransform="translate(49.0169 18.3075) rotate(90) scale(18.3075 49.0169)">
<stop offset="0.6875" stop-opacity="0.43"/>
<stop offset="1" stop-opacity="0"/>
</radialGradient>
<linearGradient id="paint1_linear_373_2950" x1="37.7962" y1="0" x2="37.7962" y2="21.2604" gradientUnits="userSpaceOnUse">
<stop stop-color="#D9D9D9"/>
<stop offset="1" stop-color="#6C6C6C"/>
</linearGradient>
<radialGradient id="paint2_radial_373_2950" cx="0" cy="0" r="1" gradientUnits="userSpaceOnUse" gradientTransform="translate(24.8038 11.2207) rotate(90) scale(11.2207 24.8038)">
<stop offset="0.6875" stop-opacity="0.43"/>
<stop offset="1" stop-opacity="0"/>
</radialGradient>
<linearGradient id="paint3_linear_373_2950" x1="43.8653" y1="13.4259" x2="60.3587" y2="61.5317" gradientUnits="userSpaceOnUse">
<stop stop-color="white"/>
<stop offset="1" stop-color="#8E8E8E"/>
</linearGradient>
</defs>
</svg>
