<svg width="47" height="97" viewBox="0 0 47 97" fill="none" xmlns="http://www.w3.org/2000/svg">
<rect width="47" height="63" fill="#725D35"/>
<rect x="4" y="35" width="39" height="24" fill="url(#paint0_linear_373_2919)"/>
<rect x="4" y="4" width="39" height="31" fill="url(#paint1_radial_373_2919)"/>
<ellipse cx="23.5" cy="44.5" rx="19.5" ry="9.5" fill="url(#paint2_radial_373_2919)"/>
<path d="M37.6215 28.3939L34.6255 45.1795C34.6255 45.1795 30.4311 43.5476 24.7388 43.5476C19.0464 43.5476 13.6537 45.1795 13.6537 45.1795L10.6577 28.3939C21.331 31.6262 27.3264 31.6453 37.6215 28.3939Z" fill="url(#paint3_linear_373_2919)" stroke="#725D35" stroke-width="2"/>
<path fill-rule="evenodd" clip-rule="evenodd" d="M23.153 31.04H18.5495V16.272C18.5495 15.0689 19.4264 14 20.8513 14H23.153V31.04ZM30.3872 31.2943H35.6485C35.6485 31.2943 35.1067 26.9815 35.6485 24.1133C36.1741 21.3306 38.2791 16.9323 38.2791 16.9323C38.2791 16.9323 36.7852 16.6105 35.8129 16.4834C34.1943 16.272 32.8276 17.3862 32.3421 18.828C31.8565 20.2698 31.3204 22.0193 31.0449 23.4401C30.467 26.4197 30.3872 31.2943 30.3872 31.2943ZM17.8918 31.2943H12.6306C12.6306 31.2943 13.1724 27.4128 12.6306 24.8314C12.105 22.327 10 18.3685 10 18.3685C10 18.3685 11.5711 17.9645 12.4662 17.9646C14.0599 17.9646 15.3993 18.6461 15.8955 19.964C16.3917 21.2819 16.9508 22.9103 17.2342 24.2255C17.812 26.9072 17.8918 31.2943 17.8918 31.2943ZM23.8108 31.04H28.4144C28.4144 31.04 29.4729 26.5945 29.7297 23.6645C29.8642 22.1295 30.0383 19.9692 30.1736 18.2601C30.3088 16.5509 29.1671 15.526 28.0856 15.526H25.7838C25.7838 15.526 25.7118 20.4802 25.4549 23.4102C25.1981 26.3402 23.8108 31.04 23.8108 31.04Z" fill="url(#paint4_linear_373_2919)"/>
<path d="M18.5495 31.04H17.5495V32.04H18.5495V31.04ZM23.153 31.04V32.04H24.153V31.04H23.153ZM18.5495 16.272H19.5495V16.272L18.5495 16.272ZM20.8513 14V13H20.8512L20.8513 14ZM23.153 14H24.153V13H23.153V14ZM35.6485 31.2943V32.2943H36.7819L36.6407 31.1696L35.6485 31.2943ZM30.3872 31.2943L29.3874 31.2779L29.3707 32.2943H30.3872V31.2943ZM35.6485 24.1133L36.6311 24.2989L35.6485 24.1133ZM38.2791 16.9323L39.1811 17.364L39.7279 16.2214L38.4897 15.9547L38.2791 16.9323ZM35.8129 16.4834L35.6833 17.475L35.8129 16.4834ZM32.3421 18.828L33.2898 19.1472V19.1472L32.3421 18.828ZM31.0449 23.4401L30.0632 23.2497V23.2497L31.0449 23.4401ZM12.6306 31.2943L11.6402 31.1561L11.4813 32.2943H12.6306V31.2943ZM17.8918 31.2943V32.2943H18.9102L18.8917 31.2761L17.8918 31.2943ZM12.6306 24.8314L11.6519 25.0368L12.6306 24.8314ZM10 18.3685L9.75099 17.4L8.52061 17.7163L9.11707 18.838L10 18.3685ZM12.4662 17.9646L12.4662 18.9646H12.4662L12.4662 17.9646ZM15.8955 19.964L16.8314 19.6117V19.6117L15.8955 19.964ZM17.2342 24.2255L18.2117 24.0148L17.2342 24.2255ZM28.4144 31.04V32.04H29.2042L29.3872 31.2716L28.4144 31.04ZM23.8108 31.04L22.8517 30.7569L22.473 32.04H23.8108V31.04ZM29.7297 23.6645L30.7259 23.7518V23.7518L29.7297 23.6645ZM30.1736 18.2601L29.1767 18.1812L30.1736 18.2601ZM28.0856 15.526L28.0856 14.526H28.0856V15.526ZM25.7838 15.526V14.526H24.7982L24.7839 15.5115L25.7838 15.526ZM25.4549 23.4102L24.4588 23.3229L25.4549 23.4102ZM18.5495 32.04H23.153V30.04H18.5495V32.04ZM17.5495 16.272V31.04H19.5495V16.272H17.5495ZM20.8512 13C18.8278 13 17.5494 14.5641 17.5495 16.272L19.5495 16.272C19.5495 15.5737 20.025 15 20.8513 15L20.8512 13ZM23.153 13H20.8513V15H23.153V13ZM24.153 31.04V14H22.153V31.04H24.153ZM35.6485 30.2943H30.3872V32.2943H35.6485V30.2943ZM34.6658 23.9277C34.3725 25.4808 34.3778 27.3716 34.4464 28.8265C34.4812 29.5638 34.5332 30.2085 34.5767 30.6694C34.5984 30.9002 34.6181 31.0855 34.6324 31.2141C34.6395 31.2784 34.6454 31.3285 34.6495 31.3631C34.6515 31.3804 34.6532 31.3939 34.6543 31.4032C34.6549 31.4079 34.6553 31.4116 34.6557 31.4142C34.6558 31.4155 34.656 31.4166 34.6561 31.4173C34.6561 31.4177 34.6562 31.4181 34.6562 31.4183C34.6562 31.4185 34.6562 31.4186 34.6562 31.4187C34.6562 31.4188 34.6563 31.4189 35.6485 31.2943C36.6407 31.1696 36.6407 31.1697 36.6407 31.1698C36.6407 31.1698 36.6407 31.1699 36.6407 31.1699C36.6407 31.1699 36.6407 31.1698 36.6407 31.1697C36.6406 31.1694 36.6406 31.1689 36.6405 31.1681C36.6403 31.1666 36.64 31.164 36.6395 31.1605C36.6387 31.1533 36.6373 31.1422 36.6355 31.1272C36.632 31.0972 36.6267 31.0519 36.6201 30.9927C36.6069 30.8742 36.5884 30.7002 36.5679 30.4818C36.5266 30.0445 36.4772 29.4317 36.4442 28.7323C36.3773 27.3137 36.3827 25.614 36.6311 24.2989L34.6658 23.9277ZM38.2791 16.9323C37.3771 16.5006 37.377 16.5006 37.377 16.5007C37.3769 16.5008 37.3769 16.5009 37.3768 16.501C37.3767 16.5013 37.3766 16.5015 37.3764 16.5019C37.3761 16.5026 37.3756 16.5036 37.375 16.5048C37.3738 16.5073 37.3721 16.5108 37.37 16.5154C37.3656 16.5246 37.3593 16.5378 37.3512 16.555C37.3349 16.5895 37.3113 16.6397 37.2812 16.7043C37.221 16.8333 37.135 17.0198 37.0304 17.2519C36.8212 17.7157 36.5368 18.3636 36.2353 19.1007C35.6408 20.5543 34.9488 22.4296 34.6658 23.9277L36.6311 24.2989C36.8737 23.0143 37.497 21.2991 38.0865 19.8578C38.3769 19.1475 38.6516 18.5219 38.8535 18.0741C38.9544 17.8503 39.037 17.6715 39.094 17.5491C39.1225 17.488 39.1446 17.441 39.1594 17.4096C39.1668 17.394 39.1724 17.3822 39.1761 17.3745C39.1779 17.3707 39.1792 17.3679 39.1801 17.3661C39.1805 17.3652 39.1808 17.3646 39.181 17.3642C39.181 17.3641 39.1811 17.3639 39.1811 17.3639C39.1811 17.3639 39.1811 17.3639 39.1811 17.3639C39.1811 17.3639 39.1811 17.364 38.2791 16.9323ZM35.6833 17.475C36.1371 17.5343 36.7284 17.6415 37.2196 17.7371C37.4623 17.7843 37.6754 17.8277 37.8277 17.8592C37.9037 17.875 37.9645 17.8877 38.0059 17.8965C38.0267 17.9009 38.0426 17.9043 38.0532 17.9066C38.0585 17.9077 38.0624 17.9085 38.065 17.9091C38.0663 17.9094 38.0672 17.9096 38.0678 17.9097C38.0681 17.9098 38.0683 17.9098 38.0684 17.9098C38.0685 17.9098 38.0685 17.9098 38.0685 17.9098C38.0685 17.9098 38.0685 17.9098 38.0685 17.9098C38.0685 17.9098 38.0685 17.9098 38.2791 16.9323C38.4897 15.9547 38.4896 15.9547 38.4896 15.9547C38.4896 15.9547 38.4895 15.9547 38.4895 15.9547C38.4894 15.9546 38.4893 15.9546 38.4892 15.9546C38.4889 15.9545 38.4886 15.9545 38.4882 15.9544C38.4873 15.9542 38.4861 15.9539 38.4845 15.9536C38.4814 15.9529 38.4768 15.9519 38.471 15.9507C38.4592 15.9482 38.4421 15.9445 38.42 15.9399C38.376 15.9305 38.3124 15.9172 38.2333 15.9008C38.0751 15.868 37.8539 15.823 37.6016 15.7739C37.1028 15.6768 36.461 15.5596 35.9424 15.4919L35.6833 17.475ZM33.2898 19.1472C33.6587 18.0517 34.6415 17.3389 35.6833 17.475L35.9424 15.4919C33.7472 15.2051 31.9965 16.7208 31.3944 18.5088L33.2898 19.1472ZM32.0266 23.6305C32.2889 22.2778 32.8073 20.5799 33.2898 19.1472L31.3944 18.5088C30.9058 19.9596 30.3519 21.7609 30.0632 23.2497L32.0266 23.6305ZM30.3872 31.2943C31.3871 31.3107 31.3871 31.3107 31.3871 31.3107C31.3871 31.3107 31.3871 31.3107 31.3871 31.3106C31.3871 31.3106 31.3871 31.3104 31.3871 31.3102C31.3871 31.3097 31.3871 31.309 31.3871 31.308C31.3872 31.3059 31.3872 31.3027 31.3873 31.2983C31.3875 31.2896 31.3877 31.2763 31.3881 31.2587C31.3888 31.2235 31.3899 31.171 31.3915 31.1028C31.3948 30.9664 31.4 30.7673 31.4082 30.5188C31.4245 30.0216 31.4522 29.3277 31.4977 28.5424C31.5895 26.9585 31.7511 25.0509 32.0266 23.6304L30.0632 23.2497C29.7608 24.8089 29.5936 26.8284 29.501 28.4267C29.4544 29.2324 29.426 29.9435 29.4093 30.4533C29.4009 30.7084 29.3955 30.9134 29.3921 31.0552C29.3904 31.1261 29.3892 31.1812 29.3885 31.2189C29.3881 31.2377 29.3878 31.2522 29.3876 31.2621C29.3876 31.2671 29.3875 31.2709 29.3874 31.2735C29.3874 31.2748 29.3874 31.2759 29.3874 31.2766C29.3874 31.277 29.3874 31.2773 29.3874 31.2775C29.3874 31.2776 29.3874 31.2777 29.3874 31.2778C29.3874 31.2779 29.3874 31.2779 30.3872 31.2943ZM12.6306 32.2943H17.8918V30.2943H12.6306V32.2943ZM11.6519 25.0368C11.8953 26.1962 11.9018 27.7059 11.8351 28.9786C11.8024 29.6041 11.7532 30.1522 11.7122 30.5434C11.6918 30.7386 11.6735 30.8941 11.6604 30.9997C11.6539 31.0525 11.6487 31.0927 11.6452 31.1192C11.6434 31.1325 11.6421 31.1423 11.6413 31.1485C11.6408 31.1516 11.6405 31.1538 11.6404 31.155C11.6403 31.1557 11.6402 31.1561 11.6402 31.1562C11.6402 31.1563 11.6402 31.1564 11.6402 31.1563C11.6402 31.1563 11.6402 31.1563 11.6402 31.1562C11.6402 31.1562 11.6402 31.1561 12.6306 31.2943C13.621 31.4326 13.621 31.4324 13.621 31.4323C13.6211 31.4322 13.6211 31.4321 13.6211 31.4319C13.6211 31.4317 13.6212 31.4313 13.6212 31.431C13.6213 31.4302 13.6215 31.4292 13.6216 31.4279C13.622 31.4255 13.6225 31.4221 13.623 31.4177C13.6242 31.4091 13.6259 31.3968 13.628 31.381C13.6321 31.3493 13.638 31.3037 13.6453 31.2453C13.6597 31.1285 13.6795 30.9606 13.7014 30.7516C13.7451 30.3343 13.7974 29.7507 13.8324 29.0832C13.9012 27.7698 13.9077 26.0481 13.6093 24.626L11.6519 25.0368ZM10 18.3685C9.11707 18.838 9.11705 18.8379 9.11702 18.8379C9.11703 18.8379 9.11702 18.8379 9.11702 18.8379C9.11704 18.8379 9.11709 18.838 9.11716 18.8382C9.11732 18.8385 9.11761 18.839 9.11801 18.8398C9.11883 18.8413 9.12014 18.8438 9.12194 18.8472C9.12553 18.854 9.13106 18.8645 9.13841 18.8785C9.15312 18.9065 9.1751 18.9485 9.20348 19.0033C9.26024 19.1129 9.34249 19.2734 9.44307 19.4741C9.64445 19.876 9.91827 20.4373 10.2078 21.0745C10.7972 22.3716 11.4136 23.901 11.6519 25.0368L13.6093 24.626C13.322 23.2573 12.6231 21.5553 12.0286 20.2471C11.7262 19.5815 11.4409 18.9967 11.2312 18.5782C11.1262 18.3687 11.0399 18.2003 10.9795 18.0836C10.9493 18.0253 10.9255 17.9798 10.9091 17.9486C10.9009 17.933 10.8946 17.921 10.8902 17.9126C10.888 17.9085 10.8863 17.9052 10.885 17.903C10.8844 17.9018 10.884 17.9009 10.8836 17.9002C10.8834 17.8999 10.8833 17.8996 10.8832 17.8994C10.8831 17.8993 10.8831 17.8992 10.883 17.8992C10.883 17.8991 10.8829 17.899 10 18.3685ZM12.4662 16.9646C11.9108 16.9645 11.2092 17.0843 10.7012 17.186C10.4355 17.2391 10.2 17.2921 10.0309 17.3318C9.94609 17.3518 9.87745 17.3684 9.82941 17.3803C9.80538 17.3863 9.78646 17.391 9.77321 17.3943C9.76659 17.396 9.76138 17.3973 9.75765 17.3983C9.75579 17.3988 9.7543 17.3991 9.75318 17.3994C9.75263 17.3996 9.75216 17.3997 9.7518 17.3998C9.75162 17.3998 9.75146 17.3999 9.75132 17.3999C9.75125 17.3999 9.75117 17.3999 9.75114 17.3999C9.75106 17.4 9.75099 17.4 10 18.3685C10.249 19.337 10.249 19.337 10.2489 19.337C10.2489 19.337 10.2488 19.337 10.2488 19.337C10.2488 19.337 10.2488 19.337 10.2488 19.337C10.2488 19.337 10.2489 19.337 10.2491 19.337C10.2495 19.3369 10.2503 19.3367 10.2514 19.3364C10.2537 19.3358 10.2574 19.3348 10.2625 19.3336C10.2727 19.331 10.2884 19.327 10.3091 19.3219C10.3505 19.3117 10.4116 19.2969 10.4881 19.2789C10.6415 19.2429 10.8547 19.1949 11.0936 19.1471C11.595 19.0468 12.1265 18.9646 12.4662 18.9646L12.4662 16.9646ZM16.8314 19.6117C16.1389 17.7724 14.3152 16.9646 12.4662 16.9646L12.4662 18.9646C13.8046 18.9646 14.6597 19.5198 14.9596 20.3164L16.8314 19.6117ZM18.2117 24.0148C17.912 22.6238 17.3308 20.9382 16.8314 19.6117L14.9596 20.3164C15.4525 21.6256 15.9895 23.1967 16.2566 24.4362L18.2117 24.0148ZM17.8918 31.2943C18.8917 31.2761 18.8917 31.2761 18.8917 31.276C18.8917 31.2759 18.8917 31.2758 18.8917 31.2757C18.8917 31.2755 18.8917 31.2752 18.8916 31.2749C18.8916 31.2742 18.8916 31.2732 18.8916 31.272C18.8915 31.2695 18.8915 31.2661 18.8914 31.2615C18.8912 31.2525 18.8909 31.2393 18.8906 31.2223C18.8898 31.1881 18.8886 31.1382 18.8869 31.0741C18.8835 30.9459 18.8781 30.7608 18.8697 30.5305C18.8529 30.0703 18.8245 29.4286 18.7776 28.7013C18.6849 27.2611 18.5171 25.4321 18.2117 24.0148L16.2566 24.4362C16.5291 25.7006 16.6901 27.4059 16.7818 28.8298C16.8271 29.5345 16.8547 30.1571 16.871 30.6033C16.8791 30.8263 16.8844 31.0048 16.8876 31.127C16.8892 31.1881 16.8903 31.2351 16.891 31.2665C16.8914 31.2822 16.8916 31.294 16.8918 31.3018C16.8919 31.3056 16.8919 31.3085 16.892 31.3103C16.892 31.3112 16.892 31.3118 16.892 31.3122C16.892 31.3124 16.892 31.3125 16.892 31.3125C16.892 31.3126 16.892 31.3125 16.892 31.3126C16.892 31.3125 16.892 31.3125 17.8918 31.2943ZM28.4144 30.04H23.8108V32.04H28.4144V30.04ZM28.7335 23.5772C28.6102 24.9844 28.2906 26.7834 27.9953 28.2541C27.8486 28.9844 27.7099 29.6245 27.6078 30.0818C27.5568 30.3103 27.515 30.4929 27.4861 30.6179C27.4716 30.6804 27.4604 30.7285 27.4528 30.7607C27.449 30.7768 27.4462 30.789 27.4443 30.797C27.4433 30.801 27.4426 30.804 27.4422 30.8059C27.4419 30.8068 27.4418 30.8075 27.4417 30.8079C27.4416 30.8081 27.4416 30.8083 27.4416 30.8084C27.4416 30.8084 27.4416 30.8084 27.4416 30.8084C27.4416 30.8084 27.4416 30.8084 28.4144 31.04C29.3872 31.2716 29.3872 31.2716 29.3872 31.2715C29.3872 31.2715 29.3873 31.2714 29.3873 31.2713C29.3873 31.2711 29.3874 31.2708 29.3875 31.2705C29.3876 31.2698 29.3878 31.2689 29.3881 31.2677C29.3887 31.2653 29.3895 31.2618 29.3906 31.2573C29.3927 31.2483 29.3958 31.2352 29.3998 31.218C29.4079 31.1837 29.4197 31.1334 29.4346 31.0687C29.4646 30.9391 29.5075 30.7515 29.5598 30.5175C29.6642 30.0496 29.8061 29.3952 29.9562 28.6479C30.2543 27.1633 30.5924 25.2746 30.7259 23.7518L28.7335 23.5772ZM29.1767 18.1812C29.0414 19.8902 28.8677 22.0468 28.7335 23.5772L30.7259 23.7518C30.8608 22.2123 31.0352 20.0482 31.1704 18.3389L29.1767 18.1812ZM28.0856 16.526C28.514 16.526 29.2716 16.9817 29.1767 18.1812L31.1704 18.3389C31.346 16.12 29.8201 14.526 28.0856 14.526L28.0856 16.526ZM25.7838 16.526H28.0856V14.526H25.7838V16.526ZM26.4511 23.4975C26.5822 22.0025 26.665 20.0076 26.7152 18.4006C26.7404 17.594 26.7575 16.8797 26.7683 16.367C26.7737 16.1105 26.7775 15.9044 26.78 15.7621C26.7813 15.691 26.7822 15.6358 26.7828 15.5983C26.7831 15.5796 26.7833 15.5652 26.7834 15.5555C26.7835 15.5507 26.7836 15.547 26.7836 15.5445C26.7836 15.5432 26.7836 15.5423 26.7836 15.5416C26.7837 15.5413 26.7837 15.541 26.7837 15.5409C26.7837 15.5408 26.7837 15.5407 26.7837 15.5407C26.7837 15.5406 26.7837 15.5406 25.7838 15.526C24.7839 15.5115 24.7839 15.5115 24.7839 15.5115C24.7839 15.5115 24.7839 15.5116 24.7839 15.5116C24.7839 15.5118 24.7839 15.512 24.7839 15.5122C24.7839 15.5128 24.7838 15.5136 24.7838 15.5148C24.7838 15.517 24.7837 15.5205 24.7837 15.5251C24.7835 15.5343 24.7833 15.5482 24.783 15.5664C24.7824 15.6029 24.7816 15.6571 24.7803 15.7271C24.7779 15.8672 24.7741 16.071 24.7687 16.3248C24.758 16.8325 24.7411 17.5399 24.7162 18.3382C24.6661 19.9407 24.5846 21.8879 24.4588 23.3229L26.4511 23.4975ZM23.8108 31.04C24.7699 31.3231 24.7699 31.323 24.77 31.323C24.77 31.3229 24.77 31.3228 24.77 31.3227C24.7701 31.3225 24.7702 31.3222 24.7703 31.3218C24.7705 31.3211 24.7708 31.3201 24.7712 31.3188C24.7719 31.3162 24.773 31.3125 24.7744 31.3077C24.7772 31.2981 24.7813 31.2841 24.7866 31.2659C24.7972 31.2294 24.8127 31.1762 24.8323 31.1076C24.8715 30.9705 24.9276 30.7723 24.9956 30.5256C25.1316 30.0325 25.3155 29.3443 25.5076 28.5626C25.8881 27.015 26.3155 25.0442 26.4511 23.4975L24.4588 23.3229C24.3375 24.7061 23.9428 26.5503 23.5655 28.0851C23.3787 28.8446 23.1998 29.5144 23.0675 29.9941C23.0015 30.2338 22.9472 30.4257 22.9096 30.5571C22.8907 30.6228 22.8761 30.6733 22.8663 30.7071C22.8613 30.7241 22.8576 30.7368 22.8552 30.7452C22.8539 30.7493 22.853 30.7524 22.8525 30.7544C22.8522 30.7554 22.852 30.7561 22.8518 30.7565C22.8518 30.7567 22.8517 30.7569 22.8517 30.7569C22.8517 30.757 22.8517 30.757 22.8517 30.757C22.8517 30.7569 22.8517 30.7569 23.8108 31.04Z" fill="#725D35"/>
<path d="M8.5 97L0 63H47L39.5 97H8.5Z" fill="url(#paint5_linear_373_2919)"/>
<defs>
<linearGradient id="paint0_linear_373_2919" x1="23.5" y1="35" x2="23.5" y2="59" gradientUnits="userSpaceOnUse">
<stop stop-color="#8D7443"/>
<stop offset="1" stop-color="#9D8555"/>
</linearGradient>
<radialGradient id="paint1_radial_373_2919" cx="0" cy="0" r="1" gradientUnits="userSpaceOnUse" gradientTransform="translate(30.5 20.5) rotate(141.582) scale(18.5068 23.2827)">
<stop stop-color="#FDDC9B"/>
<stop offset="1" stop-color="#D6AE60"/>
</radialGradient>
<radialGradient id="paint2_radial_373_2919" cx="0" cy="0" r="1" gradientUnits="userSpaceOnUse" gradientTransform="translate(23.5 44.5) rotate(90) scale(9.5 19.5)">
<stop offset="0.6875" stop-opacity="0.43"/>
<stop offset="1" stop-opacity="0"/>
</radialGradient>
<linearGradient id="paint3_linear_373_2919" x1="24.1396" y1="28.3939" x2="24.1396" y2="45.1795" gradientUnits="userSpaceOnUse">
<stop offset="0.280258" stop-color="#FF4545"/>
<stop offset="1" stop-color="#FFC645"/>
</linearGradient>
<linearGradient id="paint4_linear_373_2919" x1="34.662" y1="13.4913" x2="27.7462" y2="27.3364" gradientUnits="userSpaceOnUse">
<stop stop-color="#FFF2D9"/>
<stop offset="1" stop-color="#FFC645"/>
</linearGradient>
<linearGradient id="paint5_linear_373_2919" x1="23.5" y1="63" x2="24" y2="95" gradientUnits="userSpaceOnUse">
<stop stop-opacity="0.26"/>
<stop offset="1" stop-opacity="0"/>
</linearGradient>
</defs>
</svg>
