<svg width="83" height="85" viewBox="0 0 83 85" fill="none" xmlns="http://www.w3.org/2000/svg">
<ellipse cx="40.8816" cy="13.1311" rx="40.8816" ry="13.1311" transform="matrix(-1 0 0 1 82.7632 57.8245)" fill="url(#paint0_radial_373_3145)"/>
<path d="M23.6858 32.206C23.1205 32.8117 22.1713 32.8444 21.5657 32.2791C20.9601 31.7139 20.9273 30.7647 21.4926 30.1591L23.6858 32.206ZM40.8209 33.6211C37.6941 30.4943 34.7738 28.7051 32.0493 28.3646C29.4388 28.0383 26.6717 29.0068 23.6858 32.206L21.4926 30.1591C24.9374 26.4682 28.6011 24.9103 32.4214 25.3878C36.1278 25.851 39.6383 28.1959 42.9422 31.4997L40.8209 33.6211Z" fill="#42361E"/>
<path d="M17.1819 58.5644L18.6104 58.1069L17.1819 58.5644C15.9526 54.7266 16.8395 48.6678 20.2702 43.4921C23.7663 38.2178 29.9463 33.7713 39.4183 33.2331L39.5034 34.7307L39.4183 33.2331C39.721 33.2159 40.2001 33.0539 40.89 32.5861C41.562 32.1305 42.3094 31.471 43.131 30.6499C44.1163 29.6651 45.0809 28.585 46.0859 27.4595C46.8198 26.6378 47.5753 25.7918 48.3762 24.9411C52.6578 20.3933 56.5396 18.2946 60.1208 17.7858C63.7071 17.2761 66.7258 18.4002 69.1794 19.7375C71.7311 21.1282 74.1689 23.2591 75.6156 26.9548C77.0411 30.5966 77.4434 35.6039 76.2879 42.6505C74.3513 54.4615 62.7168 74.3135 37.6136 73.1447C27.963 72.6952 19.5026 65.8098 17.1819 58.5644Z" fill="url(#paint1_linear_373_3145)" stroke="#725D35" stroke-width="3"/>
<circle cx="2.29672" cy="2.29672" r="2.29672" transform="matrix(-1 0 0 1 63.4707 35.7759)" fill="#725D35"/>
<circle cx="2.29672" cy="2.29672" r="2.29672" transform="matrix(-1 0 0 1 52.4465 33.0198)" fill="#725D35"/>
<path d="M44.1782 58.0683C37.2881 58.0683 34.0727 55.5277 30.8573 51.8529" stroke="#42361E" stroke-width="3" stroke-linecap="round"/>
<path d="M58.8938 44.3679C55.2811 47.2544 50.6508 46.0999 49.0884 41.9232" stroke="#725D35" stroke-width="3" stroke-linecap="round"/>
<path d="M17.6138 67.0114C17.6138 67.0114 28.5649 58.5312 31.2289 52.8777C33.0585 48.9948 33.3425 43.7522 33.0602 38.9914C32.674 32.4812 31.2289 26.8718 31.2289 26.8718C25.3379 26.3142 22.1123 25.8687 17.6138 22.9144C13.3383 25.7798 9.76011 26.152 3.43149 26.8718C3.43149 26.8718 2.33038 32.5414 2.00699 38.9914C1.7618 43.8818 1.96368 49.2208 3.43149 52.8777C5.47375 57.9659 17.6138 67.0114 17.6138 67.0114Z" fill="url(#paint2_linear_373_3145)"/>
<path d="M17.6138 67.0114C17.6138 67.0114 28.5649 58.5312 31.2289 52.8777C33.0585 48.9948 33.3425 43.7522 33.0602 38.9914M17.6138 67.0114C17.6138 67.0114 5.47375 57.9659 3.43149 52.8777C1.96368 49.2208 1.7618 43.8818 2.00699 38.9914M17.6138 67.0114V22.9144M17.6138 22.9144C13.3383 25.7798 9.76011 26.152 3.43149 26.8718C3.43149 26.8718 2.33038 32.5414 2.00699 38.9914M17.6138 22.9144C22.1123 25.8687 25.3379 26.3142 31.2289 26.8718C31.2289 26.8718 32.674 32.4812 33.0602 38.9914M33.0602 38.9914H2.00699" stroke="#535353" stroke-width="3"/>
<path d="M49.2153 20.8784L79.0726 31.9026C79.0726 31.9026 79.3846 28.9719 77.2352 24.5532C76.2079 22.4413 74.5334 19.614 72.1982 17.5068L73.1169 5L64.8487 14.6497C61.6883 14.7217 58.3675 15.882 56.1054 16.7443C51.1159 18.6465 49.2153 20.8784 49.2153 20.8784Z" fill="url(#paint3_linear_373_3145)"/>
<path d="M68.967 15.3662L67.1296 19.6641M68.967 15.3662C70.1573 15.8896 71.2341 16.6369 72.1982 17.5068M68.967 15.3662C67.7055 14.8115 66.2939 14.6168 64.8487 14.6497M77.2352 24.5532C79.3846 28.9719 79.0726 31.9026 79.0726 31.9026L49.2153 20.8784C49.2153 20.8784 51.1159 18.6465 56.1054 16.7443M77.2352 24.5532C73.7211 22.3793 70.4629 20.8495 67.1296 19.6641M77.2352 24.5532C76.2079 22.4413 74.5334 19.614 72.1982 17.5068M56.1054 16.7443C60.1101 17.5697 63.6605 18.4304 67.1296 19.6641M56.1054 16.7443C58.3675 15.882 61.6883 14.7217 64.8487 14.6497M72.1982 17.5068L73.1169 5L64.8487 14.6497" stroke="#535353" stroke-width="3"/>
<defs>
<radialGradient id="paint0_radial_373_3145" cx="0" cy="0" r="1" gradientUnits="userSpaceOnUse" gradientTransform="translate(40.8816 13.1311) rotate(90) scale(13.1311 40.8816)">
<stop offset="0.6875" stop-color="#725B2F"/>
<stop offset="1" stop-color="#725D35" stop-opacity="0"/>
</radialGradient>
<linearGradient id="paint1_linear_373_3145" x1="67.1657" y1="23.0245" x2="30.4365" y2="71.3259" gradientUnits="userSpaceOnUse">
<stop stop-color="#FFF2D9"/>
<stop offset="0.671875" stop-color="#FDDC9B"/>
<stop offset="1" stop-color="#D6AE60"/>
</linearGradient>
<linearGradient id="paint2_linear_373_3145" x1="19.0634" y1="22.6694" x2="1.45845" y2="62.5586" gradientUnits="userSpaceOnUse">
<stop stop-color="#C4C4C4"/>
<stop offset="0.177867" stop-color="white"/>
<stop offset="0.30223" stop-color="#C4C4C4"/>
<stop offset="0.969271" stop-color="#777777"/>
</linearGradient>
<linearGradient id="paint3_linear_373_3145" x1="66.6861" y1="16.4836" x2="61.1582" y2="26.85" gradientUnits="userSpaceOnUse">
<stop stop-color="#B5B5B5"/>
<stop offset="1" stop-color="#565656"/>
</linearGradient>
</defs>
</svg>
