<svg width="82" height="110" viewBox="0 0 82 110" fill="none" xmlns="http://www.w3.org/2000/svg">
<ellipse cx="40.8816" cy="95.9556" rx="40.8816" ry="13.1311" fill="url(#paint0_radial_373_3134)"/>
<path d="M59.0774 57.206C59.6427 57.8117 60.5919 57.8444 61.1975 57.2791C61.8031 56.7139 61.8358 55.7647 61.2706 55.1591L59.0774 57.206ZM41.9422 58.6211C45.0691 55.4943 47.9894 53.7051 50.7138 53.3646C53.3244 53.0383 56.0915 54.0068 59.0774 57.206L61.2706 55.1591C57.8258 51.4682 54.1621 49.9103 50.3418 50.3878C46.6354 50.851 43.1249 53.1959 39.8209 56.4997L41.9422 58.6211Z" fill="#42361E"/>
<path d="M43.3449 58.233L43.2601 59.7251L43.3449 58.233C43.0421 58.2158 42.5631 58.0538 41.8732 57.586C41.2012 57.1303 40.4537 56.4709 39.6322 55.6497C38.6469 54.665 37.6823 53.5849 36.6773 52.4594C35.9434 51.6376 35.1879 50.7917 34.387 49.941C30.1053 45.3931 26.2236 43.2945 22.6424 42.7856C19.056 42.276 16.0375 43.4001 13.5838 44.7374C11.0321 46.1281 8.59428 48.259 7.14762 51.9547C5.72205 55.5965 5.31978 60.6037 6.47526 67.6504C8.4119 79.4614 20.0464 99.3133 45.1496 98.1445C54.8002 97.6951 63.2606 90.8097 65.5813 83.5643C66.8106 79.7265 65.9237 73.6677 62.493 68.492C58.9969 63.2176 52.8169 58.7711 43.3449 58.233Z" fill="url(#paint1_linear_373_3134)" stroke="#725D35" stroke-width="3"/>
<circle cx="21.5892" cy="63.0726" r="2.29672" fill="#725D35"/>
<circle cx="32.6134" cy="60.3165" r="2.29672" fill="#725D35"/>
<path d="M38.585 83.0683C45.4751 83.0683 56.7846 79.1747 60 75.5" stroke="#42361E" stroke-width="3" stroke-linecap="round"/>
<path d="M23.8694 69.3679C27.4821 72.2544 32.1124 71.0999 33.6748 66.9232" stroke="#725D35" stroke-width="3" stroke-linecap="round"/>
<path d="M33.5479 45.8784L3.6906 56.9026C3.6906 56.9026 3.37862 53.9719 5.52799 49.5532C6.55525 47.4413 8.22977 44.614 10.565 42.5068L9.64627 30L17.9144 39.6497C21.0749 39.7217 24.3957 40.882 26.6578 41.7443C31.6473 43.6465 33.5479 45.8784 33.5479 45.8784Z" fill="url(#paint2_linear_373_3134)"/>
<path d="M13.7961 40.3662L15.6335 44.6641M13.7961 40.3662C12.6058 40.8896 11.5291 41.6369 10.565 42.5068M13.7961 40.3662C15.0577 39.8115 16.4693 39.6168 17.9144 39.6497M5.52799 49.5532C3.37862 53.9719 3.6906 56.9026 3.6906 56.9026L33.5479 45.8784C33.5479 45.8784 31.6473 43.6465 26.6578 41.7443M5.52799 49.5532C9.04212 47.3793 12.3003 45.8495 15.6335 44.6641M5.52799 49.5532C6.55525 47.4413 8.22977 44.614 10.565 42.5068M26.6578 41.7443C22.653 42.5697 19.1027 43.4304 15.6335 44.6641M26.6578 41.7443C24.3957 40.882 21.0749 39.7217 17.9144 39.6497M10.565 42.5068L9.64627 30L17.9144 39.6497" stroke="#535353" stroke-width="3"/>
<path d="M58.7002 13.5H62.3002V100.8H58.7002V13.5Z" fill="url(#paint3_linear_373_3134)"/>
<path fill-rule="evenodd" clip-rule="evenodd" d="M65 10.6402C65 6.47667 60.5 0 60.5 0V16.1917C60.5 16.1917 61.4557 16.352 62.4999 15.2664C63.5152 14.211 65 12.4907 65 10.6402ZM56 10.6402C56 6.47667 60.5 2.96663e-06 60.5 2.96663e-06V16.1917C60.5 16.1917 59.5443 16.352 58.5001 15.2664C57.4848 14.211 56 12.4907 56 10.6402Z" fill="url(#paint4_linear_373_3134)"/>
<defs>
<radialGradient id="paint0_radial_373_3134" cx="0" cy="0" r="1" gradientUnits="userSpaceOnUse" gradientTransform="translate(40.8816 95.9556) rotate(90) scale(13.1311 40.8816)">
<stop offset="0.6875" stop-color="#725B2F"/>
<stop offset="1" stop-color="#725D35" stop-opacity="0"/>
</radialGradient>
<linearGradient id="paint1_linear_373_3134" x1="15.5975" y1="48.0243" x2="52.3267" y2="96.3258" gradientUnits="userSpaceOnUse">
<stop stop-color="#FFF2D9"/>
<stop offset="0.671875" stop-color="#FDDC9B"/>
<stop offset="1" stop-color="#D6AE60"/>
</linearGradient>
<linearGradient id="paint2_linear_373_3134" x1="16.0771" y1="41.4836" x2="21.605" y2="51.85" gradientUnits="userSpaceOnUse">
<stop stop-color="#B5B5B5"/>
<stop offset="1" stop-color="#565656"/>
</linearGradient>
<linearGradient id="paint3_linear_373_3134" x1="60.5002" y1="13.5" x2="60.5002" y2="93.6" gradientUnits="userSpaceOnUse">
<stop stop-color="#D6AE60"/>
<stop offset="1" stop-color="#42361E"/>
</linearGradient>
<linearGradient id="paint4_linear_373_3134" x1="60.5" y1="0" x2="60.5" y2="16.2" gradientUnits="userSpaceOnUse">
<stop stop-color="#D9D9D9"/>
<stop offset="1" stop-color="#6C6C6C"/>
</linearGradient>
</defs>
</svg>
