<svg width="106" height="104" viewBox="0 0 106 104" fill="none" xmlns="http://www.w3.org/2000/svg">
<path d="M92.6668 42.0235C93.2321 42.6291 94.1813 42.6618 94.7869 42.0966C95.3925 41.5313 95.4253 40.5821 94.86 39.9765L92.6668 42.0235ZM73.8241 43.5605C77.2356 40.1491 80.4404 38.177 83.4495 37.8009C86.3446 37.439 89.3963 38.5193 92.6668 42.0235L94.86 39.9765C91.1306 35.9807 87.1823 34.311 83.0774 34.8241C79.0864 35.3229 75.2913 37.8507 71.7028 41.4391L73.8241 43.5605Z" fill="#42361E"/>
<path d="M53.2616 68.5001C45.2617 68.5001 34.7617 53.5001 34.7617 53.5001C31.2616 62.0001 -1.2368 87.5 2.26323 97.5L28.7632 101.5C28.7632 83 51.7616 78.5001 53.2616 68.5001Z" fill="url(#paint0_linear_361_2820)" stroke="url(#paint1_linear_361_2820)" stroke-width="3"/>
<path d="M98.8595 5.58733C97.8028 4.52273 97.8024 4.5231 97.802 4.52351L97.8011 4.52446L97.7987 4.52685L97.7919 4.53361L97.7708 4.55492C97.7534 4.57255 97.7295 4.59702 97.6996 4.62804C97.6399 4.69005 97.5563 4.77838 97.4535 4.89081C97.2481 5.11537 96.9646 5.43765 96.6414 5.83967C95.9993 6.63822 95.1786 7.77793 94.5044 9.11214C93.2594 11.5759 92.327 15.1436 94.6653 18.2922L90.2462 51.8589L90.0504 53.3461L91.5376 53.5419L93.2726 53.7703L94.7598 53.9661L94.9555 52.4789L99.3815 18.8601C102.426 16.1847 102.578 12.5913 102.052 9.88277C101.774 8.45385 101.3 7.19651 100.902 6.30435C100.702 5.85531 100.518 5.49127 100.381 5.23555C100.313 5.10752 100.256 5.00615 100.215 4.93433C100.195 4.89841 100.178 4.86984 100.166 4.84897L100.151 4.82349L100.146 4.81516L100.144 4.81211L100.143 4.81086C100.143 4.81032 100.142 4.80981 98.8595 5.58733ZM98.8595 5.58733L100.142 4.80981L99.1548 3.18076L97.8028 4.52273L98.8595 5.58733Z" fill="#FDDC9B" stroke="url(#paint2_linear_361_2820)" stroke-width="3"/>
<path d="M99.9687 11.6118C97.3769 13.1821 96.9235 14.1764 99.5087 16.3329C102.043 14.7577 102.09 13.7225 99.9687 11.6118Z" fill="#FF4545"/>
<path d="M96.0028 11.0897C93.4111 12.66 92.9577 13.6543 95.5429 15.8108C98.0773 14.2357 98.124 13.2004 96.0028 11.0897Z" fill="#BC66FF"/>
<path d="M98.5077 7.38501C95.916 8.95533 95.4626 9.94956 98.0477 12.1061C100.582 10.5309 100.629 9.49565 98.5077 7.38501Z" fill="#FFB100"/>
<path d="M75.4371 43.3646L75.352 44.8621L75.4371 43.3646C75.0728 43.3439 74.5276 43.1526 73.7682 42.6376C73.0266 42.1348 72.2061 41.4103 71.3094 40.514C70.236 39.4411 69.1804 38.2592 68.0831 37.0306C67.2842 36.1361 66.4632 35.2169 65.5972 34.2971C60.9494 29.3603 56.7498 27.0971 52.8911 26.5488C49.0271 25.9997 45.7713 27.2095 43.1129 28.6584C40.3564 30.1608 37.728 32.4587 36.1671 36.4463C34.6273 40.38 34.187 45.804 35.4426 53.4614C37.544 66.277 50.1682 87.8115 77.4029 86.5435C87.8554 86.0567 97.0145 78.5958 99.5228 70.7649C100.846 66.6342 99.8944 60.0808 96.1768 54.4723C92.3939 48.7652 85.7047 43.9479 75.4371 43.3646Z" fill="url(#paint3_linear_361_2820)" stroke="#725D35" stroke-width="3"/>
<circle cx="51.7634" cy="48.4999" r="2.5" fill="#725D35"/>
<circle cx="63.7632" cy="45.4999" r="2.5" fill="#725D35"/>
<path d="M54.2454 55.3525C58.1778 58.4945 63.218 57.2378 64.9186 52.6913" stroke="#725D35" stroke-width="3" stroke-linecap="round"/>
<path d="M63.2632 30.3771L32.7313 41.0001L27.4972 33.0328L23.2632 26.0741L31.4228 23.2951L33.7632 30.3771L42.327 27.8895L39.2632 21.082L46.2632 19.0001L47.5611 26.0741L55.4121 23.2951L53.6674 16.2132L61.0823 14.0001L61.9547 21.082L63.2632 30.3771Z" fill="url(#paint4_linear_361_2820)" stroke="url(#paint5_linear_361_2820)" stroke-width="3"/>
<path d="M57.4187 25C55.6897 27.4887 55.6799 28.5814 58.9187 29.5C60.5934 27.0302 60.2149 26.0654 57.4187 25Z" fill="#FF4545"/>
<path d="M34.4187 33C32.6897 35.4887 32.6799 36.5814 35.9187 37.5C37.5934 35.0302 37.2149 34.0654 34.4187 33Z" fill="#BC66FF"/>
<path d="M45.4187 29C43.6897 31.4887 43.6799 32.5814 46.9187 33.5C48.5934 31.0302 48.2149 30.0654 45.4187 29Z" fill="#FFB100"/>
<defs>
<linearGradient id="paint0_linear_361_2820" x1="59.3202" y1="58.5001" x2="62.8202" y2="104" gradientUnits="userSpaceOnUse">
<stop stop-color="#FF4545"/>
<stop offset="1" stop-color="#FFB100"/>
</linearGradient>
<linearGradient id="paint1_linear_361_2820" x1="32.2631" y1="66.5001" x2="21.2631" y2="92.0001" gradientUnits="userSpaceOnUse">
<stop stop-color="white"/>
<stop offset="1" stop-color="#FFC645"/>
</linearGradient>
<linearGradient id="paint2_linear_361_2820" x1="101.156" y1="-4.19663" x2="93.4684" y2="52.2831" gradientUnits="userSpaceOnUse">
<stop stop-color="#FDDC9B"/>
<stop offset="1" stop-color="#FFC645"/>
</linearGradient>
<linearGradient id="paint3_linear_361_2820" x1="45.2413" y1="32.1197" x2="85.2214" y2="84.6964" gradientUnits="userSpaceOnUse">
<stop stop-color="#FFF2D9"/>
<stop offset="0.671875" stop-color="#FDDC9B"/>
<stop offset="1" stop-color="#D6AE60"/>
</linearGradient>
<linearGradient id="paint4_linear_361_2820" x1="43.2632" y1="14.0001" x2="43.2632" y2="41.0001" gradientUnits="userSpaceOnUse">
<stop stop-color="white"/>
<stop offset="1" stop-color="#FDDC9B"/>
</linearGradient>
<linearGradient id="paint5_linear_361_2820" x1="47.7632" y1="16.0001" x2="43.2632" y2="41.0001" gradientUnits="userSpaceOnUse">
<stop stop-color="#FFDF6F"/>
<stop offset="1" stop-color="#FFB100"/>
</linearGradient>
</defs>
</svg>
