<svg width="390" height="598" viewBox="0 0 390 598" fill="none" xmlns="http://www.w3.org/2000/svg">
<rect y="388" width="390" height="210" fill="url(#paint0_linear_380_3065)"/>
<rect y="210" width="390" height="177" fill="url(#paint1_linear_380_3065)"/>
<path d="M-10.0825 371L198.238 386.547L198.286 407.962L-11.9999 392.916L-10.0825 371Z" fill="url(#paint2_linear_380_3065)"/>
<path d="M405.227 370.659L196.907 386.205L196.859 407.621L407.145 392.575L405.227 370.659Z" fill="url(#paint3_linear_380_3065)"/>
<rect x="31" width="320" height="210" fill="url(#paint4_linear_380_3065)"/>
<path d="M0 0H79V210L0 328V0Z" fill="url(#paint5_linear_380_3065)"/>
<path d="M390 0H311V210L390 328V0Z" fill="url(#paint6_linear_380_3065)"/>
<mask id="path-8-inside-1_380_3065" fill="white">
<path fill-rule="evenodd" clip-rule="evenodd" d="M168.492 282H194H195H220.508L242.782 384H243V385V406H243.5L285.5 598H195.5H194H104L146 406V385V384H146.218L168.492 282Z"/>
</mask>
<path fill-rule="evenodd" clip-rule="evenodd" d="M168.492 282H194H195H220.508L242.782 384H243V385V406H243.5L285.5 598H195.5H194H104L146 406V385V384H146.218L168.492 282Z" fill="url(#paint7_linear_380_3065)"/>
<path d="M168.492 282V276H163.661L162.63 280.72L168.492 282ZM220.508 282L226.37 280.72L225.339 276H220.508V282ZM242.782 384L236.92 385.28L237.95 390H242.782V384ZM243 384H249V378H243V384ZM243 406H237V412H243V406ZM243.5 406L249.361 404.718L248.329 400H243.5V406ZM285.5 598V604H292.954L291.361 596.718L285.5 598ZM104 598L98.1386 596.718L96.5456 604H104V598ZM146 406L151.861 407.282L152 406.649V406H146ZM146 384V378H140V384H146ZM146.218 384V390H151.05L152.08 385.28L146.218 384ZM194 276H168.492V288H194V276ZM195 276H194V288H195V276ZM220.508 276H195V288H220.508V276ZM248.643 382.72L226.37 280.72L214.646 283.28L236.92 385.28L248.643 382.72ZM242.782 390H243V378H242.782V390ZM237 384V385H249V384H237ZM237 385V406H249V385H237ZM243.5 400H243V412H243.5V400ZM291.361 596.718L249.361 404.718L237.639 407.282L279.639 599.282L291.361 596.718ZM195.5 604H285.5V592H195.5V604ZM194 604H195.5V592H194V604ZM104 604H194V592H104V604ZM140.139 404.718L98.1386 596.718L109.861 599.282L151.861 407.282L140.139 404.718ZM152 406V385H140V406H152ZM152 385V384H140V385H152ZM146 390H146.218V378H146V390ZM162.63 280.72L140.356 382.72L152.08 385.28L174.354 283.28L162.63 280.72Z" fill="#DB3030" mask="url(#path-8-inside-1_380_3065)"/>
<path fill-rule="evenodd" clip-rule="evenodd" d="M237 88C237 64.804 218.196 46 195 46C171.804 46 153 64.804 153 88V203H237V88Z" fill="url(#paint8_linear_380_3065)"/>
<path d="M219 109C219 109 220.828 114.181 222 117.5M222 126C222 126 223.172 120.819 222 117.5M222 117.5C225.124 117.5 230 117.5 230 117.5M159 123C159 123 165.095 120.867 169 119.5M174.5 113.5C174.5 113.5 172.905 118.133 169 119.5M169 119.5C169.586 122.429 170.5 127 170.5 127M174.5 83C175.441 80.8215 176.169 78.8495 176.684 77M173.5 57C175.768 61.4179 177.098 64.9937 177.49 68.5M177.49 68.5C179.945 67.7865 181.936 66.9887 183.685 66M177.49 68.5C177.799 71.2516 177.53 73.9604 176.684 77M193 57C189.687 61.3136 187.163 64.0341 183.685 66M183.685 66C186.314 71.0804 188.025 73.6057 193 75.5M176.684 77C170.451 74.9681 167.301 73.1959 162.5 68.5M196.5 69.5C199.345 65.7408 201.273 63.0903 204.251 60.5M209 57C207.097 58.2157 205.571 59.3519 204.251 60.5M204.251 60.5C206.676 63.8067 208.642 66.0622 211 66.6658M220 63C216.062 66.2378 213.338 67.2644 211 66.6658M211 66.6658C210.748 68.727 210.435 70.488 210 72.0437M202 82.5C206.555 79.2235 208.766 76.4619 210 72.0437M210 72.0437C215.005 73.7716 217.848 74.2123 222.5 81" stroke="#42361E" stroke-width="3" stroke-linecap="round"/>
<path d="M160 86.5L166.5 92.5" stroke="#42361E" stroke-width="3" stroke-linecap="round"/>
<path d="M224 92.5L232 84" stroke="#42361E" stroke-width="3" stroke-linecap="round"/>
<path fill-rule="evenodd" clip-rule="evenodd" d="M176.659 161.669L171.882 152.279L171.152 162.789L162.693 158.106L167.471 167.496L158.561 169.309L167.02 173.991L161.063 181.607L169.973 179.794L169.244 190.304L175.201 182.688L179.979 192.078L180.708 181.568L189.167 186.25L184.39 176.861L193.3 175.048L184.84 170.366L190.797 162.75L181.887 164.563L182.617 154.053L176.659 161.669Z" fill="#686EFF"/>
<path d="M171.882 152.279L173.218 151.599L170.76 146.768L170.385 152.176L171.882 152.279ZM176.659 161.669L175.322 162.349L176.39 164.447L177.841 162.593L176.659 161.669ZM171.152 162.789L170.426 164.101L172.486 165.242L172.649 162.893L171.152 162.789ZM162.693 158.106L163.42 156.794L159.136 154.423L161.356 158.787L162.693 158.106ZM167.471 167.496L167.77 168.966L169.702 168.573L168.808 166.816L167.471 167.496ZM158.561 169.309L158.262 167.839L154.274 168.65L157.834 170.621L158.561 169.309ZM167.02 173.991L168.202 174.915L169.285 173.53L167.747 172.679L167.02 173.991ZM161.063 181.607L159.881 180.683L157.374 183.888L161.362 183.077L161.063 181.607ZM169.973 179.794L171.469 179.898L171.606 177.931L169.674 178.324L169.973 179.794ZM169.244 190.304L167.747 190.2L167.408 195.085L170.425 191.228L169.244 190.304ZM175.201 182.688L176.538 182.008L175.47 179.91L174.02 181.764L175.201 182.688ZM179.979 192.078L178.642 192.758L181.1 197.589L181.475 192.181L179.979 192.078ZM180.708 181.568L181.434 180.256L179.374 179.115L179.211 181.464L180.708 181.568ZM189.167 186.25L188.441 187.563L192.725 189.934L190.504 185.57L189.167 186.25ZM184.39 176.861L184.091 175.391L182.159 175.784L183.053 177.541L184.39 176.861ZM193.3 175.048L193.599 176.518L197.587 175.707L194.026 173.736L193.3 175.048ZM184.84 170.366L183.659 169.442L182.575 170.826L184.114 171.678L184.84 170.366ZM190.797 162.75L191.979 163.674L194.486 160.469L190.498 161.28L190.797 162.75ZM181.887 164.563L180.391 164.459L180.255 166.426L182.187 166.033L181.887 164.563ZM182.617 154.053L184.113 154.157L184.452 149.272L181.435 153.129L182.617 154.053ZM170.545 152.96L175.322 162.349L177.996 160.989L173.218 151.599L170.545 152.96ZM172.649 162.893L173.378 152.383L170.385 152.176L169.656 162.685L172.649 162.893ZM161.967 159.419L170.426 164.101L171.879 161.477L163.42 156.794L161.967 159.419ZM168.808 166.816L164.03 157.426L161.356 158.787L166.134 168.176L168.808 166.816ZM158.86 170.779L167.77 168.966L167.172 166.026L158.262 167.839L158.86 170.779ZM167.747 172.679L159.287 167.996L157.834 170.621L166.294 175.304L167.747 172.679ZM162.244 182.531L168.202 174.915L165.839 173.067L159.881 180.683L162.244 182.531ZM169.674 178.324L160.764 180.137L161.362 183.077L170.272 181.264L169.674 178.324ZM170.74 190.408L171.469 179.898L168.476 179.69L167.747 190.2L170.74 190.408ZM174.02 181.764L168.062 189.38L170.425 191.228L176.383 183.612L174.02 181.764ZM181.316 191.397L176.538 182.008L173.864 183.368L178.642 192.758L181.316 191.397ZM179.211 181.464L178.482 191.974L181.475 192.181L182.204 181.672L179.211 181.464ZM189.894 184.938L181.434 180.256L179.981 182.88L188.441 187.563L189.894 184.938ZM183.053 177.541L187.83 186.931L190.504 185.57L185.726 176.181L183.053 177.541ZM193.001 173.578L184.091 175.391L184.689 178.331L193.599 176.518L193.001 173.578ZM184.114 171.678L192.573 176.361L194.026 173.736L185.567 169.053L184.114 171.678ZM189.616 161.826L183.659 169.442L186.022 171.29L191.979 163.674L189.616 161.826ZM182.187 166.033L191.097 164.22L190.498 161.28L181.588 163.093L182.187 166.033ZM181.12 153.949L180.391 164.459L183.384 164.667L184.113 154.157L181.12 153.949ZM177.841 162.593L183.798 154.977L181.435 153.129L175.478 160.745L177.841 162.593Z" fill="#42361E"/>
<path fill-rule="evenodd" clip-rule="evenodd" d="M215.453 162.425L210.523 152.638L209.808 163.574L201.116 158.674L206.047 168.46L196.913 170.319L205.605 175.219L199.519 183.126L208.652 181.267L207.938 192.203L214.024 184.296L218.955 194.083L219.669 183.147L228.361 188.047L223.431 178.261L232.564 176.402L223.872 171.502L229.959 163.595L220.825 165.454L221.54 154.518L215.453 162.425Z" fill="#FF8484"/>
<path d="M210.523 152.638L211.862 151.964L209.385 147.046L209.026 152.541L210.523 152.638ZM215.453 162.425L214.114 163.1L215.187 165.23L216.642 163.34L215.453 162.425ZM209.808 163.574L209.072 164.88L211.15 166.052L211.305 163.671L209.808 163.574ZM201.116 158.674L201.853 157.367L197.559 154.946L199.777 159.348L201.116 158.674ZM206.047 168.46L206.346 169.93L208.27 169.539L207.386 167.785L206.047 168.46ZM196.913 170.319L196.614 168.849L192.674 169.65L196.177 171.625L196.913 170.319ZM205.605 175.219L206.794 176.134L207.85 174.762L206.342 173.912L205.605 175.219ZM199.519 183.126L198.33 182.211L195.877 185.397L199.818 184.595L199.519 183.126ZM208.652 181.267L210.149 181.365L210.277 179.406L208.353 179.797L208.652 181.267ZM207.938 192.203L206.441 192.105L206.12 197.024L209.127 193.117L207.938 192.203ZM214.024 184.296L215.364 183.621L214.291 181.491L212.836 183.381L214.024 184.296ZM218.955 194.083L217.615 194.757L220.093 199.675L220.452 194.18L218.955 194.083ZM219.669 183.147L220.406 181.841L218.328 180.669L218.172 183.049L219.669 183.147ZM228.361 188.047L227.625 189.354L231.919 191.775L229.701 187.372L228.361 188.047ZM223.431 178.261L223.132 176.791L221.208 177.182L222.091 178.935L223.431 178.261ZM232.564 176.402L232.863 177.872L236.804 177.07L233.301 175.096L232.564 176.402ZM223.872 171.502L222.684 170.587L221.628 171.959L223.136 172.809L223.872 171.502ZM229.959 163.595L231.147 164.51L233.6 161.324L229.66 162.125L229.959 163.595ZM220.825 165.454L219.328 165.356L219.2 167.315L221.124 166.924L220.825 165.454ZM221.54 154.518L223.036 154.616L223.358 149.697L220.351 153.603L221.54 154.518ZM209.183 153.313L214.114 163.1L216.793 161.75L211.862 151.964L209.183 153.313ZM211.305 163.671L212.02 152.736L209.026 152.541L208.312 163.476L211.305 163.671ZM200.38 159.98L209.072 164.88L210.545 162.267L201.853 157.367L200.38 159.98ZM207.386 167.785L202.456 157.999L199.777 159.348L204.707 169.135L207.386 167.785ZM197.212 171.788L206.346 169.93L205.748 166.99L196.614 168.849L197.212 171.788ZM206.342 173.912L197.65 169.012L196.177 171.625L204.869 176.525L206.342 173.912ZM200.707 184.041L206.794 176.134L204.417 174.304L198.33 182.211L200.707 184.041ZM208.353 179.797L199.22 181.656L199.818 184.595L208.951 182.737L208.353 179.797ZM209.435 192.3L210.149 181.365L207.156 181.169L206.441 192.105L209.435 192.3ZM212.836 183.381L206.749 191.288L209.127 193.117L215.213 185.211L212.836 183.381ZM220.294 193.408L215.364 183.621L212.685 184.971L217.615 194.757L220.294 193.408ZM218.172 183.049L217.458 193.985L220.452 194.18L221.166 183.245L218.172 183.049ZM229.098 186.741L220.406 181.841L218.933 184.454L227.625 189.354L229.098 186.741ZM222.091 178.935L227.022 188.722L229.701 187.372L224.77 177.586L222.091 178.935ZM232.265 174.932L223.132 176.791L223.73 179.73L232.863 177.872L232.265 174.932ZM223.136 172.809L231.828 177.709L233.301 175.096L224.609 170.196L223.136 172.809ZM228.77 162.68L222.684 170.587L225.061 172.417L231.147 164.51L228.77 162.68ZM221.124 166.924L230.258 165.065L229.66 162.125L220.526 163.984L221.124 166.924ZM220.043 154.421L219.328 165.356L222.322 165.551L223.036 154.616L220.043 154.421ZM216.642 163.34L222.728 155.433L220.351 153.603L214.265 161.51L216.642 163.34Z" fill="#42361E"/>
<path d="M166.678 105.192L166.678 105.192L205.548 143.667C206.572 144.681 208.226 144.677 209.243 143.652L217.558 135.277C218.576 134.251 218.566 132.596 217.54 131.581L178.661 93.0967C178.661 93.0967 178.661 93.0967 178.661 93.0967C178.211 92.652 177.616 92.3852 176.986 92.3452L176.986 92.3452L168.231 91.7903L168.231 91.7903C166.676 91.6919 165.378 92.9667 165.456 94.527C165.456 94.527 165.456 94.527 165.456 94.5271L165.906 103.467L165.906 103.467C165.939 104.119 166.215 104.734 166.678 105.192Z" fill="#FF8484" stroke="#42361E" stroke-width="3"/>
<path d="M201.355 144.88L201.355 144.88L218.769 127.341L218.769 127.34C220.17 125.929 222.451 125.922 223.863 127.32L223.863 127.32L225.446 128.887C225.446 128.887 225.446 128.887 225.446 128.887C226.86 130.286 226.873 132.567 225.47 133.98L225.47 133.98L220.086 139.404L230.186 149.402C230.186 149.402 230.187 149.402 230.187 149.402C231.6 150.801 231.614 153.082 230.211 154.496L201.355 144.88ZM201.355 144.88C199.952 146.293 199.966 148.574 201.38 149.974L202.962 151.54L202.962 151.54C204.375 152.939 206.655 152.932 208.057 151.52L208.057 151.52L213.445 146.093L223.549 156.094C223.549 156.095 223.549 156.095 223.549 156.095C224.961 157.493 227.242 157.486 228.643 156.074C228.643 156.074 228.643 156.074 228.643 156.074L230.211 154.496L201.355 144.88Z" fill="#BFBFBF" stroke="#42361E" stroke-width="3"/>
<path d="M211.09 92.8442L211.09 92.8444L172.277 131.377C171.255 132.392 171.245 134.046 172.26 135.072L180.562 143.459C181.579 144.487 183.234 144.491 184.258 143.475L223.08 104.932C223.08 104.932 223.081 104.932 223.081 104.932C223.529 104.487 223.801 103.894 223.847 103.264L223.847 103.264L224.478 94.5141L224.478 94.514C224.59 92.9606 223.326 91.6509 221.766 91.7158C221.765 91.7158 221.765 91.7158 221.765 91.7158L212.822 92.0878L212.822 92.0878C212.17 92.115 211.552 92.3854 211.09 92.8442Z" fill="#686EFF" stroke="#42361E" stroke-width="3"/>
<path d="M171.101 127.174L171.101 127.174L188.488 144.739L188.488 144.739C189.888 146.153 189.874 148.434 188.464 149.834L188.464 149.834L186.883 151.403C186.883 151.403 186.883 151.403 186.883 151.403C185.472 152.805 183.191 152.798 181.79 151.383L181.79 151.383L176.413 145.951L166.328 155.964C166.328 155.964 166.328 155.964 166.328 155.964C164.916 157.366 162.635 157.359 161.234 155.944L171.101 127.174ZM171.101 127.174C169.7 125.759 167.419 125.752 166.007 127.154L164.427 128.723L164.427 128.723C163.016 130.123 163.003 132.404 164.403 133.818L164.403 133.818L169.782 139.252L159.693 149.268C159.693 149.268 159.693 149.268 159.693 149.269C158.283 150.669 158.27 152.949 159.669 154.363C159.669 154.363 159.669 154.363 159.669 154.363L161.234 155.944L171.101 127.174Z" fill="#BFBFBF" stroke="#42361E" stroke-width="3"/>
<path fill-rule="evenodd" clip-rule="evenodd" d="M195 46C218.196 46 237 64.804 237 88V203H153V88C153 64.804 171.804 46 195 46ZM161 79.7297H192V55.084C176.343 56.1152 163.633 66.2568 161 79.7297ZM198 79.7297H228C225.174 66.7923 213.027 56.5298 198 55.1564V79.7297ZM161 144H192V195H161V144ZM192 87H161V138H192V87ZM198 144H229V195H198V144ZM229 87H198V138H229V87Z" fill="#42361E"/>
<ellipse cx="195.5" cy="326" rx="56.5" ry="28" fill="url(#paint9_radial_380_3065)"/>
<path fill-rule="evenodd" clip-rule="evenodd" d="M169.194 174.776L169.194 204H169.263V280L158.263 301V308V334H174.263L175.763 330V308H214.263V330L215.806 334H232.263V308V301L221.263 280V204H221.359V174.776C229.755 167.335 217.276 156 217.276 156C217.276 156 204.736 168.263 213.194 174.776V203.947C212.44 203.383 205.599 198.5 194.763 198.5C184.102 198.5 178.168 203.227 177.359 203.916V174.776C185.755 167.335 173.276 156 173.276 156C173.276 156 160.736 168.263 169.194 174.776Z" fill="url(#paint10_linear_380_3065)"/>
<path d="M176.29 283H195.263V298.324H168.263L176.29 283Z" fill="#DB3030"/>
<path d="M214.236 283H195.263V298.324H222.263L214.236 283Z" fill="#DB3030"/>
<path d="M177.263 221C177.263 212.329 186.596 207.763 195.263 208C203.618 208.229 212.263 212.642 212.263 221C212.263 238.5 212.263 273 212.263 273H177.263C177.263 273 177.263 239.5 177.263 221Z" fill="#DB3030"/>
<path d="M176.197 165.237C172.519 168.003 172.021 169.528 176.446 172.157C180.035 169.394 179.897 167.887 176.197 165.237Z" fill="#FF4545"/>
<path d="M169.975 165.237C166.297 168.003 165.799 169.528 170.224 172.157C173.813 169.394 173.675 167.887 169.975 165.237Z" fill="#BC66FF"/>
<path d="M173.086 159.398C169.408 162.165 168.911 163.69 173.335 166.318C176.924 163.556 176.786 162.049 173.086 159.398Z" fill="#FFB100"/>
<path d="M220.197 165.237C216.519 168.003 216.021 169.528 220.446 172.157C224.035 169.394 223.897 167.887 220.197 165.237Z" fill="#FF4545"/>
<path d="M213.975 165.237C210.297 168.003 209.799 169.528 214.224 172.157C217.813 169.394 217.675 167.887 213.975 165.237Z" fill="#BC66FF"/>
<path d="M217.086 159.398C213.408 162.165 212.911 163.69 217.335 166.318C220.924 163.556 220.786 162.049 217.086 159.398Z" fill="#FFB100"/>
<ellipse cx="38.6331" cy="165.979" rx="7" ry="9" fill="url(#paint11_radial_380_3065)"/>
<path d="M43.4987 127.145C42.3312 125.728 41.8312 124.133 40.6644 122.256C36.768 130.278 35.6331 149.979 43.4986 155.479C51.3642 160.979 54.9083 154.084 54.9083 154.084C57.7257 147.447 57.3861 127.971 52.0524 119.717C51.5623 123.007 50.9554 124.465 49.9012 127.098C48.3184 125.044 47.1475 121.321 45.9773 117.138C45.0674 120.438 44.5777 125.76 43.4987 127.145Z" fill="url(#paint12_linear_380_3065)"/>
<path d="M36.6331 130.979C39.1997 133.22 39.1997 134.715 39.1997 136.957C39.1997 142.355 39.1997 146.297 39.1997 150.781C39.1997 154.869 43.9664 156.759 47.6331 156.759M47.6331 156.759C51.2997 156.759 56.0664 154.869 56.0664 150.781C56.0664 146.297 56.0664 142.355 56.0664 136.957C56.0664 134.715 56.0664 133.22 58.6331 130.979M47.6331 156.759C46.5331 155.638 46.5331 153.848 46.5331 151.902C46.5331 147.045 46.5331 143.476 46.5331 138.077C46.5331 135.462 45.4331 131.726 45.4331 131.726M47.6331 156.759C47.6331 160.869 45.4331 164.979 38.4664 164.979" stroke="#6C6C6C" stroke-width="3"/>
<ellipse cx="7" cy="9" rx="7" ry="9" transform="matrix(-1 0 0 1 357.2 159.979)" fill="url(#paint13_radial_380_3065)"/>
<path d="M345.335 130.145C346.502 128.728 347.002 127.133 348.169 125.256C352.065 133.278 353.2 152.979 345.335 158.479C337.469 163.979 333.925 157.084 333.925 157.084C331.108 150.447 331.447 130.971 336.781 122.717C337.271 126.007 337.878 127.465 338.932 130.098C340.515 128.044 341.686 124.321 342.856 120.138C343.766 123.438 344.256 128.76 345.335 130.145Z" fill="url(#paint14_linear_380_3065)"/>
<path d="M352.2 133.979C349.634 136.22 349.634 137.715 349.634 139.957C349.634 145.355 349.634 149.297 349.634 153.781C349.634 157.869 344.867 159.759 341.2 159.759M341.2 159.759C337.534 159.759 332.767 157.869 332.767 153.781C332.767 149.297 332.767 145.355 332.767 139.957C332.767 137.715 332.767 136.22 330.2 133.979M341.2 159.759C342.3 158.638 342.3 156.848 342.3 154.902C342.3 150.045 342.3 146.476 342.3 141.077C342.3 138.462 343.4 134.726 343.4 134.726M341.2 159.759C341.2 163.869 343.4 167.979 350.367 167.979" stroke="#6C6C6C" stroke-width="3"/>
<defs>
<linearGradient id="paint0_linear_380_3065" x1="195" y1="388" x2="195" y2="598" gradientUnits="userSpaceOnUse">
<stop stop-color="#9D8555"/>
<stop offset="0.76544" stop-color="#725B2F"/>
<stop offset="1" stop-color="#9D8555"/>
</linearGradient>
<linearGradient id="paint1_linear_380_3065" x1="195" y1="210" x2="195" y2="387" gradientUnits="userSpaceOnUse">
<stop stop-color="#9D8555"/>
<stop offset="0.109375" stop-color="#D6AE60"/>
<stop offset="1" stop-color="#9D8555"/>
</linearGradient>
<linearGradient id="paint2_linear_380_3065" x1="89.5544" y1="379.717" x2="87.6369" y2="401.633" gradientUnits="userSpaceOnUse">
<stop stop-color="#9D8555"/>
<stop offset="1" stop-color="#725B2F"/>
</linearGradient>
<linearGradient id="paint3_linear_380_3065" x1="305.59" y1="379.376" x2="307.508" y2="401.292" gradientUnits="userSpaceOnUse">
<stop stop-color="#9D8555"/>
<stop offset="1" stop-color="#725B2F"/>
</linearGradient>
<linearGradient id="paint4_linear_380_3065" x1="191" y1="0" x2="191" y2="210" gradientUnits="userSpaceOnUse">
<stop stop-color="#BFBFBF"/>
<stop offset="1" stop-color="#6C6C6C"/>
</linearGradient>
<linearGradient id="paint5_linear_380_3065" x1="73.0472" y1="8.5" x2="75.5249" y2="255.476" gradientUnits="userSpaceOnUse">
<stop stop-color="#D9D9D9"/>
<stop offset="1" stop-color="#6C6C6C"/>
</linearGradient>
<linearGradient id="paint6_linear_380_3065" x1="316.953" y1="8.5" x2="314.475" y2="255.476" gradientUnits="userSpaceOnUse">
<stop stop-color="#D9D9D9"/>
<stop offset="1" stop-color="#6C6C6C"/>
</linearGradient>
<linearGradient id="paint7_linear_380_3065" x1="194.75" y1="271" x2="195" y2="683" gradientUnits="userSpaceOnUse">
<stop stop-color="#FF4545"/>
<stop offset="0.442708" stop-color="#DB3030"/>
<stop offset="1" stop-color="#FFB100"/>
</linearGradient>
<linearGradient id="paint8_linear_380_3065" x1="195" y1="46" x2="195" y2="203" gradientUnits="userSpaceOnUse">
<stop stop-color="#E2F0FF"/>
<stop offset="1" stop-color="#2368B8"/>
</linearGradient>
<radialGradient id="paint9_radial_380_3065" cx="0" cy="0" r="1" gradientUnits="userSpaceOnUse" gradientTransform="translate(195.5 326) rotate(90) scale(28 56.5)">
<stop offset="0.6875" stop-opacity="0.43"/>
<stop offset="1" stop-opacity="0"/>
</radialGradient>
<linearGradient id="paint10_linear_380_3065" x1="195.263" y1="156" x2="195.263" y2="334" gradientUnits="userSpaceOnUse">
<stop stop-color="#FDDC9B"/>
<stop offset="1" stop-color="#8D7443"/>
</linearGradient>
<radialGradient id="paint11_radial_380_3065" cx="0" cy="0" r="1" gradientUnits="userSpaceOnUse" gradientTransform="translate(38.6331 165.979) rotate(90) scale(9 7)">
<stop offset="0.6875" stop-opacity="0.43"/>
<stop offset="1" stop-opacity="0"/>
</radialGradient>
<linearGradient id="paint12_linear_380_3065" x1="47.6331" y1="120.979" x2="47.6331" y2="157.479" gradientUnits="userSpaceOnUse">
<stop stop-color="#DB3030"/>
<stop offset="1" stop-color="#FFB100"/>
</linearGradient>
<radialGradient id="paint13_radial_380_3065" cx="0" cy="0" r="1" gradientUnits="userSpaceOnUse" gradientTransform="translate(7 9) rotate(90) scale(9 7)">
<stop offset="0.6875" stop-opacity="0.43"/>
<stop offset="1" stop-opacity="0"/>
</radialGradient>
<linearGradient id="paint14_linear_380_3065" x1="341.2" y1="123.979" x2="341.2" y2="160.479" gradientUnits="userSpaceOnUse">
<stop stop-color="#DB3030"/>
<stop offset="1" stop-color="#FFB100"/>
</linearGradient>
</defs>
</svg>
