<svg width="83" height="100" viewBox="0 0 83 100" fill="none" xmlns="http://www.w3.org/2000/svg">
<ellipse cx="41.5" cy="84.5" rx="41.5" ry="15.5" fill="url(#paint0_radial_373_2922)"/>
<rect x="10" y="68" width="64" height="18" fill="url(#paint1_linear_373_2922)"/>
<path d="M16 52.5H62L74 68H10L16 52.5Z" fill="#D9D9D9"/>
<ellipse cx="40" cy="61.5" rx="21" ry="9.5" fill="url(#paint2_radial_373_2922)"/>
<path fill-rule="evenodd" clip-rule="evenodd" d="M15.7281 13.9393L15.735 13.9638L16.9381 18.3019C16.4875 16.698 14.824 15.7596 13.2174 16.2052C11.6075 16.6517 10.6643 18.3187 11.1108 19.9286L11.117 19.9509L15.9553 37.3971L15.9612 37.4188C16.4077 39.0287 18.0748 39.9719 19.6847 39.5254C21.2909 39.08 22.2334 37.4196 21.7944 35.8131L22.5978 38.7102L22.5997 38.717C23.0462 40.327 24.7132 41.2701 26.3231 40.8237C27.933 40.3772 28.8762 38.7101 28.4297 37.1002L28.4297 37.1002L21.5583 12.3224L21.5582 12.3225C21.1117 10.7126 19.4446 9.76941 17.8347 10.2159C16.2248 10.6624 15.2816 12.3294 15.7281 13.9393ZM45.1468 16.7681L54.9954 14.0368L52.1721 3.85614L52.1659 3.83422C51.7195 2.2243 52.6626 0.557258 54.2725 0.110786C55.8825 -0.335685 57.5495 0.60748 57.996 2.2174L57.996 2.21744L57.9961 2.21742L64.8649 26.9858L64.8675 26.9951C65.314 28.6051 64.3709 30.2721 62.7609 30.7186C61.151 31.165 59.484 30.2219 59.0375 28.612L56.6123 19.8669L47.0631 22.5151C47.0296 24.0232 46.8121 25.6039 46.5768 27.0318C46.6271 27.0876 46.6837 27.1501 46.7461 27.2191C48.9349 29.6376 58.3228 40.0108 58.9471 47.3675C58.8509 47.6943 58.7542 48.037 58.6537 48.393C57.2392 53.4029 55.0786 61.056 43.2801 64.4729H28.9913L28.9913 60.3383C28.9913 49.7301 35.6779 42.376 45.6626 46.4466C41.6003 42.7595 40.666 32.4922 40.5795 29.2444C38.9571 28.2911 37.3265 27.0341 36.2242 25.521L26.0046 28.3551L24.3878 22.5251L35.2741 19.506C36.7349 15.66 41.1745 14.9988 44.4205 16.3625C44.6864 16.4743 44.9279 16.6103 45.1468 16.7681ZM65.0388 4.97316L65.0389 4.97314L69.8894 22.4633L69.8893 22.4633C70.3357 24.0732 69.3925 25.7402 67.7826 26.1867C66.1727 26.6331 64.5057 25.69 64.0592 24.08L64.0539 24.0607L59.2143 6.60971L59.2088 6.58988C58.7623 4.97996 59.7054 3.31292 61.3154 2.86644C62.9253 2.41997 64.5923 3.36314 65.0388 4.97306L65.0388 4.97316Z" fill="url(#paint3_linear_373_2922)"/>
<defs>
<radialGradient id="paint0_radial_373_2922" cx="0" cy="0" r="1" gradientUnits="userSpaceOnUse" gradientTransform="translate(41.5 84.5) rotate(90) scale(15.5 41.5)">
<stop offset="0.6875" stop-opacity="0.43"/>
<stop offset="1" stop-opacity="0"/>
</radialGradient>
<linearGradient id="paint1_linear_373_2922" x1="42" y1="68" x2="42" y2="86" gradientUnits="userSpaceOnUse">
<stop stop-color="#D9D9D9"/>
<stop offset="1" stop-color="#6C6C6C"/>
</linearGradient>
<radialGradient id="paint2_radial_373_2922" cx="0" cy="0" r="1" gradientUnits="userSpaceOnUse" gradientTransform="translate(40 61.5) rotate(90) scale(9.5 21)">
<stop offset="0.6875" stop-opacity="0.43"/>
<stop offset="1" stop-opacity="0"/>
</radialGradient>
<linearGradient id="paint3_linear_373_2922" x1="57.5" y1="-2.34028e-07" x2="40.5" y2="64.4729" gradientUnits="userSpaceOnUse">
<stop stop-color="white"/>
<stop offset="1" stop-color="#8E8E8E"/>
</linearGradient>
</defs>
</svg>
