<svg width="101" height="123" viewBox="0 0 101 123" fill="none" xmlns="http://www.w3.org/2000/svg">
<ellipse cx="50.4998" cy="104.199" rx="50.338" ry="18.8009" fill="url(#paint0_radial_373_2970)"/>
<rect x="12.2915" y="84.1851" width="77.6296" height="21.8333" fill="url(#paint1_linear_373_2970)"/>
<path d="M19.5693 65.3843H75.3656L89.9211 84.1852H12.2915L19.5693 65.3843Z" fill="#D9D9D9"/>
<ellipse cx="48.6805" cy="76.301" rx="25.4722" ry="11.5231" fill="url(#paint2_radial_373_2970)"/>
<path fill-rule="evenodd" clip-rule="evenodd" d="M53.9661 56.6289L34.9268 16.3376L38.9338 14.4514C39.8087 14.0395 40.1827 12.996 39.769 12.1205L38.9759 10.442C38.5622 9.56651 37.5175 9.19075 36.6425 9.60257L29.7461 12.8488L24.1502 1.0065C23.7365 0.131023 22.6918 -0.244802 21.8169 0.167086L20.1394 0.956739C19.2644 1.36856 18.8904 2.41223 19.3042 3.28763L24.9001 15.13L18.0037 18.3762C17.1288 18.7881 16.7548 19.8317 17.1686 20.7072L17.9617 22.3856C18.3754 23.2611 19.4201 23.6369 20.2951 23.2251L24.3493 21.3167L42.7903 60.3419C42.4873 60.3519 42.1839 60.3612 41.8818 60.3705C40.3394 60.4177 38.83 60.4639 37.5605 60.6029C29.4489 61.4913 32.0443 75.4541 32.0443 75.4541C32.0443 75.4541 41.3794 78 49.0172 78C56.6549 78 65.9898 75.4541 65.9898 75.4541C65.9898 75.4541 68.5851 54.2839 59.625 54.6625C57.3665 54.758 55.5448 55.628 53.9661 56.6289Z" fill="url(#paint3_linear_373_2970)"/>
<defs>
<radialGradient id="paint0_radial_373_2970" cx="0" cy="0" r="1" gradientUnits="userSpaceOnUse" gradientTransform="translate(50.4998 104.199) rotate(90) scale(18.8009 50.338)">
<stop offset="0.6875" stop-opacity="0.43"/>
<stop offset="1" stop-opacity="0"/>
</radialGradient>
<linearGradient id="paint1_linear_373_2970" x1="51.1063" y1="84.1851" x2="51.1063" y2="106.018" gradientUnits="userSpaceOnUse">
<stop stop-color="#D9D9D9"/>
<stop offset="1" stop-color="#6C6C6C"/>
</linearGradient>
<radialGradient id="paint2_radial_373_2970" cx="0" cy="0" r="1" gradientUnits="userSpaceOnUse" gradientTransform="translate(48.6805 76.301) rotate(90) scale(11.5231 25.4722)">
<stop offset="0.6875" stop-opacity="0.43"/>
<stop offset="1" stop-opacity="0"/>
</radialGradient>
<linearGradient id="paint3_linear_373_2970" x1="55.8858" y1="-2.8313e-07" x2="28.1055" y2="72.8258" gradientUnits="userSpaceOnUse">
<stop stop-color="white"/>
<stop offset="1" stop-color="#8E8E8E"/>
</linearGradient>
</defs>
</svg>
