<svg width="83" height="100" viewBox="0 0 83 100" fill="none" xmlns="http://www.w3.org/2000/svg">
<ellipse cx="41.5" cy="15.5" rx="41.5" ry="15.5" transform="matrix(-1 0 0 1 83 69)" fill="url(#paint0_radial_373_2923)"/>
<rect width="64" height="18" transform="matrix(-1 0 0 1 73 68)" fill="url(#paint1_linear_373_2923)"/>
<path d="M67 52.5H21L9 68H73L67 52.5Z" fill="#D9D9D9"/>
<ellipse cx="21" cy="9.5" rx="21" ry="9.5" transform="matrix(-1 0 0 1 64 52)" fill="url(#paint2_radial_373_2923)"/>
<path fill-rule="evenodd" clip-rule="evenodd" d="M42.4552 3.08324C42.1644 2.14448 40.8356 2.14448 40.5448 3.08324L38.252 10.4839C38.1223 10.9025 37.7351 11.188 37.2968 11.188H29.7797C28.8225 11.188 28.4122 12.4032 29.1736 12.9834L35.3358 17.6788C35.6697 17.9333 35.8091 18.3692 35.6849 18.7702L33.3507 26.3046C33.0626 27.2343 34.1378 27.9858 34.912 27.3959L38.1111 24.9582V60C38.1111 60.5523 38.5588 61 39.1111 61H43.8889C44.4412 61 44.8889 60.5523 44.8889 60V24.9582L48.0881 27.3959C48.8623 27.9858 49.9374 27.2343 49.6494 26.3046L47.3152 18.7702C47.1909 18.3692 47.3304 17.9333 47.6643 17.6788L53.8265 12.9834C54.5878 12.4032 54.1775 11.188 53.2204 11.188H45.7032C45.2649 11.188 44.8777 10.9025 44.748 10.4839L42.4552 3.08324Z" fill="url(#paint3_linear_373_2923)"/>
<defs>
<radialGradient id="paint0_radial_373_2923" cx="0" cy="0" r="1" gradientUnits="userSpaceOnUse" gradientTransform="translate(41.5 15.5) rotate(90) scale(15.5 41.5)">
<stop offset="0.6875" stop-opacity="0.43"/>
<stop offset="1" stop-opacity="0"/>
</radialGradient>
<linearGradient id="paint1_linear_373_2923" x1="32" y1="0" x2="32" y2="18" gradientUnits="userSpaceOnUse">
<stop stop-color="#D9D9D9"/>
<stop offset="1" stop-color="#6C6C6C"/>
</linearGradient>
<radialGradient id="paint2_radial_373_2923" cx="0" cy="0" r="1" gradientUnits="userSpaceOnUse" gradientTransform="translate(21 9.5) rotate(90) scale(9.5 21)">
<stop offset="0.6875" stop-opacity="0.43"/>
<stop offset="1" stop-opacity="0"/>
</radialGradient>
<linearGradient id="paint3_linear_373_2923" x1="47.8974" y1="7.53087" x2="23.0554" y2="50.2822" gradientUnits="userSpaceOnUse">
<stop stop-color="white"/>
<stop offset="1" stop-color="#8E8E8E"/>
</linearGradient>
</defs>
</svg>
