<svg width="229" height="55" viewBox="0 0 229 55" fill="none" xmlns="http://www.w3.org/2000/svg">
<path d="M2.44882 53.5L28.969 1.5H216.369L227.157 53.5H2.44882Z" fill="url(#paint0_radial_377_5005)" stroke="#DB3030" stroke-width="3"/>
<path d="M70.8109 36.0996L72.0251 35.2189L70.8109 36.0996C72.6945 38.6968 76.4569 40.697 80.5942 42.0788C84.8077 43.486 89.7201 44.3536 94.2402 44.4882C98.8129 44.6244 105.684 43.5754 110.955 41.3129C113.579 40.1865 115.986 38.6847 117.457 36.7168C118.926 34.7516 119.406 32.3819 118.393 29.7929C118.689 29.4813 119.221 29.0721 119.989 28.5709C120.904 27.9733 121.935 27.3795 123.014 26.7574C123.807 26.3001 124.627 25.8275 125.448 25.327C127.604 24.0111 129.132 22.7646 130.075 21.5413C131.041 20.2882 131.474 18.9397 131.151 17.5761C130.846 16.2892 129.94 15.3233 128.999 14.6093C128.041 13.8822 126.864 13.2794 125.709 12.7684C120.859 10.6222 113.166 9.30169 96.7479 12.0619C89.9528 13.2043 81.3608 15.7474 75.4873 19.5836C72.559 21.4962 70.1199 23.8506 69.0602 26.6909C67.9566 29.6491 68.4518 32.8467 70.8109 36.0996ZM118.208 29.3548C118.209 29.3559 118.209 29.357 118.21 29.3581C118.209 29.357 118.209 29.3559 118.208 29.3548L118.208 29.3548Z" stroke="#FF4545" stroke-width="3"/>
<defs>
<radialGradient id="paint0_radial_377_5005" cx="0" cy="0" r="1" gradientUnits="userSpaceOnUse" gradientTransform="translate(114.5 27.5) rotate(176.188) scale(103.232 102.762)">
<stop stop-color="#DB3030"/>
<stop offset="1" stop-color="#AB2525"/>
</radialGradient>
</defs>
</svg>
