<svg width="149" height="165" viewBox="0 0 149 165" fill="none" xmlns="http://www.w3.org/2000/svg">
<ellipse cx="44.5" cy="14.2934" rx="44.5" ry="14.2934" transform="matrix(-1 0 0 1 145.342 136.001)" fill="url(#paint0_radial_373_2731)"/>
<g filter="url(#filter0_d_373_2731)">
<mask id="path-2-inside-1_373_2731" fill="white">
<path fill-rule="evenodd" clip-rule="evenodd" d="M66.4723 40.5468L48.5465 18.6352L49.8868 46.9135L22.2227 39.738L40.1482 61.6493L13.3125 71.9506L40.9768 79.1261L25.2195 102.97L52.0554 92.6683L53.3956 120.946L69.1527 97.1029L87.0785 119.015L85.7382 90.7363L113.402 97.9117L95.4768 76.0004L122.313 65.6991L94.6482 58.5236L110.405 34.6801L83.5696 44.9814L82.2294 16.7036L66.4723 40.5468Z"/>
</mask>
<path fill-rule="evenodd" clip-rule="evenodd" d="M66.4723 40.5468L48.5465 18.6352L49.8868 46.9135L22.2227 39.738L40.1482 61.6493L13.3125 71.9506L40.9768 79.1261L25.2195 102.97L52.0554 92.6683L53.3956 120.946L69.1527 97.1029L87.0785 119.015L85.7382 90.7363L113.402 97.9117L95.4768 76.0004L122.313 65.6991L94.6482 58.5236L110.405 34.6801L83.5696 44.9814L82.2294 16.7036L66.4723 40.5468Z" fill="url(#paint1_radial_373_2731)"/>
<path d="M48.5465 18.6352L52.4165 15.4693L42.8358 3.75834L43.5521 18.872L48.5465 18.6352ZM66.4723 40.5468L62.6024 43.7128L66.9009 48.9671L70.6437 43.3036L66.4723 40.5468ZM49.8868 46.9135L48.6314 51.7533L55.2026 53.4577L54.8812 46.6768L49.8868 46.9135ZM22.2227 39.738L23.478 34.8982L8.65852 31.0543L18.3527 42.904L22.2227 39.738ZM40.1482 61.6493L41.9401 66.3172L48.3988 63.838L44.0182 58.4833L40.1482 61.6493ZM13.3125 71.9506L11.5207 67.2827L-3.04398 72.8735L12.0571 76.7904L13.3125 71.9506ZM40.9768 79.1261L45.1482 81.8828L49.0071 76.0436L42.2321 74.2863L40.9768 79.1261ZM25.2195 102.97L21.0481 100.213L12.4467 113.228L27.0114 107.638L25.2195 102.97ZM52.0554 92.6683L57.0497 92.4316L56.7222 85.5212L50.2635 88.0004L52.0554 92.6683ZM53.3956 120.946L48.4012 121.183L49.126 136.476L57.567 123.703L53.3956 120.946ZM69.1527 97.1029L73.0226 93.9369L68.7241 88.6826L64.9813 94.3462L69.1527 97.1029ZM87.0785 119.015L83.2085 122.181L92.7892 133.891L92.0729 118.778L87.0785 119.015ZM85.7382 90.7363L86.9936 85.8964L80.4224 84.192L80.7438 90.973L85.7382 90.7363ZM113.402 97.9117L112.147 102.752L126.966 106.595L117.272 94.7458L113.402 97.9117ZM95.4768 76.0004L93.6849 71.3325L87.2262 73.8118L91.6068 79.1664L95.4768 76.0004ZM122.313 65.6991L124.104 70.367L138.669 64.7762L123.568 60.8593L122.313 65.6991ZM94.6482 58.5236L90.4768 55.7669L86.6179 61.6062L93.3929 63.3635L94.6482 58.5236ZM110.405 34.6801L114.577 37.4368L123.178 24.4214L108.614 30.0122L110.405 34.6801ZM83.5696 44.9814L78.5753 45.2181L78.9028 52.1286L85.3615 49.6493L83.5696 44.9814ZM82.2294 16.7036L87.2238 16.4669L86.499 1.17415L78.058 13.9469L82.2294 16.7036ZM44.6766 21.8012L62.6024 43.7128L70.3423 37.3809L52.4165 15.4693L44.6766 21.8012ZM54.8812 46.6768L53.5409 18.3985L43.5521 18.872L44.8924 47.1502L54.8812 46.6768ZM20.9673 44.5779L48.6314 51.7533L51.1421 42.0736L23.478 34.8982L20.9673 44.5779ZM44.0182 58.4833L26.0926 36.572L18.3527 42.904L36.2783 64.8153L44.0182 58.4833ZM15.1043 76.6185L41.9401 66.3172L38.3564 56.9814L11.5207 67.2827L15.1043 76.6185ZM42.2321 74.2863L14.5678 67.1108L12.0571 76.7904L39.7214 83.966L42.2321 74.2863ZM29.3909 105.726L45.1482 81.8828L36.8054 76.3694L21.0481 100.213L29.3909 105.726ZM50.2635 88.0004L23.4277 98.3018L27.0114 107.638L53.8472 97.3362L50.2635 88.0004ZM58.39 120.709L57.0497 92.4316L47.061 92.9051L48.4012 121.183L58.39 120.709ZM64.9813 94.3462L49.2242 118.189L57.567 123.703L73.3241 99.8596L64.9813 94.3462ZM90.9484 115.849L73.0226 93.9369L65.2827 100.269L83.2085 122.181L90.9484 115.849ZM80.7438 90.973L82.0841 119.251L92.0729 118.778L90.7326 90.4996L80.7438 90.973ZM114.658 93.0719L86.9936 85.8964L84.4829 95.5761L112.147 102.752L114.658 93.0719ZM91.6068 79.1664L109.532 101.078L117.272 94.7458L99.3467 72.8344L91.6068 79.1664ZM120.521 61.0312L93.6849 71.3325L97.2686 80.6683L124.104 70.367L120.521 61.0312ZM93.3929 63.3635L121.057 70.539L123.568 60.8593L95.9036 53.6838L93.3929 63.3635ZM106.234 31.9234L90.4768 55.7669L98.8196 61.2803L114.577 37.4368L106.234 31.9234ZM85.3615 49.6493L112.197 39.348L108.614 30.0122L81.7778 40.3135L85.3615 49.6493ZM77.235 16.9403L78.5753 45.2181L88.564 44.7447L87.2238 16.4669L77.235 16.9403ZM70.6437 43.3036L86.4008 19.4603L78.058 13.9469L62.3009 37.7901L70.6437 43.3036Z" fill="#FF4545" mask="url(#path-2-inside-1_373_2731)"/>
</g>
<path d="M80.9384 112.024C80.3731 112.63 79.4239 112.663 78.8183 112.097C78.2127 111.532 78.18 110.583 78.7452 109.977L80.9384 112.024ZM99.7812 113.561C96.3697 110.15 93.1648 108.178 90.1558 107.802C87.2606 107.44 84.2089 108.52 80.9384 112.024L78.7452 109.977C82.4746 105.981 86.4229 104.312 90.5278 104.825C94.5188 105.324 98.3139 107.851 101.902 111.44L99.7812 113.561Z" fill="#42361E"/>
<path d="M98.1681 113.365L98.2529 114.857L98.1682 113.365C98.5324 113.344 99.0776 113.153 99.8371 112.638C100.579 112.135 101.399 111.411 102.296 110.515C103.369 109.442 104.425 108.26 105.522 107.031C106.321 106.137 107.142 105.218 108.008 104.298C112.656 99.3609 116.855 97.0977 120.714 96.5494C124.578 96.0003 127.834 97.2101 130.492 98.659C133.249 100.161 135.877 102.459 137.438 106.447C138.978 110.381 139.418 115.805 138.163 123.462C136.061 136.278 123.437 157.812 96.2024 156.544C85.7498 156.057 76.5908 148.596 74.0825 140.765C72.7594 136.635 73.7108 130.081 77.4284 124.473C81.2113 118.766 87.9006 113.948 98.1681 113.365Z" fill="url(#paint2_linear_373_2731)" stroke="#725D35" stroke-width="3"/>
<circle cx="2.5" cy="2.5" r="2.5" transform="matrix(-1 0 0 1 124.342 116.001)" fill="#725D35"/>
<circle cx="2.5" cy="2.5" r="2.5" transform="matrix(-1 0 0 1 112.342 113.001)" fill="#725D35"/>
<path d="M119.36 125.353C115.427 128.495 110.387 127.238 108.687 122.692" stroke="#725D35" stroke-width="3" stroke-linecap="round"/>
<path d="M79.7341 102.773L79.7375 102.79L79.7406 102.807L81.2841 111.379C81.2841 111.379 81.2842 111.379 81.2842 111.379C81.5446 112.825 80.5855 114.213 79.1368 114.476L77.9237 114.696C76.4732 114.96 75.0878 113.995 74.8271 112.547C74.8271 112.547 74.8271 112.547 74.8271 112.547L73.2866 103.992L64.8118 62.4261L64.5079 60.9354L66.0028 60.6526L69.5028 59.9905L70.9559 59.7156L71.2514 61.1647L79.7341 102.773Z" fill="url(#paint3_linear_373_2731)" stroke="url(#paint4_linear_373_2731)" stroke-width="3"/>
<mask id="path-10-outside-2_373_2731" maskUnits="userSpaceOnUse" x="36.8242" y="35.4032" width="65.4582" height="65.4582" fill="black">
<rect fill="white" x="36.8242" y="35.4032" width="65.4582" height="65.4582"/>
<path fill-rule="evenodd" clip-rule="evenodd" d="M70.5569 70.8529L78.8966 69.402C79.6547 70.1656 80.3239 70.7949 80.9122 71.3482C83.8445 74.1059 84.7704 74.9767 84.7033 81.176C84.7033 81.176 94.1106 73.1847 91.3054 63.4118C88.911 55.0701 80.284 50.8463 80.284 50.8463C82.7468 56.9124 81.7926 59.4023 77.6905 62.5623L75.428 62.9612L63.2806 65.1032L61.0181 65.5021C56.0826 63.9356 54.3344 61.9223 54.5739 55.3797C54.5739 55.3797 47.9118 62.2993 48.5149 70.9569C49.2214 81.0999 60.7944 85.3918 60.7944 85.3918C58.6112 79.5893 59.1834 78.4543 60.9956 74.8601C61.3593 74.1389 61.7728 73.3186 62.2241 72.3418L70.5569 70.8529Z"/>
</mask>
<path fill-rule="evenodd" clip-rule="evenodd" d="M70.5569 70.8529L78.8966 69.402C79.6547 70.1656 80.3239 70.7949 80.9122 71.3482C83.8445 74.1059 84.7704 74.9767 84.7033 81.176C84.7033 81.176 94.1106 73.1847 91.3054 63.4118C88.911 55.0701 80.284 50.8463 80.284 50.8463C82.7468 56.9124 81.7926 59.4023 77.6905 62.5623L75.428 62.9612L63.2806 65.1032L61.0181 65.5021C56.0826 63.9356 54.3344 61.9223 54.5739 55.3797C54.5739 55.3797 47.9118 62.2993 48.5149 70.9569C49.2214 81.0999 60.7944 85.3918 60.7944 85.3918C58.6112 79.5893 59.1834 78.4543 60.9956 74.8601C61.3593 74.1389 61.7728 73.3186 62.2241 72.3418L70.5569 70.8529Z" fill="url(#paint5_linear_373_2731)"/>
<path d="M78.8966 69.402L78.3824 66.4464L79.9234 66.1783L81.0255 67.2883L78.8966 69.402ZM70.5569 70.8529L70.0292 67.8996L70.0427 67.8973L70.5569 70.8529ZM80.9122 71.3482L82.9675 69.1629L82.9675 69.1629L80.9122 71.3482ZM84.7033 81.176L86.6456 83.4624L81.6324 87.721L81.7035 81.1435L84.7033 81.176ZM91.3054 63.4118L88.4218 64.2395L88.4218 64.2395L91.3054 63.4118ZM80.284 50.8463L77.5043 51.9749L74.5503 44.6989L81.6032 48.1519L80.284 50.8463ZM77.6905 62.5623L79.5213 64.9389L78.9374 65.3887L78.2115 65.5167L77.6905 62.5623ZM75.428 62.9612L75.949 65.9157L75.949 65.9157L75.428 62.9612ZM63.2806 65.1032L63.8015 68.0576L63.8015 68.0576L63.2806 65.1032ZM61.0181 65.5021L61.539 68.4565L60.8131 68.5845L60.1105 68.3615L61.0181 65.5021ZM54.5739 55.3797L52.4128 53.299L57.8593 47.642L57.5719 55.4895L54.5739 55.3797ZM48.5149 70.9569L45.5221 71.1654L45.5221 71.1654L48.5149 70.9569ZM60.7944 85.3918L63.6023 84.3353L65.9187 90.4917L59.7513 88.2046L60.7944 85.3918ZM60.9956 74.8601L58.3169 73.5094L58.3169 73.5094L60.9956 74.8601ZM62.2241 72.3418L59.5006 71.0837L60.1566 69.6637L61.6964 69.3886L62.2241 72.3418ZM79.4108 72.3576L71.0711 73.8085L70.0427 67.8973L78.3824 66.4464L79.4108 72.3576ZM78.857 73.5336C78.2691 72.9808 77.566 72.3198 76.7677 71.5157L81.0255 67.2883C81.7434 68.0114 82.3786 68.609 82.9675 69.1629L78.857 73.5336ZM81.7035 81.1435C81.7366 78.0884 81.4978 76.8857 81.1875 76.1818C80.8886 75.504 80.4257 75.009 78.857 73.5336L82.9675 69.1629C84.3309 70.4452 85.7971 71.7644 86.6775 73.7612C87.5464 75.7319 87.7372 78.0643 87.7032 81.2084L81.7035 81.1435ZM94.1889 62.5841C95.9205 68.6165 93.8317 73.9589 91.6042 77.5425C90.4769 79.356 89.2597 80.8131 88.327 81.8168C87.8582 82.3213 87.4549 82.7181 87.1612 82.9953C87.0142 83.134 86.8941 83.2433 86.8065 83.3215C86.7627 83.3607 86.7269 83.3921 86.6999 83.4156C86.6864 83.4274 86.675 83.4372 86.6659 83.445C86.6614 83.4489 86.6574 83.4523 86.654 83.4552C86.6523 83.4566 86.6508 83.458 86.6494 83.4592C86.6487 83.4598 86.6477 83.4606 86.6474 83.4609C86.6465 83.4616 86.6456 83.4624 84.7033 81.176C82.7611 78.8896 82.7603 78.8902 82.7595 78.8909C82.7593 78.8911 82.7586 78.8917 82.7582 78.8921C82.7573 78.8928 82.7566 78.8934 82.7561 78.8938C82.7549 78.8948 82.7544 78.8953 82.7543 78.8953C82.7543 78.8954 82.7564 78.8935 82.7606 78.8899C82.769 78.8826 82.7857 78.8679 82.8101 78.8462C82.8589 78.8026 82.9382 78.7306 83.043 78.6318C83.2528 78.4337 83.5624 78.1299 83.9318 77.7325C84.6753 76.9324 85.6345 75.7809 86.5084 74.375C88.2832 71.5197 89.4955 67.98 88.4218 64.2395L94.1889 62.5841ZM80.284 50.8463C81.6032 48.1519 81.6041 48.1524 81.605 48.1529C81.6054 48.153 81.6064 48.1535 81.6071 48.1539C81.6085 48.1546 81.6101 48.1554 81.6118 48.1562C81.6152 48.1579 81.6192 48.1598 81.6237 48.1621C81.6326 48.1665 81.6437 48.172 81.6568 48.1786C81.6829 48.1918 81.7173 48.2092 81.7593 48.2309C81.8434 48.2744 81.9584 48.3351 82.1007 48.413C82.3849 48.5688 82.7794 48.7941 83.2538 49.0892C84.1997 49.6775 85.4802 50.5534 86.8457 51.7202C89.5434 54.0253 92.7681 57.6342 94.1889 62.5841L88.4218 64.2395C87.4482 60.8477 85.1623 58.1738 82.9479 56.2817C81.8573 55.3498 80.8314 54.6484 80.0849 54.1841C79.7132 53.9529 79.4149 53.7831 79.218 53.6752C79.1197 53.6213 79.0471 53.5832 79.0036 53.5607C78.9819 53.5494 78.9675 53.5422 78.9609 53.5388C78.9576 53.5372 78.9562 53.5365 78.9568 53.5368C78.9572 53.537 78.958 53.5374 78.9593 53.538C78.96 53.5384 78.9608 53.5387 78.9617 53.5392C78.9621 53.5394 78.9629 53.5398 78.9632 53.5399C78.964 53.5403 78.9648 53.5407 80.284 50.8463ZM75.8597 60.1857C77.7706 58.7137 78.3486 57.8277 78.5385 57.0672C78.7434 56.2466 78.6741 54.856 77.5043 51.9749L83.0636 49.7178C84.3567 52.9028 85.0417 55.7902 84.3597 58.521C83.6627 61.312 81.7126 63.2509 79.5213 64.9389L75.8597 60.1857ZM74.9071 60.0068L77.1696 59.6079L78.2115 65.5167L75.949 65.9157L74.9071 60.0068ZM62.7596 62.1487L74.9071 60.0068L75.949 65.9157L63.8015 68.0576L62.7596 62.1487ZM63.8015 68.0576L61.539 68.4565L60.4971 62.5477L62.7596 62.1487L63.8015 68.0576ZM60.1105 68.3615C57.4741 67.5248 54.9784 66.3698 53.3689 63.9855C51.7941 61.6526 51.4502 58.7051 51.5759 55.2699L57.5719 55.4895C57.4581 58.5969 57.8686 59.9274 58.3418 60.6284C58.7804 61.2781 59.6265 61.913 61.9256 62.6427L60.1105 68.3615ZM54.5739 55.3797C56.7351 57.4604 56.7357 57.4598 56.7364 57.4591C56.7365 57.4589 56.7372 57.4583 56.7375 57.4579C56.7382 57.4572 56.7388 57.4565 56.7393 57.456C56.7404 57.4549 56.741 57.4543 56.7412 57.454C56.7417 57.4535 56.7407 57.4546 56.7381 57.4573C56.7331 57.4627 56.722 57.4745 56.7055 57.4924C56.6723 57.5284 56.6171 57.5892 56.5431 57.6734C56.395 57.8421 56.1728 58.1037 55.9026 58.4481C55.3599 59.1397 54.6358 60.1497 53.9297 61.3984C52.496 63.9338 51.2624 67.2282 51.5076 70.7485L45.5221 71.1654C45.1643 66.028 46.9602 61.5339 48.7068 58.4451C49.5909 56.8817 50.4946 55.6206 51.1822 54.7443C51.5271 54.3047 51.8207 53.9581 52.0346 53.7145C52.1416 53.5926 52.2289 53.4962 52.2931 53.4266C52.3251 53.3918 52.3514 53.3637 52.3715 53.3424C52.3816 53.3317 52.3901 53.3227 52.397 53.3155C52.4004 53.3119 52.4035 53.3087 52.4061 53.306C52.4074 53.3046 52.4086 53.3033 52.4097 53.3021C52.4103 53.3016 52.4111 53.3008 52.4113 53.3005C52.4121 53.2997 52.4128 53.299 54.5739 55.3797ZM51.5076 70.7485C51.778 74.6307 54.1278 77.5422 56.7722 79.6183C58.0742 80.6405 59.3694 81.3945 60.3417 81.892C60.8247 82.1392 61.2196 82.3188 61.4845 82.4331C61.6167 82.4902 61.7159 82.5307 61.7767 82.5549C61.807 82.5671 61.8277 82.5751 61.8381 82.5791C61.8433 82.5811 61.8459 82.5821 61.8459 82.582C61.8458 82.582 61.8451 82.5818 61.8438 82.5812C61.8431 82.581 61.8422 82.5807 61.8412 82.5803C61.8407 82.5801 61.8398 82.5798 61.8395 82.5797C61.8386 82.5793 61.8376 82.5789 60.7944 85.3918C59.7513 88.2046 59.7502 88.2042 59.7491 88.2037C59.7487 88.2036 59.7475 88.2032 59.7467 88.2028C59.7449 88.2022 59.743 88.2015 59.7409 88.2007C59.7367 88.1991 59.7318 88.1973 59.7262 88.1952C59.715 88.1909 59.701 88.1856 59.6843 88.1792C59.6509 88.1663 59.6065 88.149 59.5519 88.1272C59.4428 88.0837 59.2927 88.0221 59.1071 87.942C58.7363 87.782 58.2215 87.547 57.6085 87.2333C56.3888 86.6092 54.7466 85.6562 53.067 84.3376C49.7482 81.732 45.9582 77.4262 45.5221 71.1654L51.5076 70.7485ZM57.9866 86.4482C56.8793 83.5054 56.2608 81.2484 56.4033 79.0994C56.5477 76.9219 57.4742 75.1807 58.3169 73.5094L63.6744 76.2107C62.7048 78.1337 62.4392 78.7571 62.3902 79.4963C62.3393 80.2639 62.5263 81.4757 63.6023 84.3353L57.9866 86.4482ZM58.3169 73.5094C58.6808 72.7876 59.0733 72.0087 59.5006 71.0837L64.9475 73.5999C64.4724 74.6285 64.0377 75.4902 63.6744 76.2107L58.3169 73.5094ZM61.6964 69.3886L70.0292 67.8997L71.0846 73.8061L62.7518 75.295L61.6964 69.3886Z" fill="url(#paint6_linear_373_2731)" mask="url(#path-10-outside-2_373_2731)"/>
<path d="M136.386 135.339C149.622 120.925 151.501 98.8289 134.625 90.6482C117.749 82.4676 103.128 88.9973 94.1804 107.418C89.0698 117.94 98.8257 132.926 98.8257 132.926L103.254 117.102L102.59 104.406L115.725 108.722L115.418 117.527L120.644 110.546L137.593 116.648L124.606 123.908L113.505 140.601C113.505 140.601 130.347 141.916 136.386 135.339Z" fill="url(#paint7_linear_373_2731)" stroke="#725D35" stroke-width="3"/>
<path d="M144.461 73.9111L144.447 74.3219L144.225 74.668L130.758 95.686L128.056 94.4529L134.965 71.0019L135.114 70.4946L135.549 70.1932L142.357 65.4721L144.815 63.7674L144.711 66.7571L144.461 73.9111Z" fill="url(#paint8_linear_373_2731)" stroke="#725D35" stroke-width="3"/>
<path d="M100.342 138.766C88.8418 138.766 79.3418 118.5 79.3418 112.5" stroke="#42361E" stroke-width="3" stroke-linecap="round"/>
<defs>
<filter id="filter0_d_373_2731" x="1.3125" y="4.70361" width="141" height="136.243" filterUnits="userSpaceOnUse" color-interpolation-filters="sRGB">
<feFlood flood-opacity="0" result="BackgroundImageFix"/>
<feColorMatrix in="SourceAlpha" type="matrix" values="0 0 0 0 0 0 0 0 0 0 0 0 0 0 0 0 0 0 127 0" result="hardAlpha"/>
<feOffset dx="4" dy="4"/>
<feGaussianBlur stdDeviation="8"/>
<feComposite in2="hardAlpha" operator="out"/>
<feColorMatrix type="matrix" values="0 0 0 0 0.839216 0 0 0 0 0.682353 0 0 0 0 0.376471 0 0 0 1 0"/>
<feBlend mode="normal" in2="BackgroundImageFix" result="effect1_dropShadow_373_2731"/>
<feBlend mode="normal" in="SourceGraphic" in2="effect1_dropShadow_373_2731" result="shape"/>
</filter>
<radialGradient id="paint0_radial_373_2731" cx="0" cy="0" r="1" gradientUnits="userSpaceOnUse" gradientTransform="translate(44.5 14.2934) rotate(90) scale(14.2934 44.5)">
<stop offset="0.6875" stop-color="#725B2F"/>
<stop offset="1" stop-color="#725D35" stop-opacity="0"/>
</radialGradient>
<radialGradient id="paint1_radial_373_2731" cx="0" cy="0" r="1" gradientUnits="userSpaceOnUse" gradientTransform="translate(67.8125 68.8249) rotate(69) scale(53.7604 52.0003)">
<stop offset="0.136349" stop-color="#FFC645"/>
<stop offset="1" stop-color="#FF4545"/>
</radialGradient>
<linearGradient id="paint2_linear_373_2731" x1="128.364" y1="102.12" x2="88.3838" y2="154.697" gradientUnits="userSpaceOnUse">
<stop stop-color="#FFF2D9"/>
<stop offset="0.671875" stop-color="#FDDC9B"/>
<stop offset="1" stop-color="#D6AE60"/>
</linearGradient>
<linearGradient id="paint3_linear_373_2731" x1="68.2303" y1="62.2022" x2="89.2508" y2="105.885" gradientUnits="userSpaceOnUse">
<stop stop-color="#565656"/>
<stop offset="1" stop-color="#2E2E2E"/>
</linearGradient>
<linearGradient id="paint4_linear_373_2731" x1="68.0027" y1="102.8" x2="82.7976" y2="106.627" gradientUnits="userSpaceOnUse">
<stop stop-color="#725D35"/>
<stop offset="1" stop-color="#FDDC9B"/>
</linearGradient>
<linearGradient id="paint5_linear_373_2731" x1="81.6105" y1="51.549" x2="65.3476" y2="74.7749" gradientUnits="userSpaceOnUse">
<stop stop-color="#FF4545"/>
<stop offset="1" stop-color="#D9D9D9"/>
</linearGradient>
<linearGradient id="paint6_linear_373_2731" x1="47.5" y1="82" x2="94.5" y2="92" gradientUnits="userSpaceOnUse">
<stop stop-color="#DB3030"/>
<stop offset="1" stop-color="#FFB100"/>
</linearGradient>
<linearGradient id="paint7_linear_373_2731" x1="123.283" y1="86.9463" x2="104.991" y2="139.246" gradientUnits="userSpaceOnUse">
<stop stop-color="#C4C4C4"/>
<stop offset="0.177867" stop-color="white"/>
<stop offset="0.30223" stop-color="#C4C4C4"/>
<stop offset="0.969271" stop-color="#979797"/>
</linearGradient>
<linearGradient id="paint8_linear_373_2731" x1="139.842" y1="68.0002" x2="135.854" y2="95.0988" gradientUnits="userSpaceOnUse">
<stop stop-color="#FFDF6F"/>
<stop offset="1" stop-color="#FFB100"/>
</linearGradient>
</defs>
</svg>
