<svg width="151" height="159" viewBox="0 0 151 159" fill="none" xmlns="http://www.w3.org/2000/svg">
<ellipse cx="47.5" cy="144.294" rx="44.5" ry="14.2934" fill="url(#paint0_radial_320_4423)"/>
<g filter="url(#filter0_d_320_4423)">
<mask id="path-2-inside-1_320_4423" fill="white">
<path fill-rule="evenodd" clip-rule="evenodd" d="M74.4723 40.5468L56.5465 18.6352L57.8868 46.9135L30.2227 39.738L48.1482 61.6493L21.3125 71.9506L48.9768 79.1261L33.2195 102.97L60.0554 92.6683L61.3956 120.946L77.1527 97.1029L95.0785 119.015L93.7382 90.7363L121.402 97.9117L103.477 76.0004L130.313 65.6991L102.648 58.5236L118.405 34.6801L91.5696 44.9814L90.2294 16.7036L74.4723 40.5468Z"/>
</mask>
<path fill-rule="evenodd" clip-rule="evenodd" d="M74.4723 40.5468L56.5465 18.6352L57.8868 46.9135L30.2227 39.738L48.1482 61.6493L21.3125 71.9506L48.9768 79.1261L33.2195 102.97L60.0554 92.6683L61.3956 120.946L77.1527 97.1029L95.0785 119.015L93.7382 90.7363L121.402 97.9117L103.477 76.0004L130.313 65.6991L102.648 58.5236L118.405 34.6801L91.5696 44.9814L90.2294 16.7036L74.4723 40.5468Z" fill="url(#paint1_radial_320_4423)"/>
<path d="M56.5465 18.6352L60.4165 15.4693L50.8358 3.75834L51.5521 18.872L56.5465 18.6352ZM74.4723 40.5468L70.6024 43.7128L74.9009 48.9671L78.6437 43.3036L74.4723 40.5468ZM57.8868 46.9135L56.6314 51.7533L63.2026 53.4577L62.8812 46.6768L57.8868 46.9135ZM30.2227 39.738L31.478 34.8982L16.6585 31.0543L26.3527 42.904L30.2227 39.738ZM48.1482 61.6493L49.9401 66.3172L56.3988 63.838L52.0182 58.4833L48.1482 61.6493ZM21.3125 71.9506L19.5207 67.2827L4.95602 72.8735L20.0571 76.7904L21.3125 71.9506ZM48.9768 79.1261L53.1482 81.8828L57.0071 76.0436L50.2321 74.2863L48.9768 79.1261ZM33.2195 102.97L29.0481 100.213L20.4467 113.228L35.0114 107.638L33.2195 102.97ZM60.0554 92.6683L65.0497 92.4316L64.7222 85.5212L58.2635 88.0004L60.0554 92.6683ZM61.3956 120.946L56.4012 121.183L57.126 136.476L65.567 123.703L61.3956 120.946ZM77.1527 97.1029L81.0226 93.9369L76.7241 88.6826L72.9813 94.3462L77.1527 97.1029ZM95.0785 119.015L91.2085 122.181L100.789 133.891L100.073 118.778L95.0785 119.015ZM93.7382 90.7363L94.9936 85.8964L88.4224 84.192L88.7438 90.973L93.7382 90.7363ZM121.402 97.9117L120.147 102.752L134.966 106.595L125.272 94.7458L121.402 97.9117ZM103.477 76.0004L101.685 71.3325L95.2262 73.8118L99.6068 79.1664L103.477 76.0004ZM130.313 65.6991L132.104 70.367L146.669 64.7762L131.568 60.8593L130.313 65.6991ZM102.648 58.5236L98.4768 55.7669L94.6179 61.6062L101.393 63.3635L102.648 58.5236ZM118.405 34.6801L122.577 37.4368L131.178 24.4214L116.614 30.0122L118.405 34.6801ZM91.5696 44.9814L86.5753 45.2181L86.9028 52.1286L93.3615 49.6493L91.5696 44.9814ZM90.2294 16.7036L95.2238 16.4669L94.499 1.17415L86.058 13.9469L90.2294 16.7036ZM52.6766 21.8012L70.6024 43.7128L78.3423 37.3809L60.4165 15.4693L52.6766 21.8012ZM62.8812 46.6768L61.5409 18.3985L51.5521 18.872L52.8924 47.1502L62.8812 46.6768ZM28.9673 44.5779L56.6314 51.7533L59.1421 42.0736L31.478 34.8982L28.9673 44.5779ZM52.0182 58.4833L34.0926 36.572L26.3527 42.904L44.2783 64.8153L52.0182 58.4833ZM23.1043 76.6185L49.9401 66.3172L46.3564 56.9814L19.5207 67.2827L23.1043 76.6185ZM50.2321 74.2863L22.5678 67.1108L20.0571 76.7904L47.7214 83.966L50.2321 74.2863ZM37.3909 105.726L53.1482 81.8828L44.8054 76.3694L29.0481 100.213L37.3909 105.726ZM58.2635 88.0004L31.4277 98.3018L35.0114 107.638L61.8472 97.3362L58.2635 88.0004ZM66.39 120.709L65.0497 92.4316L55.061 92.9051L56.4012 121.183L66.39 120.709ZM72.9813 94.3462L57.2242 118.189L65.567 123.703L81.3241 99.8596L72.9813 94.3462ZM98.9484 115.849L81.0226 93.9369L73.2827 100.269L91.2085 122.181L98.9484 115.849ZM88.7438 90.973L90.0841 119.251L100.073 118.778L98.7326 90.4996L88.7438 90.973ZM122.658 93.0719L94.9936 85.8964L92.4829 95.5761L120.147 102.752L122.658 93.0719ZM99.6068 79.1664L117.532 101.078L125.272 94.7458L107.347 72.8344L99.6068 79.1664ZM128.521 61.0312L101.685 71.3325L105.269 80.6683L132.104 70.367L128.521 61.0312ZM101.393 63.3635L129.057 70.539L131.568 60.8593L103.904 53.6838L101.393 63.3635ZM114.234 31.9234L98.4768 55.7669L106.82 61.2803L122.577 37.4368L114.234 31.9234ZM93.3615 49.6493L120.197 39.348L116.614 30.0122L89.7778 40.3135L93.3615 49.6493ZM85.235 16.9403L86.5753 45.2181L96.564 44.7447L95.2238 16.4669L85.235 16.9403ZM78.6437 43.3036L94.4008 19.4603L86.058 13.9469L70.3009 37.7901L78.6437 43.3036Z" fill="#FF4545" mask="url(#path-2-inside-1_320_4423)"/>
</g>
<path d="M67.4034 106.024C67.9687 106.63 68.9179 106.662 69.5235 106.097C70.1291 105.532 70.1618 104.583 69.5966 103.977L67.4034 106.024ZM48.5606 107.561C51.9721 104.15 55.177 102.177 58.186 101.801C61.0812 101.44 64.1328 102.52 67.4034 106.024L69.5966 103.977C65.8672 99.9812 61.9188 98.3115 57.814 98.8246C53.823 99.3234 50.0279 101.851 46.4394 105.44L48.5606 107.561Z" fill="#42361E"/>
<path d="M50.1737 107.365L50.0886 108.863L50.1736 107.365C49.8094 107.344 49.2642 107.153 48.5047 106.638C47.7632 106.135 46.9427 105.411 46.046 104.514C44.9725 103.441 43.9169 102.26 42.8197 101.031C42.0208 100.137 41.1998 99.2173 40.3338 98.2974C35.686 93.3607 31.4863 91.0975 27.6276 90.5492C23.7637 90.0001 20.5079 91.2098 17.8495 92.6588C15.0929 94.1611 12.4646 96.4591 10.9037 100.447C9.36387 104.38 8.92357 109.804 10.1792 117.462C12.2806 130.277 24.9048 151.812 52.1394 150.544C62.592 150.057 71.751 142.596 74.2593 134.765C75.5824 130.635 74.631 124.081 70.9134 118.473C67.1305 112.766 60.4412 107.948 50.1737 107.365Z" fill="url(#paint2_linear_320_4423)" stroke="#725D35" stroke-width="3"/>
<circle cx="26.5" cy="112.5" r="2.5" fill="#725D35"/>
<circle cx="38.5" cy="109.5" r="2.5" fill="#725D35"/>
<path d="M28.9819 119.353C32.9144 122.495 37.9546 121.238 39.6552 116.692" stroke="#725D35" stroke-width="3" stroke-linecap="round"/>
<path d="M70.5846 58.2217L70.5845 58.222L63.8582 90.6813C63.6149 91.855 64.3672 93.0072 65.5434 93.2527L72.5454 94.7146C73.7235 94.9606 74.8741 94.2026 75.1176 93.0274L81.8457 60.5599C81.8457 60.5599 81.8457 60.5599 81.8457 60.5598C81.9524 60.0449 81.869 59.5088 81.6112 59.0507L81.6111 59.0507L79.0031 54.4173L79.0031 54.4172C78.3675 53.2881 76.8889 52.9589 75.835 53.7214C75.8349 53.7214 75.8349 53.7214 75.8349 53.7215L71.4392 56.9013L71.4391 56.9013C70.9989 57.2198 70.6947 57.6912 70.5846 58.2217Z" fill="url(#paint3_linear_320_4423)" stroke="url(#paint4_linear_320_4423)" stroke-width="3"/>
<path d="M62.5567 88.4919L62.5568 88.4919L77.2208 91.5535L77.2209 91.5535C78.721 91.8667 79.6812 93.3367 79.3708 94.8348L79.3708 94.8349L79.0969 96.1565C79.0968 96.1566 79.0968 96.1566 79.0968 96.1567C78.7861 97.6566 77.3182 98.6223 75.8165 98.3089L75.8164 98.3088L71.8612 97.4831L70.2334 105.338C70.2334 105.338 70.2334 105.338 70.2334 105.338C69.9226 106.838 68.4549 107.804 66.9529 107.491L62.5567 88.4919ZM62.5567 88.4919C61.0548 88.1785 59.5871 89.1443 59.2763 90.6441C59.2763 90.6441 59.2763 90.6441 59.2763 90.6441L59.0024 91.9659L59.0024 91.966C58.6919 93.4641 59.6522 94.9341 61.1523 95.2473L61.1524 95.2473L65.1119 96.074L63.4832 103.934C63.4832 103.934 63.4832 103.934 63.4832 103.934C63.1727 105.432 64.1329 106.902 65.6331 107.215C65.6332 107.215 65.6332 107.215 65.6332 107.215L66.9529 107.491L62.5567 88.4919Z" fill="url(#paint5_linear_320_4423)" stroke="url(#paint6_linear_320_4423)" stroke-width="3"/>
<path d="M11.9554 129.339C-1.28072 114.925 -3.15948 92.8286 13.7164 84.648C30.5924 76.4673 45.214 82.9971 54.1613 101.418C59.2718 111.94 49.5159 126.925 49.5159 126.925L45.0882 111.102L45.752 98.4058L32.6163 102.721L32.9238 111.526L27.6976 104.546L10.7491 110.648L23.7355 117.908L34.8368 134.601C34.8368 134.601 17.9942 135.915 11.9554 129.339Z" fill="url(#paint7_linear_320_4423)" stroke="#725D35" stroke-width="3"/>
<path d="M17.5835 89.6858L20.2853 88.4527L13.3768 65.0017L13.2273 64.4943L12.7927 64.1929L5.98466 59.4718L3.52639 57.7671L3.6308 60.7568L3.88062 67.9109L3.89497 68.3216L4.11672 68.6677L17.5835 89.6858Z" fill="url(#paint8_linear_320_4423)" stroke="#725D35" stroke-width="3"/>
<defs>
<filter id="filter0_d_320_4423" x="9.3125" y="4.70361" width="141" height="136.243" filterUnits="userSpaceOnUse" color-interpolation-filters="sRGB">
<feFlood flood-opacity="0" result="BackgroundImageFix"/>
<feColorMatrix in="SourceAlpha" type="matrix" values="0 0 0 0 0 0 0 0 0 0 0 0 0 0 0 0 0 0 127 0" result="hardAlpha"/>
<feOffset dx="4" dy="4"/>
<feGaussianBlur stdDeviation="8"/>
<feComposite in2="hardAlpha" operator="out"/>
<feColorMatrix type="matrix" values="0 0 0 0 0.839216 0 0 0 0 0.682353 0 0 0 0 0.376471 0 0 0 1 0"/>
<feBlend mode="normal" in2="BackgroundImageFix" result="effect1_dropShadow_320_4423"/>
<feBlend mode="normal" in="SourceGraphic" in2="effect1_dropShadow_320_4423" result="shape"/>
</filter>
<radialGradient id="paint0_radial_320_4423" cx="0" cy="0" r="1" gradientUnits="userSpaceOnUse" gradientTransform="translate(47.5 144.294) rotate(90) scale(14.2934 44.5)">
<stop offset="0.6875" stop-color="#725B2F"/>
<stop offset="1" stop-color="#725D35" stop-opacity="0"/>
</radialGradient>
<radialGradient id="paint1_radial_320_4423" cx="0" cy="0" r="1" gradientUnits="userSpaceOnUse" gradientTransform="translate(75.8125 68.8249) rotate(69) scale(53.7604 52.0003)">
<stop offset="0.136349" stop-color="#FFC645"/>
<stop offset="1" stop-color="#FF4545"/>
</radialGradient>
<linearGradient id="paint2_linear_320_4423" x1="19.9779" y1="96.1201" x2="59.958" y2="148.697" gradientUnits="userSpaceOnUse">
<stop stop-color="#FFF2D9"/>
<stop offset="0.671875" stop-color="#FDDC9B"/>
<stop offset="1" stop-color="#D6AE60"/>
</linearGradient>
<linearGradient id="paint3_linear_320_4423" x1="83.1878" y1="72.1557" x2="68.3002" y2="75.5928" gradientUnits="userSpaceOnUse">
<stop stop-color="#FF4545"/>
<stop offset="1" stop-color="#D9D9D9"/>
</linearGradient>
<linearGradient id="paint4_linear_320_4423" x1="83.1878" y1="72.1557" x2="62.043" y2="77.0374" gradientUnits="userSpaceOnUse">
<stop stop-color="#DB3030"/>
<stop offset="1" stop-color="#FFB100"/>
</linearGradient>
<linearGradient id="paint5_linear_320_4423" x1="74.9957" y1="93.8841" x2="64.9378" y2="99.4283" gradientUnits="userSpaceOnUse">
<stop stop-color="#565656"/>
<stop offset="1" stop-color="#2E2E2E"/>
</linearGradient>
<linearGradient id="paint6_linear_320_4423" x1="78.1095" y1="94.9081" x2="61.8277" y2="98.6671" gradientUnits="userSpaceOnUse">
<stop stop-color="#725D35"/>
<stop offset="1" stop-color="#FDDC9B"/>
</linearGradient>
<linearGradient id="paint7_linear_320_4423" x1="25.0589" y1="80.946" x2="43.3504" y2="133.246" gradientUnits="userSpaceOnUse">
<stop stop-color="#C4C4C4"/>
<stop offset="0.177867" stop-color="white"/>
<stop offset="0.30223" stop-color="#C4C4C4"/>
<stop offset="0.969271" stop-color="#979797"/>
</linearGradient>
<linearGradient id="paint8_linear_320_4423" x1="8.5" y1="62" x2="12.4878" y2="89.0986" gradientUnits="userSpaceOnUse">
<stop stop-color="#FFDF6F"/>
<stop offset="1" stop-color="#FFB100"/>
</linearGradient>
</defs>
</svg>
