<svg width="98" height="97" viewBox="0 0 98 97" fill="none" xmlns="http://www.w3.org/2000/svg">
<ellipse cx="49.5793" cy="65.4757" rx="27" ry="10" transform="rotate(-180 49.5793 65.4757)" fill="url(#paint0_radial_380_3025)"/>
<path d="M65.9273 37.083C65.3876 37.7115 64.4406 37.7836 63.8121 37.2439C63.1835 36.7043 63.1115 35.7572 63.6511 35.1287L65.9273 37.083ZM82.3637 33.3584C79.8404 32.1764 77.9867 31.3631 76.4878 30.9056C75.009 30.4542 74.0136 30.3943 73.1738 30.5924C72.3275 30.7921 71.4436 31.2997 70.2757 32.3633C69.0958 33.4378 67.7432 34.968 65.9273 37.083L63.6511 35.1287C65.445 33.0394 66.9162 31.3651 68.2557 30.1452C69.6073 28.9143 70.9386 28.0374 72.485 27.6726C74.0379 27.3062 75.6128 27.5019 77.3636 28.0363C79.0943 28.5646 81.1295 29.4674 83.6363 30.6416L82.3637 33.3584Z" fill="#42361E"/>
<path d="M60.1014 32.7194L60.7625 31.5144C68.5709 35.7985 72.0161 42.0687 72.848 47.9596C73.6634 53.7335 71.9683 59.2382 69.3601 62.0098C64.4533 67.2239 54.493 69.6369 46.1283 66.1149C24.4006 56.9662 22.5691 35.4567 25.6991 24.6751C27.564 18.2506 29.9271 14.1665 32.6148 11.6494C35.3449 9.09265 38.2848 8.269 41.0169 8.12147M60.1014 32.7194L41.0169 8.12147M60.1014 32.7194L60.7625 31.5144C60.536 31.3901 60.2077 31.0777 59.8174 30.4113M60.1014 32.7194L59.8174 30.4113M41.0169 8.12147C43.6375 7.97992 46.663 8.24684 49.5104 10.1378M41.0169 8.12147L49.5104 10.1378M59.8174 30.4113C59.438 29.7636 59.0748 28.9123 58.7127 27.8904M59.8174 30.4113L58.7127 27.8904M58.7127 27.8904C58.2777 26.6631 57.9 25.3684 57.5057 24.0167M58.7127 27.8904L57.5057 24.0167M57.5057 24.0167C57.217 23.0273 56.9195 22.0072 56.584 20.9606M57.5057 24.0167L56.584 20.9606M56.584 20.9606C54.7961 15.3831 52.3534 12.0258 49.5104 10.1378M56.584 20.9606L49.5104 10.1378" fill="url(#paint1_linear_380_3025)" stroke="#725D35" stroke-width="3"/>
<circle cx="40.3973" cy="26.9238" r="2.14856" transform="rotate(25.5 40.3973 26.9238)" fill="#725D35"/>
<circle cx="50.8155" cy="29.0366" r="2.14856" transform="rotate(25.5 50.8155 29.0366)" fill="#725D35"/>
<path d="M39.7871 33.1576C41.675 37.0498 46.0496 37.9398 49.051 35.0423" stroke="#725D35" stroke-width="3" stroke-linecap="round"/>
<path d="M55.8675 54.0005C55.0876 53.7211 54.6819 52.8624 54.9613 52.0825C55.2407 51.3026 56.0994 50.8969 56.8793 51.1763L55.8675 54.0005ZM87.007 54.0002C77.1558 57.5378 64.2969 57.0206 55.8675 54.0005L56.8793 51.1763C64.7031 53.9794 76.8442 54.4622 85.993 51.1767L87.007 54.0002Z" fill="#42361E"/>
<defs>
<radialGradient id="paint0_radial_380_3025" cx="0" cy="0" r="1" gradientUnits="userSpaceOnUse" gradientTransform="translate(49.5793 65.4757) rotate(90) scale(10 27)">
<stop offset="0.6875" stop-opacity="0.43"/>
<stop offset="1" stop-opacity="0"/>
</radialGradient>
<linearGradient id="paint1_linear_380_3025" x1="41.3986" y1="11.8045" x2="52.9584" y2="67.3806" gradientUnits="userSpaceOnUse">
<stop stop-color="#FFF2D9"/>
<stop offset="0.671875" stop-color="#FDDC9B"/>
<stop offset="1" stop-color="#D6AE60"/>
</linearGradient>
</defs>
</svg>
