<svg width="70" height="62" viewBox="0 0 70 62" fill="none" xmlns="http://www.w3.org/2000/svg">
<ellipse cx="27" cy="10" rx="27" ry="10" transform="matrix(-1 0 0 1 59 42)" fill="url(#paint0_radial_380_3006)"/>
<path d="M21.9034 19.7893C22.4687 20.3949 23.4179 20.4276 24.0235 19.8624C24.6291 19.2971 24.6618 18.3479 24.0966 17.7423L21.9034 19.7893ZM6.05259 7.93178C9.93778 9.14591 12.1248 10.2637 14.1828 11.9251C16.3249 13.6544 18.3399 15.9712 21.9034 19.7893L24.0966 17.7423C20.6601 14.0604 18.4251 11.4943 16.0672 9.59079C13.6252 7.61933 11.0622 6.35422 6.94741 5.06834L6.05259 7.93178Z" fill="#42361E"/>
<path d="M28.6889 17.7273L28.6109 16.3551C19.7189 16.8603 13.91 21.0365 10.623 25.9954C7.40129 30.8557 6.56142 36.554 7.72233 40.1784C9.90638 46.9971 17.8576 53.463 26.9237 53.8852C50.4734 54.9817 61.3866 36.356 63.2031 25.2772C64.2856 18.6757 63.9111 13.9722 62.5688 10.5431C61.2054 7.06014 58.9064 5.05104 56.5039 3.74168M28.6889 17.7273L56.5039 3.74168M28.6889 17.7273L28.611 16.3551C28.8689 16.3405 29.2997 16.1997 29.9389 15.7663M28.6889 17.7273L29.9389 15.7663M56.5039 3.74168C54.1996 2.48574 51.3539 1.42414 47.9698 1.90502M56.5039 3.74168L47.9698 1.90502M29.9389 15.7663C30.5602 15.3451 31.2545 14.733 32.0213 13.9666M29.9389 15.7663L32.0213 13.9666M32.0213 13.9666C32.9423 13.0461 33.8405 12.0402 34.7784 10.9899M32.0213 13.9666L34.7784 10.9899M34.7784 10.9899C35.4649 10.2211 36.1726 9.42855 36.926 8.62829M34.7784 10.9899L36.926 8.62829M36.926 8.62829C40.9409 4.36384 44.5909 2.38516 47.9698 1.90502M36.926 8.62829L47.9698 1.90502" fill="url(#paint1_linear_380_3006)" stroke="#725D35" stroke-width="3"/>
<circle cx="2.14856" cy="2.14856" r="2.14856" transform="matrix(-1 0 0 1 51.1172 18.8306)" fill="#725D35"/>
<circle cx="2.14856" cy="2.14856" r="2.14856" transform="matrix(-1 0 0 1 40.8042 16.2523)" fill="#725D35"/>
<path d="M46.8357 26.8683C43.456 29.5686 39.1244 28.4886 37.6629 24.5813" stroke="#725D35" stroke-width="3" stroke-linecap="round"/>
<path d="M23.1607 38.7269C23.9677 38.9143 24.7737 38.412 24.9611 37.6051C25.1485 36.7981 24.6462 35.992 23.8393 35.8047L23.1607 38.7269ZM0.811458 26.4151C7.40499 34.9791 14.432 36.7 23.1607 38.7269L23.8393 35.8047C15.1746 33.7926 9.09107 32.2514 3.18854 24.585L0.811458 26.4151Z" fill="#42361E"/>
<defs>
<radialGradient id="paint0_radial_380_3006" cx="0" cy="0" r="1" gradientUnits="userSpaceOnUse" gradientTransform="translate(27 10) rotate(90) scale(10 27)">
<stop offset="0.6875" stop-opacity="0.43"/>
<stop offset="1" stop-opacity="0"/>
</radialGradient>
<linearGradient id="paint1_linear_380_3006" x1="54.5739" y1="6.90159" x2="20.214" y2="52.0871" gradientUnits="userSpaceOnUse">
<stop stop-color="#FFF2D9"/>
<stop offset="0.671875" stop-color="#FDDC9B"/>
<stop offset="1" stop-color="#D6AE60"/>
</linearGradient>
</defs>
</svg>
