<svg width="102" height="107" viewBox="0 0 102 107" fill="none" xmlns="http://www.w3.org/2000/svg">
<path d="M67.4034 58.024C67.9687 58.6296 68.9179 58.6623 69.5235 58.0971C70.1291 57.5318 70.1618 56.5826 69.5966 55.977L67.4034 58.024ZM48.5606 59.561C51.9721 56.1496 55.177 54.1775 58.186 53.8014C61.0812 53.4395 64.1328 54.5198 67.4034 58.024L69.5966 55.977C65.8672 51.9812 61.9188 50.3115 57.814 50.8246C53.823 51.3234 50.0279 53.8512 46.4394 57.4396L48.5606 59.561Z" fill="#42361E"/>
<path d="M50.1737 59.3649L50.0886 60.8625L50.1736 59.3649C49.8094 59.3442 49.2642 59.1529 48.5047 58.638C47.7632 58.1351 46.9427 57.4106 46.046 56.5143C44.9725 55.4414 43.9169 54.2595 42.8197 53.031C42.0208 52.1365 41.1998 51.2173 40.3338 50.2974C35.686 45.3607 31.4863 43.0975 27.6276 42.5492C23.7637 42.0001 20.5079 43.2098 17.8495 44.6588C15.0929 46.1611 12.4646 48.4591 10.9037 52.4467C9.36387 56.3804 8.92357 61.8044 10.1792 69.4618C12.2806 82.2774 24.9048 103.812 52.1394 102.544C62.592 102.057 71.751 94.5962 74.2593 86.7652C75.5824 82.6346 74.631 76.0812 70.9134 70.4727C67.1305 64.7656 60.4412 59.9483 50.1737 59.3649Z" fill="url(#paint0_linear_377_4519)" stroke="#725D35" stroke-width="3"/>
<circle cx="26.5" cy="64.5004" r="2.5" fill="#725D35"/>
<circle cx="38.5" cy="61.5004" r="2.5" fill="#725D35"/>
<path d="M28.9819 71.3529C32.9144 74.4949 37.9546 73.2382 39.6552 68.6918" stroke="#725D35" stroke-width="3" stroke-linecap="round"/>
<path d="M70.5847 10.2217L70.5846 10.222L63.8583 42.6813C63.6151 43.855 64.3673 45.0072 65.5435 45.2527L72.5455 46.7146C73.7236 46.9606 74.8742 46.2026 75.1177 45.0274L81.8458 12.5599C81.8458 12.5599 81.8458 12.5599 81.8458 12.5598C81.9525 12.0449 81.8691 11.5088 81.6113 11.0507L81.6113 11.0507L79.0033 6.41727L79.0032 6.41721C78.3676 5.28811 76.8891 4.95894 75.8351 5.72141C75.8351 5.72143 75.835 5.72145 75.835 5.72147L71.4393 8.90128L71.4393 8.90132C70.999 9.21984 70.6948 9.69117 70.5847 10.2217Z" fill="url(#paint1_linear_377_4519)" stroke="url(#paint2_linear_377_4519)" stroke-width="3"/>
<path d="M62.5567 40.4919L62.5568 40.4919L77.2208 43.5535L77.2209 43.5535C78.721 43.8667 79.6812 45.3367 79.3708 46.8348L79.3708 46.8349L79.0969 48.1565C79.0968 48.1566 79.0968 48.1566 79.0968 48.1567C78.7861 49.6566 77.3182 50.6223 75.8165 50.3089L75.8164 50.3088L71.8612 49.4831L70.2334 57.3384C70.2334 57.3384 70.2334 57.3384 70.2334 57.3385C69.9226 58.8382 68.4549 59.8042 66.9529 59.4906L62.5567 40.4919ZM62.5567 40.4919C61.0548 40.1785 59.5871 41.1443 59.2763 42.6441C59.2763 42.6441 59.2763 42.6441 59.2763 42.6441L59.0024 43.9659L59.0024 43.966C58.6919 45.4641 59.6522 46.9341 61.1523 47.2473L61.1524 47.2473L65.1119 48.074L63.4832 55.9337C63.4832 55.9337 63.4832 55.9337 63.4832 55.9338C63.1727 57.4318 64.1329 58.9019 65.6331 59.2151C65.6332 59.2151 65.6332 59.2151 65.6332 59.2151L66.9529 59.4906L62.5567 40.4919Z" fill="url(#paint3_linear_377_4519)" stroke="url(#paint4_linear_377_4519)" stroke-width="3"/>
<path d="M11.9555 81.3391C-1.28059 66.9246 -3.15936 44.8286 13.7166 36.648C30.5925 28.4673 45.2141 34.9971 54.1614 53.418C59.272 63.9399 49.5161 78.9254 49.5161 78.9254L45.0883 63.1015L45.7522 50.4058L32.6164 54.7214L32.9239 63.5263L27.6978 56.5461L10.7492 62.6477L23.7356 69.908L34.8369 86.6008C34.8369 86.6008 17.9943 87.9155 11.9555 81.3391Z" fill="url(#paint5_linear_377_4519)" stroke="#725D35" stroke-width="3"/>
<path d="M17.5835 41.6858L20.2853 40.4527L13.3768 17.0017L13.2273 16.4943L12.7927 16.1929L5.98466 11.4718L3.52639 9.76715L3.6308 12.7568L3.88062 19.9109L3.89497 20.3216L4.11672 20.6677L17.5835 41.6858Z" fill="url(#paint6_linear_377_4519)" stroke="#725D35" stroke-width="3"/>
<defs>
<linearGradient id="paint0_linear_377_4519" x1="19.9779" y1="48.1201" x2="59.958" y2="100.697" gradientUnits="userSpaceOnUse">
<stop stop-color="#FFF2D9"/>
<stop offset="0.671875" stop-color="#FDDC9B"/>
<stop offset="1" stop-color="#D6AE60"/>
</linearGradient>
<linearGradient id="paint1_linear_377_4519" x1="83.1879" y1="24.1557" x2="68.3003" y2="27.5928" gradientUnits="userSpaceOnUse">
<stop stop-color="#FF4545"/>
<stop offset="1" stop-color="#D9D9D9"/>
</linearGradient>
<linearGradient id="paint2_linear_377_4519" x1="83.1879" y1="24.1557" x2="62.0432" y2="29.0374" gradientUnits="userSpaceOnUse">
<stop stop-color="#DB3030"/>
<stop offset="1" stop-color="#FFB100"/>
</linearGradient>
<linearGradient id="paint3_linear_377_4519" x1="74.9957" y1="45.8841" x2="64.9378" y2="51.4283" gradientUnits="userSpaceOnUse">
<stop stop-color="#565656"/>
<stop offset="1" stop-color="#2E2E2E"/>
</linearGradient>
<linearGradient id="paint4_linear_377_4519" x1="78.1095" y1="46.9081" x2="61.8277" y2="50.6671" gradientUnits="userSpaceOnUse">
<stop stop-color="#725D35"/>
<stop offset="1" stop-color="#FDDC9B"/>
</linearGradient>
<linearGradient id="paint5_linear_377_4519" x1="25.059" y1="32.946" x2="43.3505" y2="85.246" gradientUnits="userSpaceOnUse">
<stop stop-color="#C4C4C4"/>
<stop offset="0.177867" stop-color="white"/>
<stop offset="0.30223" stop-color="#C4C4C4"/>
<stop offset="0.969271" stop-color="#979797"/>
</linearGradient>
<linearGradient id="paint6_linear_377_4519" x1="8.5" y1="14" x2="12.4878" y2="41.0986" gradientUnits="userSpaceOnUse">
<stop stop-color="#FFDF6F"/>
<stop offset="1" stop-color="#FFB100"/>
</linearGradient>
</defs>
</svg>
