<svg width="119" height="121" viewBox="0 0 119 121" fill="none" xmlns="http://www.w3.org/2000/svg">
<path d="M50.9384 72.0242C50.3731 72.6298 49.4239 72.6626 48.8183 72.0973C48.2127 71.5321 48.18 70.5829 48.7452 69.9773L50.9384 72.0242ZM69.7812 73.5612C66.3697 70.1498 63.1648 68.1777 60.1558 67.8016C57.2606 67.4398 54.2089 68.52 50.9384 72.0242L48.7452 69.9773C52.4746 65.9814 56.4229 64.3117 60.5278 64.8248C64.5188 65.3236 68.3139 67.8514 71.9024 71.4399L69.7812 73.5612Z" fill="#42361E"/>
<path d="M68.1681 73.3652L68.2532 74.8628L68.1682 73.3652C68.5324 73.3445 69.0776 73.1532 69.8371 72.6382C70.5786 72.1354 71.3991 71.4109 72.2958 70.5146C73.3693 69.4417 74.4249 68.2598 75.5221 67.0312C76.321 66.1368 77.142 65.2176 78.008 64.2977C82.6558 59.3609 86.8555 57.0977 90.7142 56.5494C94.5781 56.0003 97.8339 57.2101 100.492 58.659C103.249 60.1614 105.877 62.4594 107.438 66.4469C108.978 70.3806 109.418 75.8046 108.163 83.462C106.061 96.2776 93.437 117.812 66.2024 116.544C55.7498 116.057 46.5908 108.596 44.0825 100.765C42.7594 96.6349 43.7108 90.0815 47.4284 84.4729C51.2113 78.7658 57.9006 73.9485 68.1681 73.3652Z" fill="url(#paint0_linear_377_4533)" stroke="#725D35" stroke-width="3"/>
<circle cx="2.5" cy="2.5" r="2.5" transform="matrix(-1 0 0 1 94.3418 76.0006)" fill="#725D35"/>
<circle cx="2.5" cy="2.5" r="2.5" transform="matrix(-1 0 0 1 82.3418 73.0006)" fill="#725D35"/>
<path d="M89.3599 85.3531C85.4274 88.4951 80.3872 87.2385 78.6866 82.692" stroke="#725D35" stroke-width="3" stroke-linecap="round"/>
<path d="M49.7341 62.7727L49.7375 62.7896L49.7406 62.8065L51.2841 71.3789C51.2841 71.3789 51.2842 71.3789 51.2842 71.379C51.5446 72.8254 50.5855 74.2131 49.1368 74.4762L47.9237 74.6964C46.4732 74.9599 45.0878 73.9951 44.8271 72.547C44.8271 72.547 44.8271 72.547 44.8271 72.5469L43.2866 63.9915L34.8118 22.4261L34.5079 20.9354L36.0028 20.6526L39.5028 19.9905L40.9559 19.7156L41.2514 21.1647L49.7341 62.7727Z" fill="url(#paint1_linear_377_4533)" stroke="url(#paint2_linear_377_4533)" stroke-width="3"/>
<mask id="path-7-outside-1_377_4533" maskUnits="userSpaceOnUse" x="6.82419" y="-4.5968" width="65.4582" height="65.4582" fill="black">
<rect fill="white" x="6.82419" y="-4.5968" width="65.4582" height="65.4582"/>
<path fill-rule="evenodd" clip-rule="evenodd" d="M40.5569 30.8529L48.8966 29.402C49.6547 30.1656 50.3239 30.7949 50.9122 31.3482C53.8445 34.1059 54.7704 34.9767 54.7033 41.176C54.7033 41.176 64.1106 33.1847 61.3054 23.4118C58.911 15.0701 50.284 10.8463 50.284 10.8463C52.7468 16.9124 51.7926 19.4023 47.6905 22.5623L45.428 22.9612L33.2806 25.1032L31.0181 25.5021C26.0826 23.9356 24.3344 21.9223 24.5739 15.3797C24.5739 15.3797 17.9118 22.2993 18.5149 30.9569C19.2214 41.0999 30.7944 45.3918 30.7944 45.3918C28.6112 39.5893 29.1834 38.4543 30.9956 34.8601C31.3593 34.1389 31.7728 33.3186 32.2241 32.3418L40.5569 30.8529Z"/>
</mask>
<path fill-rule="evenodd" clip-rule="evenodd" d="M40.5569 30.8529L48.8966 29.402C49.6547 30.1656 50.3239 30.7949 50.9122 31.3482C53.8445 34.1059 54.7704 34.9767 54.7033 41.176C54.7033 41.176 64.1106 33.1847 61.3054 23.4118C58.911 15.0701 50.284 10.8463 50.284 10.8463C52.7468 16.9124 51.7926 19.4023 47.6905 22.5623L45.428 22.9612L33.2806 25.1032L31.0181 25.5021C26.0826 23.9356 24.3344 21.9223 24.5739 15.3797C24.5739 15.3797 17.9118 22.2993 18.5149 30.9569C19.2214 41.0999 30.7944 45.3918 30.7944 45.3918C28.6112 39.5893 29.1834 38.4543 30.9956 34.8601C31.3593 34.1389 31.7728 33.3186 32.2241 32.3418L40.5569 30.8529Z" fill="url(#paint3_linear_377_4533)"/>
<path d="M48.8966 29.402L48.3824 26.4464L49.9234 26.1783L51.0255 27.2883L48.8966 29.402ZM40.5569 30.8529L40.0292 27.8996L40.0427 27.8973L40.5569 30.8529ZM50.9122 31.3482L52.9675 29.1629L52.9675 29.1629L50.9122 31.3482ZM54.7033 41.176L56.6456 43.4624L51.6324 47.721L51.7035 41.1435L54.7033 41.176ZM61.3054 23.4118L58.4218 24.2395L61.3054 23.4118ZM50.284 10.8463L47.5043 11.9749L44.5503 4.69889L51.6032 8.15194L50.284 10.8463ZM47.6905 22.5623L49.5213 24.9389L48.9374 25.3887L48.2115 25.5167L47.6905 22.5623ZM45.428 22.9612L45.949 25.9157L45.949 25.9157L45.428 22.9612ZM33.2806 25.1032L33.8015 28.0576L33.8015 28.0576L33.2806 25.1032ZM31.0181 25.5021L31.539 28.4565L30.8131 28.5845L30.1105 28.3615L31.0181 25.5021ZM24.5739 15.3797L22.4128 13.299L27.8593 7.64197L27.5719 15.4895L24.5739 15.3797ZM18.5149 30.9569L15.5221 31.1654L18.5149 30.9569ZM30.7944 45.3918L33.6023 44.3353L35.9187 50.4917L29.7513 48.2046L30.7944 45.3918ZM30.9956 34.8601L28.3169 33.5094L28.3169 33.5094L30.9956 34.8601ZM32.2241 32.3418L29.5006 31.0837L30.1566 29.6637L31.6964 29.3886L32.2241 32.3418ZM49.4108 32.3576L41.0711 33.8085L40.0427 27.8973L48.3824 26.4464L49.4108 32.3576ZM48.857 33.5336C48.2691 32.9808 47.566 32.3198 46.7677 31.5157L51.0255 27.2883C51.7434 28.0114 52.3786 28.609 52.9675 29.1629L48.857 33.5336ZM51.7035 41.1435C51.7366 38.0884 51.4978 36.8857 51.1875 36.1818C50.8886 35.504 50.4257 35.009 48.857 33.5336L52.9675 29.1629C54.3309 30.4452 55.7972 31.7644 56.6775 33.7612C57.5464 35.7319 57.7372 38.0643 57.7032 41.2084L51.7035 41.1435ZM64.1889 22.5841C65.9205 28.6165 63.8317 33.9589 61.6042 37.5425C60.4769 39.356 59.2597 40.8131 58.327 41.8168C57.8582 42.3213 57.4549 42.7181 57.1612 42.9953C57.0142 43.134 56.8941 43.2433 56.8065 43.3215C56.7627 43.3607 56.7269 43.3921 56.6999 43.4156C56.6864 43.4274 56.675 43.4372 56.6659 43.445C56.6614 43.4489 56.6574 43.4523 56.654 43.4552C56.6523 43.4566 56.6508 43.458 56.6494 43.4592C56.6487 43.4598 56.6477 43.4606 56.6474 43.4609C56.6465 43.4616 56.6456 43.4624 54.7033 41.176C52.7611 38.8896 52.7603 38.8902 52.7595 38.8909C52.7593 38.8911 52.7586 38.8917 52.7582 38.8921C52.7573 38.8928 52.7566 38.8934 52.7561 38.8938C52.7549 38.8948 52.7544 38.8953 52.7543 38.8953C52.7543 38.8954 52.7564 38.8935 52.7606 38.8899C52.769 38.8826 52.7857 38.8679 52.8101 38.8462C52.8589 38.8026 52.9382 38.7306 53.043 38.6318C53.2528 38.4337 53.5624 38.1299 53.9318 37.7325C54.6753 36.9324 55.6345 35.7809 56.5084 34.375C58.2832 31.5197 59.4955 27.98 58.4218 24.2395L64.1889 22.5841ZM50.284 10.8463C51.6032 8.15194 51.6041 8.15239 51.605 8.15285C51.6054 8.15303 51.6064 8.15351 51.6071 8.15387C51.6085 8.15458 51.6101 8.15535 51.6118 8.1562C51.6152 8.15788 51.6192 8.15983 51.6237 8.16205C51.6326 8.1665 51.6437 8.17201 51.6568 8.17859C51.6829 8.19175 51.7173 8.2092 51.7593 8.23094C51.8434 8.27441 51.9584 8.33511 52.1007 8.41304C52.3849 8.56876 52.7794 8.7941 53.2538 9.08919C54.1997 9.6775 55.4802 10.5534 56.8457 11.7202C59.5434 14.0253 62.7681 17.6342 64.1889 22.5841L58.4218 24.2395C57.4482 20.8477 55.1623 18.1738 52.9479 16.2817C51.8573 15.3498 50.8314 14.6484 50.0849 14.1841C49.7132 13.9529 49.4149 13.7831 49.218 13.6752C49.1197 13.6213 49.0471 13.5832 49.0036 13.5607C48.9819 13.5494 48.9675 13.5422 48.9609 13.5388C48.9576 13.5372 48.9562 13.5365 48.9568 13.5368C48.9572 13.537 48.958 13.5374 48.9593 13.538C48.96 13.5384 48.9608 13.5387 48.9617 13.5392C48.9621 13.5394 48.9629 13.5398 48.9632 13.5399C48.964 13.5403 48.9648 13.5407 50.284 10.8463ZM45.8597 20.1857C47.7706 18.7137 48.3486 17.8277 48.5385 17.0672C48.7434 16.2466 48.6741 14.856 47.5043 11.9749L53.0636 9.71781C54.3567 12.9028 55.0417 15.7902 54.3597 18.521C53.6627 21.312 51.7126 23.2509 49.5213 24.9389L45.8597 20.1857ZM44.9071 20.0068L47.1696 19.6079L48.2115 25.5167L45.949 25.9157L44.9071 20.0068ZM32.7596 22.1487L44.9071 20.0068L45.949 25.9157L33.8015 28.0576L32.7596 22.1487ZM33.8015 28.0576L31.539 28.4565L30.4971 22.5477L32.7596 22.1487L33.8015 28.0576ZM30.1105 28.3615C27.4741 27.5248 24.9784 26.3698 23.3689 23.9855C21.7941 21.6526 21.4502 18.7051 21.5759 15.2699L27.5719 15.4895C27.4581 18.5969 27.8686 19.9274 28.3418 20.6284C28.7804 21.2781 29.6265 21.913 31.9256 22.6427L30.1105 28.3615ZM24.5739 15.3797C26.7351 17.4604 26.7357 17.4598 26.7364 17.4591C26.7365 17.4589 26.7372 17.4583 26.7375 17.4579C26.7382 17.4572 26.7388 17.4565 26.7393 17.456C26.7404 17.4549 26.741 17.4543 26.7412 17.454C26.7417 17.4535 26.7407 17.4546 26.7381 17.4573C26.7331 17.4627 26.722 17.4745 26.7055 17.4924C26.6723 17.5284 26.6171 17.5892 26.5431 17.6734C26.395 17.8421 26.1728 18.1037 25.9026 18.4481C25.3599 19.1397 24.6358 20.1497 23.9297 21.3984C22.496 23.9338 21.2624 27.2282 21.5076 30.7485L15.5221 31.1654C15.1643 26.028 16.9602 21.5339 18.7068 18.4451C19.5909 16.8817 20.4946 15.6206 21.1822 14.7443C21.5271 14.3047 21.8207 13.9581 22.0346 13.7145C22.1416 13.5926 22.2289 13.4962 22.2931 13.4266C22.3251 13.3918 22.3514 13.3637 22.3715 13.3424C22.3816 13.3317 22.3901 13.3227 22.397 13.3155C22.4004 13.3119 22.4035 13.3087 22.4061 13.306C22.4074 13.3046 22.4086 13.3033 22.4097 13.3021C22.4103 13.3016 22.4111 13.3008 22.4113 13.3005C22.4121 13.2997 22.4128 13.299 24.5739 15.3797ZM21.5076 30.7485C21.778 34.6307 24.1278 37.5422 26.7722 39.6183C28.0742 40.6405 29.3694 41.3945 30.3417 41.892C30.8247 42.1392 31.2196 42.3188 31.4845 42.4331C31.6167 42.4902 31.7159 42.5307 31.7767 42.5549C31.807 42.567 31.8277 42.5751 31.8381 42.5791C31.8433 42.5811 31.8459 42.5821 31.8459 42.582C31.8458 42.582 31.8451 42.5818 31.8438 42.5812C31.8431 42.581 31.8422 42.5807 31.8412 42.5803C31.8407 42.5801 31.8398 42.5798 31.8395 42.5797C31.8386 42.5793 31.8376 42.5789 30.7944 45.3918C29.7513 48.2046 29.7502 48.2042 29.7491 48.2037C29.7487 48.2036 29.7475 48.2032 29.7467 48.2028C29.7449 48.2022 29.743 48.2015 29.7409 48.2007C29.7367 48.1991 29.7318 48.1973 29.7262 48.1952C29.715 48.1909 29.701 48.1856 29.6843 48.1792C29.6509 48.1663 29.6065 48.149 29.5519 48.1272C29.4428 48.0837 29.2927 48.0221 29.1071 47.942C28.7363 47.782 28.2215 47.547 27.6085 47.2333C26.3888 46.6092 24.7466 45.6562 23.067 44.3376C19.7482 41.732 15.9582 37.4262 15.5221 31.1654L21.5076 30.7485ZM27.9866 46.4482C26.8793 43.5054 26.2608 41.2484 26.4033 39.0994C26.5477 36.9219 27.4742 35.1807 28.3169 33.5094L33.6744 36.2107C32.7048 38.1337 32.4392 38.7571 32.3902 39.4963C32.3393 40.2639 32.5263 41.4757 33.6023 44.3353L27.9866 46.4482ZM28.3169 33.5094C28.6808 32.7876 29.0733 32.0087 29.5006 31.0837L34.9475 33.5999C34.4724 34.6285 34.0377 35.4902 33.6744 36.2107L28.3169 33.5094ZM31.6964 29.3886L40.0292 27.8997L41.0846 33.8061L32.7518 35.295L31.6964 29.3886Z" fill="url(#paint4_linear_377_4533)" mask="url(#path-7-outside-1_377_4533)"/>
<path d="M106.386 95.3393C119.622 80.9249 121.501 58.8289 104.625 50.6482C87.7493 42.4676 73.1277 48.9973 64.1804 67.4183C59.0698 77.9401 68.8257 92.9256 68.8257 92.9256L73.2535 77.1018L72.5896 64.4061L85.7254 68.7217L85.4179 77.5266L90.644 70.5463L107.593 76.648L94.6062 83.9082L83.5049 100.601C83.5049 100.601 100.347 101.916 106.386 95.3393Z" fill="url(#paint5_linear_377_4533)" stroke="#725D35" stroke-width="3"/>
<path d="M100.758 55.686L98.0565 54.4529L104.965 31.0019L105.114 30.4946L105.549 30.1932L112.357 25.4721L114.815 23.7674L114.711 26.7571L114.461 33.9111L114.447 34.3219L114.225 34.668L100.758 55.686Z" fill="url(#paint6_linear_377_4533)" stroke="#725D35" stroke-width="3"/>
<path d="M70.3418 98.7655C58.8418 98.7655 49.3418 78.5 49.3418 72.5" stroke="#42361E" stroke-width="3" stroke-linecap="round"/>
<defs>
<linearGradient id="paint0_linear_377_4533" x1="98.3639" y1="62.1204" x2="58.3838" y2="114.697" gradientUnits="userSpaceOnUse">
<stop stop-color="#FFF2D9"/>
<stop offset="0.671875" stop-color="#FDDC9B"/>
<stop offset="1" stop-color="#D6AE60"/>
</linearGradient>
<linearGradient id="paint1_linear_377_4533" x1="38.2303" y1="22.2022" x2="59.2508" y2="65.8848" gradientUnits="userSpaceOnUse">
<stop stop-color="#565656"/>
<stop offset="1" stop-color="#2E2E2E"/>
</linearGradient>
<linearGradient id="paint2_linear_377_4533" x1="38.0027" y1="62.8003" x2="52.7976" y2="66.6265" gradientUnits="userSpaceOnUse">
<stop stop-color="#725D35"/>
<stop offset="1" stop-color="#FDDC9B"/>
</linearGradient>
<linearGradient id="paint3_linear_377_4533" x1="51.6105" y1="11.549" x2="35.3476" y2="34.7749" gradientUnits="userSpaceOnUse">
<stop stop-color="#FF4545"/>
<stop offset="1" stop-color="#D9D9D9"/>
</linearGradient>
<linearGradient id="paint4_linear_377_4533" x1="17.5" y1="42" x2="64.5" y2="52" gradientUnits="userSpaceOnUse">
<stop stop-color="#DB3030"/>
<stop offset="1" stop-color="#FFB100"/>
</linearGradient>
<linearGradient id="paint5_linear_377_4533" x1="93.2828" y1="46.9463" x2="74.9913" y2="99.2463" gradientUnits="userSpaceOnUse">
<stop stop-color="#C4C4C4"/>
<stop offset="0.177867" stop-color="white"/>
<stop offset="0.30223" stop-color="#C4C4C4"/>
<stop offset="0.969271" stop-color="#979797"/>
</linearGradient>
<linearGradient id="paint6_linear_377_4533" x1="109.842" y1="28.0002" x2="105.854" y2="55.0988" gradientUnits="userSpaceOnUse">
<stop stop-color="#FFDF6F"/>
<stop offset="1" stop-color="#FFB100"/>
</linearGradient>
</defs>
</svg>
