<svg width="75" height="62" viewBox="0 0 75 62" fill="none" xmlns="http://www.w3.org/2000/svg">
<path d="M58.1726 17.5015C58.7379 18.1072 59.6871 18.1399 60.2927 17.5746C60.8983 17.0094 60.931 16.0602 60.3658 15.4546L58.1726 17.5015ZM41.3275 18.8959C44.406 15.8174 47.278 14.0593 49.9541 13.7249C52.5162 13.4046 55.235 14.3541 58.1726 17.5015L60.3658 15.4546C56.9693 11.8155 53.3539 10.2766 49.582 10.748C45.924 11.2052 42.4618 13.519 39.2062 16.7745L41.3275 18.8959Z" fill="#42361E"/>
<path d="M64.6165 43.455L63.188 42.9975L64.6165 43.455C65.8299 39.6669 64.9539 33.6922 61.5719 28.59C58.1246 23.3892 52.0311 19.0057 42.6942 18.4752L42.6092 19.9728L42.6942 18.4752C42.4019 18.4586 41.9341 18.3015 41.256 17.8418C40.5959 17.3941 39.8608 16.7457 39.052 15.9373C38.0817 14.9675 37.1326 13.9047 36.1432 12.7968C35.4203 11.9874 34.676 11.1539 33.8862 10.3149C29.6667 5.83312 25.8389 3.76245 22.3049 3.26026C18.7657 2.75734 15.7874 3.86683 13.3686 5.18517C10.8516 6.55693 8.44615 8.65943 7.0189 12.3055C5.61274 15.8978 5.21692 20.8343 6.35539 27.7771C8.26405 39.4175 19.7304 58.9836 44.4715 57.8317C53.9859 57.3886 62.3276 50.601 64.6165 43.455Z" fill="url(#paint0_linear_377_4507)" stroke="#725D35" stroke-width="3"/>
<circle cx="21.2646" cy="23.2645" r="2.26219" fill="#725D35"/>
<circle cx="32.123" cy="20.5498" r="2.26219" fill="#725D35"/>
<path d="M38.0046 42.9595C44.7912 42.9595 50.8329 42.6196 54 39.0001" stroke="#42361E" stroke-width="3" stroke-linecap="round"/>
<path d="M68.2358 -9.56655e-06L74.8181 5.37799L62.164 20.8658L60.2281 19.2841L59.4207 21.8528L55.5487 18.6892L57.9049 17.386L55.5817 15.4878L68.2358 -9.56655e-06Z" fill="url(#paint1_linear_377_4507)"/>
<path d="M23.5105 29.4651C27.0689 32.3082 31.6296 31.1711 33.1684 27.0572" stroke="#725D35" stroke-width="3" stroke-linecap="round"/>
<path d="M58.4082 27.3167C58.4304 27.3244 58.4519 27.3318 58.4725 27.3389L57.5307 39.5818C57.5222 39.5833 57.5137 39.5849 57.5049 39.5866C57.2566 39.6328 56.9091 39.6944 56.5135 39.7559C55.7148 39.8802 54.7465 40 54 40C53.2535 40 52.2852 39.8802 51.4865 39.7559C51.0909 39.6944 50.7434 39.6328 50.4951 39.5866C50.4863 39.5849 50.4778 39.5833 50.4693 39.5818L49.5275 27.3389C49.5481 27.3318 49.5696 27.3244 49.5918 27.3167C49.8563 27.2261 50.2357 27.1046 50.6913 26.9831C51.6072 26.7389 52.8105 26.5 54 26.5C55.1895 26.5 56.3928 26.7389 57.3087 26.9831C57.7643 27.1046 58.1437 27.2261 58.4082 27.3167Z" fill="#D9D9D9" fill-opacity="0.78" stroke="#FFF2D9"/>
<defs>
<linearGradient id="paint0_linear_377_4507" x1="15.3628" y1="8.44254" x2="51.5397" y2="56.0177" gradientUnits="userSpaceOnUse">
<stop stop-color="#FFF2D9"/>
<stop offset="0.671875" stop-color="#FDDC9B"/>
<stop offset="1" stop-color="#D6AE60"/>
</linearGradient>
<linearGradient id="paint1_linear_377_4507" x1="57.2911" y1="20.1128" x2="71.527" y2="2.68899" gradientUnits="userSpaceOnUse">
<stop stop-color="#FFF2D9"/>
<stop offset="1" stop-color="#FFB100"/>
</linearGradient>
</defs>
</svg>
