<svg width="65" height="65" viewBox="0 0 65 65" fill="none" xmlns="http://www.w3.org/2000/svg">
<ellipse cx="34.165" cy="52.2173" rx="27" ry="10" fill="url(#paint0_radial_380_3048)"/>
<path d="M37.4761 17.9446L37.5541 16.5724C46.4462 17.0776 52.2551 21.2538 55.5421 26.2127C58.7638 31.073 59.6036 36.7713 58.4427 40.3957C56.2587 47.2143 48.3075 53.6803 39.2414 54.1025C15.6917 55.199 4.77849 36.5733 2.9619 25.4945C1.87942 18.893 2.25398 14.1894 3.59628 10.7604C4.95966 7.27743 7.25863 5.26833 9.66109 3.95897M37.4761 17.9446L9.66109 3.95897M37.4761 17.9446L37.5541 16.5724C37.2961 16.5577 36.8653 16.417 36.2261 15.9836M37.4761 17.9446L36.2261 15.9836M9.66109 3.95897C11.9654 2.70302 14.8111 1.64142 18.1952 2.12231M9.66109 3.95897L18.1952 2.12231M36.2261 15.9836C35.6049 15.5624 34.9106 14.9503 34.1438 14.1839M36.2261 15.9836L34.1438 14.1839M34.1438 14.1839C33.2228 13.2634 32.3245 12.2575 31.3866 11.2072M34.1438 14.1839L31.3866 11.2072M31.3866 11.2072C30.7002 10.4384 29.9924 9.64584 29.239 8.84558M31.3866 11.2072L29.239 8.84558M29.239 8.84558C25.2242 4.58113 21.5741 2.60245 18.1952 2.12231M29.239 8.84558L18.1952 2.12231" fill="url(#paint1_linear_380_3048)" stroke="#725D35" stroke-width="3"/>
<ellipse cx="16.5" cy="20" rx="3.5" ry="1" fill="#725D35"/>
<ellipse cx="26.5" cy="18" rx="3.5" ry="1" fill="#725D35"/>
<path d="M21.5753 28.1156C21.9173 29.1326 22.8003 29.6157 23.483 29.8153C24.1943 30.0233 24.9854 30.0285 25.7056 29.8913C27.0072 29.6432 28.9825 28.6656 28.9998 26.4502C29.0043 25.8787 28.8417 25.2935 28.4294 24.8134C28.0306 24.3491 27.5178 24.1222 27.0705 24.0195C26.2251 23.8256 25.3085 23.9978 24.5969 24.2354C23.8567 24.4826 23.0871 24.8847 22.5032 25.4014C22.0288 25.8213 21.1401 26.8213 21.5753 28.1156Z" stroke="#725D35" stroke-width="3"/>
<path d="M23.6465 42.4122C23.2894 41.6646 23.606 40.7692 24.3535 40.4121C25.1011 40.0551 25.9965 40.3717 26.3535 41.1192L23.6465 42.4122ZM36.6889 55.7618C29.5606 51.1794 26.3113 47.9917 23.6465 42.4122L26.3535 41.1192C28.6887 46.0083 31.4394 48.8207 38.3111 53.2382L36.6889 55.7618Z" fill="#42361E"/>
<path d="M62.9125 62.5412C59.1816 56.884 59.0017 53.0499 61.9515 46.6984M63.4788 60.2688C63.3468 60.9102 63.2096 61.4666 63.093 61.9017C61.4103 59.2757 60.556 57.0877 60.426 54.8533C60.2958 52.6155 60.8884 50.2714 62.214 47.3265C62.3798 47.7386 62.5781 48.261 62.7813 48.8637C63.3016 50.4067 63.8472 52.4549 63.9732 54.5147C64.0992 56.5745 63.8072 58.6739 63.4788 60.2688ZM61.3882 46.7262C59.9711 49.8294 59.2814 52.3975 59.4277 54.9114C59.5734 57.4148 60.5441 59.803 62.3273 62.5597L41.1809 62.2506C41.1582 62.1628 41.1319 62.0607 41.1029 61.9459C40.997 61.5269 40.8541 60.9404 40.7062 60.2715C40.4087 58.9263 40.0972 57.2744 40.018 55.9798C39.9388 54.6853 40.0467 53.0077 40.178 51.6363C40.2433 50.9543 40.3137 50.3549 40.3678 49.926C40.3826 49.8086 40.3961 49.704 40.408 49.614L61.3882 46.7262Z" fill="#D9D9D9" fill-opacity="0.78" stroke="#FFF2D9"/>
<defs>
<radialGradient id="paint0_radial_380_3048" cx="0" cy="0" r="1" gradientUnits="userSpaceOnUse" gradientTransform="translate(34.165 52.2173) rotate(90) scale(10 27)">
<stop offset="0.6875" stop-opacity="0.43"/>
<stop offset="1" stop-opacity="0"/>
</radialGradient>
<linearGradient id="paint1_linear_380_3048" x1="11.5912" y1="7.11887" x2="45.951" y2="52.3044" gradientUnits="userSpaceOnUse">
<stop stop-color="#FFF2D9"/>
<stop offset="0.671875" stop-color="#FDDC9B"/>
<stop offset="1" stop-color="#D6AE60"/>
</linearGradient>
</defs>
</svg>
