<svg width="85" height="105" viewBox="0 0 85 105" fill="none" xmlns="http://www.w3.org/2000/svg">
<ellipse cx="27" cy="10" rx="27" ry="10" transform="matrix(-1 0 0 1 73 85)" fill="url(#paint0_radial_380_3034)"/>
<path d="M70.0397 50.9276C70.8281 51.1818 71.6734 50.7488 71.9276 49.9603C72.1818 49.1719 71.7488 48.3266 70.9603 48.0724L70.0397 50.9276ZM48.0071 53.9118C51.499 52.6576 55.4097 51.3805 59.2825 50.6875C63.1686 49.9922 66.8849 49.9104 70.0397 50.9276L70.9603 48.0724C67.1414 46.841 62.869 46.9981 58.7541 47.7344C54.626 48.473 50.5235 49.8203 46.9929 51.0885L48.0071 53.9118Z" fill="#42361E"/>
<path d="M50.1737 53.3649L50.0889 54.8571L50.1736 53.3649C49.8094 53.3442 49.2642 53.1529 48.5047 52.638C47.7632 52.1351 46.9427 51.4106 46.046 50.5143C44.9725 49.4414 43.9169 48.2595 42.8197 47.031C42.0208 46.1365 41.1998 45.2173 40.3338 44.2974C35.686 39.3607 31.4863 37.0975 27.6276 36.5492C23.7637 36.0001 20.5079 37.2099 17.8495 38.6588C15.0929 40.1611 12.4646 42.4591 10.9037 46.4467C9.36387 50.3804 8.92357 55.8044 10.1792 63.4618C12.2806 76.2774 24.9048 97.8119 52.1394 96.5439C62.592 96.0571 71.751 88.5962 74.2593 80.7652C75.5824 76.6346 74.631 70.0812 70.9134 64.4727C67.1305 58.7656 60.4412 53.9483 50.1737 53.3649Z" fill="url(#paint1_linear_380_3034)" stroke="#725D35" stroke-width="3"/>
<circle cx="26.5" cy="58.5004" r="2.5" fill="#725D35"/>
<circle cx="38.5" cy="55.5004" r="2.5" fill="#725D35"/>
<path d="M28.9819 65.3529C32.9144 68.4949 37.9546 67.2382 39.6552 62.6918" stroke="#725D35" stroke-width="3" stroke-linecap="round"/>
<path d="M11.9555 75.3391C-1.28059 60.9246 -3.15936 38.8286 13.7166 30.648C30.5925 22.4673 45.2141 28.9971 54.1614 47.418C59.272 57.9399 49.5161 72.9254 49.5161 72.9254L45.0883 57.1015L45.7522 44.4058L32.6164 48.7214L32.9239 57.5263L27.6978 50.5461L10.7492 56.6477L23.7356 63.908L34.8369 80.6008C34.8369 80.6008 17.9943 81.9155 11.9555 75.3391Z" fill="url(#paint2_linear_380_3034)" stroke="#725D35" stroke-width="3"/>
<path d="M3.88062 13.9109L3.89497 14.3216L4.11672 14.6677L17.5835 35.6858L20.2853 34.4527L13.3768 11.0017L13.2273 10.4943L12.7927 10.1929L5.98466 5.47184L3.52639 3.76715L3.6308 6.75682L3.88062 13.9109Z" fill="url(#paint3_linear_380_3034)" stroke="#725D35" stroke-width="3"/>
<path d="M78.577 30.392C73.7357 35.1338 70.0063 36.042 63.2087 34.3583M76.2383 30.2697C76.8931 30.2769 77.4655 30.3055 77.9148 30.3369C75.6581 32.4897 73.6733 33.7458 71.5048 34.2997C69.333 34.8545 66.9189 34.7201 63.7751 33.9808C64.148 33.7394 64.623 33.4451 65.1758 33.1306C66.5912 32.3255 68.4976 31.399 70.4956 30.8823C72.4935 30.3656 74.61 30.2517 76.2383 30.2697ZM63.3434 34.906C66.66 35.7049 69.3125 35.8919 71.7523 35.2686C74.182 34.648 76.341 33.2393 78.7068 30.9629L82.4384 51.7798C82.3565 51.8189 82.2612 51.8641 82.1541 51.9145C81.763 52.0984 81.2146 52.3506 80.5861 52.6234C79.3224 53.1721 77.7603 53.7931 76.5047 54.1179C75.249 54.4426 73.5817 54.6568 72.2104 54.7895C71.5285 54.8556 70.9266 54.9009 70.4954 54.9296C70.3772 54.9375 70.272 54.9442 70.1814 54.9496L63.3434 34.906Z" fill="#D9D9D9" fill-opacity="0.78" stroke="#FFF2D9"/>
<defs>
<radialGradient id="paint0_radial_380_3034" cx="0" cy="0" r="1" gradientUnits="userSpaceOnUse" gradientTransform="translate(27 10) rotate(90) scale(10 27)">
<stop offset="0.6875" stop-opacity="0.43"/>
<stop offset="1" stop-opacity="0"/>
</radialGradient>
<linearGradient id="paint1_linear_380_3034" x1="19.9779" y1="42.1201" x2="59.958" y2="94.6967" gradientUnits="userSpaceOnUse">
<stop stop-color="#FFF2D9"/>
<stop offset="0.671875" stop-color="#FDDC9B"/>
<stop offset="1" stop-color="#D6AE60"/>
</linearGradient>
<linearGradient id="paint2_linear_380_3034" x1="25.059" y1="26.946" x2="43.3505" y2="79.246" gradientUnits="userSpaceOnUse">
<stop stop-color="#C4C4C4"/>
<stop offset="0.177867" stop-color="white"/>
<stop offset="0.30223" stop-color="#C4C4C4"/>
<stop offset="0.969271" stop-color="#979797"/>
</linearGradient>
<linearGradient id="paint3_linear_380_3034" x1="8.5" y1="8" x2="12.4878" y2="35.0986" gradientUnits="userSpaceOnUse">
<stop stop-color="#FFDF6F"/>
<stop offset="1" stop-color="#FFB100"/>
</linearGradient>
</defs>
</svg>
