<svg width="70" height="88" viewBox="0 0 70 88" fill="none" xmlns="http://www.w3.org/2000/svg">
<path d="M65.0211 70.1783L63.5926 69.7208L65.0211 70.1783C66.182 66.5539 65.3421 60.8557 62.1205 55.9953C58.8335 51.0364 53.0246 46.8602 44.1325 46.355L44.0474 47.8526L44.1324 46.355C43.8745 46.3404 43.4437 46.1997 42.8045 45.7663C42.1832 45.345 41.4889 44.733 40.7221 43.9666C39.8011 43.046 38.9029 42.0401 37.965 40.9898C37.2785 40.221 36.5708 39.4285 35.8174 38.6282C31.8026 34.3638 28.1525 32.3851 24.7736 31.905C21.3895 31.4241 18.5438 32.4857 16.2394 33.7416C13.837 35.051 11.538 37.0601 10.1746 40.543C8.83235 43.9721 8.45779 48.6757 9.54027 55.2772C11.3569 66.356 22.27 84.9816 45.8197 83.8852C54.8858 83.4629 62.837 76.997 65.0211 70.1783Z" fill="url(#paint0_linear_377_4483)" stroke="#725D35" stroke-width="3"/>
<circle cx="23.7748" cy="50.9791" r="2.14856" fill="#725D35"/>
<circle cx="34.0878" cy="48.4008" r="2.14856" fill="#725D35"/>
<path d="M25.9077 56.8683C29.2874 59.5686 33.619 58.4886 35.0806 54.5813" stroke="#725D35" stroke-width="3" stroke-linecap="round"/>
<path d="M11.275 65.4506C-0.100447 53.0625 -1.7151 34.0727 12.7885 27.0421C27.292 20.0115 39.8582 25.6233 47.5476 41.4546C51.9398 50.4973 43.5553 63.3763 43.5553 63.3763L39.75 49.7769L40.3206 38.8659L29.0314 42.5748L29.2957 50.1419L24.8042 44.1429L10.2383 49.3869L21.3991 55.6265L30.9398 69.9726C30.9398 69.9726 16.4649 71.1025 11.275 65.4506Z" fill="url(#paint1_linear_377_4483)" stroke="#725D35" stroke-width="3"/>
<path d="M15.934 31.4856L18.6359 30.2524L12.6986 10.0981L12.5491 9.59079L12.1145 9.28939L6.26346 5.23197L3.8052 3.52728L3.90961 6.51695L4.12431 12.6653L4.13866 13.0761L4.3604 13.4222L15.934 31.4856Z" fill="url(#paint2_linear_377_4483)" stroke="#725D35" stroke-width="3"/>
<defs>
<linearGradient id="paint0_linear_377_4483" x1="18.1696" y1="36.9015" x2="52.5294" y2="82.0871" gradientUnits="userSpaceOnUse">
<stop stop-color="#FFF2D9"/>
<stop offset="0.671875" stop-color="#FDDC9B"/>
<stop offset="1" stop-color="#D6AE60"/>
</linearGradient>
<linearGradient id="paint1_linear_377_4483" x1="22.5364" y1="23.8606" x2="38.2565" y2="68.8083" gradientUnits="userSpaceOnUse">
<stop stop-color="#C4C4C4"/>
<stop offset="0.177867" stop-color="white"/>
<stop offset="0.30223" stop-color="#C4C4C4"/>
<stop offset="0.969271" stop-color="#979797"/>
</linearGradient>
<linearGradient id="paint2_linear_377_4483" x1="8.30505" y1="7.57801" x2="11.7323" y2="30.8672" gradientUnits="userSpaceOnUse">
<stop stop-color="#FFDF6F"/>
<stop offset="1" stop-color="#FFB100"/>
</linearGradient>
</defs>
</svg>
