<svg width="98" height="97" viewBox="0 0 98 97" fill="none" xmlns="http://www.w3.org/2000/svg">
<ellipse cx="27" cy="10" rx="27" ry="10" transform="matrix(1 -2.47735e-09 -2.47735e-09 -1 21 76)" fill="url(#paint0_radial_380_3017)"/>
<path d="M32.241 38.026C33.0119 38.3293 33.8827 37.9502 34.186 37.1793C34.4893 36.4084 34.1102 35.5376 33.3393 35.2343L32.241 38.026ZM12.8295 34.1476C16.8589 33.5708 19.3141 33.6381 21.8868 34.2517C24.5647 34.8904 27.3809 36.114 32.241 38.026L33.3393 35.2343C28.6525 33.3905 25.5305 32.0366 22.5828 31.3336C19.5299 30.6055 16.6719 30.567 12.4044 31.1779L12.8295 34.1476Z" fill="#42361E"/>
<path d="M37.4779 33.2437L36.8168 32.0387C29.0084 36.3228 25.5633 42.593 24.7314 48.4839C23.916 54.2578 25.6111 59.7625 28.2192 62.5341C33.126 67.7482 43.0863 70.1612 51.4511 66.6392C73.1787 57.4905 75.0102 35.981 71.8803 25.1993C70.0153 18.7749 67.6523 14.6908 64.9645 12.1736C62.2345 9.61694 59.2945 8.79329 56.5624 8.64576M37.4779 33.2437L56.5624 8.64576M37.4779 33.2437L36.8168 32.0387C37.0433 31.9144 37.3716 31.6019 37.7619 30.9356M37.4779 33.2437L37.7619 30.9356M56.5624 8.64576C53.9418 8.50422 50.9163 8.77114 48.0689 10.6621M56.5624 8.64576L48.0689 10.6621M37.7619 30.9356C38.1413 30.2879 38.5045 29.4366 38.8667 28.4147M37.7619 30.9356L38.8667 28.4147M38.8667 28.4147C39.3016 27.1874 39.6793 25.8927 40.0737 24.541M38.8667 28.4147L40.0737 24.541M40.0737 24.541C40.3623 23.5515 40.6599 22.5315 40.9954 21.4849M40.0737 24.541L40.9954 21.4849M40.9954 21.4849C42.7832 15.9074 45.2259 12.5501 48.0689 10.6621M40.9954 21.4849L48.0689 10.6621" fill="url(#paint1_linear_380_3017)" stroke="#725D35" stroke-width="3"/>
<circle cx="2.14856" cy="2.14856" r="2.14856" transform="matrix(-0.902585 0.430511 0.430511 0.902585 58.1963 24.5839)" fill="#725D35"/>
<circle cx="2.14856" cy="2.14856" r="2.14856" transform="matrix(-0.902585 0.430511 0.430511 0.902585 47.7781 26.6967)" fill="#725D35"/>
<path d="M57.7922 33.6819C55.9043 37.5741 51.5297 38.4641 48.5284 35.5666" stroke="#725D35" stroke-width="3" stroke-linecap="round"/>
<path d="M41.5288 54.5776C42.3378 54.3993 42.8491 53.5989 42.6708 52.7899C42.4925 51.9809 41.6922 51.4696 40.8832 51.6479L41.5288 54.5776ZM16.0563 53.0868C25.6944 57.9779 32.7777 56.5059 41.5288 54.5776L40.8832 51.6479C32.1964 53.5621 26.0419 54.79 17.4139 50.4115L16.0563 53.0868Z" fill="#42361E"/>
<defs>
<radialGradient id="paint0_radial_380_3017" cx="0" cy="0" r="1" gradientUnits="userSpaceOnUse" gradientTransform="translate(27 10) rotate(90) scale(10 27)">
<stop offset="0.6875" stop-opacity="0.43"/>
<stop offset="1" stop-opacity="0"/>
</radialGradient>
<linearGradient id="paint1_linear_380_3017" x1="56.1807" y1="12.3288" x2="44.6209" y2="67.9049" gradientUnits="userSpaceOnUse">
<stop stop-color="#FFF2D9"/>
<stop offset="0.671875" stop-color="#FDDC9B"/>
<stop offset="1" stop-color="#D6AE60"/>
</linearGradient>
</defs>
</svg>
