<svg width="69" height="88" viewBox="0 0 69 88" fill="none" xmlns="http://www.w3.org/2000/svg">
<path d="M25.6889 47.7273L25.6109 46.355C16.7189 46.8602 10.91 51.0364 7.62296 55.9953C4.40129 60.8557 3.56142 66.5539 4.72233 70.1783C6.90638 76.997 14.8576 83.4629 23.9237 83.8852C47.4734 84.9816 58.3866 66.356 60.2031 55.2772C61.2856 48.6757 60.9111 43.9721 59.5688 40.543C58.2054 37.0601 55.9064 35.051 53.5039 33.7416M25.6889 47.7273L53.5039 33.7416M25.6889 47.7273L25.611 46.355C25.8689 46.3404 26.2997 46.1997 26.9389 45.7663M25.6889 47.7273L26.9389 45.7663M53.5039 33.7416C51.1996 32.4857 48.3539 31.4241 44.9698 31.905M53.5039 33.7416L44.9698 31.905M26.9389 45.7663C27.5602 45.345 28.2545 44.733 29.0213 43.9666M26.9389 45.7663L29.0213 43.9666M29.0213 43.9666C29.9423 43.046 30.8405 42.0401 31.7784 40.9898M29.0213 43.9666L31.7784 40.9898M31.7784 40.9898C32.4649 40.221 33.1726 39.4285 33.926 38.6282M31.7784 40.9898L33.926 38.6282M33.926 38.6282C37.9409 34.3638 41.5909 32.3851 44.9698 31.905M33.926 38.6282L44.9698 31.905" fill="url(#paint0_linear_380_2998)" stroke="#725D35" stroke-width="3"/>
<circle cx="2.14856" cy="2.14856" r="2.14856" transform="matrix(-1 0 0 1 48.1172 48.8306)" fill="#725D35"/>
<circle cx="2.14856" cy="2.14856" r="2.14856" transform="matrix(-1 0 0 1 37.8042 46.2523)" fill="#725D35"/>
<path d="M43.8357 56.8683C40.456 59.5686 36.1244 58.4886 34.6629 54.5813" stroke="#725D35" stroke-width="3" stroke-linecap="round"/>
<path d="M58.4684 65.4506C69.8439 53.0625 71.4585 34.0727 56.955 27.0421C42.4514 20.0115 29.8853 25.6233 22.1958 41.4546C17.8036 50.4973 26.1881 63.3763 26.1881 63.3763L29.9934 49.7769L29.4228 38.8659L40.712 42.5748L40.4477 50.1419L44.9392 44.1429L59.5051 49.3869L48.3444 55.6265L38.8037 69.9726C38.8037 69.9726 53.2785 71.1025 58.4684 65.4506Z" fill="url(#paint1_linear_380_2998)" stroke="#725D35" stroke-width="3"/>
<path d="M65.6191 12.6653L65.6048 13.0761L65.383 13.4222L53.8094 31.4856L51.1075 30.2524L57.0449 10.0981L57.1943 9.59079L57.6289 9.28939L63.4799 5.23197L65.9382 3.52728L65.8338 6.51695L65.6191 12.6653Z" fill="url(#paint2_linear_380_2998)" stroke="#725D35" stroke-width="3"/>
<defs>
<linearGradient id="paint0_linear_380_2998" x1="51.5739" y1="36.9015" x2="17.214" y2="82.0871" gradientUnits="userSpaceOnUse">
<stop stop-color="#FFF2D9"/>
<stop offset="0.671875" stop-color="#FDDC9B"/>
<stop offset="1" stop-color="#D6AE60"/>
</linearGradient>
<linearGradient id="paint1_linear_380_2998" x1="47.207" y1="23.8606" x2="31.4869" y2="68.8083" gradientUnits="userSpaceOnUse">
<stop stop-color="#C4C4C4"/>
<stop offset="0.177867" stop-color="white"/>
<stop offset="0.30223" stop-color="#C4C4C4"/>
<stop offset="0.969271" stop-color="#979797"/>
</linearGradient>
<linearGradient id="paint2_linear_380_2998" x1="61.4384" y1="7.57801" x2="58.0111" y2="30.8672" gradientUnits="userSpaceOnUse">
<stop stop-color="#FFDF6F"/>
<stop offset="1" stop-color="#FFB100"/>
</linearGradient>
</defs>
</svg>
