<svg width="105" height="111" viewBox="0 0 105 111" fill="none" xmlns="http://www.w3.org/2000/svg">
<path d="M0 111L11 70H94L105 111H0Z" fill="url(#paint0_linear_376_3243)"/>
<path d="M15.4753 1.8846C15.5364 0.826625 16.4122 0 17.472 0H88.5557C89.6266 0 90.5074 0.843509 90.5538 1.91339L93.5446 70.9134C93.5939 72.0509 92.6851 73 91.5465 73H13.4842C12.3342 73 11.4211 72.0326 11.4875 70.8846L15.4753 1.8846Z" fill="url(#paint1_linear_376_3243)"/>
<rect x="51.9207" width="2.31746" height="73" fill="#42361E"/>
<path fill-rule="evenodd" clip-rule="evenodd" d="M48.1286 32.2858C48.1286 31.7335 47.6808 31.2858 47.1286 31.2858H42.4922C41.9399 31.2858 41.4922 31.7335 41.4922 32.2858V40.7143C41.4922 41.2666 41.9399 41.7143 42.4922 41.7143H47.1286C47.6808 41.7143 48.1286 41.2666 48.1286 40.7143V32.2858ZM48.1285 34.1818C48.1285 33.6295 47.6808 33.1818 47.1285 33.1818H44.3883C43.836 33.1818 43.3883 33.6295 43.3883 34.1818V38.8182C43.3883 39.3705 43.836 39.8182 44.3883 39.8182H47.1285C47.6808 39.8182 48.1285 39.3705 48.1285 38.8182V34.1818Z" fill="#FFC645"/>
<path fill-rule="evenodd" clip-rule="evenodd" d="M57.7142 32.2338C57.7142 31.7102 58.1387 31.2858 58.6622 31.2858H63.3506C63.9029 31.2858 64.3506 31.7335 64.3506 32.2858V40.7143C64.3506 41.2666 63.9029 41.7143 63.3506 41.7143H58.6623C58.1387 41.7143 57.7142 41.2899 57.7142 40.7663C57.7142 40.2426 58.1387 39.8182 58.6623 39.8182H61.4544C62.0067 39.8182 62.4544 39.3705 62.4544 38.8182V34.1818C62.4544 33.6295 62.0067 33.1818 61.4544 33.1818H58.6622C58.1387 33.1818 57.7142 32.7574 57.7142 32.2338Z" fill="#FFC645"/>
<defs>
<linearGradient id="paint0_linear_376_3243" x1="52.5" y1="73" x2="52.7832" y2="105.005" gradientUnits="userSpaceOnUse">
<stop stop-color="#FFC645" stop-opacity="0.51"/>
<stop offset="1" stop-color="#FFC645" stop-opacity="0"/>
</linearGradient>
<linearGradient id="paint1_linear_376_3243" x1="52.5002" y1="0" x2="52.5002" y2="73" gradientUnits="userSpaceOnUse">
<stop stop-color="#725D35"/>
<stop offset="1" stop-color="#42361E"/>
</linearGradient>
</defs>
</svg>
