<svg width="154" height="49" viewBox="0 0 154 49" fill="none" xmlns="http://www.w3.org/2000/svg">
<path d="M0 39.121V0C2.77835 0 5.95361 1.77754 5.95361 4.74193V22.9193C7.14433 21.7339 8.73196 20.9435 11.1134 20.9435C19.4485 20.9435 21.0361 26.6391 21.0361 34.379V37.5403C21.0361 38.4174 20.2423 39.121 19.4485 39.121H15.4794V34.379C15.4794 30.8226 14.6856 28.0564 11.1134 28.0564C7.54124 28.0564 5.95361 30.8226 5.95361 34.379V37.1452C5.95361 38.3306 5.5567 39.121 4.36598 39.121H0Z" fill="#725D35"/>
<path d="M48.8196 12.6452H57.5515C57.5515 16.1574 56.7577 18.1774 53.5825 18.1774C52.7914 18.2788 49.8864 18.1774 48.8196 18.1774L48.8196 37.1452C48.8196 38.3306 48.4227 39.121 47.232 39.121H42.866L42.866 18.1774H34.9278V14.2258C34.9278 13.2377 35.7216 12.6452 36.9124 12.6452H42.866L42.866 0C45.6443 0 48.8196 1.77754 48.8196 4.74193L48.8196 12.6452Z" fill="#725D35"/>
<path d="M98.8299 12.6452H107.562C107.562 16.1574 106.768 18.1774 103.593 18.1774C102.802 18.2788 99.8967 18.1774 98.8299 18.1774L98.8299 37.1452C98.8299 38.3306 98.433 39.121 97.2423 39.121H92.8763L92.8763 18.1774H84.9381V14.2258C84.9381 13.2377 85.732 12.6452 86.9227 12.6452H92.8763L92.8763 0C95.6546 0 98.8299 1.77754 98.8299 4.74193L98.8299 12.6452Z" fill="#725D35"/>
<path d="M129.266 12.6452H137.998C137.998 16.1574 137.204 18.1774 134.029 18.1774C133.238 18.2788 130.333 18.1774 129.266 18.1774L129.266 37.1452C129.266 38.3306 128.869 39.121 127.679 39.121H123.313L123.313 18.1774H115.375V14.2258C115.375 13.2377 116.168 12.6452 117.359 12.6452H123.313L123.313 0C126.091 0 129.266 1.77754 129.266 4.74193L129.266 12.6452Z" fill="#725D35"/>
<path fill-rule="evenodd" clip-rule="evenodd" d="M31.7526 39.5161C37.0135 39.5161 41.2784 35.27 41.2784 30.0322C41.2784 24.7944 37.0135 20.5484 31.7526 20.5484C26.4916 20.5484 22.2268 24.7944 22.2268 30.0322C22.2268 35.27 26.4916 39.5161 31.7526 39.5161ZM31.7526 33.1935C33.5062 33.1935 34.9278 31.7782 34.9278 30.0322C34.9278 28.2863 33.5062 26.8709 31.7526 26.8709C29.9989 26.8709 28.5773 28.2863 28.5773 30.0322C28.5773 31.7782 29.9989 33.1935 31.7526 33.1935Z" fill="#725D35"/>
<path fill-rule="evenodd" clip-rule="evenodd" d="M81.7629 38.7258C87.0238 38.7258 91.2887 34.4797 91.2887 29.2419C91.2887 24.0041 87.0238 19.7581 81.7629 19.7581C76.502 19.7581 72.2371 24.0041 72.2371 29.2419C72.2371 34.4797 76.502 38.7258 81.7629 38.7258ZM81.7629 32.4032C83.5165 32.4032 84.9381 30.9879 84.9381 29.2419C84.9381 27.496 83.5165 26.0806 81.7629 26.0806C80.0092 26.0806 78.5876 27.496 78.5876 29.2419C78.5876 30.9879 80.0092 32.4032 81.7629 32.4032Z" fill="#725D35"/>
<path fill-rule="evenodd" clip-rule="evenodd" d="M140.952 38.9677C146.213 38.9677 150.478 34.7217 150.478 29.4839C150.478 24.2461 146.213 20 140.952 20C135.692 20 131.427 24.2461 131.427 29.4839C131.427 34.7217 135.692 38.9677 140.952 38.9677ZM140.952 32.6452C142.706 32.6452 144.128 31.2298 144.128 29.4839C144.128 27.7379 142.706 26.3226 140.952 26.3226C139.199 26.3226 137.777 27.7379 137.777 29.4839C137.777 31.2298 139.199 32.6452 140.952 32.6452Z" fill="#725D35"/>
<path fill-rule="evenodd" clip-rule="evenodd" d="M120.391 23.8C120.391 20.7993 116.913 19 113.87 19V20.4304C112.778 19.9966 111.587 19.7581 110.34 19.7581C105.079 19.7581 100.814 24.0041 100.814 29.2419C100.814 34.4797 105.079 38.7258 110.34 38.7258C111.587 38.7258 112.778 38.4873 113.87 38.0535V39H118.652C119.956 39 120.391 38.2 120.391 37V23.8ZM113.515 29.2419C113.515 30.9879 112.094 32.4032 110.34 32.4032C108.587 32.4032 107.165 30.9879 107.165 29.2419C107.165 27.496 108.587 26.0806 110.34 26.0806C112.094 26.0806 113.515 27.496 113.515 29.2419Z" fill="#725D35"/>
<path fill-rule="evenodd" clip-rule="evenodd" d="M57.5515 44.2581C57.5515 47.2224 54.3763 49 51.5979 49V22.5242C51.5979 21.433 51.9948 20.5484 53.5825 20.5484H57.5515V21.6009C58.8594 20.9283 60.3439 20.5484 61.9175 20.5484C67.1785 20.5484 71.4433 24.7944 71.4433 30.0322C71.4433 35.27 67.1785 39.5161 61.9175 39.5161C60.3439 39.5161 58.8594 39.1362 57.5515 38.4635L57.5515 44.2581ZM65.0928 30.0322C65.0928 31.7782 63.6712 33.1935 61.9175 33.1935C60.1639 33.1935 58.7423 31.7782 58.7423 30.0322C58.7423 28.2863 60.1639 26.8709 61.9175 26.8709C63.6712 26.8709 65.0928 28.2863 65.0928 30.0322Z" fill="#725D35"/>
</svg>
